<svg width="80" height="80" viewBox="0 0 80 80" fill="none" xmlns="http://www.w3.org/2000/svg">
<path fill-rule="evenodd" clip-rule="evenodd" d="M22.4867 34.7761C22.4867 19.0553 34.1316 17.6 40.5361 17.6C46.9408 17.6 58.5861 19.0556 58.5861 34.7761C58.5861 50.1087 46.7469 52.0496 40.5361 52.0496C34.4229 52.0496 22.4867 50.1087 22.4867 34.7761V34.7761ZM47.3293 34.1938L49.2701 48.7499C50.3376 48.1676 56.1597 45.3538 56.0633 34.7758C56.0633 22.3543 48.4939 19.055 41.9923 19.055L47.3293 34.1938V34.1938ZM40.5361 31.2825H41.4097V19.0553H39.7602V31.2825H40.5361ZM40.5361 50.594C44.127 50.594 47.3293 49.6235 48.6881 48.9441L41.6033 33.5147H39.4689L32.3847 48.9441C33.7435 49.6232 36.9457 50.594 40.5361 50.594V50.594ZM39.0808 19.0553C32.5789 19.0553 25.0095 22.3547 25.0095 34.7761C24.9124 45.3538 30.7352 48.1679 31.8027 48.7502L33.8406 34.1941L39.0808 19.0553Z" fill="white"/>
<path fill-rule="evenodd" clip-rule="evenodd" d="M20.2943 55.2664H22.2033L26.4976 62.3763H24.4697L21.225 57.0081L19.5309 59.8471H22.2986L23.1097 61.1832H18.7198L18.0039 62.3763H16L20.2943 55.2664V55.2664ZM58.4204 55.2664H60.353L64.6237 62.3763H62.5955L59.375 57.0081L57.6569 59.8471H60.4246L61.236 61.1832H56.8698L56.13 62.3763H54.1258L58.4204 55.2664V55.2664ZM39.6913 62.4H41.2898C43.1509 62.3763 43.8903 61.3504 43.8903 59.6802V55.2664H42.1486V59.9901C42.1486 60.8731 41.5286 60.9923 40.9554 61.016H38.4505C37.8779 60.9923 37.2577 60.8731 37.2577 59.9901V55.2664H35.4923V59.6802C35.4923 61.3504 36.2557 62.3763 38.1167 62.4H39.6913ZM28.1438 58.8212V57.9385C28.1678 57.3422 28.287 56.7217 29.1221 56.7456H34.4903V55.2664H29.0981C27.4283 55.2664 26.402 56.0298 26.378 57.8905V59.7755C26.402 61.6365 27.428 62.376 29.0981 62.376H34.4903V60.9204H29.1221C28.287 60.9204 28.1678 60.3241 28.1438 59.7273V58.8212V58.8212ZM46.7776 62.3763H45.0358V55.2664H51.5498C53.8163 55.2664 54.3886 58.2726 52.814 59.3222C53.5055 59.5847 53.6017 60.4434 53.6491 60.7298L53.697 62.3763H51.9789L51.9316 60.9207C51.8836 60.3005 51.4782 59.8711 50.8577 59.8711H47.5411L47.2073 58.3918H51.0483C51.6451 58.3918 51.9786 58.1293 51.9786 57.6044C51.9786 57.1034 51.6448 56.7933 51.0483 56.7933H46.7776V62.3763V62.3763Z" fill="white"/>
</svg>
