<svg width="55" height="55" viewBox="0 0 55 55" fill="none" xmlns="http://www.w3.org/2000/svg">
<path d="M20.625 24.6354C17.1417 24.6354 14.3229 21.8167 14.3229 18.3333C14.3229 14.85 17.1417 12.0312 20.625 12.0312C24.1083 12.0312 26.9271 14.85 26.9271 18.3333C26.9271 21.8167 24.1083 24.6354 20.625 24.6354ZM20.625 15.4687C19.0437 15.4687 17.7604 16.7521 17.7604 18.3333C17.7604 19.9146 19.0437 21.1979 20.625 21.1979C22.2062 21.1979 23.4896 19.9146 23.4896 18.3333C23.4896 16.7521 22.2062 15.4687 20.625 15.4687Z" fill="#020202"/>
<path d="M34.375 52.1354H20.625C8.18126 52.1354 2.86459 46.8188 2.86459 34.375V20.625C2.86459 8.18125 8.18126 2.86459 20.625 2.86459H29.7917C30.7313 2.86459 31.5104 3.64375 31.5104 4.58334C31.5104 5.52292 30.7313 6.30209 29.7917 6.30209H20.625C10.0604 6.30209 6.30209 10.0604 6.30209 20.625V34.375C6.30209 44.9396 10.0604 48.6979 20.625 48.6979H34.375C44.9396 48.6979 48.6979 44.9396 48.6979 34.375V22.9167C48.6979 21.9771 49.4771 21.1979 50.4167 21.1979C51.3563 21.1979 52.1354 21.9771 52.1354 22.9167V34.375C52.1354 46.8188 46.8188 52.1354 34.375 52.1354Z" fill="#020202"/>
<path d="M48.6979 13.1771H36.0938C35.1542 13.1771 34.375 12.3979 34.375 11.4583C34.375 10.5188 35.1542 9.73959 36.0938 9.73959H48.6979C49.6375 9.73959 50.4167 10.5188 50.4167 11.4583C50.4167 12.3979 49.6375 13.1771 48.6979 13.1771Z" fill="#020202"/>
<path d="M42.3958 19.4792C41.4563 19.4792 40.6771 18.7 40.6771 17.7604V5.15625C40.6771 4.21667 41.4563 3.4375 42.3958 3.4375C43.3354 3.4375 44.1146 4.21667 44.1146 5.15625V17.7604C44.1146 18.7 43.3354 19.4792 42.3958 19.4792Z" fill="#020202"/>
<path d="M6.11874 45.1458C5.56874 45.1458 5.01874 44.8708 4.69791 44.3896C4.17082 43.6104 4.37707 42.5333 5.15624 42.0062L16.4542 34.4208C18.9292 32.7708 22.3437 32.9542 24.5896 34.8562L25.3458 35.5208C26.4917 36.5062 28.4396 36.5062 29.5625 35.5208L39.0958 27.3396C41.5479 25.2542 45.3521 25.2542 47.8042 27.3396L51.5396 30.5479C52.25 31.1667 52.3417 32.2438 51.7229 32.9771C51.1042 33.6875 50.0271 33.7792 49.2937 33.1604L45.5583 29.9521C44.4125 28.9667 42.4646 28.9667 41.3417 29.9521L31.8083 38.1333C29.3792 40.2187 25.5521 40.2187 23.1 38.1333L22.3437 37.4687C21.2896 36.575 19.5479 36.4833 18.3792 37.2854L7.10416 44.8708C6.78332 45.0542 6.43957 45.1458 6.11874 45.1458Z" fill="#020202"/>
</svg>
