<svg width="29" height="29" viewBox="0 0 29 29" fill="none" xmlns="http://www.w3.org/2000/svg">
<path d="M18.0002 28.6666H12.0002V19H10.7335C9.96015 19 9.3335 18.3733 9.3335 17.6V15.0666C9.3335 14.2933 9.96015 13.6666 10.7335 13.6666H12.0002V10.3333C12.0002 7.57331 14.2402 5.33331 17.0002 5.33331H20.6002C21.3735 5.33331 22.0002 5.95996 22.0002 6.7333V9.93333C22.0002 10.7067 21.3735 11.3333 20.6002 11.3333H18.0002V13.6666H20.5068C20.9335 13.6666 21.3202 13.8533 21.5868 14.1733C21.8535 14.4933 21.9602 14.92 21.8802 15.3333L21.3735 17.8666C21.2402 18.52 20.6668 18.9866 20.0002 18.9866H18.0002V28.6666V28.6666ZM14.0002 26.6666H16.0002V17H19.5202L19.7868 15.6666H16.0135V10.7333C16.0135 9.95996 16.6402 9.33331 17.4135 9.33331H20.0135V7.33331H17.0002C15.3468 7.33331 14.0002 8.67998 14.0002 10.3333V15.6666H11.3335V17H14.0002V26.6666Z" fill="white"/>
<path d="M18.3333 28.6667H10.3333C3.09333 28.6667 0 25.5733 0 18.3333V10.3333C0 3.09333 3.09333 0 10.3333 0H18.3333C25.5733 0 28.6667 3.09333 28.6667 10.3333V18.3333C28.6667 25.5733 25.5733 28.6667 18.3333 28.6667ZM10.3333 2C4.18667 2 2 4.18667 2 10.3333V18.3333C2 24.48 4.18667 26.6667 10.3333 26.6667H18.3333C24.48 26.6667 26.6667 24.48 26.6667 18.3333V10.3333C26.6667 4.18667 24.48 2 18.3333 2H10.3333Z" fill="white"/>
</svg>
