<svg width="55" height="55" viewBox="0 0 55 55" fill="none" xmlns="http://www.w3.org/2000/svg">
<path d="M45.6042 52.1354H9.39584C4.99584 52.1354 2.86459 49.8896 2.86459 45.3063V36.0479C2.86459 31.4417 4.99584 29.2188 9.39584 29.2188H45.6042C50.0042 29.2188 52.1354 31.4646 52.1354 36.0479V45.3063C52.1354 49.8896 50.0042 52.1354 45.6042 52.1354ZM9.39584 32.6563C7.08125 32.6563 6.30209 33.1375 6.30209 36.0479V45.3063C6.30209 48.2167 7.08125 48.6979 9.39584 48.6979H45.6042C47.9188 48.6979 48.6979 48.2167 48.6979 45.3063V36.0479C48.6979 33.1375 47.9188 32.6563 45.6042 32.6563H9.39584Z" fill="white"/>
<path d="M45.6042 25.7813H9.39584C4.99584 25.7813 2.86459 23.5354 2.86459 18.9521V9.69376C2.86459 5.08751 4.99584 2.86459 9.39584 2.86459H45.6042C50.0042 2.86459 52.1354 5.11043 52.1354 9.69376V18.9521C52.1354 23.5354 50.0042 25.7813 45.6042 25.7813ZM9.39584 6.30209C7.08125 6.30209 6.30209 6.78334 6.30209 9.69376V18.9521C6.30209 21.8625 7.08125 22.3438 9.39584 22.3438H45.6042C47.9188 22.3438 48.6979 21.8625 48.6979 18.9521V9.69376C48.6979 6.78334 47.9188 6.30209 45.6042 6.30209H9.39584V6.30209Z" fill="white"/>
</svg>
