<svg width="18" height="20" viewBox="0 0 18 20" fill="none" xmlns="http://www.w3.org/2000/svg">
<path d="M6.01043 19.25C5.82043 19.25 5.63043 19.18 5.48043 19.03L0.47043 14.02C0.18043 13.73 0.18043 13.25 0.47043 12.96C0.76043 12.67 1.24043 12.67 1.53043 12.96L6.54043 17.97C6.83043 18.26 6.83043 18.74 6.54043 19.03C6.39043 19.17 6.20043 19.25 6.01043 19.25Z" fill="white"/>
<path d="M6.00977 19.25C5.59977 19.25 5.25977 18.91 5.25977 18.5V1.5C5.25977 1.09 5.59977 0.75 6.00977 0.75C6.41977 0.75 6.75977 1.09 6.75977 1.5V18.5C6.75977 18.91 6.41977 19.25 6.00977 19.25Z" fill="white"/>
<path d="M17.0104 7.26C16.8204 7.26 16.6304 7.19 16.4804 7.04L11.4704 2.03C11.1804 1.74 11.1804 1.26 11.4704 0.970002C11.7604 0.680002 12.2404 0.680002 12.5304 0.970002L17.5404 5.98C17.8304 6.27 17.8304 6.75 17.5404 7.04C17.3904 7.19 17.2004 7.26 17.0104 7.26Z" fill="white"/>
<path d="M11.9902 19.25C11.5802 19.25 11.2402 18.91 11.2402 18.5V1.5C11.2402 1.09 11.5802 0.75 11.9902 0.75C12.4002 0.75 12.7402 1.09 12.7402 1.5V18.5C12.7402 18.91 12.4102 19.25 11.9902 19.25Z" fill="white"/>
</svg>
