<svg width="33" height="33" viewBox="0 0 33 33" fill="none" xmlns="http://www.w3.org/2000/svg">
<path d="M16.5 21.5C10.98 21.5 6.5 17.1667 6.5 11.8333C6.5 6.50001 10.98 2.16667 16.5 2.16667C22.02 2.16667 26.5 6.50001 26.5 11.8333C26.5 17.1667 22.02 21.5 16.5 21.5ZM16.5 4.16667C12.0867 4.16667 8.5 7.60667 8.5 11.8333C8.5 16.06 12.0867 19.5 16.5 19.5C20.9133 19.5 24.5 16.06 24.5 11.8333C24.5 7.60667 20.9133 4.16667 16.5 4.16667Z" fill="white"/>
<path d="M21.3266 30.8333C20.9533 30.8333 20.5799 30.74 20.1932 30.5666L16.6066 28.8733C16.5666 28.86 16.4199 28.86 16.3666 28.8733L12.8066 30.5533C12.0199 30.9266 11.1933 30.9133 10.5533 30.5C9.88661 30.0733 9.49994 29.2867 9.51327 28.3533L9.52658 18.5133C9.52658 17.9666 9.95325 17.4866 10.5266 17.5133C11.0732 17.5133 11.5266 17.9666 11.5266 18.5133L11.5133 28.3533C11.5133 28.6467 11.5933 28.7933 11.6333 28.8067C11.6599 28.82 11.7799 28.8333 11.9666 28.74L15.5399 27.0466C16.1133 26.78 16.8999 26.78 17.4733 27.0466L21.0599 28.74C21.2466 28.8333 21.3666 28.82 21.3933 28.8067C21.4333 28.78 21.5133 28.6333 21.5133 28.3533V18.2733C21.5133 17.7266 21.9666 17.2733 22.5133 17.2733C23.0599 17.2733 23.5133 17.7266 23.5133 18.2733V28.3533C23.5133 29.3 23.1266 30.0733 22.4599 30.5C22.1133 30.7266 21.7266 30.8333 21.3266 30.8333Z" fill="white"/>
</svg>
