<svg width="15" height="15" viewBox="0 0 15 15" fill="none" xmlns="http://www.w3.org/2000/svg">
<mask id="path-1-inside-1_124_3250" fill="white">
<path d="M9.375 12.9188C9.25625 12.9188 9.1375 12.875 9.04375 12.7813L4.96875 8.70625C4.30625 8.04375 4.30625 6.95625 4.96875 6.29375L9.04375 2.21875C9.225 2.0375 9.525 2.0375 9.70625 2.21875C9.8875 2.4 9.8875 2.7 9.70625 2.88125L5.63125 6.95625C5.33125 7.25625 5.33125 7.74375 5.63125 8.04375L9.70625 12.1188C9.8875 12.3 9.8875 12.6 9.70625 12.7813C9.6125 12.8688 9.49375 12.9188 9.375 12.9188Z"/>
</mask>
<path d="M9.375 12.9188C9.25625 12.9188 9.1375 12.875 9.04375 12.7813L4.96875 8.70625C4.30625 8.04375 4.30625 6.95625 4.96875 6.29375L9.04375 2.21875C9.225 2.0375 9.525 2.0375 9.70625 2.21875C9.8875 2.4 9.8875 2.7 9.70625 2.88125L5.63125 6.95625C5.33125 7.25625 5.33125 7.74375 5.63125 8.04375L9.70625 12.1188C9.8875 12.3 9.8875 12.6 9.70625 12.7813C9.6125 12.8688 9.49375 12.9188 9.375 12.9188Z" fill="white"/>
<path d="M9.04375 12.7813L9.75086 12.0741L9.75086 12.0741L9.04375 12.7813ZM4.96875 8.70625L4.26165 9.41336L4.26165 9.41336L4.96875 8.70625ZM4.96875 6.29375L4.26165 5.58664L4.26165 5.58664L4.96875 6.29375ZM9.04375 2.21875L9.75086 2.92586L9.75086 2.92586L9.04375 2.21875ZM9.70625 2.88125L8.99915 2.17414L8.99915 2.17414L9.70625 2.88125ZM5.63125 6.95625L6.33836 7.66336L6.33836 7.66336L5.63125 6.95625ZM5.63125 8.04375L4.92415 8.75086L4.92415 8.75086L5.63125 8.04375ZM9.70625 12.1188L10.4134 11.4116L10.4134 11.4116L9.70625 12.1188ZM9.70625 12.7813L10.3886 13.5123L10.4012 13.5005L10.4134 13.4884L9.70625 12.7813ZM9.375 11.9188C9.50716 11.9188 9.64719 11.9705 9.75086 12.0741L8.33665 13.4884C8.62782 13.7795 9.00535 13.9188 9.375 13.9188V11.9188ZM9.75086 12.0741L5.67586 7.99914L4.26165 9.41336L8.33665 13.4884L9.75086 12.0741ZM5.67586 7.99914C5.40388 7.72717 5.40388 7.27283 5.67586 7.00086L4.26165 5.58664C3.20862 6.63967 3.20862 8.36033 4.26165 9.41336L5.67586 7.99914ZM5.67586 7.00086L9.75086 2.92586L8.33665 1.51164L4.26165 5.58664L5.67586 7.00086ZM9.75086 2.92586C9.54159 3.13513 9.20842 3.13513 8.99915 2.92586L10.4134 1.51164C9.84159 0.93987 8.90842 0.93987 8.33665 1.51164L9.75086 2.92586ZM8.99915 2.92586C8.78987 2.71658 8.78987 2.38342 8.99915 2.17414L10.4134 3.58836C10.9851 3.01658 10.9851 2.08342 10.4134 1.51164L8.99915 2.92586ZM8.99915 2.17414L4.92415 6.24914L6.33836 7.66336L10.4134 3.58836L8.99915 2.17414ZM4.92415 6.24914C4.23362 6.93967 4.23362 8.06033 4.92415 8.75086L6.33836 7.33664C6.42888 7.42717 6.42888 7.57283 6.33836 7.66336L4.92415 6.24914ZM4.92415 8.75086L8.99915 12.8259L10.4134 11.4116L6.33836 7.33664L4.92415 8.75086ZM8.99915 12.8259C8.78987 12.6166 8.78987 12.2834 8.99915 12.0741L10.4134 13.4884C10.9851 12.9166 10.9851 11.9834 10.4134 11.4116L8.99915 12.8259ZM9.02393 12.0502C9.09461 11.9842 9.21345 11.9188 9.375 11.9188V13.9188C9.77406 13.9188 10.1304 13.7533 10.3886 13.5123L9.02393 12.0502Z" fill="white" mask="url(#path-1-inside-1_124_3250)"/>
</svg>
