<svg width="30" height="35" viewBox="0 0 30 35" fill="none" xmlns="http://www.w3.org/2000/svg">
<path d="M29.1666 11.1667C27.4166 3.46667 20.7 0 14.8 0C14.8 0 14.8 0 14.7833 0C8.89996 0 2.16663 3.45 0.41663 11.15C-1.53337 19.75 3.7333 27.0333 8.49996 31.6167C10.2666 33.3167 12.5333 34.1667 14.8 34.1667C17.0666 34.1667 19.3333 33.3167 21.0833 31.6167C25.85 27.0333 31.1166 19.7667 29.1666 11.1667ZM14.8 19.5167C11.9 19.5167 9.54996 17.1667 9.54996 14.2667C9.54996 11.3667 11.9 9.01667 14.8 9.01667C17.7 9.01667 20.05 11.3667 20.05 14.2667C20.05 17.1667 17.7 19.5167 14.8 19.5167Z" fill="#020202"/>
</svg>
