<svg width="33" height="33" viewBox="0 0 33 33" fill="none" xmlns="http://www.w3.org/2000/svg">
<path d="M18.3669 23.7268H15.0202C12.8335 23.7268 11.0602 21.8868 11.0602 19.6201C11.0602 19.0734 11.5135 18.6201 12.0602 18.6201C12.6069 18.6201 13.0602 19.0734 13.0602 19.6201C13.0602 20.7801 13.9402 21.7268 15.0202 21.7268H18.3669C19.2335 21.7268 19.9535 20.9534 19.9535 20.0201C19.9535 18.8601 19.5402 18.6334 18.8602 18.3934L13.4869 16.5001C12.4469 16.1401 11.0469 15.3668 11.0469 12.9801C11.0469 10.9268 12.6602 9.27344 14.6335 9.27344H17.9802C20.1669 9.27344 21.9402 11.1134 21.9402 13.3801C21.9402 13.9268 21.4869 14.3801 20.9402 14.3801C20.3935 14.3801 19.9402 13.9268 19.9402 13.3801C19.9402 12.2201 19.0602 11.2734 17.9802 11.2734H14.6335C13.7669 11.2734 13.0469 12.0468 13.0469 12.9801C13.0469 14.1401 13.4602 14.3668 14.1402 14.6068L19.5135 16.5001C20.5535 16.8601 21.9535 17.6334 21.9535 20.0201C21.9402 22.0601 20.3402 23.7268 18.3669 23.7268Z" fill="white"/>
<path d="M16.5 25.5C15.9533 25.5 15.5 25.0467 15.5 24.5V8.5C15.5 7.95333 15.9533 7.5 16.5 7.5C17.0467 7.5 17.5 7.95333 17.5 8.5V24.5C17.5 25.0467 17.0467 25.5 16.5 25.5Z" fill="white"/>
<path d="M16.4998 30.8334C8.59317 30.8334 2.1665 24.4067 2.1665 16.5001C2.1665 8.59342 8.59317 2.16675 16.4998 2.16675C24.4065 2.16675 30.8332 8.59342 30.8332 16.5001C30.8332 24.4067 24.4065 30.8334 16.4998 30.8334ZM16.4998 4.16675C9.69984 4.16675 4.1665 9.70008 4.1665 16.5001C4.1665 23.3001 9.69984 28.8334 16.4998 28.8334C23.2998 28.8334 28.8332 23.3001 28.8332 16.5001C28.8332 9.70008 23.2998 4.16675 16.4998 4.16675Z" fill="white"/>
</svg>
