<svg width="29" height="29" viewBox="0 0 29 29" fill="none" xmlns="http://www.w3.org/2000/svg">
<path d="M18.3333 28.6667H10.3333C3.09333 28.6667 0 25.5733 0 18.3333V10.3333C0 3.09333 3.09333 0 10.3333 0H18.3333C25.5733 0 28.6667 3.09333 28.6667 10.3333V18.3333C28.6667 25.5733 25.5733 28.6667 18.3333 28.6667ZM10.3333 2C4.18667 2 2 4.18667 2 10.3333V18.3333C2 24.48 4.18667 26.6667 10.3333 26.6667H18.3333C24.48 26.6667 26.6667 24.48 26.6667 18.3333V10.3333C26.6667 4.18667 24.48 2 18.3333 2H10.3333Z" fill="white"/>
<path d="M14.3337 20C11.2137 20 8.66699 17.4533 8.66699 14.3333C8.66699 11.2133 11.2137 8.66663 14.3337 8.66663C17.4537 8.66663 20.0003 11.2133 20.0003 14.3333C20.0003 17.4533 17.4537 20 14.3337 20ZM14.3337 10.6666C12.307 10.6666 10.667 12.3066 10.667 14.3333C10.667 16.36 12.307 18 14.3337 18C16.3603 18 18.0003 16.36 18.0003 14.3333C18.0003 12.3066 16.3603 10.6666 14.3337 10.6666Z" fill="white"/>
<path d="M21.0003 8.33331C20.827 8.33331 20.6537 8.29331 20.4937 8.22664C20.3337 8.15997 20.187 8.06664 20.0537 7.94664C19.9337 7.81331 19.827 7.66664 19.7603 7.50664C19.6937 7.34664 19.667 7.17331 19.667 6.99997C19.667 6.82664 19.6937 6.65331 19.7603 6.49331C19.8403 6.31997 19.9337 6.18664 20.0537 6.05331C20.1203 5.99997 20.187 5.93331 20.2537 5.89331C20.3337 5.83997 20.4137 5.79997 20.4937 5.77331C20.5737 5.73331 20.6537 5.70664 20.747 5.69331C21.1737 5.59997 21.627 5.74664 21.947 6.05331C22.067 6.18664 22.1603 6.31997 22.227 6.49331C22.2937 6.65331 22.3337 6.82664 22.3337 6.99997C22.3337 7.17331 22.2937 7.34664 22.227 7.50664C22.1603 7.66664 22.067 7.81331 21.947 7.94664C21.8137 8.06664 21.667 8.15997 21.507 8.22664C21.347 8.29331 21.1737 8.33331 21.0003 8.33331Z" fill="white"/>
</svg>
