<svg width="40" height="40" viewBox="0 0 40 40" fill="none" xmlns="http://www.w3.org/2000/svg">
<rect x="0.5" y="0.5" width="39" height="39" rx="4.5" fill="white"/>
<path d="M13.54 27.52C12.93 27.52 12.36 27.31 11.95 26.92C11.43 26.43 11.18 25.69 11.27 24.89L11.64 21.65C11.71 21.04 12.08 20.23 12.51 19.79L20.72 11.1C22.77 8.92999 24.91 8.86999 27.08 10.92C29.25 12.97 29.31 15.11 27.26 17.28L19.05 25.97C18.63 26.42 17.85 26.84 17.24 26.94L14.02 27.49C13.85 27.5 13.7 27.52 13.54 27.52ZM23.93 10.91C23.16 10.91 22.49 11.39 21.81 12.11L13.6 20.81C13.4 21.02 13.17 21.52 13.13 21.81L12.76 25.05C12.72 25.38 12.8 25.65 12.98 25.82C13.16 25.99 13.43 26.05 13.76 26L16.98 25.45C17.27 25.4 17.75 25.14 17.95 24.93L26.16 16.24C27.4 14.92 27.85 13.7 26.04 12C25.24 11.23 24.55 10.91 23.93 10.91Z" fill="#020202"/>
<path d="M25.34 18.95C25.32 18.95 25.29 18.95 25.27 18.95C22.15 18.64 19.64 16.27 19.16 13.17C19.1 12.76 19.38 12.38 19.79 12.31C20.2 12.25 20.58 12.53 20.65 12.94C21.03 15.36 22.99 17.22 25.43 17.46C25.84 17.5 26.14 17.87 26.1 18.28C26.05 18.66 25.72 18.95 25.34 18.95Z" fill="#020202"/>
<path d="M29 30.75H11C10.59 30.75 10.25 30.41 10.25 30C10.25 29.59 10.59 29.25 11 29.25H29C29.41 29.25 29.75 29.59 29.75 30C29.75 30.41 29.41 30.75 29 30.75Z" fill="#020202"/>
<rect x="0.5" y="0.5" width="39" height="39" rx="4.5" stroke="#020202"/>
</svg>
