<svg width="74" height="74" viewBox="0 0 74 74" fill="none" xmlns="http://www.w3.org/2000/svg">
<path d="M54.8835 26.7633H19.1168C18.4076 26.7633 17.7601 26.4551 17.3285 25.9001C16.8968 25.3451 16.7118 24.6359 16.866 23.9576L19.3943 11.8708C20.2268 7.89326 22.046 3.85417 29.1376 3.85417H44.8627C51.9852 3.85417 53.8043 7.9241 54.606 11.8708L57.1343 23.9576C57.2885 24.6359 57.1035 25.3451 56.6718 25.9001C56.2402 26.4551 55.5927 26.7633 54.8835 26.7633ZM21.9535 22.1383H52.016L50.0735 12.8575C49.4568 9.89745 48.7476 8.51004 44.8318 8.51004H29.1068C25.2218 8.51004 24.4818 9.89745 23.8652 12.8575L21.9535 22.1383Z" fill="#292D32"/>
<path d="M54.7904 51.3374H50.597C46.527 51.3374 45.6945 48.809 45.232 47.4524L44.7695 46.0957C44.2762 44.6157 44.2762 44.6156 42.7037 44.6156H31.2645C29.692 44.6156 29.692 44.6465 29.1987 46.0957L28.7362 47.4524C28.2737 48.809 27.4412 51.3374 23.3712 51.3374H19.1779C17.2354 51.3374 15.3545 50.5048 14.0595 49.0864C12.7954 47.6989 12.1479 45.8181 12.3329 43.9373L13.597 30.3399C13.9979 26.0849 15.3853 22.1381 22.7237 22.1381H51.2445C58.5829 22.1381 59.9704 26.0849 60.3712 30.3399L61.6354 43.9682C61.8204 45.849 61.1728 47.7298 59.9087 49.1173C58.6137 50.5356 56.7329 51.3374 54.7904 51.3374ZM49.8878 46.6815C49.9495 46.6815 50.1962 46.7124 50.597 46.7124H54.7904C55.4379 46.7124 56.0546 46.4656 56.4862 45.9722C56.8871 45.5406 57.072 44.9549 57.0412 44.369L55.777 30.7406C55.5304 27.9964 55.407 26.7323 51.2754 26.7323H22.7545C18.6229 26.7323 18.4995 27.9964 18.2529 30.7406L16.9887 44.369C16.927 44.9549 17.112 45.5406 17.5437 45.9722C17.9754 46.4347 18.592 46.7124 19.2395 46.7124H23.4329C24.0495 46.7124 24.2345 46.6198 24.2653 46.6198C24.2345 46.6198 24.327 46.2498 24.4195 46.0031L24.8821 44.6464C25.4679 42.9198 26.4237 39.9906 31.3262 39.9906H42.7654C47.2362 39.9906 48.377 42.1799 49.1787 44.5849L49.6412 45.9722C49.7029 46.2497 49.7953 46.5582 49.8878 46.6815C49.8878 46.6815 49.857 46.6815 49.8878 46.6815Z" fill="#292D32"/>
<path d="M19.1173 20.0417H16.8665C15.6023 20.0417 14.554 18.9933 14.554 17.7292C14.554 16.465 15.6023 15.4167 16.8665 15.4167H19.1173C20.3815 15.4167 21.4298 16.465 21.4298 17.7292C21.4298 18.9933 20.3815 20.0417 19.1173 20.0417Z" fill="#292D32"/>
<path d="M57.1335 20.0417H54.8827C53.6186 20.0417 52.5702 18.9933 52.5702 17.7292C52.5702 16.465 53.6186 15.4167 54.8827 15.4167H57.1335C58.3977 15.4167 59.446 16.465 59.446 17.7292C59.446 18.9933 58.3977 20.0417 57.1335 20.0417Z" fill="#292D32"/>
<path d="M30.2788 35.7052H23.5571C22.2929 35.7052 21.2446 34.6569 21.2446 33.3927C21.2446 32.1286 22.2929 31.0802 23.5571 31.0802H30.2788C31.543 31.0802 32.5913 32.1286 32.5913 33.3927C32.5913 34.6569 31.5738 35.7052 30.2788 35.7052Z" fill="#292D32"/>
<path d="M50.4123 35.7052H43.6906C42.4264 35.7052 41.3781 34.6569 41.3781 33.3927C41.3781 32.1286 42.4264 31.0802 43.6906 31.0802H50.4123C51.6764 31.0802 52.7248 32.1286 52.7248 33.3927C52.7248 34.6569 51.6764 35.7052 50.4123 35.7052Z" fill="#292D32"/>
<path d="M37 57.8125C35.7358 57.8125 34.6875 56.7642 34.6875 55.5V52.4167C34.6875 51.1525 35.7358 50.1042 37 50.1042C38.2642 50.1042 39.3125 51.1525 39.3125 52.4167V55.5C39.3125 56.7642 38.2642 57.8125 37 57.8125Z" fill="#292D32"/>
<path d="M37 70.1458C35.7358 70.1458 34.6875 69.0975 34.6875 67.8333V64.75C34.6875 63.4858 35.7358 62.4375 37 62.4375C38.2642 62.4375 39.3125 63.4858 39.3125 64.75V67.8333C39.3125 69.0975 38.2642 70.1458 37 70.1458Z" fill="#292D32"/>
<path d="M6.16695 70.1461C5.98195 70.1461 5.79698 70.1152 5.61198 70.0844C4.37864 69.776 3.6078 68.5119 3.91613 67.2786L6.99947 54.9453C7.3078 53.7119 8.5411 52.9411 9.80526 53.2495C11.0386 53.5578 11.8094 54.8219 11.5011 56.0552L8.41777 68.3886C8.14027 69.4369 7.21529 70.1461 6.16695 70.1461Z" fill="#292D32"/>
<path d="M67.8339 70.1456C66.7856 70.1456 65.8606 69.4364 65.5831 68.3881L62.4997 56.0548C62.1914 54.8214 62.9314 53.5573 64.1956 53.249C65.4289 52.9407 66.6931 53.6806 67.0014 54.9448L70.0847 67.2781C70.3931 68.5115 69.653 69.7756 68.3889 70.0839C68.2039 70.1147 68.0189 70.1456 67.8339 70.1456Z" fill="#292D32"/>
</svg>
