<svg width="33" height="33" viewBox="0 0 33 33" fill="none" xmlns="http://www.w3.org/2000/svg">
<path d="M27.1661 16.1668H5.83274C5.52607 16.1668 5.24607 16.0334 5.0594 15.7934C4.87274 15.5668 4.79274 15.2468 4.8594 14.9534L6.36607 7.75344C6.8594 5.4201 7.8594 3.27344 11.8194 3.27344H21.1927C25.1527 3.27344 26.1527 5.43344 26.6461 7.75344L28.1527 14.9668C28.2194 15.2601 28.1394 15.5668 27.9527 15.8068C27.7527 16.0334 27.4727 16.1668 27.1661 16.1668ZM7.0594 14.1668H25.9261L24.6727 8.16677C24.2994 6.4201 23.8594 5.27344 21.1794 5.27344H11.8194C9.1394 5.27344 8.6994 6.4201 8.32607 8.16677L7.0594 14.1668Z" fill="white"/>
<path d="M27.1128 30.8334H24.6061C22.4461 30.8334 22.0328 29.5934 21.7661 28.7801L21.4995 27.9801C21.1528 26.9668 21.1128 26.8334 19.9128 26.8334H13.0861C11.8861 26.8334 11.8061 27.0601 11.4995 27.9801L11.2328 28.7801C10.9528 29.6068 10.5528 30.8334 8.3928 30.8334H5.88613C4.8328 30.8334 3.81946 30.3934 3.1128 29.6201C2.41946 28.8601 2.08613 27.8468 2.17946 26.8334L2.92613 18.7134C3.12613 16.5134 3.7128 14.1668 7.9928 14.1668H25.0061C29.2861 14.1668 29.8595 16.5134 30.0728 18.7134L30.8195 26.8334C30.9128 27.8468 30.5795 28.8601 29.8861 29.6201C29.1795 30.3934 28.1661 30.8334 27.1128 30.8334ZM13.0861 24.8334H19.9128C22.3395 24.8334 22.9128 25.9134 23.3928 27.3268L23.6728 28.1534C23.8995 28.8334 23.8995 28.8468 24.6195 28.8468H27.1261C27.6195 28.8468 28.0861 28.6468 28.4195 28.2868C28.7395 27.9401 28.8861 27.5001 28.8461 27.0334L28.0995 18.9134C27.9261 17.1134 27.7128 16.1801 25.0328 16.1801H7.9928C5.29946 16.1801 5.08613 17.1134 4.92613 18.9134L4.17946 27.0334C4.13946 27.5001 4.28613 27.9401 4.60613 28.2868C4.92613 28.6468 5.40613 28.8468 5.89946 28.8468H8.40613C9.12613 28.8468 9.12613 28.8334 9.3528 28.1668L9.61946 27.3534C9.9528 26.2868 10.4461 24.8334 13.0861 24.8334Z" fill="white"/>
<path d="M5.83284 12.1668H4.49951C3.95285 12.1668 3.49951 11.7134 3.49951 11.1668C3.49951 10.6201 3.95285 10.1668 4.49951 10.1668H5.83284C6.37951 10.1668 6.83284 10.6201 6.83284 11.1668C6.83284 11.7134 6.37951 12.1668 5.83284 12.1668Z" fill="white"/>
<path d="M28.4993 12.1668H27.166C26.6193 12.1668 26.166 11.7134 26.166 11.1668C26.166 10.6201 26.6193 10.1668 27.166 10.1668H28.4993C29.046 10.1668 29.4993 10.6201 29.4993 11.1668C29.4993 11.7134 29.046 12.1668 28.4993 12.1668Z" fill="white"/>
<path d="M16.4995 8.16677C15.9528 8.16677 15.4995 7.71344 15.4995 7.16677V4.50011C15.4995 3.95344 15.9528 3.50011 16.4995 3.50011C17.0462 3.50011 17.4995 3.95344 17.4995 4.50011V7.16677C17.4995 7.71344 17.0462 8.16677 16.4995 8.16677Z" fill="white"/>
<path d="M18.4995 8.16678H14.4995C13.9528 8.16678 13.4995 7.71345 13.4995 7.16678C13.4995 6.62011 13.9528 6.16678 14.4995 6.16678H18.4995C19.0462 6.16678 19.4995 6.62011 19.4995 7.16678C19.4995 7.71345 19.0462 8.16678 18.4995 8.16678Z" fill="white"/>
<path d="M12.4995 21.5001H8.49951C7.95285 21.5001 7.49951 21.0468 7.49951 20.5001C7.49951 19.9534 7.95285 19.5001 8.49951 19.5001H12.4995C13.0462 19.5001 13.4995 19.9534 13.4995 20.5001C13.4995 21.0468 13.0462 21.5001 12.4995 21.5001Z" fill="white"/>
<path d="M24.4995 21.5001H20.4995C19.9528 21.5001 19.4995 21.0468 19.4995 20.5001C19.4995 19.9534 19.9528 19.5001 20.4995 19.5001H24.4995C25.0462 19.5001 25.4995 19.9534 25.4995 20.5001C25.4995 21.0468 25.0462 21.5001 24.4995 21.5001Z" fill="white"/>
</svg>
