<svg width="80" height="80" viewBox="0 0 80 80" fill="none" xmlns="http://www.w3.org/2000/svg">
<rect width="80" height="80" rx="5" fill="#349B5D"/>
<path d="M55.385 31.2462H40.0004C39.3696 31.2462 38.8465 30.7231 38.8465 30.0923C38.8465 29.4615 39.3696 28.9385 40.0004 28.9385H55.385C56.0158 28.9385 56.5389 29.4615 56.5389 30.0923C56.5389 30.7385 56.0158 31.2462 55.385 31.2462Z" fill="white"/>
<path d="M51.9692 38.8462H43.4308C40.0616 38.8462 38.8616 37.6615 38.8616 34.3077V28C38.8616 24.6462 40.0616 23.4615 43.4308 23.4615H51.9692C55.3385 23.4615 56.5385 24.6462 56.5385 28V34.3231C56.5385 37.6615 55.3385 38.8462 51.9692 38.8462ZM43.4154 25.7692C41.3231 25.7692 41.1539 25.9385 41.1539 28V34.3231C41.1539 36.3846 41.3231 36.5539 43.4154 36.5539H51.9538C54.0462 36.5539 54.2154 36.3846 54.2154 34.3231V28C54.2154 25.9385 54.0462 25.7692 51.9538 25.7692H43.4154Z" fill="white"/>
<path d="M40.0004 48.9385H24.6158C23.985 48.9385 23.4619 48.4154 23.4619 47.7846C23.4619 47.1539 23.985 46.6308 24.6158 46.6308H40.0004C40.6312 46.6308 41.1542 47.1539 41.1542 47.7846C41.1542 48.4308 40.6312 48.9385 40.0004 48.9385Z" fill="white"/>
<path d="M36.5846 56.5385H28.0462C24.677 56.5385 23.477 55.3539 23.477 52V45.6923C23.477 42.3385 24.677 41.1539 28.0462 41.1539H36.5846C39.9539 41.1539 41.1539 42.3385 41.1539 45.6923V52.0154C41.1539 55.3539 39.9539 56.5385 36.5846 56.5385ZM28.0308 43.4615C25.9385 43.4615 25.7693 43.6308 25.7693 45.6923V52.0154C25.7693 54.0769 25.9385 54.2462 28.0308 54.2462H36.5692C38.6615 54.2462 38.8308 54.0769 38.8308 52.0154V45.6923C38.8308 43.6308 38.6615 43.4615 36.5692 43.4615H28.0308Z" fill="white"/>
<path d="M44.6161 56.5385C44.2007 56.5385 43.8161 56.3077 43.6161 55.9538C43.4161 55.5846 43.4161 55.1538 43.6314 54.7846L45.2469 52.0923C45.5699 51.5538 46.2776 51.3692 46.8315 51.6923C47.3853 52.0154 47.5546 52.7231 47.2315 53.2769L46.8161 53.9692C51.0622 52.9692 54.2469 49.1538 54.2469 44.6C54.2469 43.9692 54.7699 43.4461 55.4007 43.4461C56.0315 43.4461 56.5546 43.9692 56.5546 44.6C56.5392 51.1846 51.1853 56.5385 44.6161 56.5385Z" fill="white"/>
<path d="M24.6158 36.5385C23.985 36.5385 23.4619 36.0154 23.4619 35.3846C23.4619 28.8154 28.8158 23.4615 35.385 23.4615C35.8004 23.4615 36.185 23.6923 36.385 24.0462C36.585 24.4154 36.585 24.8462 36.3697 25.2154L34.7542 27.9077C34.4312 28.4462 33.7235 28.6308 33.1696 28.3077C32.6158 27.9846 32.4465 27.2769 32.7696 26.7231L33.185 26.0308C28.9389 27.0308 25.7542 30.8462 25.7542 35.4C25.7696 36.0154 25.2466 36.5385 24.6158 36.5385Z" fill="white"/>
</svg>
