<svg width="33" height="33" viewBox="0 0 33 33" fill="none" xmlns="http://www.w3.org/2000/svg">
<path d="M24.5 14.8333C23.9533 14.8333 23.5 14.38 23.5 13.8333V11.1667C23.5 6.96667 22.3133 4.16667 16.5 4.16667C10.6867 4.16667 9.5 6.96667 9.5 11.1667V13.8333C9.5 14.38 9.04667 14.8333 8.5 14.8333C7.95333 14.8333 7.5 14.38 7.5 13.8333V11.1667C7.5 7.3 8.43333 2.16667 16.5 2.16667C24.5667 2.16667 25.5 7.3 25.5 11.1667V13.8333C25.5 14.38 25.0467 14.8333 24.5 14.8333Z" fill="white"/>
<path d="M16.5001 26.1667C14.1134 26.1667 12.1667 24.22 12.1667 21.8333C12.1667 19.4467 14.1134 17.5 16.5001 17.5C18.8867 17.5 20.8334 19.4467 20.8334 21.8333C20.8334 24.22 18.8867 26.1667 16.5001 26.1667ZM16.5001 19.5C15.2201 19.5 14.1667 20.5533 14.1667 21.8333C14.1667 23.1133 15.2201 24.1667 16.5001 24.1667C17.7801 24.1667 18.8334 23.1133 18.8334 21.8333C18.8334 20.5533 17.7801 19.5 16.5001 19.5Z" fill="white"/>
<path d="M23.1667 30.8333H9.83341C3.95341 30.8333 2.16675 29.0467 2.16675 23.1667V20.5C2.16675 14.62 3.95341 12.8333 9.83341 12.8333H23.1667C29.0467 12.8333 30.8334 14.62 30.8334 20.5V23.1667C30.8334 29.0467 29.0467 30.8333 23.1667 30.8333ZM9.83341 14.8333C5.06008 14.8333 4.16675 15.74 4.16675 20.5V23.1667C4.16675 27.9267 5.06008 28.8333 9.83341 28.8333H23.1667C27.9401 28.8333 28.8334 27.9267 28.8334 23.1667V20.5C28.8334 15.74 27.9401 14.8333 23.1667 14.8333H9.83341Z" fill="white"/>
</svg>
