<svg width="55" height="55" viewBox="0 0 55 55" fill="none" xmlns="http://www.w3.org/2000/svg">
<path d="M27.5 42.9688C26.5604 42.9688 25.7812 42.1896 25.7812 41.25V34.375C25.7812 33.4354 26.5604 32.6562 27.5 32.6562C28.4396 32.6562 29.2188 33.4354 29.2188 34.375V41.25C29.2188 42.1896 28.4396 42.9688 27.5 42.9688Z" fill="white"/>
<path d="M40.3333 51.7H14.6667C10.4958 51.7 6.69167 48.4917 6.00417 44.3896L2.95625 26.125C2.45208 23.2833 3.85 19.6396 6.11875 17.8292L22 5.11043C25.0708 2.63543 29.9062 2.65834 33 5.13334L48.8812 17.8292C51.1271 19.6396 52.5021 23.2833 52.0437 26.125L48.9958 44.3667C48.3083 48.4229 44.4125 51.7 40.3333 51.7ZM27.4771 6.71459C26.2625 6.71459 25.0479 7.08126 24.1542 7.79168L8.27292 20.5333C6.98958 21.5646 6.07292 23.9479 6.34792 25.575L9.39583 43.8167C9.80833 46.2229 12.2146 48.2625 14.6667 48.2625H40.3333C42.7854 48.2625 45.1917 46.2229 45.6042 43.7938L48.6521 25.5521C48.9042 23.9479 47.9875 21.5188 46.7271 20.5104L30.8458 7.81459C29.9292 7.08126 28.6917 6.71459 27.4771 6.71459Z" fill="white"/>
</svg>
