<svg width="27" height="27" viewBox="0 0 27 27" fill="none" xmlns="http://www.w3.org/2000/svg">
<path d="M3.1745 0C1.4285 0 0 1.4285 0 3.1745V23.492C0 25.238 1.4285 26.6665 3.1745 26.6665H23.492C25.238 26.6665 26.6665 25.238 26.6665 23.492V3.1745C26.6665 1.4285 25.238 0 23.492 0H3.1745ZM3.1745 1.26975H23.492C24.551 1.26975 25.3968 2.1155 25.3968 3.1745V23.492C25.3968 24.551 24.551 25.3968 23.492 25.3968H3.1745C2.1155 25.3968 1.26975 24.551 1.26975 23.492V3.1745C1.26975 2.1155 2.1155 1.26975 3.1745 1.26975ZM6.34925 4.45175C5.65475 4.45175 5.02725 4.66025 4.5635 5.0495C4.102 5.439 3.817 6.02175 3.817 6.64675C3.817 7.82975 4.84625 8.755 6.15325 8.84675C6.15325 8.84675 6.15575 8.84675 6.15575 8.84925C6.21775 8.869 6.28225 8.8815 6.34925 8.8815C7.7925 8.8815 8.8815 7.8695 8.8815 6.64675C8.8815 6.63425 8.8815 6.622 8.879 6.612C8.8145 5.40675 7.7405 4.45175 6.34925 4.45175ZM6.34925 5.70675C7.232 5.70675 7.58175 6.101 7.619 6.66175C7.6115 7.20475 7.27675 7.6265 6.34925 7.6265C5.46875 7.6265 5.07175 7.175 5.07175 6.64675C5.07175 6.3815 5.1685 6.1805 5.372 6.00925C5.57525 5.83825 5.90275 5.70675 6.34925 5.70675ZM4.4445 9.52375C4.09475 9.52375 3.8095 9.809 3.8095 10.1588V22.2223C3.8095 22.5718 4.09475 22.857 4.4445 22.857H8.254C8.6035 22.857 8.88875 22.5718 8.88875 22.2223V10.1588C8.88875 9.809 8.6035 9.52375 8.254 9.52375H4.4445ZM10.1588 9.52375C9.809 9.52375 9.52375 9.809 9.52375 10.1588V22.2223C9.52375 22.5718 9.809 22.857 10.1588 22.857H13.9683C14.318 22.857 14.603 22.5718 14.603 22.2223V15.873C14.603 15.3473 14.747 14.8213 15 14.479C15.253 14.1368 15.5728 13.931 16.1805 13.941C16.8055 13.9508 17.1353 14.1665 17.3883 14.504C17.6388 14.8388 17.7778 15.3448 17.7778 15.873V22.2223C17.7778 22.5718 18.063 22.857 18.4128 22.857H22.2223C22.5718 22.857 22.857 22.5718 22.857 22.2223V15.4043C22.857 13.5243 22.299 12.0338 21.3468 11.0268C20.3918 10.0198 19.0625 9.52375 17.6588 9.52375C16.3243 9.52375 15.3075 9.97025 14.603 10.4265V10.1588C14.603 9.809 14.318 9.52375 13.9683 9.52375H10.1588ZM5.07925 10.7935H7.619V21.5873H5.07925V10.7935ZM10.7935 10.7935H13.3333V11.7858C13.3333 12.0585 13.507 12.299 13.7673 12.3858C14.0253 12.4728 14.3105 12.3833 14.4743 12.165C14.4743 12.165 15.4738 10.7935 17.6588 10.7935C18.7723 10.7935 19.727 11.1633 20.424 11.8998C21.121 12.6363 21.5873 13.7698 21.5873 15.4043V21.5873H19.0475V15.873C19.0475 15.1315 18.869 14.3675 18.4053 13.7425C17.944 13.12 17.1628 12.6885 16.2003 12.671C15.2355 12.6538 14.442 13.0978 13.978 13.7275C13.5143 14.355 13.3333 15.129 13.3333 15.873V21.5873H10.7935V10.7935Z" fill="white"/>
</svg>
