<svg width="56" height="55" viewBox="0 0 56 55" fill="none" xmlns="http://www.w3.org/2000/svg">
<path d="M34.1875 52.1354H21.8125C10.4916 52.1354 5.67914 47.3 5.67914 36.0021V25.7125C5.67914 24.7729 6.4583 23.9937 7.39789 23.9937C8.33747 23.9937 9.11664 24.7729 9.11664 25.7125V36.0021C9.11664 45.375 12.4396 48.6979 21.8125 48.6979H34.1646C43.5375 48.6979 46.8604 45.375 46.8604 36.0021V25.7125C46.8604 24.7729 47.6396 23.9937 48.5791 23.9937C49.5187 23.9937 50.2979 24.7729 50.2979 25.7125V36.0021C50.3208 47.3 45.4854 52.1354 34.1875 52.1354Z" fill="white"/>
<path d="M28 29.2187C25.4792 29.2187 23.1875 28.2333 21.5604 26.4229C19.9334 24.6125 19.1771 22.2521 19.4292 19.7312L20.9646 4.42291C21.0563 3.55208 21.7896 2.86458 22.6834 2.86458H33.3854C34.2792 2.86458 35.0125 3.52916 35.1042 4.42291L36.6396 19.7312C36.8917 22.2521 36.1354 24.6125 34.5084 26.4229C32.8125 28.2333 30.5209 29.2187 28 29.2187ZM24.2188 6.30208L22.8438 20.075C22.6834 21.6104 23.1417 23.0542 24.1042 24.1083C26.0521 26.2625 29.9479 26.2625 31.8959 24.1083C32.8584 23.0312 33.3167 21.5875 33.1563 20.075L31.7813 6.30208H24.2188Z" fill="white"/>
<path d="M42.4604 29.2187C37.8084 29.2187 33.6604 25.4604 33.1792 20.8312L31.575 4.76666C31.5292 4.28541 31.6896 3.80416 32.0104 3.43749C32.3313 3.07083 32.7896 2.86458 33.2938 2.86458H40.2834C47.0209 2.86458 50.1604 5.68333 51.1 12.6042L51.7417 18.975C52.0167 21.6792 51.1917 24.2458 49.4271 26.1937C47.6625 28.1417 45.1875 29.2187 42.4604 29.2187ZM35.1959 6.30208L36.6167 20.4875C36.9146 23.3521 39.5729 25.7812 42.4604 25.7812C44.2021 25.7812 45.7604 25.1167 46.8834 23.9021C47.9834 22.6875 48.4875 21.0604 48.3271 19.3187L47.6854 13.0167C46.975 7.83749 45.3021 6.30208 40.2834 6.30208H35.1959V6.30208Z" fill="white"/>
<path d="M13.425 29.2187C10.6979 29.2187 8.2229 28.1417 6.45832 26.1937C4.69374 24.2458 3.86874 21.6792 4.14374 18.975L4.76249 12.6729C5.72499 5.68333 8.86457 2.86458 15.6021 2.86458H22.5917C23.0729 2.86458 23.5312 3.07083 23.875 3.43749C24.2187 3.80416 24.3562 4.28541 24.3104 4.76666L22.7062 20.8312C22.225 25.4604 18.0771 29.2187 13.425 29.2187ZM15.6021 6.30208C10.5833 6.30208 8.9104 7.81458 8.17707 13.0625L7.55832 19.3187C7.37499 21.0604 7.90207 22.6875 9.00207 23.9021C10.1021 25.1167 11.6604 25.7812 13.425 25.7812C16.3125 25.7812 18.9937 23.3521 19.2687 20.4875L20.6896 6.30208H15.6021V6.30208Z" fill="white"/>
<path d="M33.7291 52.1354H22.2708C21.3312 52.1354 20.5521 51.3563 20.5521 50.4167V44.6875C20.5521 39.875 23.1875 37.2396 28 37.2396C32.8125 37.2396 35.4479 39.875 35.4479 44.6875V50.4167C35.4479 51.3563 34.6687 52.1354 33.7291 52.1354ZM23.9896 48.6979H32.0104V44.6875C32.0104 41.8 30.8875 40.6771 28 40.6771C25.1125 40.6771 23.9896 41.8 23.9896 44.6875V48.6979Z" fill="white"/>
</svg>
