<svg width="22" height="22" viewBox="0 0 22 22" fill="none" xmlns="http://www.w3.org/2000/svg">
<path d="M10 19.75C4.62 19.75 0.25 15.38 0.25 10C0.25 4.62 4.62 0.25 10 0.25C15.38 0.25 19.75 4.62 19.75 10C19.75 15.38 15.38 19.75 10 19.75ZM10 1.75C5.45 1.75 1.75 5.45 1.75 10C1.75 14.55 5.45 18.25 10 18.25C14.55 18.25 18.25 14.55 18.25 10C18.25 5.45 14.55 1.75 10 1.75Z" fill="white"/>
<path d="M19.1601 21.79C19.0801 21.79 19.0001 21.78 18.9301 21.77C18.4601 21.71 17.6101 21.39 17.1301 19.96C16.8801 19.21 16.9701 18.46 17.3801 17.89C17.7901 17.32 18.4801 17 19.2701 17C20.2901 17 21.0901 17.39 21.4501 18.08C21.8101 18.77 21.7101 19.65 21.1401 20.5C20.4301 21.57 19.6601 21.79 19.1601 21.79ZM18.5601 19.49C18.7301 20.01 18.9701 20.27 19.1301 20.29C19.2901 20.31 19.5901 20.12 19.9001 19.67C20.1901 19.24 20.2101 18.93 20.1401 18.79C20.0701 18.65 19.7901 18.5 19.2701 18.5C18.9601 18.5 18.7301 18.6 18.6001 18.77C18.4801 18.94 18.4601 19.2 18.5601 19.49Z" fill="white"/>
</svg>
