<svg width="43" height="51" viewBox="0 0 43 51" fill="none" xmlns="http://www.w3.org/2000/svg">
<path d="M21.4998 27.2187C14.2353 27.2187 8.32275 21.3062 8.32275 14.0416C8.32275 6.777 14.2353 0.864502 21.4998 0.864502C28.7644 0.864502 34.6769 6.777 34.6769 14.0416C34.6769 21.3062 28.7644 27.2187 21.4998 27.2187ZM21.4998 4.302C16.1373 4.302 11.7603 8.67908 11.7603 14.0416C11.7603 19.4041 16.1373 23.7812 21.4998 23.7812C26.8623 23.7812 31.2394 19.4041 31.2394 14.0416C31.2394 8.67908 26.8623 4.302 21.4998 4.302Z" fill="white"/>
<path d="M41.1858 50.1354C40.2462 50.1354 39.467 49.3563 39.467 48.4167C39.467 40.5104 31.4003 34.0938 21.5003 34.0938C11.6003 34.0938 3.53369 40.5104 3.53369 48.4167C3.53369 49.3563 2.75452 50.1354 1.81494 50.1354C0.875358 50.1354 0.0961914 49.3563 0.0961914 48.4167C0.0961914 38.6313 9.69827 30.6562 21.5003 30.6562C33.3024 30.6562 42.9045 38.6313 42.9045 48.4167C42.9045 49.3563 42.1253 50.1354 41.1858 50.1354Z" fill="white"/>
</svg>
