<svg width="16" height="18" viewBox="0 0 16 18" fill="none" xmlns="http://www.w3.org/2000/svg">
<path d="M15.0168 8.68331C14.9866 8.68331 14.9553 8.67102 14.9297 8.64538C14.904 8.61974 14.8918 8.58846 14.8918 8.55831V5.79169C14.8918 4.48221 13.8262 3.41669 12.5168 3.41669H0.983398C0.953251 3.41669 0.921971 3.4044 0.896327 3.37876C0.870683 3.35311 0.858398 3.32183 0.858398 3.29169C0.858398 3.26154 0.870683 3.23026 0.896327 3.20462C0.921971 3.17897 0.953251 3.16669 0.983398 3.16669H12.5168C13.9656 3.16669 15.1418 4.34283 15.1418 5.79169V8.55831C15.1418 8.62783 15.0866 8.68331 15.0168 8.68331Z" fill="white" stroke="white"/>
<path d="M0.895286 3.21187L0.895288 3.21186L3.52862 0.578505C3.52862 0.578504 3.52862 0.578503 3.52862 0.578503C3.55015 0.556976 3.58089 0.543701 3.61673 0.543701C3.65259 0.543701 3.68332 0.556977 3.70485 0.578505C3.72636 0.600021 3.73965 0.630763 3.73965 0.666642C3.73965 0.70252 3.72636 0.733261 3.70485 0.754778C3.70485 0.754779 3.70485 0.754779 3.70485 0.75478L1.5132 2.9464L1.15965 3.29995L1.5132 3.6535L3.70485 5.84518L4.0483 5.50173L3.70485 5.84518C3.72637 5.86671 3.73965 5.89744 3.73965 5.93329C3.73965 5.96625 3.72843 5.99489 3.70989 6.01602C3.66993 6.0504 3.63382 6.05832 3.61673 6.05832C3.59908 6.05832 3.58357 6.0551 3.57024 6.04973C3.55738 6.04455 3.54332 6.0361 3.52862 6.0214L3.18647 6.36355L3.52862 6.0214L0.895286 3.38809C0.895286 3.38809 0.895285 3.38809 0.895284 3.38809C0.87133 3.36413 0.858398 3.33252 0.858398 3.29995C0.858398 3.26743 0.8713 3.23585 0.895286 3.21187Z" fill="white" stroke="white"/>
<path d="M15.0168 14.825H3.4834C2.03454 14.825 0.858398 13.6489 0.858398 12.2V9.43335C0.858398 9.4032 0.870683 9.37192 0.896327 9.34628C0.921971 9.32063 0.953251 9.30835 0.983398 9.30835C1.01355 9.30835 1.04483 9.32063 1.07047 9.34628C1.09611 9.37192 1.1084 9.4032 1.1084 9.43335V12.2C1.1084 13.5095 2.17392 14.575 3.4834 14.575H15.0168C15.0469 14.575 15.0782 14.5873 15.1038 14.613C15.1295 14.6386 15.1418 14.6699 15.1418 14.7C15.1418 14.7302 15.1295 14.7614 15.1038 14.7871C15.0782 14.8127 15.0469 14.825 15.0168 14.825Z" fill="white" stroke="white"/>
<path d="M12.3837 17.9583C12.2253 17.9583 12.067 17.9 11.942 17.775C11.7003 17.5333 11.7003 17.1333 11.942 16.8916L14.1336 14.7L11.942 12.5083C11.7003 12.2667 11.7003 11.8667 11.942 11.625C12.1837 11.3833 12.5837 11.3833 12.8253 11.625L15.4587 14.2583C15.5753 14.375 15.642 14.5333 15.642 14.7C15.642 14.8667 15.5753 15.025 15.4587 15.1416L12.8253 17.775C12.7087 17.9 12.5503 17.9583 12.3837 17.9583Z" fill="white"/>
</svg>
