<svg width="32" height="32" viewBox="0 0 32 32" fill="none" xmlns="http://www.w3.org/2000/svg">
<path d="M26.6661 15.6668H5.3328C5.02613 15.6668 4.74613 15.5334 4.55946 15.2934C4.3728 15.0668 4.2928 14.7468 4.35946 14.4534L5.86613 7.25344C6.35946 4.9201 7.35946 2.77344 11.3195 2.77344H20.6928C24.6528 2.77344 25.6528 4.93344 26.1461 7.25344L27.6528 14.4668C27.7195 14.7601 27.6395 15.0668 27.4528 15.3068C27.2528 15.5334 26.9728 15.6668 26.6661 15.6668ZM6.55946 13.6668H25.4261L24.1728 7.66677C23.7995 5.9201 23.3595 4.77344 20.6795 4.77344H11.3195C8.63946 4.77344 8.19946 5.9201 7.82613 7.66677L6.55946 13.6668Z" fill="#FF5C20"/>
<path d="M26.6128 30.3334H24.1061C21.9461 30.3334 21.5328 29.0934 21.2661 28.2801L20.9995 27.4801C20.6528 26.4668 20.6128 26.3334 19.4128 26.3334H12.5861C11.3861 26.3334 11.3061 26.5601 10.9995 27.4801L10.7328 28.2801C10.4528 29.1068 10.0528 30.3334 7.8928 30.3334H5.38613C4.3328 30.3334 3.31946 29.8934 2.6128 29.1201C1.91946 28.3601 1.58613 27.3468 1.67946 26.3334L2.42613 18.2134C2.62613 16.0134 3.2128 13.6668 7.4928 13.6668H24.5061C28.7861 13.6668 29.3595 16.0134 29.5728 18.2134L30.3195 26.3334C30.4128 27.3468 30.0795 28.3601 29.3861 29.1201C28.6795 29.8934 27.6661 30.3334 26.6128 30.3334ZM12.5861 24.3334H19.4128C21.8395 24.3334 22.4128 25.4134 22.8928 26.8268L23.1728 27.6534C23.3995 28.3334 23.3995 28.3468 24.1195 28.3468H26.6261C27.1195 28.3468 27.5861 28.1468 27.9195 27.7868C28.2395 27.4401 28.3861 27.0001 28.3461 26.5334L27.5995 18.4134C27.4261 16.6134 27.2128 15.6801 24.5328 15.6801H7.4928C4.79946 15.6801 4.58613 16.6134 4.42613 18.4134L3.67946 26.5334C3.63946 27.0001 3.78613 27.4401 4.10613 27.7868C4.42613 28.1468 4.90613 28.3468 5.39946 28.3468H7.90613C8.62613 28.3468 8.62613 28.3334 8.8528 27.6668L9.11946 26.8534C9.4528 25.7868 9.94613 24.3334 12.5861 24.3334Z" fill="#FF5C20"/>
<path d="M5.3328 11.6668H3.99947C3.4528 11.6668 2.99947 11.2134 2.99947 10.6668C2.99947 10.1201 3.4528 9.66678 3.99947 9.66678H5.3328C5.87947 9.66678 6.3328 10.1201 6.3328 10.6668C6.3328 11.2134 5.87947 11.6668 5.3328 11.6668Z" fill="#FF5C20"/>
<path d="M27.9995 11.6668H26.6661C26.1195 11.6668 25.6661 11.2134 25.6661 10.6668C25.6661 10.1201 26.1195 9.66678 26.6661 9.66678H27.9995C28.5461 9.66678 28.9995 10.1201 28.9995 10.6668C28.9995 11.2134 28.5461 11.6668 27.9995 11.6668Z" fill="#FF5C20"/>
<path d="M15.9995 7.66676C15.4528 7.66676 14.9995 7.21343 14.9995 6.66676V4.00009C14.9995 3.45342 15.4528 3.00009 15.9995 3.00009C16.5461 3.00009 16.9995 3.45342 16.9995 4.00009V6.66676C16.9995 7.21343 16.5461 7.66676 15.9995 7.66676Z" fill="#FF5C20"/>
<path d="M17.9995 7.66678H13.9995C13.4528 7.66678 12.9995 7.21345 12.9995 6.66678C12.9995 6.12011 13.4528 5.66678 13.9995 5.66678H17.9995C18.5461 5.66678 18.9995 6.12011 18.9995 6.66678C18.9995 7.21345 18.5461 7.66678 17.9995 7.66678Z" fill="#FF5C20"/>
<path d="M11.9995 21.0001H7.99947C7.4528 21.0001 6.99947 20.5468 6.99947 20.0001C6.99947 19.4534 7.4528 19.0001 7.99947 19.0001H11.9995C12.5461 19.0001 12.9995 19.4534 12.9995 20.0001C12.9995 20.5468 12.5461 21.0001 11.9995 21.0001Z" fill="#FF5C20"/>
<path d="M23.9995 21.0001H19.9995C19.4528 21.0001 18.9995 20.5468 18.9995 20.0001C18.9995 19.4534 19.4528 19.0001 19.9995 19.0001H23.9995C24.5461 19.0001 24.9995 19.4534 24.9995 20.0001C24.9995 20.5468 24.5461 21.0001 23.9995 21.0001Z" fill="#FF5C20"/>
</svg>
