<svg width="32" height="32" viewBox="0 0 32 32" fill="none" xmlns="http://www.w3.org/2000/svg">
<path d="M26.6667 19.6667C24.64 19.6667 23 18.0267 23 16C23 13.9733 24.64 12.3333 26.6667 12.3333C28.6933 12.3333 30.3333 13.9733 30.3333 16C30.3333 18.0267 28.6933 19.6667 26.6667 19.6667ZM26.6667 14.3333C25.7467 14.3333 25 15.08 25 16C25 16.92 25.7467 17.6667 26.6667 17.6667C27.5867 17.6667 28.3333 16.92 28.3333 16C28.3333 15.08 27.5867 14.3333 26.6667 14.3333Z" fill="#FF5C20"/>
<path d="M26.6667 8.99999C24.64 8.99999 23 7.35999 23 5.33332C23 3.30666 24.64 1.66666 26.6667 1.66666C28.6933 1.66666 30.3333 3.30666 30.3333 5.33332C30.3333 7.35999 28.6933 8.99999 26.6667 8.99999ZM26.6667 3.66666C25.7467 3.66666 25 4.41332 25 5.33332C25 6.25332 25.7467 6.99999 26.6667 6.99999C27.5867 6.99999 28.3333 6.25332 28.3333 5.33332C28.3333 4.41332 27.5867 3.66666 26.6667 3.66666Z" fill="#FF5C20"/>
<path d="M26.6667 30.3333C24.64 30.3333 23 28.6933 23 26.6667C23 24.64 24.64 23 26.6667 23C28.6933 23 30.3333 24.64 30.3333 26.6667C30.3333 28.6933 28.6933 30.3333 26.6667 30.3333ZM26.6667 25C25.7467 25 25 25.7467 25 26.6667C25 27.5867 25.7467 28.3333 26.6667 28.3333C27.5867 28.3333 28.3333 27.5867 28.3333 26.6667C28.3333 25.7467 27.5867 25 26.6667 25Z" fill="#FF5C20"/>
<path d="M5.33333 19.6667C3.30666 19.6667 1.66666 18.0267 1.66666 16C1.66666 13.9733 3.30666 12.3333 5.33333 12.3333C7.36 12.3333 9 13.9733 9 16C9 18.0267 7.36 19.6667 5.33333 19.6667ZM5.33333 14.3333C4.41333 14.3333 3.66666 15.08 3.66666 16C3.66666 16.92 4.41333 17.6667 5.33333 17.6667C6.25333 17.6667 7 16.92 7 16C7 15.08 6.25333 14.3333 5.33333 14.3333Z" fill="#FF5C20"/>
<path d="M24 17H8C7.45333 17 7 16.5467 7 16C7 15.4533 7.45333 15 8 15H24C24.5467 15 25 15.4533 25 16C25 16.5467 24.5467 17 24 17Z" fill="#FF5C20"/>
<path d="M24 27.6667H18.6667C15.44 27.6667 13.6667 25.8933 13.6667 22.6667V9.33334C13.6667 6.10668 15.44 4.33334 18.6667 4.33334H24C24.5467 4.33334 25 4.78668 25 5.33334C25 5.88001 24.5467 6.33334 24 6.33334H18.6667C16.56 6.33334 15.6667 7.22668 15.6667 9.33334V22.6667C15.6667 24.7733 16.56 25.6667 18.6667 25.6667H24C24.5467 25.6667 25 26.12 25 26.6667C25 27.2133 24.5467 27.6667 24 27.6667Z" fill="#FF5C20"/>
</svg>
