<svg xmlns="http://www.w3.org/2000/svg" version="1.1" xmlns:xlink="http://www.w3.org/1999/xlink" xmlns:svgjs="http://svgjs.dev/svgjs" width="720" height="720"><svg width="720" height="720" viewBox="0 0 720 720" fill="none" xmlns="http://www.w3.org/2000/svg">
<rect width="720" height="720" rx="80" fill="white"></rect>
<g clip-path="url(#clip0_2593_24735)">
<path d="M470.694 389.756V529.507C470.694 534.078 474.39 537.775 478.961 537.775H530.116C534.856 537.775 538.691 533.94 538.691 529.201V333.018L470.694 389.756Z" fill="#174C45"></path>
<path d="M168.997 207.302L168.951 207.24H109.068C104.605 207.24 101 210.86 101 215.309V529.707C101 534.17 104.62 537.775 109.068 537.775H160.928C165.392 537.775 168.997 534.155 168.997 529.707V335.687C168.997 328.14 178.43 324.72 183.262 330.518C186.115 333.938 191.207 334.399 194.628 331.546L234.432 298.306C237.852 295.453 238.312 290.361 235.459 286.94L170.009 208.513L168.997 207.302Z" fill="#174C45"></path>
<path d="M606.626 165.856L330.498 396.29C328.474 397.978 325.452 397.717 323.765 395.677L253.145 311.038C250.292 307.617 245.215 307.157 241.794 310.01L202.098 343.142C198.677 345.995 198.232 351.072 201.07 354.477C201.07 354.477 315.144 490.608 315.436 490.961C317.123 492.986 320.145 493.262 322.169 491.575L650.112 217.916C653.517 215.078 653.977 210.017 651.139 206.611L617.992 166.899C615.139 163.479 610.047 163.019 606.642 165.872L606.626 165.856Z" fill="#88A6A1"></path>
</g>
<defs>
<clipPath id="SvgjsClipPath1005">
<rect width="552" height="373.775" fill="white" transform="translate(101 164)"></rect>
</clipPath>
</defs>
</svg><style>@media (prefers-color-scheme: light) { :root { filter: none; } }
@media (prefers-color-scheme: dark) { :root { filter: none; } }
</style></svg>