<svg width="56" height="55" viewBox="0 0 56 55" fill="none" xmlns="http://www.w3.org/2000/svg">
<path d="M40.7417 41.1814H15.2584C6.13754 41.1814 3.36462 38.4085 3.36462 29.2877V14.7585C3.36462 5.63766 6.13754 2.86475 15.2584 2.86475H40.7188C49.8396 2.86475 52.6125 5.63766 52.6125 14.7585V29.2647C52.6355 38.4085 49.8625 41.1814 40.7417 41.1814ZM15.2584 6.30225C8.06254 6.30225 6.80212 7.56266 6.80212 14.7585V29.2647C6.80212 36.4606 8.06254 37.721 15.2584 37.721H40.7188C47.9146 37.721 49.175 36.4606 49.175 29.2647V14.7585C49.175 7.56266 47.9146 6.30225 40.7188 6.30225H15.2584V6.30225Z" fill="white"/>
<path d="M28 52.1353C27.0604 52.1353 26.2812 51.3562 26.2812 50.4166V39.4624C26.2812 38.5228 27.0604 37.7437 28 37.7437C28.9396 37.7437 29.7188 38.5228 29.7188 39.4624V50.4166C29.7188 51.3562 28.9396 52.1353 28 52.1353Z" fill="white"/>
<path d="M50.9167 31.5103H5.08337C4.14379 31.5103 3.36462 30.7311 3.36462 29.7915C3.36462 28.8519 4.14379 28.0728 5.08337 28.0728H50.9167C51.8563 28.0728 52.6355 28.8519 52.6355 29.7915C52.6355 30.7311 51.8563 31.5103 50.9167 31.5103Z" fill="white"/>
<path d="M38.3125 52.1353H17.6875C16.7479 52.1353 15.9688 51.3561 15.9688 50.4165C15.9688 49.4769 16.7479 48.6978 17.6875 48.6978H38.3125C39.2521 48.6978 40.0313 49.4769 40.0313 50.4165C40.0313 51.3561 39.2521 52.1353 38.3125 52.1353Z" fill="white"/>
</svg>
