<svg width="18" height="16" viewBox="0 0 18 16" fill="none" xmlns="http://www.w3.org/2000/svg">
<path d="M13.1667 15.7083H4.83334C1.79167 15.7083 0.0416718 13.9583 0.0416718 10.9167V5.08333C0.0416718 2.04166 1.79167 0.291664 4.83334 0.291664H13.1667C16.2083 0.291664 17.9583 2.04166 17.9583 5.08333V10.9167C17.9583 13.9583 16.2083 15.7083 13.1667 15.7083ZM4.83334 1.54166C2.45001 1.54166 1.29167 2.7 1.29167 5.08333V10.9167C1.29167 13.3 2.45001 14.4583 4.83334 14.4583H13.1667C15.55 14.4583 16.7083 13.3 16.7083 10.9167V5.08333C16.7083 2.7 15.55 1.54166 13.1667 1.54166H4.83334Z" fill="white"/>
<path d="M8.99981 8.72497C8.29981 8.72497 7.59148 8.50831 7.04981 8.06664L4.44148 5.98331C4.17481 5.76664 4.12481 5.37497 4.34148 5.10831C4.55815 4.84164 4.94982 4.79164 5.21648 5.00831L7.82481 7.09164C8.45814 7.59998 9.53314 7.59998 10.1665 7.09164L12.7748 5.00831C13.0415 4.79164 13.4415 4.83331 13.6498 5.10831C13.8665 5.37497 13.8248 5.77498 13.5498 5.98331L10.9415 8.06664C10.4081 8.50831 9.69981 8.72497 8.99981 8.72497Z" fill="white"/>
</svg>
