<svg width="16" height="12" viewBox="0 0 16 12" fill="none" xmlns="http://www.w3.org/2000/svg">
<path d="M5.97495 11.6833C5.81662 11.6833 5.65829 11.625 5.53329 11.5L0.474951 6.44164C0.233285 6.19998 0.233285 5.79998 0.474951 5.55831L5.53329 0.499976C5.77495 0.258309 6.17495 0.258309 6.41662 0.499976C6.65829 0.741642 6.65829 1.14164 6.41662 1.38331L1.79995 5.99998L6.41662 10.6166C6.65829 10.8583 6.65829 11.2583 6.41662 11.5C6.29995 11.625 6.13328 11.6833 5.97495 11.6833Z" fill="#020202"/>
<path d="M15.0834 6.625H1.05835C0.716683 6.625 0.43335 6.34167 0.43335 6C0.43335 5.65833 0.716683 5.375 1.05835 5.375H15.0834C15.425 5.375 15.7084 5.65833 15.7084 6C15.7084 6.34167 15.425 6.625 15.0834 6.625Z" fill="#020202"/>
</svg>
