<svg width="33" height="33" viewBox="0 0 33 33" fill="none" xmlns="http://www.w3.org/2000/svg">
<path d="M16.4998 22.8334C15.9665 22.8334 15.4332 22.7934 14.9265 22.7001C12.0998 22.2867 9.5265 20.6601 7.89984 18.2467C6.7665 16.5401 6.1665 14.5534 6.1665 12.5001C6.1665 6.80675 10.8065 2.16675 16.4998 2.16675C22.1932 2.16675 26.8332 6.80675 26.8332 12.5001C26.8332 14.5534 26.2332 16.5401 25.0998 18.2467C23.4598 20.6734 20.8865 22.2868 18.0332 22.7134C17.5665 22.7934 17.0332 22.8334 16.4998 22.8334ZM16.4998 4.16675C11.8998 4.16675 8.1665 7.90008 8.1665 12.5001C8.1665 14.1667 8.6465 15.7668 9.55317 17.1268C10.8732 19.0734 12.9398 20.3801 15.2332 20.7134C16.0865 20.8601 16.9265 20.8601 17.7132 20.7134C20.0465 20.3801 22.1132 19.0601 23.4332 17.1134C24.3398 15.7534 24.8198 14.1534 24.8198 12.4867C24.8332 7.90007 21.0998 4.16675 16.4998 4.16675Z" fill="white"/>
<path d="M9.12626 30.6199C8.93959 30.6199 8.76626 30.5932 8.57959 30.5532C7.71293 30.3532 7.04626 29.6865 6.84626 28.8199L6.37959 26.8599C6.35293 26.7399 6.25959 26.6465 6.12626 26.6065L3.92626 26.0865C3.09959 25.8865 2.44626 25.2732 2.21959 24.4599C1.99293 23.6465 2.21959 22.7665 2.81959 22.1665L8.01959 16.9666C8.23293 16.7532 8.52626 16.6465 8.81959 16.6732C9.11293 16.6999 9.37959 16.8599 9.55293 17.1132C10.8729 19.0599 12.9396 20.3799 15.2463 20.7132C16.0996 20.8599 16.9396 20.8599 17.7263 20.7132C20.0596 20.3799 22.1263 19.0599 23.4463 17.1132C23.6063 16.8599 23.8863 16.6999 24.1796 16.6732C24.4729 16.6465 24.7663 16.7532 24.9796 16.9666L30.1796 22.1665C30.7796 22.7665 31.0063 23.6465 30.7796 24.4599C30.5529 25.2732 29.8863 25.8999 29.0729 26.0865L26.8729 26.6065C26.7529 26.6332 26.6596 26.7265 26.6196 26.8599L26.1529 28.8199C25.9529 29.6865 25.2863 30.3532 24.4196 30.5532C23.5529 30.7666 22.6596 30.4599 22.0996 29.7799L16.4996 23.3399L10.8996 29.7932C10.4463 30.3265 9.80626 30.6199 9.12626 30.6199ZM8.61959 19.2065L4.23293 23.5932C4.11293 23.7132 4.12626 23.8466 4.15293 23.9266C4.16626 23.9932 4.23293 24.1265 4.39293 24.1532L6.59293 24.6732C7.45959 24.8732 8.12626 25.5399 8.32626 26.4065L8.79293 28.3665C8.83293 28.5399 8.96626 28.5932 9.04626 28.6199C9.12626 28.6332 9.25959 28.6466 9.37959 28.5132L14.4863 22.6332C12.2196 22.1932 10.1396 20.9799 8.61959 19.2065ZM18.5129 22.6199L23.6196 28.4865C23.7396 28.6332 23.8863 28.6332 23.9663 28.6065C24.0463 28.5932 24.1663 28.5266 24.2196 28.3532L24.6863 26.3932C24.8863 25.5266 25.5529 24.8599 26.4196 24.6599L28.6196 24.1399C28.7796 24.0999 28.8463 23.9799 28.8596 23.9132C28.8863 23.8465 28.8996 23.6999 28.7796 23.5799L24.3929 19.1932C22.8596 20.9665 20.7929 22.1799 18.5129 22.6199Z" fill="white"/>
<path d="M19.0204 17.6868C18.6737 17.6868 18.2604 17.5934 17.767 17.3001L16.5004 16.5401L15.2337 17.2867C14.0737 17.9801 13.3137 17.5801 13.0337 17.3801C12.7537 17.1801 12.1537 16.5801 12.4604 15.2601L12.7804 13.8868L11.7137 12.9001C11.127 12.3134 10.9137 11.6068 11.1137 10.9668C11.3137 10.3268 11.9004 9.87341 12.727 9.74007L14.1537 9.50008L14.8337 8.00675C15.2204 7.24675 15.8204 6.82007 16.5004 6.82007C17.1804 6.82007 17.7937 7.2601 18.167 8.0201L18.9537 9.59342L20.2737 9.75342C21.087 9.88675 21.6737 10.3401 21.887 10.9801C22.087 11.6201 21.8737 12.3267 21.287 12.9134L20.1804 14.0201L20.527 15.2601C20.8337 16.5801 20.2337 17.1801 19.9537 17.3801C19.807 17.5001 19.487 17.6868 19.0204 17.6868ZM13.3137 11.6868L14.2337 12.6067C14.6604 13.0334 14.8737 13.7534 14.7404 14.3401L14.487 15.4067L15.5537 14.7801C16.127 14.4467 16.9004 14.4467 17.4604 14.7801L18.527 15.4067L18.287 14.3401C18.1537 13.7401 18.3537 13.0334 18.7804 12.6067L19.7004 11.6868L18.5404 11.4867C17.9804 11.3934 17.4204 10.9801 17.167 10.4734L16.5004 9.16675L15.8337 10.5001C15.5937 10.9934 15.0337 11.4201 14.4737 11.5134L13.3137 11.6868Z" fill="white"/>
</svg>
