<svg width="18" height="18" viewBox="0 0 18 18" fill="none" xmlns="http://www.w3.org/2000/svg">
<path d="M4.15001 17.9583C4.06667 17.9583 3.97501 17.95 3.90001 17.9417L2.09167 17.6917C1.22501 17.575 0.441674 16.8 0.308341 15.9167L0.0583405 14.0917C-0.0249929 13.5083 0.225007 12.75 0.641674 12.325L4.30001 8.66667C3.70834 6.3 4.39167 3.8 6.13334 2.075C8.83334 -0.616667 13.225 -0.625 15.9333 2.075C17.2417 3.38333 17.9583 5.125 17.9583 6.975C17.9583 8.825 17.2417 10.5667 15.9333 11.875C14.1833 13.6083 11.6917 14.2917 9.34167 13.6917L5.67501 17.35C5.32501 17.7167 4.70001 17.9583 4.15001 17.9583ZM11.025 1.3C9.56667 1.3 8.11667 1.85 7.00834 2.95833C5.50834 4.45 4.96667 6.63333 5.59167 8.66667C5.65834 8.89167 5.60001 9.125 5.43334 9.29167L1.51667 13.2083C1.37501 13.35 1.25834 13.7167 1.28334 13.9083L1.53334 15.7333C1.58334 16.05 1.92501 16.4083 2.24167 16.45L4.05834 16.7C4.25834 16.7333 4.62501 16.6167 4.76667 16.475L8.70001 12.55C8.86667 12.3833 9.10834 12.3333 9.32501 12.4C11.3333 13.0333 13.525 12.4917 15.025 10.9917C16.0917 9.925 16.6833 8.49167 16.6833 6.975C16.6833 5.45 16.0917 4.025 15.025 2.95833C13.9417 1.85833 12.4833 1.3 11.025 1.3Z" fill="white"/>
<path d="M6.65833 16.1167C6.49999 16.1167 6.34166 16.0583 6.21666 15.9333L4.29999 14.0167C4.05833 13.775 4.05833 13.375 4.29999 13.1333C4.54166 12.8917 4.94166 12.8917 5.18333 13.1333L7.09999 15.05C7.34166 15.2917 7.34166 15.6917 7.09999 15.9333C6.97499 16.0583 6.81666 16.1167 6.65833 16.1167Z" fill="white"/>
<path d="M11.0833 8.79166C10.05 8.79166 9.20833 7.95 9.20833 6.91666C9.20833 5.88333 10.05 5.04166 11.0833 5.04166C12.1167 5.04166 12.9583 5.88333 12.9583 6.91666C12.9583 7.95 12.1167 8.79166 11.0833 8.79166ZM11.0833 6.29166C10.7417 6.29166 10.4583 6.575 10.4583 6.91666C10.4583 7.25833 10.7417 7.54166 11.0833 7.54166C11.425 7.54166 11.7083 7.25833 11.7083 6.91666C11.7083 6.575 11.425 6.29166 11.0833 6.29166Z" fill="white"/>
</svg>
