<svg width="55" height="55" viewBox="0 0 55 55" fill="none" xmlns="http://www.w3.org/2000/svg">
<path d="M45.8324 26.9273H9.16574C8.63865 26.9273 8.1574 26.6981 7.83657 26.2856C7.51574 25.896 7.37824 25.346 7.49282 24.8418L10.0824 12.4668C10.9303 8.45643 12.6491 4.76685 19.4553 4.76685H35.5657C42.372 4.76685 44.0907 8.47935 44.9387 12.4668L47.5282 24.8648C47.6428 25.3689 47.5053 25.896 47.1845 26.3085C46.8407 26.6981 46.3595 26.9273 45.8324 26.9273ZM11.2741 23.4898H43.7012L41.547 13.1773C40.9053 10.1752 40.1491 8.20435 35.5428 8.20435H19.4553C14.8491 8.20435 14.0928 10.1752 13.4512 13.1773L11.2741 23.4898Z" fill="white"/>
<path d="M45.7407 52.1356H41.4324C37.7199 52.1356 37.0095 50.0043 36.5512 48.6064L36.0928 47.2314C35.497 45.4898 35.4282 45.2606 33.3657 45.2606H21.6324C19.5699 45.2606 19.4324 45.6502 18.9053 47.2314L18.447 48.6064C17.9657 50.0273 17.2782 52.1356 13.5657 52.1356H9.25741C7.44699 52.1356 5.70533 51.3793 4.49074 50.0502C3.29908 48.7439 2.72616 47.0023 2.88658 45.2606L4.16991 31.3043C4.51366 27.5231 5.52199 23.4898 12.8782 23.4898H42.1199C49.4762 23.4898 50.4616 27.5231 50.8282 31.3043L52.1116 45.2606C52.272 47.0023 51.6991 48.7439 50.5074 50.0502C49.2928 51.3793 47.5512 52.1356 45.7407 52.1356ZM21.6324 41.8231H33.3657C37.5366 41.8231 38.522 43.6793 39.347 46.1085L39.8282 47.5293C40.2178 48.6981 40.2178 48.721 41.4553 48.721H45.7637C46.6116 48.721 47.4137 48.3773 47.9866 47.7585C48.5366 47.1627 48.7887 46.4064 48.7199 45.6043L47.4366 31.6481C47.1387 28.5543 46.772 26.9502 42.1657 26.9502H12.8782C8.24908 26.9502 7.88241 28.5543 7.60741 31.6481L6.32408 45.6043C6.25533 46.4064 6.50741 47.1627 7.05741 47.7585C7.60741 48.3773 8.43241 48.721 9.28033 48.721H13.5887C14.8262 48.721 14.8262 48.6981 15.2157 47.5523L15.6741 46.1543C16.247 44.321 17.0949 41.8231 21.6324 41.8231Z" fill="white"/>
<path d="M9.16575 20.0523H6.87408C5.9345 20.0523 5.15533 19.2731 5.15533 18.3335C5.15533 17.3939 5.9345 16.6148 6.87408 16.6148H9.16575C10.1053 16.6148 10.8845 17.3939 10.8845 18.3335C10.8845 19.2731 10.1053 20.0523 9.16575 20.0523Z" fill="white"/>
<path d="M48.1241 20.0523H45.8324C44.8928 20.0523 44.1136 19.2731 44.1136 18.3335C44.1136 17.3939 44.8928 16.6148 45.8324 16.6148H48.1241C49.0636 16.6148 49.8428 17.3939 49.8428 18.3335C49.8428 19.2731 49.0636 20.0523 48.1241 20.0523Z" fill="white"/>
<path d="M27.4991 13.1773C26.5595 13.1773 25.7803 12.3981 25.7803 11.4585V6.87518C25.7803 5.9356 26.5595 5.15643 27.4991 5.15643C28.4387 5.15643 29.2178 5.9356 29.2178 6.87518V11.4585C29.2178 12.3981 28.4387 13.1773 27.4991 13.1773Z" fill="white"/>
<path d="M30.9366 13.1773H24.0616C23.122 13.1773 22.3428 12.3981 22.3428 11.4585C22.3428 10.5189 23.122 9.73976 24.0616 9.73976H30.9366C31.8762 9.73976 32.6553 10.5189 32.6553 11.4585C32.6553 12.3981 31.8762 13.1773 30.9366 13.1773Z" fill="white"/>
<path d="M20.6241 36.0939H13.7491C12.8095 36.0939 12.0303 35.3148 12.0303 34.3752C12.0303 33.4356 12.8095 32.6564 13.7491 32.6564H20.6241C21.5637 32.6564 22.3428 33.4356 22.3428 34.3752C22.3428 35.3148 21.5637 36.0939 20.6241 36.0939Z" fill="white"/>
<path d="M41.2491 36.0939H34.3741C33.4345 36.0939 32.6553 35.3148 32.6553 34.3752C32.6553 33.4356 33.4345 32.6564 34.3741 32.6564H41.2491C42.1887 32.6564 42.9678 33.4356 42.9678 34.3752C42.9678 35.3148 42.1887 36.0939 41.2491 36.0939Z" fill="white"/>
</svg>
