<svg width="80" height="80" viewBox="0 0 80 80" fill="none" xmlns="http://www.w3.org/2000/svg">
<path fill-rule="evenodd" clip-rule="evenodd" d="M64.9958 26.4C61.9344 26.3951 58.9617 27.4279 56.5628 29.3299C54.164 27.4278 51.1913 26.3949 48.1299 26.4C45.0687 26.3953 42.0962 27.4281 39.6974 29.3299C37.2989 27.4277 34.3262 26.3948 31.2649 26.4C28.2037 26.3953 25.2312 27.4281 22.8325 29.3299C20.4337 27.428 17.4612 26.3952 14.4 26.4C6.88775 26.4 0.799988 32.4873 0.799988 40C0.799988 47.5118 6.88731 53.6 14.4 53.6C17.4612 53.6047 20.4337 52.5719 22.8325 50.6701C25.2312 52.572 28.2037 53.6048 31.2649 53.6C34.3262 53.6051 37.2988 52.5723 39.6974 50.6701C42.0962 52.5719 45.0687 53.6047 48.1299 53.6C51.1913 53.605 54.164 52.5722 56.5628 50.6701C58.9616 52.5722 61.9343 53.605 64.9958 53.6C72.508 53.6 78.5953 47.5122 78.5953 40C78.5953 32.4878 72.508 26.4 64.9958 26.4ZM20.6073 48.4484C18.8743 49.7126 16.7093 50.4842 14.4 50.4842C8.60479 50.4842 3.91536 45.7952 3.91536 40C3.91536 34.2048 8.60479 29.5154 14.4 29.5154C16.7093 29.5154 18.8729 30.2874 20.6073 31.552C18.6964 33.9526 17.659 36.9318 17.6654 40C17.6668 43.067 18.7034 46.0438 20.6073 48.4484ZM22.8329 46.2294C21.4964 44.4279 20.7768 42.2432 20.7812 40C20.7756 37.7566 21.4953 35.5715 22.8329 33.7706C24.1703 35.5717 24.8899 37.7567 24.8846 40C24.8888 42.2431 24.1693 44.4278 22.8329 46.2294ZM37.4727 48.4484C35.6722 49.774 33.4937 50.4865 31.2579 50.4811C29.0267 50.4856 26.8531 49.773 25.0577 48.4484C26.9617 46.0441 27.9983 43.0674 27.9995 40.0004C28.0059 36.9322 26.9685 33.9531 25.0577 31.5525C26.8529 30.2275 29.0266 29.5147 31.2579 29.5194C33.584 29.5194 35.733 30.2719 37.4727 31.5525C35.5618 33.9531 34.5244 36.9322 34.5308 40.0004C34.5321 43.0674 35.5687 46.0441 37.4727 48.4484ZM39.6974 46.2294C38.3609 44.4279 37.6414 42.2432 37.6457 40C37.6403 37.7567 38.36 35.5716 39.6974 33.7706C41.0351 35.5715 41.755 37.7566 41.7495 40C41.7538 42.2432 41.0341 44.4279 39.6974 46.2294ZM54.3376 48.4484C52.598 49.7294 50.4489 50.4811 48.1233 50.4811C45.7976 50.4811 43.6622 49.7281 41.9226 48.4484C43.8268 46.0442 44.8635 43.0674 44.8645 40.0004C44.8709 36.9322 43.8334 33.9531 41.9226 31.5525C43.6622 30.2723 45.7976 29.5194 48.1233 29.5194C50.4489 29.5194 52.598 30.2719 54.3376 31.5525C52.427 33.9532 51.3896 36.9323 51.3958 40.0004C51.3973 43.0673 52.4339 46.0439 54.3376 48.4484ZM56.5633 46.2294C55.2268 44.4279 54.5072 42.2432 54.5116 40C54.5058 37.7566 55.2255 35.5714 56.5633 33.7706C57.9007 35.5717 58.6203 37.7567 58.615 40C58.619 42.2431 57.8995 44.4277 56.5633 46.2294ZM64.9958 50.4842C62.6856 50.4842 60.521 49.7126 58.7885 48.4484C60.6923 46.044 61.7289 43.0673 61.7303 40.0004C61.7365 36.9323 60.6991 33.9532 58.7885 31.5525C60.5228 30.2883 62.686 29.5158 64.9958 29.5158C70.79 29.5158 75.4804 34.2053 75.4804 40.0004C75.4804 45.7947 70.79 50.4842 64.9958 50.4842Z" fill="white"/>
</svg>
