<svg width="80" height="80" viewBox="0 0 80 80" fill="none" xmlns="http://www.w3.org/2000/svg">
<path d="M26.6 60.8C26.6 61.9 26.2 62.9 25.3 63.8C24.5 64.6 23.5 65.1 22.3 65.1H12.1V50.5H22.4C23.5 50.5 24.5 50.9 25.4 51.8C26.2 52.6 26.7 53.6 26.7 54.8C26.7 55.9 26.3 56.9 25.6 57.7C26.3 58.5 26.7 59.5 26.7 60.5V60.8H26.6ZM22.3 54.8C22.3 54.4 22.2 54.1 21.9 53.8C21.6 53.5 21.3 53.4 20.9 53.4H16.5V56.3H20.9C21.3 56.3 21.6 56.1 21.9 55.8C22.1 55.5 22.3 55.2 22.3 54.8ZM22.3 60.6C22.3 60.2 22.2 59.9 21.9 59.6C21.6 59.3 21.3 59.2 20.9 59.2H16.5V62.1H20.9C21.3 62.1 21.6 61.9 21.9 61.6C22.1 61.3 22.3 61 22.3 60.6Z" fill="white"/>
<path d="M44.1 65H39.7V62.1H33.9V65H29.5V54.7C29.5 53.6 29.9 52.6 30.8 51.7C31.6 50.9 32.6 50.4 33.8 50.4H39.8C40.9 50.4 41.9 50.8 42.8 51.7C43.6 52.5 44.1 53.5 44.1 54.7V65V65ZM39.7 59.2V54.8C39.7 54.4 39.6 54.1 39.3 53.8C39 53.5 38.7 53.4 38.3 53.4H35.3C34.9 53.4 34.6 53.5 34.3 53.8C34 54.1 33.9 54.4 33.9 54.8V59.2H39.7Z" fill="white"/>
<path d="M51.4 50.5H47V65H51.4V50.5Z" fill="white"/>
<path d="M67.9 65H59C57.9 65 56.9 64.6 56 63.7C55.1 62.9 54.7 61.9 54.7 60.7V54.6C54.7 53.5 55.1 52.5 56 51.7C56.9 50.9 57.8 50.4 58.9 50.4H67.8V53.3H60.4C60 53.3 59.7 53.4 59.4 53.7C59.1 54 59 54.3 59 54.7V60.6C59 61 59.1 61.3 59.4 61.6C59.7 61.9 60 62 60.4 62H67.8V65H67.9Z" fill="white"/>
<path d="M39.7 15C35.1 15 30.9 16.3 27.7 18.5C24.1 21 21.8 24.7 21.8 28.7C21.8 36.3 29.8 42.5 39.7 42.5C49.6 42.5 57.6 36.3 57.6 28.7C57.6 21.2 49.6 15 39.7 15ZM30.2 34.4C29.6 34.6 28.9 34.7 28.3 34.7C27.2 34.7 26.4 34.4 25.9 34.1C25.6 34 25.5 33.8 25.4 33.8C25.3 33.7 25.3 33.6 25.2 33.6C24.3 32.1 23.9 30.4 23.9 28.8C23.9 27.2 24.3 25.6 25.1 24.1C25.1 24.1 25.8 23 27 22.3C28.1 21.7 29.5 21.7 31.1 22.4C31.4 22.5 32.4 23 33.3 23.4C34.7 24 35 25.4 34.7 26.4C34.4 27.5 33.7 29.6 33.2 31C32.9 32.3 31.8 33.9 30.2 34.4ZM47 39.5C46.8 39.6 46.6 39.7 46.4 39.7H46.3C46.1 39.8 45.9 39.8 45.7 39.9H45.6C45.4 40 45.2 40 45 40.1H44.9C44.7 40.2 44.5 40.2 44.3 40.3C42.8 40.7 41.2 40.8 39.6 40.8C38 40.8 36.4 40.6 34.9 40.3C34.7 40.3 34.5 40.2 34.3 40.1H34.2C34 40 33.8 40 33.6 39.9H33.5C33.3 39.8 33.1 39.8 32.9 39.7H32.8C32.6 39.6 32.4 39.6 32.2 39.5C32.1 39.5 32 39.4 31.9 39.4L32.1 39.3C32.2 39.2 32.4 39.1 32.6 39C32.9 38.8 33.2 38.6 33.4 38.5C33.5 38.4 33.6 38.4 33.7 38.3C35.8 36.7 36.5 34.7 36.9 32.8C37.5 30.1 37.8 28 38 26.5C38.3 23.9 37.5 21.9 35.4 20.5C34.1 19.6 32.6 18.6 32.1 18.3C34.4 17.4 37 16.8 39.6 16.8C42.2 16.8 44.8 17.3 47.1 18.2C46.6 18.5 45.1 19.5 43.8 20.4C41.7 21.8 40.8 23.9 41.2 26.4C41.4 28 41.8 30.1 42.3 32.7C42.7 34.6 43.4 36.6 45.5 38.2C45.6 38.3 45.7 38.3 45.8 38.4C46 38.5 46.3 38.7 46.6 38.9C46.8 39 47 39.1 47.1 39.2L47.3 39.3C47.2 39.4 47.1 39.5 47 39.5ZM51.1 34.8C50.5 34.8 49.8 34.7 49.2 34.5C47.6 33.9 46.5 32.3 46.1 31C45.6 29.7 44.9 27.5 44.6 26.4C44.3 25.4 44.6 24 46 23.4C46.9 23 47.9 22.6 48.2 22.4C49 22 49.8 21.9 50.5 21.9C51.2 21.9 51.8 22.1 52.3 22.4C53 22.8 53.6 23.4 53.9 23.8C54 23.9 54.1 24 54.2 24.2C54.3 24.3 54.4 24.6 54.5 24.7C55.1 26 55.5 27.4 55.5 28.9C55.5 30.6 55 32.3 54.1 33.9C54.1 33.9 54.1 34 54 34L53.9 34.1C53.7 34.1 52.6 34.8 51.1 34.8Z" fill="white"/>
</svg>
