<svg width="80" height="80" viewBox="0 0 80 80" fill="none" xmlns="http://www.w3.org/2000/svg">
<g clip-path="url(#clip0_13_6367)">
<path d="M40.3086 50.4939C40.6876 51.2077 41.7899 51.0052 41.9472 50.2876C42.4006 50.948 43.4505 50.6397 43.5506 49.945C43.9897 50.4234 44.8608 50.2318 45.0581 49.6123C45.061 49.6033 45.0553 49.6214 45.0581 49.6123C48.2892 48.2843 50.654 45.8817 51.5789 43.0136C51.7752 42.9316 51.9468 42.8001 52.0771 42.6319C53.0764 42.8668 54.193 43.3367 54.6044 42.2207C55.4865 42.4556 57.3358 43.0708 57.8956 41.575C59.1885 41.7513 61.0689 41.8685 61.3044 40.5176C62.421 40.5176 64.36 40.3413 64.36 39.049C65.4771 39.049 67.4161 38.2852 67.1811 37.4041C68.1804 37.2869 69.5325 36.2295 69.5325 35.5247C70.5313 35.2312 71.6484 34.4674 71.4128 33.4691C72.0002 33.1164 72.9995 32.7052 72.9995 32.1181C72.9995 31.5311 72.5294 31.0608 72.0002 31.0608C71.471 31.0608 69.4729 31.1818 68.7677 31.1818C68.0631 31.1818 59.5409 31.0641 57.5428 31.1818C55.5446 31.299 53.0173 31.3543 51.7829 31.2371C50.8737 31.1494 47.7762 30.9721 45.9163 31.4691C41.9773 29.5183 37.0232 29.5178 33.0832 31.4691C31.2238 30.9726 28.1258 31.1499 27.2161 31.2361C25.9818 31.3538 23.4549 31.2981 21.4563 31.1808C19.4582 31.0632 10.936 31.1808 10.2308 31.1808C9.52569 31.1808 7.52756 31.0598 6.99835 31.0598C6.46914 31.0598 6 31.5301 6 32.1172C6 32.7047 6.9993 33.116 7.58716 33.4681C7.35163 34.4669 8.4687 35.2303 9.46752 35.5238C9.46752 36.2285 10.8192 37.2859 11.8185 37.4031C11.5834 38.2847 13.5229 39.0481 14.6395 39.0481C14.6395 40.3399 16.579 40.5167 17.6956 40.5167C17.9306 41.8676 19.8114 41.7504 21.1044 41.5741C21.6642 43.0703 23.514 42.4551 24.3956 42.2197C24.807 43.3362 25.9236 42.8659 26.9229 42.631C27.0593 42.8082 27.2309 42.9312 27.4211 43.0127C28.346 45.8813 30.7113 48.2838 33.9419 49.6119C33.9442 49.6209 33.939 49.6028 33.9419 49.6119C34.1392 50.2313 35.0103 50.4229 35.4494 49.9445C35.5495 50.6392 36.5994 50.9471 37.0528 50.2871C37.2096 51.0047 38.3124 51.2072 38.6909 50.4934C38.781 51.161 40.2185 51.161 40.3086 50.4939V50.4939Z" fill="#151317"/>
<path d="M29.3325 42.8668C29.6781 43.6564 30.7704 43.492 31.4245 43.2456C32.297 44.5723 33.7483 45.652 35.5352 46.3044L34.1159 48.7089C31.3568 47.5076 29.3144 45.4967 28.4142 43.1289C28.7328 43.0937 29.0433 43.0051 29.3325 42.8668V42.8668Z" fill="white"/>
<path d="M33.9104 49.3331C30.8643 48.0475 28.6254 45.7983 27.6981 43.1022C27.8512 43.1356 28.0099 43.1484 28.1687 43.1456C29.0769 45.5982 31.1742 47.6825 34.011 48.92C33.9539 49.0508 33.9199 49.1906 33.9104 49.3331V49.3331ZM35.5042 49.405C35.5038 49.4065 35.5033 49.4079 35.5028 49.4093C35.0513 50.5196 33.7121 49.8773 34.318 48.8289L35.7612 46.3844C36.0258 46.474 36.2971 46.5541 36.5746 46.6256C36.5803 46.6632 35.52 49.3545 35.5042 49.405V49.405ZM37.0304 49.7505C36.751 50.8613 35.4113 50.5225 35.7264 49.4827L36.8735 46.697C37.1462 46.759 37.4242 46.8114 37.7069 46.8538C37.7097 46.8643 37.0304 49.7505 37.0304 49.7505V49.7505ZM38.6032 49.9259C38.5036 51.121 37.0356 50.9137 37.2988 49.7234C37.2988 49.7243 37.9543 46.8953 37.9567 46.8891C38.2323 46.9238 38.5117 46.9505 38.7953 46.9667C38.8054 46.9925 38.6042 49.9021 38.6032 49.9259V49.9259ZM38.8588 49.9078C38.8588 49.9082 39.0151 47.0149 39.0175 47.0077C39.2921 47.0192 39.6979 47.0273 39.9806 46.9987C39.9939 47.0234 40.1761 49.8777 40.1789 49.9011C40.2676 51.0709 38.7887 51.0948 38.8588 49.9078V49.9078ZM6.96689 31.7627C7.09847 31.6621 7.38167 31.6674 7.73972 31.6473C9.56145 31.6473 13.7932 31.765 14.6161 31.765C15.439 31.765 21.2575 32.4112 22.1681 32.7052C22.5796 32.8229 22.6678 33.2336 22.1681 33.2632C21.6685 33.2927 15.4571 33.3814 14.5756 33.3814C13.8919 33.3814 10.3357 33.3695 8.28038 32.962C7.16856 32.7414 6.57165 32.0638 6.96689 31.7627V31.7627ZM8.96787 33.9379C10.0258 33.9675 15.3151 33.997 15.9325 33.9675C16.5494 33.9379 21.3395 33.6739 21.8978 33.6444C23.1054 33.581 23.4964 34.1185 22.221 34.4083C21.5745 34.5555 15.6092 35.2307 11.0838 35.1426C10.2313 35.1721 9.08564 34.7313 8.79147 34.3201C8.49778 33.9089 8.82103 33.9379 8.96787 33.9379V33.9379ZM11.0251 35.8769C11.7598 35.8769 20.4284 35.2307 22.2506 34.849C23.8354 34.6079 23.4778 35.4218 22.838 35.5538C22.3002 35.6648 15.8734 36.9047 12.6118 36.9633C11.5243 36.9342 10.2609 35.9059 11.0251 35.8769V35.8769ZM13.2287 37.6976C14.2576 37.5799 21.1044 36.4935 22.9557 35.9941C24.6301 35.5605 24.2921 36.6726 23.6904 36.8461C23.1545 37.0005 17.3194 38.42 15.9911 38.491C15.4279 38.5206 14.8632 38.4825 14.3091 38.3776C12.4325 38.0026 13.2287 37.6976 13.2287 37.6976V37.6976ZM15.9911 39.2248C16.7258 39.0781 22.6911 37.7267 24.3956 37.081C25.2261 36.7918 25.4759 37.6071 24.9539 37.8444C24.6306 37.9911 20.0465 39.9001 17.872 40.0178C17.0786 40.0178 15.6111 39.5908 15.9911 39.2248V39.2248ZM25.7176 37.9911C25.0421 38.3142 20.928 40.0473 19.3409 40.3999C19.1206 40.4585 18.888 40.5557 18.9065 40.6782C19.0477 41.616 21.9683 40.8183 22.171 40.7535C23.2942 40.3937 25.5841 39.5536 26.5553 38.6078C26.3203 38.4905 25.7768 38.1088 25.7176 37.9911ZM26.952 38.9899C26.5115 39.2834 23.6313 40.7821 22.3092 41.1928C21.6184 41.423 22.3455 42.133 23.6947 41.7484C25.186 41.5173 27.3634 39.7538 27.7162 39.4307C27.5398 39.3425 27.1579 39.1076 26.952 38.9899ZM28.3041 39.7833C27.7715 40.1474 26.7465 40.8278 26.0957 41.2619C25.8273 41.4411 25.1865 41.7951 25.2003 42.0782C25.207 42.2135 25.4645 42.4704 26.6407 42.0434C27.372 41.7442 28.2574 41.1357 29.0092 40.0478C28.8624 40.003 28.48 39.871 28.3041 39.7833V39.7833ZM29.6262 40.2236C29.3506 40.499 28.9945 40.8755 28.6459 41.2224C28.3251 41.636 27.6099 41.9338 27.8559 42.4118C28.1224 42.9292 28.9616 42.1845 29.2638 41.8995C29.691 41.4959 30.1034 40.9627 30.2584 40.429C30.0524 40.3704 29.8174 40.3118 29.6262 40.2236Z" fill="white"/>
<path d="M19.4 31.5301C20.1643 31.5301 22.7498 31.7065 23.6904 31.7065C26.3927 31.7065 30.0495 31.2299 32.5631 31.746C34.1254 32.0667 34.3495 32.5189 34.3495 33.005C34.3495 33.6373 33.8208 34.0171 33.446 34.2915C33.0055 34.6146 31.6534 35.4075 31.5947 37.4637C31.2424 37.3169 30.7428 37.2288 31.0956 36.4945C31.7111 35.2636 33.0951 33.7645 30.728 33.126C30.3547 33.0254 29.8946 32.9597 29.3325 32.9406C27.599 32.882 25.085 32.8691 24.2325 32.7224C23.3805 32.5756 20.1638 31.8246 19.4882 31.737C19.194 31.706 19.194 31.5592 19.4 31.5301V31.5301Z" fill="white"/>
<path d="M26.1934 33.3161C26.8104 33.3161 28.6998 33.3032 29.3334 33.3332C31.086 33.4166 32.3375 34.2701 31.0717 35.8716C30.8238 36.1847 30.1611 36.8409 29.8965 37.0758C29.6614 37.2521 29.2204 36.9581 29.6023 36.5178C29.1027 36.8113 28.4857 36.7527 28.7794 36.0775C28.3384 36.4301 27.6042 36.4592 28.0447 35.549C27.751 35.784 26.9281 35.7549 27.4569 35.0496C27.0163 35.1964 26.5167 34.9319 26.8399 34.4916C26.2816 34.5803 25.9584 34.1686 26.5462 33.846C25.9879 33.9913 25.8411 33.3452 26.1934 33.3161V33.3161ZM24.4694 33.004C24.2315 32.9887 23.1993 32.821 23.2241 33.3771C23.2489 33.9337 24.3955 33.7235 24.6311 33.6797C25.0649 33.5991 25.4115 33.4667 25.4015 33.287C25.3915 33.1026 24.9395 33.0335 24.4694 33.004ZM24.5114 33.9575C24.2606 33.9765 23.3591 33.9322 23.4997 34.4411C23.544 34.6012 23.8754 34.9253 24.9839 34.656C25.4697 34.5379 25.7214 34.2777 25.7214 34.0709C25.7214 33.8903 25.0683 33.9151 24.5114 33.9575V33.9575ZM25.2232 34.7838C25.0449 34.8133 24.0113 34.8838 24.1843 35.4046C24.3054 35.7677 24.4914 35.6529 24.8065 35.6906C25.0144 35.7153 26.5543 35.2817 26.3136 34.788C26.2421 34.6413 25.7891 34.6908 25.2232 34.7838V34.7838ZM25.7343 35.5219C24.7093 35.9379 24.7226 36.2195 24.7693 36.3715C24.8156 36.524 25.2857 36.7122 26.2583 36.2371C26.7508 35.9965 26.757 35.723 26.6359 35.5295C26.4847 35.2869 26.1024 35.3722 25.7343 35.5219ZM26.4518 36.2214C25.3848 36.5931 25.4459 36.9323 25.5303 37.1315C25.6232 37.3517 25.9603 37.5861 26.8509 37.0191C27.3887 36.6769 27.7386 36.3901 27.6428 36.1623C27.556 35.9555 27.0473 36.0093 26.4518 36.2214V36.2214ZM26.8695 37.2897C26.5896 37.4594 26.4623 37.689 26.6387 37.9507C26.9544 38.4195 27.885 37.5923 28.1186 37.3393C28.2922 37.1515 28.4032 36.9543 28.305 36.8099C28.2035 36.6612 27.8879 36.6726 26.8695 37.2897V37.2897ZM28.5544 37.3693C27.3119 38.0026 27.4311 38.3095 27.6042 38.4405C27.7954 38.5854 28.2459 38.7374 28.9992 37.8673C29.3296 37.4861 29.148 37.0686 28.5544 37.3693V37.3693ZM29.1747 38.0336C28.9124 38.3266 28.2979 38.7683 28.7737 39.0976C29.1747 39.3749 29.4097 39.0705 29.6071 38.8818C30.7485 37.7843 30.3709 37.0896 29.1747 38.0336V38.0336Z" fill="white"/>
<path d="M32.924 32.2811C33.7965 32.7171 34.1574 33.1803 33.2615 33.8131C33.1519 33.8903 33.2873 34.0823 33.3969 34.0051C34.3829 33.3094 34.1707 32.5875 33.0293 32.071C32.9092 32.0109 32.8043 32.2211 32.924 32.2811Z" fill="#151317"/>
<path d="M44.8994 42.2226C44.8994 41.2858 43.9339 40.349 42.8617 40.0259C42.5752 39.9611 42.6204 39.7066 42.8436 39.6061C43.0581 39.5089 44.3096 38.6368 44.292 37.5385C44.292 36.4725 43.04 34.8571 39.3927 34.8571C37.2473 34.8571 35.4594 35.3418 34.3867 36.2467C34.6365 36.4406 34.9231 36.7313 34.9231 37.0543V42.9664C34.8873 43.3219 34.7085 43.6126 34.422 43.9357C35.385 44.619 37.1095 45.2708 39.5854 45.2627C42.2314 45.1979 44.8994 44.4193 44.8994 42.2226Z" fill="white"/>
<path d="M39.5739 39.3768C40.7119 39.3768 41.6345 38.6404 41.6345 37.7319C41.6345 36.8235 40.7119 36.087 39.5739 36.087C38.4359 36.087 37.5133 36.8235 37.5133 37.7319C37.5133 38.6404 38.4359 39.3768 39.5739 39.3768Z" fill="#151317"/>
<path d="M39.8395 43.9266C41.1152 43.9266 42.1494 43.1492 42.1494 42.1902C42.1494 41.2312 41.1152 40.4538 39.8395 40.4538C38.5637 40.4538 37.5295 41.2312 37.5295 42.1902C37.5295 43.1492 38.5637 43.9266 39.8395 43.9266Z" fill="#151317"/>
<path d="M30.6221 39.3535C30.7027 38.9528 30.8319 38.5635 31.0045 38.1894C30.9945 38.1746 30.6889 37.7839 29.9361 38.8713C29.5203 39.4712 30.2545 39.7128 30.6221 39.3535ZM30.5978 41.2005C30.2879 41.5602 29.9956 41.8624 29.8026 42.1035C29.3992 42.6076 30.4486 43.229 31.014 42.5123C30.8181 42.0953 30.6781 41.6542 30.5978 41.2005V41.2005ZM45.061 31.8027C45.2273 31.7086 45.4023 31.6307 45.5835 31.5702C41.8209 29.7975 37.1786 29.7975 33.4164 31.5702C33.6119 31.6378 33.7874 31.715 33.9385 31.8027C37.4227 30.286 41.6073 30.2993 45.061 31.8027Z" fill="white"/>
<path d="M46.7931 36.4663C46.3707 34.9977 45.3161 34.4002 44.907 34.1143C44.0846 33.5401 44.1294 32.6914 44.8322 31.9599C41.4743 30.5452 37.4861 30.5614 34.1679 31.9599C34.8706 32.6914 34.9149 33.5401 34.093 34.1143C33.6839 34.4002 32.6288 34.9977 32.2069 36.4663C35.7936 32.7719 43.2064 32.7714 46.7931 36.4663V36.4663ZM49.6675 42.8668C49.3214 43.6564 48.2291 43.492 47.5755 43.2457C46.703 44.5723 45.2517 45.6521 43.4643 46.3044L44.8841 48.7089C47.6432 47.5076 49.6852 45.4967 50.5863 43.1289C50.2674 43.0938 49.9568 43.0052 49.6675 42.8668V42.8668Z" fill="white"/>
<path d="M45.0896 49.3331C48.1357 48.0475 50.375 45.7983 51.3019 43.1022C51.1472 43.1348 50.9893 43.1494 50.8313 43.1456C49.9231 45.5982 47.8258 47.6825 44.989 48.92C45.0461 49.0508 45.0802 49.1906 45.0896 49.3331V49.3331ZM43.4953 49.405L43.4972 49.4093C43.9487 50.5196 45.288 49.8773 44.682 48.8289L43.2388 46.3844C42.9742 46.474 42.7034 46.5541 42.4254 46.6256C42.4197 46.6632 43.48 49.3545 43.4953 49.405V49.405ZM41.9692 49.7505C42.249 50.8613 43.5883 50.5225 43.2731 49.4827C43.2731 49.4827 42.1861 46.8414 42.126 46.697C41.8538 46.759 41.5758 46.8114 41.2931 46.8538C41.2903 46.8643 41.9692 49.7505 41.9692 49.7505V49.7505ZM40.3968 49.9259C40.4964 51.121 41.9639 50.9137 41.7008 49.7234C41.7012 49.7243 41.0457 46.8953 41.0428 46.8891C40.7672 46.9238 40.4874 46.9505 40.2042 46.9667C40.1947 46.9925 40.3958 49.9021 40.3968 49.9259ZM72.0331 31.7627C71.9015 31.6621 71.6183 31.6674 71.2603 31.6473C69.4386 31.6473 65.2068 31.765 64.3839 31.765C63.561 31.765 57.7425 32.4112 56.8319 32.7052C56.4204 32.8229 56.3322 33.2336 56.8319 33.2632C57.3315 33.2927 63.5424 33.3814 64.4239 33.3814C65.1081 33.3814 68.6643 33.3695 70.7192 32.962C71.8319 32.7414 72.4288 32.0638 72.0331 31.7627V31.7627ZM70.0317 33.9379C68.9737 33.9675 63.6849 33.997 63.0675 33.9675C62.4506 33.9379 57.6605 33.6739 57.1022 33.6444C55.8946 33.581 55.5032 34.1185 56.779 34.4083C57.425 34.5555 63.3908 35.2307 67.9158 35.1426C68.7677 35.1721 69.9139 34.7313 70.2081 34.3201C70.5022 33.9089 70.179 33.9379 70.0317 33.9379V33.9379ZM67.9749 35.8769C67.2402 35.8769 58.5716 35.2307 56.7494 34.849C55.1646 34.6079 55.5222 35.4218 56.162 35.5538C56.6998 35.6648 63.1262 36.9047 66.3882 36.9633C67.4752 36.9342 68.7387 35.9059 67.9749 35.8769V35.8769ZM65.7713 37.6976C64.7429 37.5799 57.8956 36.4935 56.0448 35.9941C54.3704 35.5605 54.7079 36.6726 55.3101 36.8461C55.8455 37.0005 61.6806 38.42 63.0089 38.491C63.5721 38.5206 64.1368 38.4825 64.6909 38.3776C66.5675 38.0026 65.7713 37.6976 65.7713 37.6976V37.6976ZM63.0089 39.2248C62.2742 39.0781 56.3089 37.7267 54.6044 37.081C53.7744 36.7918 53.5241 37.6071 54.0461 37.8444C54.3694 37.9911 58.9535 39.9001 61.128 40.0178C61.9214 40.0178 63.3889 39.5908 63.0089 39.2248V39.2248ZM53.2819 37.9911C53.9575 38.3142 58.072 40.0473 59.6586 40.3999C59.8789 40.4585 60.1116 40.5557 60.093 40.6782C59.9519 41.616 57.0312 40.8183 56.8286 40.7535C55.7058 40.3937 53.4154 39.5536 52.4442 38.6078C52.6797 38.4905 53.2232 38.1088 53.2819 37.9911V37.9911ZM52.0475 38.9899C52.4881 39.2834 55.3682 40.7821 56.6903 41.1928C57.3811 41.423 56.6541 42.133 55.3048 41.7484C53.8135 41.5173 51.6361 39.7538 51.2833 39.4307C51.4602 39.3425 51.8421 39.1076 52.0475 38.9899V38.9899ZM50.6964 39.7833C51.2285 40.1474 52.254 40.8278 52.9048 41.2619C53.1732 41.4411 53.814 41.7951 53.8001 42.0782C53.7935 42.2135 53.536 42.4704 52.3598 42.0434C51.6285 41.7442 50.7431 41.1357 49.9912 40.0478C50.1376 40.003 50.5195 39.871 50.6964 39.7833V39.7833ZM49.3734 40.2236C49.6489 40.499 50.0056 40.8755 50.3541 41.2224C50.6754 41.636 51.3906 41.9338 51.1441 42.4118C50.8776 42.9292 50.0384 42.1845 49.7367 41.8995C49.3095 41.4959 48.8966 40.9627 48.7416 40.429C48.9476 40.3704 49.1827 40.3118 49.3734 40.2236Z" fill="white"/>
<path d="M59.6 31.5301C58.8357 31.5301 56.2502 31.7065 55.3096 31.7065C52.6068 31.7065 48.95 31.2299 46.437 31.746C44.8746 32.0667 44.6505 32.5189 44.6505 33.005C44.6505 33.6373 45.1788 34.0171 45.5535 34.2915C45.9945 34.6146 47.3466 35.4075 47.4053 37.4637C47.7576 37.3169 48.2572 37.2288 47.9049 36.4945C47.2889 35.2636 45.9054 33.7645 48.2725 33.126C48.6458 33.0254 49.1059 32.9597 49.6685 32.9406C51.402 32.882 53.916 32.8691 54.768 32.7224C55.62 32.5756 58.8367 31.8246 59.5123 31.737C59.806 31.706 59.806 31.5592 59.6 31.5301V31.5301Z" fill="white"/>
<path d="M52.8061 33.3161C52.1891 33.3161 50.2997 33.3032 49.6661 33.3332C47.9135 33.4166 46.662 34.2701 47.9278 35.8716C48.1757 36.1847 48.8384 36.8409 49.103 37.0758C49.3381 37.2521 49.7791 36.9581 49.3967 36.5178C49.8969 36.8113 50.5138 36.7527 50.2201 36.0775C50.6606 36.4301 51.3953 36.4592 50.9548 35.549C51.2485 35.784 52.0714 35.7549 51.5422 35.0496C51.9832 35.1964 52.4828 34.9319 52.1591 34.4916C52.7179 34.5803 53.0411 34.1686 52.4528 33.846C53.012 33.9913 53.1589 33.3452 52.8061 33.3161V33.3161ZM54.5305 33.004C54.7685 32.9887 55.8007 32.821 55.7759 33.3771C55.7511 33.9337 54.6044 33.7235 54.3689 33.6797C53.9351 33.5991 53.5885 33.4667 53.5985 33.287C53.6085 33.1026 54.0605 33.0335 54.5305 33.004ZM54.4891 33.9575C54.7394 33.9765 55.6414 33.9322 55.5003 34.4411C55.456 34.6012 55.1251 34.9253 54.0166 34.656C53.5303 34.5379 53.279 34.2777 53.279 34.0709C53.279 33.8903 53.9317 33.9151 54.4891 33.9575V33.9575ZM53.7763 34.7838C53.9546 34.8133 54.9882 34.8838 54.8152 35.4046C54.6941 35.7677 54.5081 35.6529 54.193 35.6906C53.9851 35.7153 52.4452 35.2817 52.6859 34.788C52.7579 34.6413 53.2109 34.6908 53.7763 34.7838V34.7838ZM53.2657 35.5219C54.2903 35.9379 54.2769 36.2195 54.2307 36.3715C54.1839 36.524 53.7143 36.7122 52.7417 36.2371C52.2492 35.9965 52.2425 35.723 52.3636 35.5295C52.5153 35.2869 52.8976 35.3722 53.2657 35.5219V35.5219ZM52.5477 36.2214C53.6147 36.5931 53.5537 36.9323 53.4693 37.1315C53.3763 37.3517 53.0392 37.5861 52.1481 37.0191C51.6104 36.6769 51.2604 36.3901 51.3567 36.1623C51.444 35.9555 51.9522 36.0093 52.5477 36.2214V36.2214ZM52.13 37.2897C52.4099 37.4594 52.5372 37.689 52.3608 37.9507C52.0456 38.4195 51.1145 37.5923 50.8809 37.3393C50.7078 37.1515 50.5963 36.9543 50.6945 36.8099C50.796 36.6612 51.1121 36.6726 52.13 37.2897V37.2897ZM50.4456 37.3693C51.6881 38.0026 51.5689 38.3095 51.3958 38.4405C51.2046 38.5854 50.7541 38.7374 50.0008 37.8673C49.6704 37.4861 49.852 37.0686 50.4456 37.3693V37.3693ZM49.8249 38.0336C50.0871 38.3266 50.7016 38.7683 50.2263 39.0976C49.8249 39.3749 49.5898 39.0705 49.3929 38.8818C48.2515 37.7843 48.6291 37.0896 49.8249 38.0336Z" fill="white"/>
<path d="M46.076 32.2811C45.2036 32.7171 44.8426 33.1803 45.739 33.8131C45.8481 33.8903 45.7127 34.0823 45.6031 34.0051C44.6176 33.3094 44.8298 32.5875 45.9711 32.071C46.0908 32.0109 46.1957 32.2211 46.076 32.2811V32.2811Z" fill="#151317"/>
<path d="M48.3779 39.3535C48.2968 38.9528 48.1681 38.5635 47.995 38.1894C48.005 38.1746 48.3106 37.7839 49.0635 38.8713C49.4797 39.4712 48.7455 39.7128 48.3779 39.3535ZM48.4017 41.2005C48.7116 41.5602 49.0043 41.8623 49.1974 42.1035C49.6008 42.6076 48.5514 43.229 47.986 42.5123C48.1819 42.0925 48.323 41.6532 48.4017 41.2005Z" fill="white"/>
</g>
<defs>
<clipPath id="clip0_13_6367">
<rect width="67" height="21" fill="white" transform="translate(6 30)"/>
</clipPath>
</defs>
</svg>
