<svg width="80" height="80" viewBox="0 0 80 80" fill="none" xmlns="http://www.w3.org/2000/svg">
<path d="M35.8 8.15446C27.4933 9.50113 20.6533 14.5411 17.0533 22.0211C13.2133 29.9678 13.8667 39.3278 18.7867 46.6345C24.2933 54.8478 34.1333 59.0211 43.8667 57.3011C49.2133 56.3545 54.5333 53.3678 58.08 49.3145C61.7333 45.1545 63.8267 40.2078 64.28 34.6478C64.64 30.4611 63.8 25.9945 61.9467 22.1545C60.6667 19.4878 59.4133 17.6611 57.4667 15.6345C53.88 11.9011 49.5333 9.47447 44.48 8.4078C43.0933 8.11447 42.4533 8.0478 39.9333 8.0078C37.8133 7.98113 36.6667 8.02113 35.8 8.15446V8.15446ZM41.4 10.6211C46.4933 11.1011 51.0667 13.1545 54.6267 16.5411C56.8267 18.6345 58.1733 20.4478 59.4 22.9545C61.9067 28.0478 62.3867 33.6611 60.8 39.1145C58.48 47.0745 51.68 53.1678 43.4 54.7011C42.3867 54.9011 41.44 54.9545 39.4 54.9545C36.4 54.9545 35.3733 54.7945 32.8133 54.0078C21.0267 50.3411 14.52 37.7811 18.2933 25.9545C19.4133 22.4478 21.36 19.3678 24.1333 16.7145C28.7867 12.2478 35.0933 10.0345 41.4 10.6211V10.6211Z" fill="white"/>
<path d="M43.6 19.6878V21.4211H33.8667V24.7545L29.04 24.7811L24.2 24.8211V31.8878C24.2 38.7811 24.2133 38.9945 24.5067 40.4078C24.9333 42.3678 25.5733 44.2078 26.6133 46.3411C27.92 49.0478 29.76 52.0345 30.0267 51.8745C30.36 51.6611 32.1067 48.7811 33.0667 46.8211C34.1333 44.6478 34.76 43.0345 35.0667 41.6478C35.16 41.2345 35.28 40.8878 35.32 40.8878C35.36 40.8878 35.5067 41.1678 35.6533 41.5278C36.1333 42.7278 37.72 45.6878 38.6667 47.1545L39.6267 48.6211L39.9867 48.1278C41.88 45.4611 43.6533 41.9545 44.4667 39.2211C45.0933 37.1278 45.0133 37.2878 45.2133 37.8211C45.6 38.8878 47.0133 41.5545 48.0933 43.2878C48.7333 44.3145 49.2933 45.1545 49.3333 45.1545C49.3733 45.1545 49.8 44.5411 50.28 43.7811C52.4533 40.4478 53.9467 37.0878 54.7067 33.8878C54.96 32.7545 54.9867 32.2478 55.0267 25.3145L55.08 17.9545H43.6V19.6878ZM53.2 25.9411C53.2 32.7411 53.16 33.1545 52.32 35.5811C52.0533 36.3278 51.6 37.4211 51.3067 38.0078C50.6133 39.4078 49.48 41.2878 49.3333 41.2878C48.9733 41.2878 46.92 37.3811 46.2933 35.4878C45.4533 32.9945 45.44 32.8478 45.3733 26.0478L45.3067 19.8211H53.2V25.9411ZM43.5333 29.3545C43.5333 34.7811 43.5067 35.6211 43.2933 36.6211C42.7733 39.0211 41.8267 41.3411 40.3867 43.6745L39.6933 44.7945L39.4267 44.4745C38.3867 43.1811 36.7467 39.6878 36.12 37.4211C35.8267 36.3145 35.8133 36.1011 35.76 29.7145L35.72 23.1545L39.6267 23.1811L43.5333 23.2211V29.3545ZM33.8667 32.5145C33.8667 39.0345 33.7867 39.9545 33.0533 42.1545C32.8267 42.8078 32.3867 43.9145 32.0667 44.6078C31.4933 45.8211 30.2 48.0345 29.9867 48.1678C29.84 48.2478 28.4533 45.9678 27.8 44.5545C27.2133 43.3145 26.7067 41.8611 26.32 40.3545C26.12 39.6211 26.08 38.5411 26.04 33.0478L25.9867 26.6211H33.8667V32.5145Z" fill="white"/>
<path d="M45.8933 20.3278C46.04 20.7145 52.5733 32.2345 52.68 32.3011C52.7467 32.3411 52.8 29.9278 52.8 26.3011V20.2211H49.32C47.4133 20.2211 45.8667 20.2745 45.8933 20.3278V20.3278ZM45.7733 28.8211C45.8267 31.3278 45.9067 32.5545 46.0667 33.2611C46.32 34.3811 46.92 36.1811 47.4267 37.2745C47.88 38.2478 49.2267 40.6211 49.32 40.6211C49.5467 40.6211 51.7333 36.3411 51.7333 35.9145C51.7333 35.7145 46.0933 25.7278 45.84 25.4878C45.7467 25.3945 45.72 26.3945 45.7733 28.8211V28.8211ZM36.2267 23.6611C36.2 23.7145 36.7867 24.8345 37.5333 26.1545C38.2667 27.4745 39.8133 30.2078 40.9467 32.2211L43 35.8878L43.0933 34.7545C43.1333 34.1278 43.1733 31.3945 43.1867 28.6745C43.2 24.1811 43.1733 23.7145 42.9733 23.6345C42.68 23.5145 36.28 23.5411 36.2267 23.6611V23.6611ZM36.1733 32.5545C36.24 36.5811 36.2933 36.9678 37.1467 39.2345C37.5733 40.3678 38.64 42.5545 39.2133 43.4345C39.6 44.0345 39.6533 44.0745 39.8 43.8611C40.24 43.2211 41.2667 41.2745 41.68 40.3278L42.12 39.2878L40.2533 35.9811C39.2133 34.1678 37.9467 31.9411 37.4267 31.0211C36.9067 30.1011 36.4 29.2345 36.3067 29.0878C36.1467 28.8611 36.12 29.3411 36.1733 32.5545V32.5545ZM26.8133 27.7811C27.2667 28.5545 28.1467 30.1411 31.4667 36.0478C33.0267 38.8345 33.28 39.2211 33.3467 38.9145C33.4 38.7145 33.44 35.9545 33.4533 32.7811L33.4667 27.0211H26.3867L26.8133 27.7811ZM26.4267 35.8211C26.4933 39.2478 26.52 39.5678 26.84 40.7545C27.4133 42.8611 28.36 44.9811 29.64 47.0611L29.96 47.5811L30.52 46.6211C31.1733 45.5278 32.4 43.0345 32.4 42.7945C32.4 42.7011 32.08 42.0745 31.68 41.3945C31.28 40.7145 29.96 38.3811 28.7333 36.2211C27.5067 34.0611 26.48 32.2611 26.44 32.2211C26.4 32.1811 26.4 33.8078 26.4267 35.8211ZM49.5733 61.9545C47.52 62.1945 46.1867 62.9545 45.4933 64.2745C45.16 64.9011 45.1333 65.0745 45.1333 66.5545C45.1333 68.0478 45.16 68.2078 45.52 68.9278C46.3067 70.5545 48.16 71.2878 51.4 71.2878C53.5067 71.2878 55.32 70.7945 56.1867 69.9811C56.6133 69.5811 57.0533 68.7011 57.0667 68.2478C57.0667 67.9678 57.0133 67.9545 56.0933 67.9545H55.1333L54.96 68.6478C54.6267 70.0611 53.6933 70.5545 51.3333 70.5545C50.0133 70.5545 49.72 70.5145 49.24 70.2611C48.0667 69.6345 47.6667 68.5678 47.76 66.3011C47.84 64.5945 48.0667 63.8878 48.7467 63.3011C49.3333 62.7811 49.9867 62.6211 51.4267 62.6078C52.92 62.6078 53.72 62.8078 54.3333 63.3411C54.7067 63.6611 54.84 63.8878 54.8933 64.3145L54.9733 64.8878H56.8V62.3811L55.9067 62.2211C53.7467 61.8478 51.4133 61.7411 49.5733 61.9545ZM8.13333 62.3278C8.13333 62.6211 8.37333 62.7545 8.88 62.7545C9.37333 62.7545 9.96 63.1011 10.0533 63.4478C10.0933 63.6211 10.1333 65.0345 10.1333 66.5945C10.1333 70.1411 10.0533 70.3278 8.53333 70.5678C8.13333 70.6345 8 70.7145 8 70.9011C8 71.1411 8.21333 71.1545 13.44 71.1545C19.3067 71.1545 19.9467 71.0878 20.9067 70.4478C21.5467 70.0211 21.8667 69.3811 21.8667 68.4878C21.8667 67.2078 21.3467 66.7411 19.6667 66.5011C19.1733 66.4211 18.7467 66.3411 18.7067 66.3011C18.68 66.2745 18.9733 66.1811 19.36 66.1011C20.7333 65.8078 21.3867 65.1678 21.3867 64.1011C21.3733 63.2878 21.0533 62.7145 20.44 62.4078C19.9733 62.1678 19.4933 62.1545 14.04 62.1145C8.26667 62.0745 8.13333 62.0745 8.13333 62.3278V62.3278ZM17.52 62.9011C18.28 63.1145 18.6667 63.5545 18.6667 64.2211C18.6667 64.9545 18.3467 65.5411 17.8267 65.7545C17.16 66.0211 15.72 66.1278 14.0267 66.0211L12.4933 65.9145L12.5733 64.6345C12.6533 63.4745 12.6933 63.3278 13 63.0478C13.32 62.7811 13.4667 62.7545 15.1733 62.7545C16.1733 62.7545 17.2267 62.8211 17.52 62.9011V62.9011ZM18.08 67.0345C18.8533 67.2345 19.2 67.6745 19.2 68.4611C19.2 70.0611 17.8533 70.6345 14.6267 70.4078C12.7467 70.2745 12.64 70.1811 12.56 68.3145L12.4933 66.8878H14.9867C16.4 66.8878 17.7467 66.9545 18.08 67.0345V67.0345ZM22.4 62.4211C22.4 62.7145 22.4533 62.7545 22.8533 62.7545C23.4667 62.7545 24.1067 62.9945 24.2667 63.2878C24.3467 63.4345 24.4 64.7545 24.4 66.3145C24.4 68.9411 24.4133 69.1278 24.7067 69.6878C25.24 70.7678 26.6933 71.2878 29.1067 71.2878C30.6267 71.2878 31.4667 71.0878 32.2667 70.5545L32.9333 70.1011V71.1545H37.2V70.8345C37.2 70.5678 37.12 70.5011 36.6 70.4345C36.28 70.3811 35.88 70.2345 35.7067 70.0878L35.4 69.8478L35.44 65.9678L35.48 62.0878H30.7867L30.8267 62.3811C30.8533 62.6211 30.9867 62.7011 31.4533 62.7811C32.1867 62.9011 32.64 63.1945 32.8267 63.6611C33.0267 64.1811 32.8667 68.4611 32.6267 69.0478C32.2133 70.0478 31.2133 70.5145 29.4667 70.5278C28.24 70.5411 27.5333 70.2478 27.1333 69.5545C26.8267 69.0211 26.8 68.2078 26.9733 64.3811L27.0667 62.0878H22.4V62.4211ZM37.9467 62.2078C37.7733 62.4878 38.04 62.7545 38.4933 62.7545C38.8267 62.7545 39.0667 62.8611 39.3467 63.1411L39.7333 63.5278V66.5278C39.7333 68.1811 39.6933 69.6345 39.6533 69.7545C39.5467 70.0211 39.0133 70.2878 38.3733 70.4078C37.9467 70.4878 37.8667 70.5545 37.8667 70.8211V71.1545H44.1333V70.8211C44.1333 70.5545 44.0533 70.4878 43.64 70.4078C43.04 70.3011 42.6533 70.1145 42.44 69.8345C42.32 69.6745 42.28 68.7678 42.2667 66.5945C42.2667 63.6078 42.2667 63.5678 42.5733 63.2078C42.8 62.9545 43.0667 62.8211 43.48 62.7678C43.96 62.7011 44.08 62.6345 44.1067 62.3811L44.1467 62.0878H41.08C39.3867 62.0878 37.9867 62.1411 37.9467 62.2078V62.2078ZM58.1333 62.4211C58.1333 62.7145 58.1867 62.7545 58.6 62.7545C59.2133 62.7545 59.6667 62.9811 59.8533 63.3811C60.0533 63.8211 60.0533 69.2878 59.8533 69.7411C59.6667 70.1545 58.9867 70.4878 58.3467 70.4878C57.92 70.4878 57.8667 70.5278 57.8667 70.8211V71.1545H61.2C64.4667 71.1545 64.5333 71.1545 64.5333 70.8878C64.5333 70.5945 64.4667 70.5545 63.68 70.4211C63.3733 70.3678 63 70.1811 62.7733 69.9545C62.4267 69.6078 62.4 69.5011 62.4 68.5945C62.4 67.6478 62.4133 67.6078 62.7867 67.3811C63 67.2611 63.2667 67.1545 63.3733 67.1545C63.48 67.1545 64.5467 68.0478 65.7467 69.1545L67.9333 71.1545H69.96C71.8933 71.1545 72 71.1411 72 70.8878C72 70.7011 71.8667 70.5945 71.48 70.4878C71.2 70.4211 70.64 70.1011 70.24 69.7811C69.32 69.0611 65.3333 65.6611 65.3333 65.6078C65.3333 65.5811 65.8267 65.1811 66.44 64.7278C67.76 63.7411 69.16 63.0611 70.2533 62.8478C70.96 62.7145 71.0667 62.6611 71.0667 62.3945V62.0878H68.1333C65.3467 62.0878 65.2 62.1011 65.2 62.3411C65.2 62.5278 65.3333 62.6211 65.7067 62.6878C66.6533 62.8611 66.7867 63.2611 66.1067 63.9145C65.7333 64.2611 63.08 66.2345 62.5733 66.5411C62.44 66.6211 62.4 66.2878 62.4 65.0478C62.4 63.1278 62.5067 62.9278 63.5333 62.7811C64.0933 62.7011 64.2133 62.6345 64.24 62.3811L64.28 62.0878H58.1333V62.4211Z" fill="white"/>
</svg>
