<svg width="80" height="80" viewBox="0 0 80 80" fill="none" xmlns="http://www.w3.org/2000/svg">
<g clip-path="url(#clip0_13_6403)">
<path opacity="0.8" d="M2.00659 41.6994L2.65648 38.5978H8.75461L10.2374 37.1323H3.04587C2.5855 37.1064 2.13087 37.2446 1.76273 37.5222C1.39458 37.7998 1.13674 38.199 1.035 38.6487L0.472847 41.3414C0.414246 41.5435 0.403757 41.7565 0.442219 41.9634C0.480682 42.1703 0.567028 42.3653 0.694351 42.5329C0.862717 42.7058 1.06408 42.8432 1.28651 42.9368C1.50894 43.0305 1.74791 43.0786 1.98926 43.0782H8.90787L8.27748 41.6994H2.00659ZM20.1553 37.1491L19.8488 38.5804H23.3083L22.3541 43.0961H23.9729L24.9103 38.5804H27.3815L28.983 37.1491H20.1553ZM14.0036 40.4218L15.8612 38.5474L17.0028 40.4218H14.0036ZM16.1157 37.064C15.8314 37.0777 15.553 37.1498 15.2979 37.2759C15.0428 37.4019 14.8164 37.5793 14.6329 37.7968L9.21495 43.0793H11.2767L12.6057 41.8337H17.9224L18.6383 43.0793H20.5983L17.3434 37.7453C17.2243 37.5275 17.0458 37.3478 16.8287 37.2272C16.6116 37.1066 16.3647 37.0501 16.1168 37.064M61.0713 40.4218L62.9289 38.5474L64.0705 40.4218H61.0713ZM63.1834 37.064C62.8992 37.0777 62.6208 37.1498 62.3656 37.2759C62.1105 37.4019 61.8841 37.5793 61.7006 37.7968L56.2827 43.0793H58.3444L59.6735 41.8337H64.9901L65.7061 43.0793H67.666L64.4112 37.7453C64.292 37.5275 64.1135 37.3478 63.8964 37.2272C63.6793 37.1066 63.4324 37.0501 63.1845 37.064M29.6475 41.6485L29.8007 40.8816H35.9016L36.2081 39.3988H30.0894L30.26 38.6151H36.2926L37.861 37.1832H37.2474C37.1965 37.1832 32.4761 37.1664 30.84 37.1664C29.0165 37.1664 28.6927 38.5469 28.6927 38.5637L28.0623 41.5461C28.0146 41.7207 28.0083 41.9041 28.0438 42.0815C28.0794 42.259 28.1558 42.4258 28.267 42.5686C28.4359 42.7337 28.6358 42.8639 28.8551 42.9516C29.0744 43.0393 29.3089 43.0829 29.5451 43.0798H36.5314L35.6281 41.6485H29.6475ZM55.4476 37.2005L54.9704 39.4329H49.5005L49.9771 37.2005H48.4282L47.1826 43.0798H48.7331L49.2102 40.8475H54.6801L54.203 43.0798H55.7535L56.9981 37.2005H55.4476ZM45.052 39.995H39.6672L39.9737 38.5463H45.3586L45.052 39.995ZM45.495 37.1491H38.6804L37.4348 43.0793H39.0709L39.4115 41.4275H44.7623L44.4043 43.0977H45.9917L46.2625 41.8369C46.3107 41.653 46.3158 41.4605 46.2774 41.2743C46.239 41.0881 46.158 40.9133 46.0409 40.7635C46.3478 40.5451 46.5655 40.2231 46.654 39.8569L46.9096 38.6471C46.9522 38.4703 46.9575 38.2866 46.9252 38.1077C46.893 37.9288 46.8239 37.7585 46.7222 37.6078C46.5663 37.4427 46.3746 37.3155 46.1619 37.2359C45.9492 37.1564 45.721 37.1267 45.495 37.1491M79.5433 37.4897C79.4168 37.3519 79.2605 37.2449 79.0862 37.1769C78.912 37.109 78.7245 37.0818 78.5381 37.0976C78.2601 37.1093 77.9875 37.1791 77.738 37.3024C77.4885 37.4257 77.2676 37.5998 77.0894 37.8136L73.7317 41.6479L71.9445 37.9652C71.8383 37.7142 71.6635 37.4981 71.4403 37.3417C71.217 37.1853 70.9543 37.0949 70.6821 37.0808C70.3349 37.0655 69.9925 37.166 69.7087 37.3665C69.4249 37.567 69.2158 37.8561 69.1142 38.1883L68.0749 43.0961H69.6428L70.5634 38.7505L72.5234 42.7549C72.5916 42.9423 72.8299 43.232 73.4441 43.232C73.6403 43.2392 73.8358 43.205 74.0178 43.1316C74.1999 43.0581 74.3644 42.9471 74.5007 42.8058L78.0453 38.8864L77.1593 43.0614H78.6898L79.6955 38.256C79.7285 38.1249 79.7318 37.988 79.7053 37.8553C79.6788 37.7227 79.6231 37.5976 79.5422 37.4892" fill="white"/>
</g>
<defs>
<clipPath id="clip0_13_6403">
<rect width="80" height="6.24" fill="white" transform="translate(0 37)"/>
</clipPath>
</defs>
</svg>
