<svg width="80" height="80" viewBox="0 0 80 80" fill="none" xmlns="http://www.w3.org/2000/svg">
<path fill-rule="evenodd" clip-rule="evenodd" d="M17.5035 48.7693H14.6605V44.9672H12.677V54.471H14.6605V50.2194H17.5022L17.5026 54.471H19.4869V44.9672H17.5035V48.7693V48.7693ZM64.8292 44.9672V46.4177H67.5236V54.471H69.507V46.4177H72.2006V44.9672H64.8292V44.9672ZM54.3567 44.9672H52.3732V54.471H58.0467V53.0201H54.3558L54.3567 44.9672V44.9672ZM31.6602 52.8902C31.6312 52.989 31.5581 53.0159 31.4535 53.0159C31.3531 53.0159 31.2759 52.9769 31.2444 52.8856L29.1559 44.9676H26.8421L29.2418 53.6372C29.3584 54.2079 29.7386 54.4723 30.2769 54.4723H32.1068C32.6451 54.4723 32.9933 54.1975 33.1282 53.6509L35.4702 44.9676H33.7184L31.6602 52.8902V52.8902ZM6.00125 46.4518L6 52.9861C6 54.0431 6.54245 54.4719 7.48125 54.4719L11.9167 54.471V53.0176H8.70892C8.15858 53.0176 7.9822 52.884 7.9822 52.2913L7.98469 47.1432C7.98469 46.5709 8.11708 46.4177 8.71016 46.4177H11.9167V44.9676H7.4854C6.47148 44.9672 6.00125 45.491 6.00125 46.4518V46.4518ZM22.6611 52.2913L22.6619 50.2194H26.6039V48.7693H22.6644L22.664 47.1432C22.664 46.5929 22.7856 46.4177 23.3899 46.4177H26.6458V44.9676L22.1634 44.9693C21.1387 44.9693 20.6805 45.4806 20.6805 46.4518L20.6793 52.9861C20.6793 53.9896 21.1682 54.4719 22.1609 54.4719L27.0587 54.471V53.0176H23.3882C22.8375 53.0176 22.6611 52.8943 22.6611 52.2913V52.2913ZM41.2583 50.4552C42.1759 50.4552 42.7399 50.0377 42.7399 48.9694L42.7383 46.4518C42.7383 45.4594 42.2705 44.9676 41.2558 44.9676H35.7279V54.471H37.7114V46.4177H40.0289C40.6432 46.4177 40.7544 46.5929 40.7544 47.1432L40.7569 48.3008C40.7569 48.8619 40.6021 49.0279 40.0306 49.0279L38.9469 49.0287C38.5261 49.0287 38.2895 49.2823 38.2895 49.6919C38.2895 49.8978 38.3941 50.0468 38.4767 50.1945L40.9806 54.4715H43.4351L40.8129 50.4589L41.2583 50.4552V50.4552ZM49.6884 44.9689H45.3185C44.2722 44.9689 43.836 45.5014 43.836 46.4514L43.8344 52.9856C43.8344 54.0647 44.4092 54.4715 45.316 54.4715H49.6892C50.6392 54.4715 51.1726 54.0216 51.1726 52.9856L51.1709 46.4514C51.1709 45.4806 50.7131 44.9689 49.6884 44.9689V44.9689ZM48.4636 53.0176H46.5433C45.9718 53.0176 45.817 52.8628 45.817 52.2913V47.1432C45.817 46.6464 45.885 46.4177 46.5433 46.4177H48.4645C48.9824 46.4177 49.1883 46.507 49.1883 47.1432L49.1899 52.2913C49.1899 52.9047 49.0028 53.0176 48.4636 53.0176ZM60.4137 52.2913L60.4145 50.2194H64.3565V48.7693H60.417V47.1432C60.417 46.5929 60.5386 46.4177 61.1425 46.4177H64.398V44.9676L59.916 44.9693C58.8905 44.9693 58.4327 45.4806 58.4327 46.4518L58.4319 52.9861C58.4319 53.9896 58.9208 54.4719 59.9135 54.4719L64.8113 54.471V53.0176H61.1408C60.5905 53.0176 60.4137 52.8943 60.4137 52.2913V52.2913ZM56.4588 27.7077L45.895 27.7089C45.6252 27.7089 45.4484 27.6284 45.4484 27.2578V25.691C45.4484 25.2391 45.2052 25 44.7636 25L32.6708 25.0004C32.2188 25.0004 31.9864 25.2548 31.9864 25.6869L31.9856 27.2536C31.9856 27.5844 31.8295 27.7048 31.539 27.7048L24.6163 27.7068C24.0867 27.7068 23.7767 27.9596 23.6169 28.2916L20.2464 34.8803C20.2017 34.9666 20.1781 35.0623 20.1775 35.1596C20.1775 35.4206 20.3485 35.7572 20.8204 35.7572L31.5382 35.756C31.869 35.756 31.9848 35.9062 31.9848 36.2071L31.9839 37.7739C31.9839 38.2458 32.2583 38.4607 32.67 38.4607L38.717 38.4603L44.7624 38.4599C45.1741 38.4599 45.448 38.2607 45.448 37.778L45.4472 36.2113C45.4472 35.8909 45.5833 35.7601 45.8937 35.7601L52.6144 35.7585C53.078 35.7585 53.4112 35.6365 53.6437 35.2048L56.9759 28.6938C57.049 28.5531 57.1 28.473 57.1 28.3057C57.1013 27.8633 56.7199 27.7077 56.4588 27.7077V27.7077ZM53.7968 30.3323L52.1902 33.4745C52.0898 33.6567 51.9105 33.6646 51.7847 33.6646H43.8099C43.4791 33.6646 43.3583 33.8149 43.3583 34.1154L43.3567 35.9228C43.3567 36.2233 43.2255 36.3669 42.9043 36.3669H38.7178L34.5285 36.3677C34.2484 36.3677 34.0769 36.2694 34.0769 35.9183L34.0761 34.1108C34.0761 33.7804 33.9246 33.6626 33.6246 33.6626H23.8476C23.6073 33.6626 23.4413 33.5111 23.4413 33.3011C23.4413 33.2405 23.4567 33.1828 23.4832 33.1326L25.0898 29.9903C25.1513 29.8787 25.2521 29.8023 25.4949 29.8023L33.6246 29.8028C33.9051 29.8028 34.0794 29.6899 34.0794 29.3491L34.079 27.5421C34.079 27.2213 34.2189 27.0926 34.5293 27.0926L42.9059 27.0922C43.2068 27.0922 43.3567 27.2258 43.3567 27.5462L43.3558 29.3533C43.3558 29.6637 43.5003 29.8015 43.8107 29.8015H53.4328C53.7391 29.8015 53.8391 30.0032 53.8391 30.163C53.8384 30.222 53.8239 30.28 53.7968 30.3323V30.3323Z" fill="white"/>
<path fill-rule="evenodd" clip-rule="evenodd" d="M47.0197 26.3891C47.0197 26.2289 46.8894 26.1924 46.7545 26.1924H46.4312V26.9357H46.5358V26.6103H46.6802L46.8927 26.9357H47.0094L46.7881 26.5995C46.9209 26.5962 47.0197 26.5352 47.0197 26.3891V26.3891ZM46.7304 26.5215H46.5358V26.2812H46.7346C46.8126 26.2812 46.9156 26.2899 46.9156 26.387C46.9151 26.4601 46.8807 26.5215 46.7304 26.5215V26.5215Z" fill="white"/>
<path fill-rule="evenodd" clip-rule="evenodd" d="M46.6786 25.9002C46.5913 25.8999 46.5048 25.9169 46.424 25.9501C46.3433 25.9833 46.2698 26.0321 46.208 26.0937C46.1461 26.1553 46.097 26.2285 46.0634 26.3091C46.0299 26.3897 46.0126 26.4761 46.0125 26.5634C46.0125 26.9295 46.3067 27.2262 46.6786 27.2262C47.0459 27.2262 47.3418 26.9324 47.3418 26.563C47.3418 26.1974 47.0459 25.9002 46.6786 25.9002ZM46.6786 27.1217C46.533 27.1177 46.3947 27.0571 46.2932 26.9527C46.1916 26.8483 46.1348 26.7084 46.1348 26.5628C46.1348 26.4172 46.1916 26.2773 46.2932 26.1729C46.3947 26.0686 46.533 26.0079 46.6786 26.004C46.8258 26.0042 46.9669 26.0628 47.071 26.1669C47.1751 26.271 47.2337 26.4121 47.2339 26.5593C47.2339 26.871 46.9865 27.1217 46.6786 27.1217ZM73.6665 45.4968C73.6665 45.337 73.5362 45.3005 73.4013 45.3005H73.078V46.043H73.1826V45.718H73.327L73.5395 46.043H73.6561L73.4349 45.7072C73.5673 45.7043 73.6665 45.6425 73.6665 45.4968V45.4968ZM73.3768 45.6288H73.1821V45.3889H73.3809C73.459 45.3889 73.5619 45.3976 73.5619 45.4951C73.5619 45.5682 73.527 45.6288 73.3768 45.6288V45.6288Z" fill="white"/>
<path fill-rule="evenodd" clip-rule="evenodd" d="M73.3249 45.0079C72.956 45.0079 72.6588 45.3055 72.6588 45.6711C72.6588 46.0367 72.953 46.3343 73.3249 46.3343C73.6922 46.3343 73.9881 46.0401 73.9881 45.6711C73.9881 45.3055 73.6922 45.0079 73.3249 45.0079ZM73.3249 46.2297C73.1768 46.2297 73.0347 46.1709 72.9299 46.0661C72.8251 45.9613 72.7663 45.8193 72.7663 45.6711C72.7663 45.5229 72.8251 45.3808 72.9299 45.2761C73.0347 45.1713 73.1768 45.1125 73.3249 45.1125C73.4721 45.1127 73.6132 45.1713 73.7173 45.2753C73.8214 45.3794 73.88 45.5206 73.8802 45.6678C73.8802 45.979 73.6329 46.2297 73.3249 46.2297Z" fill="white"/>
</svg>
