<svg width="80" height="80" viewBox="0 0 80 80" fill="none" xmlns="http://www.w3.org/2000/svg">
<g clip-path="url(#clip0_13_6421)">
<path d="M18.6106 15C25.7647 17.4884 32.8805 20.0916 40.0514 22.5298C40.305 22.6279 40.5562 22.6279 40.8099 22.5298C47.9688 20.0797 55.0798 17.498 62.222 15C59.6881 19.0388 57.1303 23.0633 54.5415 27.0663C53.3451 26.5519 52.1129 26.1236 50.907 25.6307C51.6056 24.4008 52.3569 23.1997 53.0652 21.9747C50.7586 23.1351 48.4114 24.2142 46.1216 25.4082C47.7223 26.0183 49.3254 26.6165 50.9142 27.2601C51.7995 27.6214 52.7493 28.3177 52.8092 29.3561C52.9503 30.5094 52.1631 31.4521 51.6056 32.3757C48.1554 37.7735 44.7243 43.1858 41.2573 48.5741C41.2764 47.1529 41.1137 45.7172 41.2812 44.3056C42.645 39.9772 43.9921 35.6441 45.2339 31.2798C45.478 30.6314 44.753 30.2844 44.2864 30.0571C42.9705 29.4757 41.7382 28.7053 40.3911 28.2076C39.0249 28.7986 37.7137 29.514 36.3738 30.1624C35.9599 30.3538 35.3761 30.7319 35.613 31.2726C36.8452 35.6393 38.2066 39.97 39.5609 44.3008C39.7116 45.7149 39.5681 47.1505 39.5752 48.5741C36.1633 43.2336 32.7585 37.886 29.3513 32.5431C28.7579 31.5597 27.8966 30.5548 28.0449 29.3274C28.1239 28.2961 29.069 27.6118 29.9543 27.2529C31.5287 26.6117 33.127 26.0255 34.7133 25.4058C32.4283 24.2166 30.0907 23.1279 27.7865 21.9771C28.4923 23.2021 29.2436 24.4008 29.9399 25.6331C28.7268 26.1164 27.4994 26.5638 26.2911 27.0591C23.7118 23.0514 21.1588 19.0245 18.6106 15V15ZM33.7706 63.8681C33.7945 61.5089 33.7538 59.1521 33.7921 56.793C37.6731 56.8193 41.5564 56.7858 45.4373 56.8073C46.1958 56.781 47.0811 57.1614 47.2318 57.9797C47.3251 58.7813 47.3036 59.5948 47.2462 60.3963C47.1983 61.2816 46.27 61.8176 45.4517 61.7602C42.2861 61.7674 39.1206 61.7554 35.9527 61.7626C35.9551 62.4708 35.9575 63.1766 35.9671 63.8849C35.2349 63.904 34.5028 63.8944 33.7706 63.8681ZM35.9455 58.3937C35.9551 58.944 35.9599 59.4943 35.9719 60.047C38.9771 60.0183 41.9823 60.0733 44.9875 60.0207C45.533 59.7049 45.1622 58.9464 45.265 58.4391C42.1617 58.3339 39.0512 58.4176 35.9455 58.3937V58.3937Z" fill="white"/>
<path d="M3.36678 57.8816C3.67783 57.1782 4.48416 56.7858 5.23307 56.8025C9.03744 56.793 12.8418 56.8073 16.6486 56.7978C16.6557 57.4486 16.6581 58.1018 16.6629 58.7526C12.9351 58.7789 9.20253 58.7191 5.47713 58.7813C5.40774 58.8363 5.27136 58.9488 5.20197 59.0062C5.1589 59.9417 5.21154 60.8821 5.17326 61.82C5.51062 61.9037 5.85278 61.9899 6.2045 61.9755C9.68825 61.9659 13.172 61.9803 16.6557 61.9659C16.6581 62.5952 16.6605 63.2245 16.6605 63.8538C13.0117 63.9591 9.35806 63.8681 5.70922 63.9064C4.81435 63.9423 3.70415 63.77 3.35003 62.813C3.15622 61.9659 3.29022 61.0878 3.25432 60.2289C3.26629 59.4488 3.15144 58.6449 3.36678 57.8816V57.8816ZM18.4766 62.1502C18.4694 60.3652 18.4646 58.5803 18.4861 56.7978C19.2662 56.8001 20.0486 56.7954 20.831 56.8097C20.8573 58.5205 20.8023 60.2336 20.8645 61.9444C23.7596 62.0018 26.6571 61.9683 29.5523 61.9636C29.6719 60.2456 29.581 58.5229 29.6073 56.8049C30.3969 56.8001 31.1865 56.8025 31.9761 56.793C31.9928 58.5755 31.9976 60.3605 31.9809 62.1454C31.9904 63.1025 31.0836 63.9016 30.1481 63.8849C27.43 63.9662 24.7095 63.8586 21.989 63.9064C21.2042 63.904 20.4051 63.9519 19.637 63.7581C18.9862 63.514 18.4407 62.8704 18.4766 62.1502V62.1502ZM49.0861 56.7978C52.8977 56.8073 56.7092 56.7978 60.5208 56.8001C61.3439 56.7834 62.3129 57.2117 62.5187 58.0802C62.5761 58.877 62.5737 59.6809 62.5163 60.4777C62.3966 61.1477 61.8056 61.4994 61.2649 61.8104C61.7817 62.466 62.2411 63.1623 62.7053 63.8562C61.7626 63.7963 60.3318 64.361 59.8054 63.2939C59.4895 62.7914 59.1904 62.2794 58.8842 61.7721C56.3647 61.7506 53.8452 61.7626 51.3257 61.765C51.3305 62.4588 51.3329 63.1527 51.3401 63.849C50.5864 63.916 49.8303 63.9184 49.079 63.8681C49.0909 61.5113 49.0694 59.1545 49.0861 56.7978M51.3496 58.3147C51.3305 58.889 51.3305 59.4656 51.3329 60.0398C54.3094 60.0183 57.2883 60.0805 60.2624 60.0111C60.3365 59.9585 60.4849 59.8508 60.5614 59.7958C60.5184 59.3125 60.8079 58.5827 60.2289 58.3434C57.2715 58.2812 54.3094 58.341 51.3496 58.3147ZM64.385 58.5564C64.3538 57.4773 65.4808 56.726 66.4809 56.8001C70.2566 56.7978 74.0322 56.8073 77.8079 56.7954C77.8199 59.1522 77.8486 61.5113 77.7792 63.8681C77.1236 63.8968 76.4608 63.9591 75.8076 63.8777C75.5109 63.258 75.7622 62.4493 75.6904 61.7626C72.6565 61.7602 69.6225 61.7626 66.5886 61.7602C66.5838 62.4684 66.5886 63.179 66.5934 63.8897C65.8588 63.9088 65.1267 63.8992 64.3945 63.8681C64.4161 62.0975 64.3491 60.327 64.385 58.5564M66.5982 58.4152C66.5886 58.9583 66.591 59.5015 66.6006 60.047C69.6249 60.0303 72.6517 60.0422 75.6784 60.0398C75.6832 59.4919 75.6856 58.9464 75.6928 58.3985C72.6612 58.3985 69.6297 58.3674 66.5982 58.4152V58.4152Z" fill="white"/>
</g>
<defs>
<clipPath id="clip0_13_6421">
<rect width="75" height="49.361" fill="white" transform="translate(3 15)"/>
</clipPath>
</defs>
</svg>
