<svg width="80" height="80" viewBox="0 0 80 80" fill="none" xmlns="http://www.w3.org/2000/svg">
<g clip-path="url(#clip0_13_6435)">
<path d="M40.5156 2C40.7781 2.01875 41.0312 2.04688 41.2937 2.06563C42.4656 2.13125 43.6469 2.17813 44.8187 2.25313C46.2625 2.34688 47.6969 2.5625 49.1219 2.80625C51.5406 3.22813 53.9219 3.82813 56.2469 4.625C59.2469 5.64688 62.0969 6.97813 64.7687 8.68438C66.8875 10.0344 68.8375 11.5906 70.5625 13.4094C72.6062 15.5563 74.2375 17.975 75.3156 20.75C75.9062 22.2781 76.2906 23.8625 76.4687 25.4938C76.825 28.8688 76.225 32.0844 74.8094 35.15C73.75 37.4375 72.3062 39.4625 70.5719 41.2906C68.0781 43.9156 65.1719 45.9781 61.975 47.6469C58.6469 49.3813 55.1312 50.6188 51.4656 51.4438C49.8344 51.8094 48.1844 52.0906 46.5156 52.2969C44.05 52.5969 41.575 52.7281 39.1 52.6625C37.4219 52.625 35.7531 52.5031 34.0844 52.2969C31.6844 52.0063 29.3219 51.5469 26.9875 50.9094C23.6312 49.9906 20.425 48.7063 17.3969 46.9906C14.7812 45.5094 12.3906 43.7375 10.2812 41.5813C8.79998 40.0625 7.50623 38.3938 6.47498 36.5375C5.29373 34.4188 4.49686 32.1594 4.16873 29.75C3.68123 26.1125 4.29061 22.6438 5.86561 19.3344C7.17811 16.5875 9.01561 14.2531 11.2375 12.1906C14.0594 9.56563 17.2844 7.56875 20.7812 6.00313C23.5281 4.775 26.3781 3.86563 29.3031 3.21875C30.8312 2.88125 32.3875 2.61875 33.9437 2.43125C35.7156 2.21563 37.4875 2.075 39.2687 2.06563C39.4937 2.06563 39.7187 2.02813 39.9531 2C40.1406 2 40.3281 2 40.5156 2V2ZM40.2625 49.7469C41.6875 49.6719 43.1125 49.6344 44.5375 49.5219C46.3937 49.3813 48.2406 49.1094 50.0687 48.7344C53.6875 47.9938 57.1656 46.85 60.4656 45.1813C63.4562 43.6625 66.1937 41.7875 68.5187 39.35C70.225 37.5688 71.6125 35.5625 72.5594 33.275C73.4969 30.9969 73.8906 28.6156 73.6937 26.1594C73.5344 24.0688 72.9437 22.0906 71.9969 20.225C70.6937 17.6469 68.8562 15.5 66.6812 13.6344C64.4406 11.7125 61.9375 10.1844 59.2562 8.95625C55.2719 7.11875 51.0906 6.00313 46.75 5.43125C45.025 5.20625 43.2906 5.075 41.5562 5.01875C39.2219 4.95313 36.8969 5.06563 34.5719 5.32813C33.0625 5.49688 31.5625 5.74063 30.0812 6.06875C26.7344 6.79063 23.5 7.85 20.425 9.37813C17.65 10.7563 15.0812 12.4344 12.8312 14.5906C10.9187 16.4188 9.33436 18.4906 8.23748 20.9188C6.81248 24.0875 6.43748 27.3688 7.20623 30.7625C7.76873 33.2375 8.89373 35.45 10.4219 37.4656C11.9687 39.5 13.825 41.2063 15.8969 42.6781C19.2062 45.0219 22.8531 46.6625 26.7344 47.8156C31.15 49.1188 35.6594 49.7094 40.2625 49.7656V49.7469Z" fill="white"/>
<path d="M75.0812 55.2781C72.5031 62.5344 69.9437 69.7531 67.3749 76.9812H61.3656C60.5406 72.9031 59.7812 68.7969 58.9187 64.7094C58.4593 66.7437 58.0749 68.7875 57.6812 70.8312C57.2781 72.875 56.8843 74.9187 56.4812 76.9812H50.4531C47.8937 69.7625 45.325 62.5344 42.7468 55.2781C42.9062 55.2781 43.0187 55.2594 43.1312 55.2594C44.6406 55.2594 46.1499 55.2594 47.6593 55.2594C48.0249 55.2594 48.0249 55.2594 48.1468 55.6062C49.4406 59.2531 50.7343 62.9 52.0187 66.5375C52.3468 67.4562 52.6749 68.375 53.0031 69.3031C53.0312 69.3687 53.0406 69.4531 53.0781 69.5094C53.1249 69.575 53.1906 69.65 53.2562 69.65C53.3687 69.65 53.3875 69.5562 53.4062 69.4531C53.4625 69.1625 53.5281 68.8625 53.5843 68.5719C53.9312 66.8 54.2781 65.0281 54.6249 63.2562C55.0749 60.9406 55.5249 58.6344 55.9749 56.3187C56.0312 56.0375 56.0968 55.7469 56.1437 55.4656C56.1624 55.325 56.2281 55.2594 56.3687 55.2687C56.425 55.2687 56.4718 55.2687 56.5281 55.2687C58.1593 55.2687 59.7999 55.2687 61.4312 55.2687C61.4968 55.2687 61.5531 55.2687 61.6562 55.2781C61.7218 55.6062 61.7968 55.9344 61.8625 56.2625C62.2187 58.0812 62.5749 59.9094 62.9218 61.7281C63.2687 63.5281 63.6062 65.3375 63.9531 67.1375C64.0937 67.8687 64.2437 68.6 64.3843 69.3312C64.3937 69.3969 64.4031 69.4531 64.4406 69.5094C64.4687 69.5656 64.525 69.65 64.5718 69.65C64.6281 69.65 64.7124 69.5937 64.7312 69.5375C64.8343 69.3031 64.9187 69.05 65.0031 68.8062C66.4281 64.7656 67.8531 60.7344 69.2781 56.6937C69.5218 56 69.9437 55.4937 70.6843 55.3344C70.8999 55.2875 71.1156 55.2594 71.3312 55.2594C72.4656 55.2594 73.5999 55.2594 74.7343 55.2594C74.8374 55.2594 74.9312 55.2687 75.0718 55.2781H75.0812Z" fill="white"/>
<path d="M46.4031 77H40.9844C40.9469 76.9156 40.9 76.8219 40.8625 76.7281C40.3093 75.1812 39.7656 73.6344 39.2218 72.0875C39.1937 72.0219 39.1656 71.9562 39.1469 71.8812C39.1187 71.7781 39.0437 71.7312 38.9312 71.7312C38.8468 71.7312 38.7625 71.7312 38.6781 71.7312C35.95 71.7312 33.2219 71.7312 30.4937 71.7312C30.4562 71.7312 30.4093 71.7312 30.3718 71.7312C30.1 71.7312 30.1 71.7312 29.9968 72.0031C29.4343 73.5687 28.8719 75.1344 28.3094 76.7C28.2719 76.7937 28.2343 76.8875 28.1875 77H22.7875C22.8062 76.925 22.8156 76.8406 22.8343 76.775C23.6875 74.3656 24.5406 71.9562 25.3937 69.5469C26.5 66.4344 27.5969 63.3125 28.7031 60.2C29.0594 59.1969 29.4156 58.2031 29.7718 57.2094C29.9218 56.7969 30.1187 56.4125 30.4187 56.075C30.85 55.5875 31.4125 55.3719 32.0406 55.3156C32.4437 55.2781 32.8468 55.2687 33.2593 55.2687C34.9281 55.2687 36.5875 55.2687 38.2562 55.2687C38.3125 55.2687 38.3593 55.2687 38.4156 55.2687C38.6968 55.2687 38.6969 55.2687 38.7906 55.5406C39.0531 56.2625 39.3062 56.9937 39.5594 57.7156C40.7875 61.1937 42.025 64.6719 43.2531 68.15C44.2562 70.9812 45.2594 73.8125 46.2625 76.6437C46.3 76.7562 46.3375 76.8781 46.3843 77.0187L46.4031 77ZM31.3187 68.3375C31.4312 68.3562 31.5062 68.375 31.5812 68.375C33.5875 68.375 35.6031 68.375 37.6093 68.375C37.6843 68.375 37.7593 68.3469 37.8625 68.3281C37.8156 68.1875 37.7875 68.075 37.75 67.9719C37.1875 66.3875 36.625 64.7937 36.0625 63.2094C35.65 62.0375 35.2375 60.8562 34.8156 59.6844C34.7687 59.5625 34.7593 59.3937 34.5812 59.3937C34.3843 59.3937 34.375 59.5625 34.3281 59.6937C33.3625 62.4406 32.3969 65.1875 31.4406 67.9344C31.3937 68.0562 31.3656 68.1875 31.3187 68.3375V68.3375Z" fill="white"/>
<path d="M11.1156 64.0719H23.4062C23.3875 64.1844 23.3781 64.2594 23.35 64.3344C22.9937 65.3469 22.6281 66.35 22.2718 67.3531C22.1687 67.6344 22.1687 67.6344 21.85 67.6344C18.4281 67.6344 14.9968 67.6344 11.575 67.6344H11.1437C11.1437 67.7844 11.125 67.9062 11.125 68.0281C11.125 70.8781 11.125 73.7281 11.125 76.5875C11.125 76.7187 11.125 76.85 11.125 77H5.7812C5.7812 76.8875 5.76245 76.7844 5.76245 76.6906C5.76245 70.5406 5.76245 64.3906 5.76245 58.2406C5.76245 57.9031 5.80933 57.5562 5.88433 57.2281C6.1187 56.1687 6.82183 55.5687 7.87183 55.3719C8.22808 55.3062 8.5937 55.2687 8.95933 55.2687C14.7156 55.2687 20.4718 55.2687 26.2375 55.2687H26.5843C26.1718 56.4312 25.7687 57.5469 25.3656 58.6719C25.225 58.6719 25.1031 58.6719 24.9812 58.6719C20.8093 58.6719 16.6281 58.6719 12.4562 58.6719C12.2781 58.6719 12.1 58.6719 11.9312 58.7187C11.4062 58.8219 11.1437 59.1406 11.1156 59.675C11.1156 59.8344 11.1156 59.9844 11.1156 60.1437C11.1156 61.3344 11.1156 62.5156 11.1156 63.7062C11.1156 63.8187 11.1156 63.9312 11.1156 64.0906V64.0719Z" fill="white"/>
<path d="M40.3187 46.7187C38.4062 46.7281 36.55 46.6156 34.7125 46.4C30.475 45.8844 26.3781 44.8344 22.4875 43.0437C19.9562 41.8719 17.6125 40.4281 15.5312 38.5625C13.7594 36.9687 12.2687 35.1406 11.2375 32.975C10.2625 30.9312 9.82186 28.7844 9.97186 26.525C10.1031 24.5281 10.6937 22.6719 11.6687 20.9281C12.85 18.7906 14.4625 17.0187 16.3375 15.4812C18.775 13.4844 21.5125 12.0031 24.4375 10.85C26.95 9.86561 29.5469 9.16249 32.2094 8.69374C34.1031 8.36561 36.0156 8.14999 37.9469 8.05624C39.7187 7.97186 41.4906 7.97186 43.2531 8.08436C47.4156 8.34686 51.4844 9.12499 55.4031 10.5687C58.3844 11.675 61.1969 13.1094 63.7187 15.0687C65.5562 16.4937 67.1687 18.1437 68.4156 20.1219C69.3719 21.6312 70.0562 23.2531 70.3844 25.0156C70.8437 27.4625 70.5906 29.8437 69.6719 32.15C68.8281 34.2594 67.5344 36.0687 65.95 37.6812C64.2062 39.4437 62.2094 40.8594 60.0437 42.05C56.95 43.7469 53.65 44.9 50.2094 45.6687C48.4187 46.0625 46.6094 46.3531 44.7906 46.5219C43.2906 46.6625 41.7812 46.7469 40.3281 46.7281L40.3187 46.7187ZM36.8406 16.7375V41.1031H34.3844C34.3 41.4781 34.3187 43.3906 34.3937 43.6156C34.7219 43.6812 45.3812 43.6531 45.6062 43.5781V41.0937H43.0937C43.0937 40.3906 43.0937 39.7344 43.0937 39.0687C43.0937 38.4031 43.0937 37.7375 43.0937 37.0719C43.0937 36.4062 43.0937 35.7406 43.0937 35.075C43.0937 34.4094 43.0937 33.7437 43.0937 33.0781C43.0937 32.4125 43.0937 31.7469 43.0937 31.0812C43.0937 30.4156 43.0937 29.75 43.0937 29.0844C43.0937 28.4187 43.0937 27.7531 43.0937 27.0875C43.0937 26.4125 43.0937 25.7375 43.0937 25.0531C43.0937 24.3875 43.0937 23.7219 43.0937 23.0562C43.0937 22.3906 43.0937 21.725 43.0937 21.0594C43.0937 20.3937 43.0937 19.7281 43.0937 19.0625C43.0937 18.3969 43.0937 17.7312 43.0937 17.0656C43.0937 16.4 43.0937 15.7344 43.0937 15.0687C43.0937 14.4031 43.0937 13.7375 43.0937 13.0719C43.0937 12.4156 43.1125 11.75 43.0844 11.0656C42.9344 11.0656 42.8219 11.0656 42.7094 11.0656C41.9031 11.0656 41.1062 11.0656 40.3 11.0656C40.0844 11.0656 39.8969 11.1219 39.7094 11.2344C38.8187 11.7781 37.9281 12.3219 37.0469 12.8562C36.3906 13.2594 35.7344 13.6531 35.0687 14.0562C34.9469 14.1312 34.8344 14.1875 34.8344 14.3562C34.8344 15.0875 34.8344 15.8094 34.8344 16.5406C34.8344 16.7 34.9187 16.7656 35.0687 16.7656C35.2469 16.7656 35.425 16.7562 35.6031 16.7562C36.0062 16.7562 36.4094 16.7562 36.8406 16.7562V16.7375ZM45.8219 24.5562C46.2437 24.5562 46.6281 24.5562 47.0125 24.5562C52.9469 24.5562 58.8812 24.5562 64.825 24.5562C65.1719 24.5562 65.1344 24.5937 65.2656 24.2469C65.8375 22.6719 66.4 21.0969 66.9719 19.5219C67 19.4375 67.0281 19.3531 67.0656 19.2219C66.9156 19.2219 66.8031 19.2219 66.6906 19.2219C63.7562 19.2219 60.8125 19.2125 57.8781 19.2031C54.0156 19.2031 50.1531 19.1937 46.2906 19.1844C46.1406 19.1844 45.9906 19.2031 45.8312 19.2125V24.5562H45.8219ZM34.1406 19.1937C33.9719 19.1937 33.8219 19.1656 33.6719 19.1656C28.675 19.1656 23.6781 19.1656 18.6812 19.1844C16.9937 19.1844 15.3062 19.1937 13.6187 19.2031C13.5437 19.2031 13.4594 19.2219 13.3375 19.2312C14.0125 21.0219 14.6687 22.7844 15.325 24.5281H34.1406V19.1844V19.1937ZM45.8312 31.6719C45.9812 31.6719 46.0937 31.6719 46.2062 31.6719C46.6 31.6719 46.9937 31.6625 47.3969 31.6625C52.3469 31.6625 57.2875 31.6625 62.2375 31.6625C62.6219 31.6625 62.5844 31.6906 62.7156 31.325C63.2969 29.7125 63.8781 28.1 64.4687 26.4781C64.5062 26.3844 64.525 26.2906 64.5625 26.1687C58.2906 26.1687 52.075 26.1594 45.8406 26.1687V31.6906L45.8312 31.6719ZM34.1406 26.1781C33.55 26.1031 16.2062 26.1406 15.9625 26.2156C15.9906 26.3094 16.0281 26.4125 16.0562 26.5062C16.3094 27.1906 16.5625 27.875 16.825 28.55C17.1812 29.5062 17.5469 30.4531 17.8937 31.4187C17.9594 31.5969 18.0531 31.6906 18.2594 31.6719C18.5406 31.6531 18.8219 31.6625 19.1031 31.6625C23.9687 31.6625 28.8344 31.6625 33.6906 31.6625C33.8312 31.6625 33.9719 31.6531 34.1406 31.6437V26.1781V26.1781ZM45.8219 38.3937C46.0094 38.3937 46.1594 38.3937 46.3094 38.3937C47.05 38.3937 47.7906 38.3937 48.5312 38.375C48.7656 38.375 48.9437 38.4406 49.1312 38.5812C49.9375 39.1906 50.7531 39.7906 51.5594 40.3906C51.6906 40.4844 51.8219 40.5406 51.9906 40.5312C54.3437 40.5312 56.6969 40.5312 59.05 40.5219C59.1531 40.5219 59.2562 40.5219 59.3781 40.5219C59.9875 38.8344 60.5875 37.1656 61.2062 35.4594C61.0562 35.4594 60.9625 35.4594 60.8781 35.4594C58.2156 35.4781 55.5437 35.5062 52.8812 35.5344C52.6656 35.5344 52.4875 35.4875 52.3 35.3562C51.4 34.7094 50.4812 34.0719 49.5812 33.4156C49.4031 33.2844 49.225 33.2187 49.0094 33.2281C48.0719 33.2281 47.1344 33.2281 46.1969 33.2281C46.075 33.2281 45.9531 33.2469 45.8312 33.2562V38.375L45.8219 38.3937ZM34.1594 33.2562C34.0094 33.35 33.9156 33.4062 33.8219 33.4719C32.9219 34.1281 32.0219 34.775 31.1219 35.4406C30.9625 35.5531 30.8031 35.6187 30.6062 35.6187C29.3031 35.6187 28 35.6375 26.6969 35.6375C24.4281 35.6375 22.1594 35.6469 19.8906 35.6562C19.7687 35.6562 19.6562 35.6656 19.4969 35.675C20.1156 37.325 20.7156 38.9281 21.325 40.5312C21.6906 40.5312 22.0187 40.5312 22.3562 40.5312C25.0937 40.5312 27.8312 40.5312 30.5687 40.5312C30.775 40.5312 30.9531 40.4844 31.1219 40.3719C32.0406 39.7812 32.9594 39.1906 33.8875 38.6094C34.075 38.4875 34.15 38.3656 34.15 38.1406C34.15 36.6406 34.15 35.1406 34.15 33.6406C34.15 33.5281 34.15 33.4156 34.15 33.2375L34.1594 33.2562Z" fill="white"/>
</g>
<defs>
<clipPath id="clip0_13_6435">
<rect width="72.5531" height="75" fill="white" transform="translate(4 2)"/>
</clipPath>
</defs>
</svg>
