<svg width="80" height="80" viewBox="0 0 80 80" fill="none" xmlns="http://www.w3.org/2000/svg">
<path d="M57.0531 43.5094V38.0563C57.0531 36.3656 56.125 36.0375 53.5063 36.0375C50.6688 36.0375 49.6875 36.4188 49.6875 38.3844V39.2563H52.0875V38.5469C52.0875 37.5656 52.1406 37.4 53.3969 37.4C54.4344 37.4 54.4875 37.5094 54.4875 38.5469V40.5094H51.9781C50.0156 40.5094 49.4156 41.4375 49.4156 42.5281H51.8687V42.475C51.8687 41.9844 52.1969 41.5469 52.6875 41.5469H54.5406V43.7281C54.5406 44.4906 54.1594 44.6563 53.6125 44.6563H52.6312C52.0312 44.6563 51.8125 44.275 51.8125 43.7281V42.5281H49.3594V43.8906C49.3594 45.0375 50.2312 45.9625 51.5969 45.9625H58.0344V44.4906H57.0531V43.5094V43.5094ZM77.0188 44.5469V36.2563H73.3656V37.6188H74.4031V44.5469H73.3656V45.9656H78V44.5469H77.0188ZM67.8 36.0375C66.4375 36.0375 65.5625 37.7281 64.9625 38.4375V36.2H61.3625V37.5625H62.3437V44.4906H61.3625V45.9625H65.8344V44.4906H64.9062V40.7813C64.9062 40.4531 67.0344 37.7813 67.0344 38.0531V41.7625H69.5438V37.6156C69.5469 36.6375 68.9469 36.0375 67.8 36.0375ZM19.6375 40.7281H17.075V38.1094C17.075 37.6188 17.2375 37.3469 17.8375 37.3469H18.9281C19.3656 37.3469 19.6375 37.5656 19.6375 37.8938V40.7281V40.7281ZM18.5469 36.0375H18.1625C15.2156 36.0375 14.4531 36.6906 14.4531 38.3844V43.8375C14.4531 45.6906 15.5437 46.0188 18.2156 46.075H18.4875C21.3781 46.0219 22.25 45.8031 22.25 44.0563V42.6375H19.7469V43.3469C19.7469 44.3281 19.5844 44.3844 18.3844 44.3844C16.9656 44.3844 17.0219 44.275 17.075 43.3469V41.6563H22.3125V38C22.3094 36.6375 21.2719 36.0375 18.5469 36.0375V36.0375ZM74.4531 34.5094H77.125V32.7625H74.4531V34.5094ZM3.38125 34.5094H4.90938V44.8188H3V46.2375H10.0906V44.8188H7.69063V40.2375H9.05313V41.5469H10.6906V37.4563H9.05313V38.6563H7.69063V34.5094H72.3812V32.7625H3.38125V34.5094V34.5094ZM32.3469 36.0375C30.9844 36.0375 30.1094 37.7281 29.5094 38.4375V36.2H25.9094V37.5625H26.8906V44.4906H25.9094V45.9625H30.3813V44.4906H29.4531V40.7813C29.4531 40.4531 31.5812 37.7813 31.5812 38.0531V41.7625H34.0906V37.6156C34.0906 36.6375 33.4906 36.0375 32.3469 36.0375M43.8 36.0375C42.4375 36.0375 41.5625 37.7281 40.9625 38.4375V36.2H37.3625V37.5625H38.3438V44.4906H37.3625V45.9625H41.8344V44.4906H40.9063V40.7813C40.9063 40.4531 43.0344 37.7813 43.0344 38.0531V41.7625H45.5438V37.6156C45.5469 36.6375 44.9469 36.0375 43.8 36.0375" fill="white"/>
</svg>
