<svg width="80" height="80" viewBox="0 0 80 80" fill="none" xmlns="http://www.w3.org/2000/svg">
<g clip-path="url(#clip0_13_6447)">
<path d="M69.1719 21.5312C70.7 25.1188 71.4406 29.1625 71.4406 33.8938C71.4406 36.45 71.2281 39.175 70.7969 42.225C69.9031 48.5062 67.5219 55.0687 65.3281 59.3937C64.9719 60.0906 64.6875 60.5531 64.1156 61.0594C63.1156 61.9406 62.2344 62.1594 61.9094 61.9688C61.6469 61.8125 61.5 61.025 61.5531 59.8656C61.5969 58.8781 61.8313 58.1469 62.1906 56.9781C63.871 51.4405 65.1246 45.7823 65.9406 40.0531C67.1438 31.7281 67.0969 24.2406 65.3125 19.6781C65.1322 19.2098 64.9017 18.7624 64.625 18.3438C64.4312 18.0625 64.2938 17.9187 64.2938 17.9187C60.6031 14.2219 50.6375 12.3688 40.6688 12.3688C30.7 12.3688 20.7375 14.2219 17.05 17.9187C17.05 17.9187 16.9094 18.0594 16.7187 18.3438C16.4389 18.76 16.2073 19.2066 16.0281 19.675C14.2406 24.2375 14.1969 31.7281 15.4 40.0531C16.2125 45.7 17.5 51.6781 19.2344 57.2531C19.5344 58.2125 19.7281 58.8656 19.775 59.8781C19.825 61.0312 19.6813 61.8156 19.4188 61.9719C19.0938 62.1594 18.2031 61.9406 17.2 61.05C16.4813 60.4094 16.1219 59.7844 15.6687 58.8594C13.5437 54.5312 11.3156 48.2437 10.4594 42.225C10.0482 39.4666 9.83308 36.6826 9.81562 33.8938C9.81562 29.1625 10.5594 25.1219 12.0844 21.5375C13.2312 18.85 15.1563 16.6 17.6531 15.0281C23.7895 11.1471 30.8014 8.86709 38.0469 8.39687C38.8949 8.34489 39.7442 8.3178 40.5938 8.31562H40.6563C41.5125 8.31562 42.3688 8.34687 43.2125 8.39687C50.3438 8.82812 57.3969 11.125 63.6031 15.0281C66.0795 16.5781 68.0227 18.8484 69.1719 21.5344V21.5312ZM54.2875 66.925C54.0125 66.9844 53.1594 67.1844 52.3125 67.4156C51.5531 67.625 50.8031 67.7906 50.4469 67.8625C47.2376 68.4668 43.9782 68.765 40.7125 68.7531H40.625C37.1344 68.7531 33.8219 68.4313 30.8938 67.8625C30.3062 67.7422 29.7226 67.6036 29.1438 67.4469C28.5179 67.2797 27.8885 67.1255 27.2562 66.9844C25.95 66.6875 24.7688 66.475 24.7031 66.725C24.625 67.0156 25.2094 67.625 25.9563 68.2C26.1313 68.3313 26.5656 68.6375 27.0719 68.8875C27.5406 69.1156 28.0719 69.2875 28.2781 69.3563C31.7094 70.4656 35.6094 70.925 40.5938 70.925H40.6625C45.5469 70.925 49.3938 70.4812 52.7781 69.4156C53.9375 69.05 54.6219 68.7562 55.4437 68.1031C56.1312 67.5594 56.6469 67 56.5719 66.7281C56.5094 66.4937 55.4844 66.6625 54.2875 66.925V66.925ZM46.45 34.6969C45.9969 32.1656 45.45 30.2219 44.8313 28.9156L44.825 28.9031H44.7594L42.6281 28.8844H42.5969L42.5125 38.2531H46.9688L46.9656 38.2219C46.9656 38.2062 46.7906 36.5906 46.45 34.6969ZM64.45 39.9687C63.4437 46.9312 61.7 54.4156 59.2625 60.9094C58.8563 62.0031 58.4875 62.4094 57.6063 63.0969C55.3325 64.698 52.742 65.7934 50.0094 66.3094C47.2063 66.8563 44.0469 67.1594 40.7156 67.1594H40.625C37.5081 67.1726 34.3971 66.8879 31.3344 66.3094C28.5995 65.7943 26.0069 64.6988 23.7312 63.0969C22.85 62.4094 22.4844 62.0031 22.0844 60.9094C19.6406 54.4156 17.8969 46.9312 16.8938 39.9687C15.7281 31.9156 15.8 24.8219 17.4562 20.5875C17.6656 20.0562 17.8875 19.675 18.05 19.4344C18.1937 19.2312 18.2937 19.1219 18.2937 19.1219C21.6312 15.7781 30.9813 13.9594 40.6688 13.9594C50.3594 13.9594 59.7094 15.7781 63.0438 19.125C63.0438 19.125 63.1438 19.2281 63.2875 19.4375C63.45 19.675 63.675 20.0531 63.8813 20.5875C65.5406 24.8219 65.6125 31.9156 64.45 39.9687V39.9687ZM30.825 25.6406L22.4438 25.5938L23.2781 54.7719L26.7844 54.8094L26.7344 41.5281H29.9031V38.1H26.7344V29.0625H30.8281V25.6375L30.825 25.6406ZM36.6875 25.5781L32.4219 25.5875L32.9875 54.8063H36.6031L36.6875 25.5813V25.5781ZM47.4625 25.6219H38.925L39.2625 54.7906H42.675L42.7031 41.5969H47.1344L47.1406 41.6188C47.5406 44.1094 47.5719 54.6531 47.5719 54.7594V54.8063H50.8938L50.9219 53.3094C51.0719 45.7469 51.3281 33.0938 47.4625 25.6219V25.6219ZM60.9625 25.5813L50.5125 25.6219V28.9875H53.6313V29.0187L53.5 54.8063H57.0375L57.8969 28.9875H60.9625V25.5813V25.5813ZM77.9219 39.5C77.9219 60.1781 61.1344 77 40.4969 77C19.8656 77 3.07812 60.1781 3.07812 39.5C3.07812 18.8219 19.8656 2 40.5 2C61.1375 2 77.925 18.8219 77.925 39.5H77.9219ZM76.8906 39.475C76.875 19.3781 60.5563 3.03125 40.4938 3.03125C20.6313 3.03125 4.4375 19.0719 4.11875 38.9094C4.56165 37.8951 5.30853 37.0434 6.25625 36.4719C8.30313 35.2594 8.8625 32.1438 9.04687 30.2813L9.08438 30.0875C8.9625 31.3219 8.86562 32.5563 8.86562 33.8938C8.86562 36.4938 9.08437 39.2625 9.52187 42.3562C10.8094 51.4187 15.1875 61.1281 17.7625 64.1L17.9062 64.2563L18.5062 64.8875L18.5281 64.9062C24.8094 70.0531 30.5813 71.875 40.5938 71.875H40.6625C50.6719 71.875 56.4437 70.0531 62.725 64.9062L62.7531 64.8875L63.3313 64.2719L63.4938 64.0969C66.075 61.1156 70.45 51.4187 71.7375 42.3562C72.175 39.2625 72.3906 36.4938 72.3906 33.8938C72.3906 32.475 72.325 31.1125 72.1906 29.8031L72.2094 29.8219C72.3969 31.6875 73.3938 36.5125 75.3188 37.9031C75.975 38.3781 76.4906 38.8937 76.8906 39.475V39.475Z" fill="white"/>
</g>
<defs>
<clipPath id="clip0_13_6447">
<rect width="75" height="75" fill="white" transform="translate(3 2)"/>
</clipPath>
</defs>
</svg>
