<svg width="80" height="80" viewBox="0 0 80 80" fill="none" xmlns="http://www.w3.org/2000/svg">
<path d="M40.375 26.825C20.75 26.825 4.88251 32.525 4.88251 39.6C4.88251 46.65 20.75 52.35 40.375 52.35C59.975 52.35 75.85 46.65 75.85 39.6C75.85 32.525 59.975 26.825 40.375 26.825V26.825ZM40.55 27.675C59.425 27.675 74.725 32.95 74.725 39.45C74.725 45.975 59.425 51.25 40.55 51.25C21.675 51.25 6.36501 45.975 6.36501 39.45C6.36501 32.95 21.675 27.675 40.55 27.675V27.675ZM40.55 28.7C22.325 28.7 7.56751 33.525 7.56751 39.45C7.56751 45.4 22.325 50.225 40.55 50.225C58.75 50.225 73.525 45.4 73.525 39.45C73.525 33.525 58.75 28.7 40.55 28.7V28.7ZM31.625 30.615C35.025 30.59 38.3 31.4575 41.7 31.85C44.7 32.225 47.55 32.225 50.55 31.55C50.925 31.475 51.175 31.7 51.15 32.05C51.1 32.55 50.7 33.05 49.725 33.575C48.6 34.2 47.425 34.375 46.2 34.4C43.225 34.425 40.45 33.275 37.6 32.65C37.6 32.775 37.625 32.925 37.525 33C35.925 34.175 34.5 35.35 33.55 37C33.5 37.025 33.525 37.075 33.575 37.05C34.425 37.025 35.175 37 35.95 36.925C36.075 36.925 36.075 36.9 36.075 36.8C36 36.225 36.175 35.575 36.675 35.125C37.2 34.675 37.85 34.625 38.275 34.95C38.775 35.325 38.725 36 38.45 36.5C38.175 37.025 37.725 37.3 37.3 37.425C37.3 37.425 37.2 37.45 37.225 37.525C37.25 37.675 37.825 38 37.875 38.075C37.925 38.15 37.9 38.275 37.8 38.375C37.75 38.45 37.65 38.525 37.525 38.525C37.425 38.525 37.375 38.475 37.225 38.4C36.975 38.275 36.65 38.025 36.425 37.75C36.35 37.675 36.3 37.675 36.125 37.675C35.275 37.725 33.975 37.85 33.075 37.95C32.85 37.975 32.825 38.025 32.775 38.1C31.375 40.425 29.85 42.925 28.2 44.6C26.4 46.375 24.925 46.85 23.35 46.875C21.375 46.875 19.625 45.675 19.425 43.575C19.325 42.425 19.65 41.375 20.3 40.525C20.9 39.775 21.9 39.125 22.75 38.975C23.025 38.925 23.375 38.975 23.525 39.15C23.775 39.425 23.7 39.725 23.475 39.85C22.825 40.175 22.05 40.725 21.675 41.475C21.35 42.1 21.3 42.85 21.775 43.575C22.55 44.75 24.775 44.775 26.825 42.9C27.35 42.425 27.8 41.975 28.275 41.45C29.175 40.425 29.475 40.05 30.675 38.4C30.7 38.375 30.7 38.35 30.7 38.35C30.675 38.325 30.65 38.325 30.625 38.325C29.825 38.325 29.125 38.575 28.45 39.075C28.25 39.225 27.95 39.2 27.825 39.025C27.7 38.8 27.8 38.525 28.025 38.375C29.125 37.625 30.325 37.475 31.55 37.275C31.55 37.275 31.625 37.275 31.7 37.2C32.2 36.55 32.575 35.975 33.125 35.325C33.65 34.675 34.35 34.075 34.875 33.625C35.625 32.975 36.1 32.775 36.6 32.525C36.725 32.45 36.575 32.375 36.525 32.375C33.825 31.875 31.025 31.225 28.325 32.2C26.475 32.875 25.65 34.35 26.05 35.325C26.325 36.025 27.25 36.125 28.1 35.7C28.825 35.375 29.475 34.8 29.95 34.075C30.225 33.675 30.775 33.975 30.475 34.675C29.675 36.5 28.175 37.95 26.35 38C24.8 38.05 23.8 36.925 23.8 35.525C23.8 32.775 26.9 30.95 30.175 30.675C30.675 30.635 31.15 30.615 31.625 30.615V30.615ZM37.625 35.405C37.5 35.405 37.375 35.455 37.275 35.55C36.925 35.825 36.825 36.25 36.875 36.575C36.9 36.7 36.925 36.725 37 36.7C37.25 36.65 37.55 36.425 37.725 36.175C37.9 35.95 37.975 35.6 37.8 35.475C37.75 35.4275 37.7 35.405 37.625 35.405V35.405ZM59.9 35.475H61.725C61.825 35.475 61.875 35.525 61.825 35.6C61.55 36.075 56.25 44.075 55.9 44.9C55.8 45.175 55.8 45.375 55.9 45.5C56.175 45.875 56.8 45.675 57.175 45.4C58.325 44.625 59.125 43.675 60 42.825C60.05 42.8 60.15 42.775 60.2 42.825C60.325 42.95 60.525 43.1 60.65 43.25C60.725 43.3 60.7 43.375 60.675 43.425C59.8 44.45 58.85 45.45 57.925 46.125C56.525 47.225 55.1 47.5 54.4 46.8C54.125 46.55 54 46.175 53.975 45.85C53.975 45.7 53.875 45.675 53.8 45.75C52.95 46.575 51.5 47.5 50.175 46.85C49.075 46.3 48.825 45 49.025 43.9C49.025 43.875 49 43.725 48.875 43.8C48.65 43.975 48.35 44.15 47.975 44.3C47.5 44.45 47.3 44.525 46.875 44.525C46.325 44.525 45.85 44.3 45.5 43.75C45.3 43.475 45.225 43.05 45.225 42.725C45.225 42.7 45.175 42.625 45.125 42.7C44.2 44.075 43.375 45.4 42.475 46.775C42.425 46.85 42.375 46.9 42.3 46.9H40.525C40.425 46.9 40.375 46.825 40.425 46.7C40.725 46.1 42.45 43.625 43.625 41.525C43.95 40.95 43.875 40.65 43.675 40.525C43.425 40.35 42.925 40.6 42.5 40.9C41.375 41.775 40.4 43.1 39.925 43.7C39.625 44.05 39.35 44.575 38.6 45.375C37.425 46.65 35.875 47.375 34.35 46.875C33.525 46.6 32.95 45.95 32.7 45.15C32.675 44.975 32.575 44.95 32.5 45.05C32.25 45.35 31.75 45.8 31.325 46.075C31.3 46.1 31.175 46.175 31.075 46.125C31 46.075 30.675 45.65 30.625 45.525C30.575 45.425 30.625 45.325 30.675 45.275C31.275 44.775 31.6 44.475 31.85 44.15C32.05 43.9 32.2 43.65 32.375 43.2C32.725 42.3 33.55 40.625 35.2 39.75C35.825 39.425 36.45 39.175 37.175 39.1C37.475 39.05 37.725 39.1 37.8 39.325C37.85 39.425 37.925 39.65 37.975 39.8C38 39.9 37.975 39.975 37.875 40.025C36.9 40.375 35.925 40.95 35.25 41.825C34.5 42.85 34.3 44.075 34.8 44.775C35.175 45.275 35.775 45.375 36.35 45.175C37.225 44.9 37.975 44.1 38.35 43.2C38.775 42.225 38.85 41.05 38.55 40.025C38.475 39.85 38.525 39.725 38.65 39.625C38.875 39.45 39.2 39.3 39.3 39.25C39.5 39.125 39.725 39.225 39.85 39.375C40.175 39.85 40.35 40.5 40.35 41.2C40.375 41.35 40.45 41.35 40.5 41.275C41.075 40.675 41.625 40.025 42.225 39.525C42.775 39.1 43.5 38.75 44.175 38.75C45.025 38.775 45.45 39.35 45.425 40.375C45.425 40.525 45.525 40.5 45.575 40.425C45.85 40.05 46.025 39.875 46.3 39.625C46.9 39.15 47.525 38.925 48.15 38.975C48.95 39.025 49.575 39.725 49.425 40.55C49.35 41.05 49.075 41.525 48.575 41.75C48.175 41.95 47.7 41.925 47.375 41.625C47.1 41.375 47 41.025 47.075 40.65C47.1 40.575 47 40.525 46.9 40.6C46.15 41.4 46.1 42.4 46.6 42.875C47.15 43.375 47.975 43.05 48.575 42.65C49.675 41.925 50.525 40.975 51.525 40.225C52.2 39.725 52.95 39.275 53.775 39.175C54.25 39.1 54.7 39.15 55.15 39.325C55.75 39.575 56.125 40.075 56.175 40.5C56.2 40.625 56.3 40.65 56.375 40.55C56.85 39.8 59.4 36 59.625 35.6C59.675 35.475 59.75 35.475 59.9 35.475V35.475ZM54.3 40.47C53.7 40.47 52.9 40.9975 52.2 41.85C51.5 42.725 51.1 43.6 51.1 44.475C51.1 44.775 51.2 45.15 51.475 45.3C52.1 45.625 52.825 45.15 53.375 44.7C53.725 44.4 54.025 44.1 54.275 43.725C54.55 43.3 54.775 43.025 55 42.55C55.025 42.5 55 42.475 54.975 42.45C54.9 42.425 54.825 42.375 54.825 42.325C54.8 42.275 54.8 42.25 54.825 42.2C55.125 41.6 55.325 40.85 54.675 40.55C54.55 40.4925 54.425 40.4675 54.3 40.47V40.47Z" fill="white"/>
</svg>
