<svg width="80" height="80" viewBox="0 0 80 80" fill="none" xmlns="http://www.w3.org/2000/svg">
<g clip-path="url(#clip0_13_6454)">
<path d="M3 36.1755C3 33.6868 4.54862 32.0055 7.47572 32.0055H26.4773V35.5353H8.04672C7.53051 35.5353 7.07198 35.8006 7.07198 36.5793V42.4652C7.07198 43.1804 7.3719 43.6418 8.31492 43.6418H21.2951C21.9785 43.6418 22.5063 43.3995 22.5063 42.4998V41.1213H14.9074V37.7588H26.4773V43.1688C26.4773 45.7585 24.5942 47.1745 21.6354 47.1745H7.50744C4.64956 47.1745 3.00288 45.6259 3.00288 43.0362L3 36.1755ZM43.4285 47.1745L49.9201 35.6709V47.1745H53.9892V32.0055H47.7312L41.5425 42.9006L35.3538 32.0055H29.0987V47.1745H33.1678V35.6709L39.6594 47.1745H43.4285ZM78 47.1745H60.9854C58.1217 47.1745 56.4808 45.6259 56.4808 43.0362V36.1755C56.4808 33.6868 58.0236 32.0055 60.9507 32.0055H78.0029V35.8179H61.5246C61.0084 35.8179 60.547 36.0804 60.547 36.859V42.1826C60.547 42.9006 60.8498 43.3592 61.7928 43.3592H78.0029V47.1745" fill="white"/>
</g>
<defs>
<clipPath id="clip0_13_6454">
<rect width="75" height="15.18" fill="white" transform="translate(3 32)"/>
</clipPath>
</defs>
</svg>
