<svg width="80" height="80" viewBox="0 0 80 80" fill="none" xmlns="http://www.w3.org/2000/svg">
<g clip-path="url(#clip0_13_6458)">
<path d="M11.72 35.02C10.83 36.66 10 38.18 9.09001 39.86C9.83001 39.69 10.4 39.52 10.98 39.43C11.83 39.3 12.68 39.19 13.53 39.15C14.03 39.13 14.29 38.94 14.51 38.51C15.03 37.49 15.59 36.48 16.18 35.49C16.31 35.27 16.65 35.04 16.9 35.03C18.08 34.98 19.25 35.01 20.5 35.01C20.46 35.17 20.44 35.29 20.39 35.39C18.97 38.59 17.54 41.78 16.15 44.99C15.93 45.51 15.7 45.74 15.11 45.72C14 45.67 12.88 45.71 11.65 45.71C12.21 44.08 12.72 42.58 13.24 41.07C10.24 40.52 8.26001 41.71 7.36001 44.72C7.13001 45.5 6.82001 45.8 6.00001 45.73C5.05001 45.64 4.08001 45.71 3.01001 45.71C3.12001 45.29 3.21001 44.95 3.32001 44.6C4.26001 41.47 5.57001 38.5 7.30001 35.7C7.62001 35.18 7.96001 34.97 8.57001 35C9.58001 35.05 10.6 35.01 11.71 35.01L11.72 35.02Z" fill="white"/>
<path d="M28.3401 45.71C28.5401 44.98 28.7101 44.37 28.9401 43.53C27.2901 43.67 25.7501 43.69 24.2501 43.97C23.6101 44.09 22.9901 44.66 22.5201 45.17C22.1501 45.57 21.8101 45.73 21.2901 45.72C20.2801 45.69 19.2701 45.72 18.0701 45.72C18.6301 45.02 19.0701 44.47 19.5101 43.92C21.3101 41.69 23.3001 39.64 25.5501 37.84C27.8501 35.99 30.4301 35.11 33.3301 35.05C33.9401 35.04 34.5601 35.05 35.2401 35.05C35.1901 35.23 35.1601 35.4 35.1101 35.56C34.0101 38.71 32.8901 41.86 31.8201 45.02C31.6401 45.54 31.4601 45.76 30.8901 45.73C30.0901 45.68 29.2901 45.72 28.3401 45.72V45.71ZM31.4601 37.29C28.4101 37.48 26.9301 39.77 24.9501 41.76C26.5401 41.76 27.9001 41.77 29.2501 41.75C29.4101 41.75 29.6401 41.58 29.7001 41.43C30.2901 40.09 30.8501 38.74 31.4501 37.3L31.4601 37.29Z" fill="white"/>
<path d="M41.75 35.06C41.96 37.23 42.16 39.36 42.37 41.61C42.62 41.39 42.8 41.25 42.96 41.09C44.73 39.23 46.49 37.36 48.29 35.52C48.55 35.26 49 35.05 49.36 35.04C50.67 34.98 51.98 35.02 53.4 35.02C53.24 35.23 53.15 35.38 53.04 35.5C49.88 38.74 46.73 41.98 43.54 45.19C43.26 45.47 42.78 45.67 42.37 45.69C41.17 45.75 39.97 45.71 38.71 45.71C38.44 42.13 38.17 38.62 37.9 35.06H41.73H41.75Z" fill="white"/>
<path d="M64.87 35.03C63.87 37.92 62.94 40.7 61.94 43.46C61.12 45.73 61.08 45.71 58.68 45.71C58.39 45.71 58.1 45.71 57.68 45.71C57.96 45 58.21 44.38 58.56 43.49C56.89 43.67 55.38 43.77 53.91 44.03C53.35 44.13 52.73 44.51 52.36 44.95C51.81 45.61 51.19 45.76 50.4 45.72C49.53 45.67 48.65 45.71 47.62 45.71C47.88 45.43 48.03 45.27 48.19 45.11C50.71 42.64 53.25 40.18 55.76 37.69C58.28 35.2 61.45 35.02 64.87 35.03ZM54.95 41.76C56.25 41.76 57.56 41.76 58.86 41.75C59.04 41.75 59.34 41.65 59.39 41.53C59.92 40.16 60.42 38.78 60.96 37.3C57.93 37.56 56.73 40.02 54.95 41.77V41.76Z" fill="white"/>
<path d="M72.66 35.02C71.44 36.14 70.72 37.43 70.32 38.96C70.01 40.12 69.54 41.23 69.12 42.36C68.78 43.27 68.97 43.61 69.96 43.63C72.02 43.66 74.09 43.64 76.15 43.64C76.73 43.64 77.3 43.64 78.01 43.64C77.45 44.31 77.02 44.88 76.52 45.39C76.34 45.57 76.02 45.7 75.76 45.7C72.92 45.72 70.08 45.72 67.24 45.7C66.89 45.7 66.54 45.67 66.2 45.59C65.16 45.34 64.75 44.6 65.08 43.59C65.99 40.85 66.9 38.12 67.84 35.39C67.9 35.23 68.17 35.04 68.35 35.04C69.79 35.01 71.23 35.02 72.66 35.02V35.02Z" fill="white"/>
</g>
<defs>
<clipPath id="clip0_13_6458">
<rect width="75" height="10.74" fill="white" transform="translate(3 35)"/>
</clipPath>
</defs>
</svg>
