<svg width="80" height="80" viewBox="0 0 80 80" fill="none" xmlns="http://www.w3.org/2000/svg">
<path fill-rule="evenodd" clip-rule="evenodd" d="M67.2287 36.2106C67.3645 32.3528 67.3645 31.4563 66.9301 28.3321C66.9301 28.3321 66.7128 22.1107 61.7167 20.0188C61.6081 19.9645 61.4995 19.9373 61.3909 19.883C60.4677 19.4755 59.463 19.1767 58.4584 18.9593L58.3769 18.9321C58.2955 18.905 58.2412 18.905 58.1597 18.8778H58.1326C51.5887 17.5194 41.6237 17.6009 39.6415 17.6009C37.6322 17.6009 27.0155 17.5738 20.716 18.9593C19.9558 19.1223 19.1955 19.3668 18.5438 19.6113C18.4895 19.6385 18.4624 19.6385 18.4081 19.6657C18.1094 19.7743 17.8378 19.883 17.5935 19.9917C12.3801 22.3009 12.353 28.2777 12.353 28.2777C12.1901 29.3373 12 30.913 12 33.4667V33.4939C12 33.7384 12.0543 34.0101 12.0543 34.3089C12.0543 35.5043 12.1086 36.6996 12.1629 37.9222C12.1629 38.1395 12.1901 38.384 12.2172 38.6285C12.5431 45.9094 13.249 54.0868 16.1272 57.8359C18.7339 61.2318 23.9744 61.8838 30.9255 62.1283C33.8308 62.2913 36.7633 62.4 39.6687 62.4C42.3296 62.4 44.9635 62.2913 47.6244 62.1555C52.2404 62.0197 56.0146 61.748 59.0286 60.607C59.1101 60.5798 59.1644 60.5526 59.2458 60.5255L59.3001 60.4983C59.463 60.4168 59.626 60.3624 59.7889 60.2809C60.4677 59.9821 61.1194 59.6018 61.6896 59.1671C62.2326 58.7867 62.7214 58.3249 63.183 57.8359C65.9797 54.766 66.8486 45.9094 67.093 38.6285C67.093 38.4927 67.093 38.3297 67.1201 38.1938C67.2016 37.5418 67.2287 36.8898 67.2287 36.2106ZM59.9789 56.559C59.3273 57.1024 57.508 58.2162 56.0146 58.7052C55.2544 58.8954 54.6299 58.9497 54.3855 58.8954L54.3312 58.8682H54.304C54.2497 58.8411 54.2226 58.8411 54.1954 58.8139C54.0596 58.7052 53.951 58.5422 53.9239 58.2977C54.0596 57.1839 54.7385 51.9405 55.4987 42.6221C56.5577 29.3101 56.5849 22.1379 56.5849 21.6217C56.6663 21.4859 56.8292 21.3772 57.0464 21.3772C57.671 21.5674 58.2955 21.7304 58.92 21.9749C59.463 22.1922 60.0333 22.4367 60.5492 22.7627C60.8207 22.9258 61.0651 23.1431 61.3094 23.3604C61.3637 23.4148 61.418 23.4691 61.4724 23.5234L61.4995 23.5506C61.6081 23.6864 61.7167 23.8223 61.8253 23.9309C63.9161 26.7835 63.6717 31.0216 63.726 34.3904C63.7803 38.71 63.5903 43.084 62.9929 47.3493C62.9658 47.5123 62.9386 47.6753 62.9386 47.8383C62.9114 47.9469 62.9114 48.0828 62.8843 48.1914C62.8028 48.599 62.7485 48.9521 62.6671 49.251C62.6399 49.4411 62.5313 50.0117 62.4227 50.6093C61.9068 52.9186 61.4452 54.4128 61.3366 54.7388C61.2008 54.9833 61.0651 55.255 60.9293 55.4723C60.5763 55.907 60.2505 56.2602 59.9789 56.559ZM20.8247 57.5099C20.0644 57.0752 19.467 56.6405 19.2769 56.4232C18.8153 55.9342 18.4352 55.3636 18.1365 54.7388C18.0279 54.4671 17.5663 52.9457 17.0233 50.6093C16.9147 50.0117 16.806 49.4411 16.7789 49.251C16.7246 48.9521 16.6431 48.5718 16.5617 48.1643C16.5617 48.0556 16.5345 47.9741 16.5345 47.8654C16.5074 47.6753 16.4802 47.5123 16.4531 47.3493C15.8557 43.084 15.6656 38.71 15.7199 34.3904C15.7471 31.0488 15.5027 26.7835 17.6206 23.9309C17.7292 23.7951 17.8378 23.6864 17.9193 23.5506L17.9736 23.4963C18.0279 23.4419 18.0551 23.3876 18.1094 23.3333C18.3537 23.1159 18.5981 22.8986 18.8697 22.7356C19.3856 22.4096 19.9558 22.1651 20.4988 21.9477C21.1233 21.7304 21.7478 21.5402 22.3724 21.3772C23.2684 21.4044 22.9154 22.8443 22.9697 23.4148C23.024 26.8379 23.2141 30.261 23.3499 33.6569C23.8386 41.8071 24.436 49.903 25.4949 57.9989C25.5492 58.5966 25.3049 58.8682 24.8704 58.9497C24.1916 58.8411 22.2637 58.2162 20.8247 57.5099ZM33.8851 41.5354C32.799 39.8782 31.903 36.9713 31.2242 34.6077C30.491 31.9182 29.7036 28.7939 28.9433 25.8327C28.4003 23.7136 27.9115 21.7304 27.6943 20.9154C27.7215 20.8339 27.7758 20.7795 27.8844 20.7524C27.9658 20.7252 28.0744 20.698 28.2374 20.698C28.5089 20.6709 28.8619 20.6437 29.3778 20.5622C29.4864 20.535 29.6221 20.535 29.7308 20.5079C30.3824 20.4535 31.2242 20.3992 32.3374 20.372C36.5733 20.2362 39.5329 20.209 39.6958 20.209C39.8587 20.209 42.7912 20.2362 47.0542 20.372C48.1675 20.3992 49.0364 20.4535 49.6609 20.5079C49.7967 20.535 49.9053 20.535 50.0139 20.5622C50.5298 20.6165 50.8828 20.6437 51.1543 20.698C51.3172 20.7252 51.4258 20.7524 51.5073 20.7524C51.6159 20.7795 51.6702 20.8339 51.6974 20.9154V20.9425C51.5073 21.7576 51.0185 23.6864 50.5026 25.724C49.7152 28.7396 48.9278 31.9453 48.1675 34.6892C47.4887 37.0528 46.5926 39.9054 45.5337 41.5354C44.7734 42.595 43.7416 43.3828 42.3568 43.7088C41.6508 43.8175 40.7819 43.8447 39.723 43.8447C38.664 43.8447 37.7951 43.8175 37.0892 43.7088C35.7044 43.3828 34.6997 42.6221 33.9394 41.5626L33.8851 41.5354ZM47.733 59.0856C47.733 59.1127 47.7602 59.1942 47.7602 59.2758C47.7602 59.3301 47.733 59.3573 47.733 59.3844C47.6244 59.4659 47.4344 59.5203 47.2986 59.5474C46.9456 59.5746 46.0496 59.6289 44.0674 59.6833C43.9588 59.6833 43.8502 59.6833 43.7416 59.6833C42.3839 59.7104 41.0263 59.7104 39.6687 59.7104C38.311 59.7104 36.9534 59.7104 35.5958 59.6833C35.4871 59.6833 35.3785 59.6833 35.2699 59.6833C33.2878 59.6289 32.4189 59.5746 32.0387 59.5474C31.903 59.5203 31.7129 59.4659 31.6043 59.3844C31.5772 59.3573 31.5771 59.3301 31.5771 59.2758C31.5771 59.1942 31.6043 59.1127 31.6043 59.0856C31.6586 58.9226 31.6858 58.7596 31.7401 58.5966C32.1474 57.2382 33.2063 53.8423 33.2063 53.8423C33.2335 53.7879 33.2335 53.7336 33.2606 53.6793C33.3964 53.2718 33.5593 52.8642 33.7494 52.4024C34.1295 51.4515 34.7812 50.7723 35.2971 50.4192C35.5958 50.229 35.9216 50.0932 36.2474 49.9845C36.4375 49.9573 36.6276 49.903 36.8176 49.8758C37.1706 49.7943 37.5236 49.74 37.9037 49.7128C38.4196 49.6857 38.9627 49.6585 39.6144 49.6585C40.266 49.6585 40.8091 49.6585 41.325 49.7128C41.7051 49.7672 42.0853 49.8215 42.4111 49.8758C42.6283 49.9302 42.8184 49.9573 42.9813 49.9845C43.3343 50.0932 43.6601 50.229 43.9317 50.4192C44.4747 50.7723 45.0992 51.4515 45.4794 52.4024C45.6694 52.8642 45.8324 53.2989 45.9681 53.6793C45.9953 53.7336 45.9953 53.7879 46.0224 53.8423C46.0224 53.8423 47.0814 57.2925 47.4887 58.6237C47.6516 58.7867 47.7059 58.9497 47.733 59.0856Z" fill="white"/>
</svg>
