<svg width="80" height="80" viewBox="0 0 80 80" fill="none" xmlns="http://www.w3.org/2000/svg">
<g clip-path="url(#clip0_13_6469)">
<path d="M34.976 36.0414L33.4289 39.4712L31.8825 36.0414H26.5717V43.428H30.7584V39.6715L32.3185 43.428H34.5408L36.1008 39.6715V43.428H40.2857V36.0414H34.976ZM49.5888 36.0414L48.0421 39.4712L46.4951 36.0414H41.185V43.428H45.3709V39.6715L46.931 43.428H49.1536L50.7145 39.6715V43.428H54.8994V36.0414H49.5888ZM9.65843 36.0414V38.7527H7.57061V36.0414H3.13416V43.428H7.57061V40.6351H9.65843V43.428H14.0953V36.0414H9.65843ZM65.3355 37.8191V36.0414H55.8202V43.428L65.3355 43.4274V41.6496H60.2578V40.5449H65.3355V38.9268H60.2578V37.8191H65.3355ZM19.3379 36.0436L19.3373 40.9991C19.3459 41.637 19.7652 41.7961 20.3364 41.7961C20.8945 41.7961 21.32 41.6266 21.32 40.9853V36.0436H25.7444V41.0146C25.7444 43.2064 24.1481 43.68 20.3364 43.6794C16.5196 43.6788 14.9124 43.2143 14.9124 41.014V36.0436H19.3379ZM71.8959 39.4136C72.7245 39.4136 73.1202 39.1127 73.1202 38.5012C73.1202 37.734 72.6204 37.5284 71.8913 37.5284H70.5942V39.4136H71.8959ZM73.1306 43.4257L70.5965 40.7779V43.428H66.1588V36.0414L73.286 36.0408C74.782 36.0408 77.258 36 77.1257 38.4645C77.0637 39.6168 75.8602 40.4576 74.9041 40.6644L77.866 43.4257H73.1306Z" fill="white"/>
</g>
<defs>
<clipPath id="clip0_13_6469">
<rect width="75" height="7.68" fill="white" transform="translate(3 36)"/>
</clipPath>
</defs>
</svg>
