<svg width="80" height="80" viewBox="0 0 80 80" fill="none" xmlns="http://www.w3.org/2000/svg">
<g clip-path="url(#clip0_13_6705)">
<path d="M12.5518 27.4013C11.7989 28.4482 11.3022 29.655 11.1009 30.926C10.8997 32.1969 10.9995 33.4969 11.3926 34.7228C12.1019 36.7605 13.3802 38.5557 15.078 39.8988C17.2995 41.747 19.8254 43.2005 22.5446 44.1951C27.7775 46.1514 33.309 47.2033 38.8993 47.3052C41.6261 47.3963 44.3558 47.2966 47.0685 47.0069C49.8752 46.7158 52.6534 46.1977 55.3754 45.458C58.9188 44.552 62.2869 43.0703 65.3436 41.0728C67.2524 39.8602 68.8666 38.2421 70.07 36.3351C71.2517 34.4999 71.6554 32.2752 71.1932 30.1456C70.7712 28.3751 69.8707 26.7525 68.5888 25.4529C66.6666 23.4865 64.3813 21.9061 61.8577 20.7979C58.8714 19.4204 55.723 18.4205 52.4861 17.8217C50.2303 17.3739 47.9468 17.0766 45.6511 16.9318C45.1254 16.9022 44.6132 16.847 44.0938 16.8H39.068C38.9858 16.8257 38.9019 16.8462 38.817 16.8613C37.9541 16.9144 37.1055 16.9492 36.2456 17.0319C33.5401 17.2633 30.8573 17.7074 28.2225 18.3601C24.5906 19.1973 21.1109 20.5872 17.9067 22.4807C15.778 23.7087 13.9493 25.3894 12.5518 27.4023M47.5756 37.9259C47.185 40.3255 45.9501 42.5097 44.0907 44.0899C43.3952 44.6563 42.5312 44.9795 41.6323 45.0094C40.9966 45.0605 40.3538 45.0799 39.9722 45.0963C37.8219 45.0503 35.6766 44.8722 33.5486 44.563C31.425 44.3016 29.3223 43.894 27.2556 43.343C26.5428 43.1458 25.8433 42.9139 25.1676 42.6656C24.6018 42.4357 24.5854 42.0955 25.0524 41.7267C29.4627 38.2762 34.6049 35.8666 40.0905 34.6799C41.5179 34.2985 42.9953 34.1345 44.4723 34.1936C45.0166 34.1758 45.5563 34.2993 46.0379 34.552C46.5195 34.8046 46.9265 35.1776 47.2186 35.6342C47.6163 36.3274 47.7434 37.1416 47.5756 37.9218M61.6046 26.4143C61.8453 25.9453 62.0829 25.4682 62.3318 25.0002C62.6507 24.4015 62.9737 24.2554 63.5785 24.5619C64.9464 25.1709 66.1365 26.1147 67.0372 27.305C67.9379 28.4952 68.5199 29.893 68.7287 31.3675C68.7465 31.5974 68.7465 31.8283 68.7287 32.0582C68.7291 33.6138 68.1835 35.1208 67.1858 36.3198C65.8564 37.962 64.1943 39.3081 62.3071 40.2707C59.1364 42.0041 55.6936 43.1927 52.124 43.7864C51.9749 43.8059 51.6828 43.7619 51.6663 43.6935C51.6358 43.602 51.6249 43.5052 51.6343 43.4093C51.6436 43.3134 51.6731 43.2205 51.7208 43.1366C52.1785 42.4848 52.6743 41.8493 53.1609 41.2066C54.8824 38.8956 56.4239 36.4576 57.7721 33.9137C59.1092 31.4472 60.3343 28.9236 61.6077 26.4143M37.5848 20.6825C38.1095 20.1418 38.7397 19.713 39.4369 19.4223C40.134 19.1316 40.8835 18.985 41.6395 18.9916C45.596 18.8815 49.5485 19.3221 53.382 20.3004C54.425 20.5497 55.4608 20.8787 56.4884 21.2046C56.8142 21.3174 57.125 21.4691 57.4141 21.6562C57.4933 21.6963 57.561 21.7556 57.6111 21.8286C57.6611 21.9016 57.6918 21.9859 57.7003 22.0738C57.7088 22.1617 57.6948 22.2503 57.6598 22.3314C57.6247 22.4125 57.5695 22.4836 57.4995 22.5379C57.3049 22.7506 57.0787 22.9325 56.8288 23.0774C52.8033 25.577 48.5002 27.6057 44.0053 29.1228C42.3053 29.7127 40.534 30.0762 38.7378 30.2038C37.9587 30.2602 37.1771 30.1349 36.4554 29.838C35.2869 29.3078 34.9259 28.3484 34.9505 26.9016C35.0849 24.5899 36.0149 22.3943 37.5848 20.6825M28.8787 20.5108C29.5001 20.379 30.1352 20.3214 30.7703 20.3392C31.3083 20.3392 31.4286 20.5946 31.1077 21.0197C30.2221 22.1752 29.3169 23.2879 28.455 24.4506C25.2829 28.568 22.7284 33.1204 20.8711 37.9658C20.7117 38.4179 20.4957 38.8483 20.2282 39.247C20.17 39.3684 20.0878 39.4769 19.9865 39.566C19.8851 39.6551 19.7668 39.7231 19.6384 39.7658C19.5101 39.8085 19.3744 39.8251 19.2394 39.8146C19.1045 39.8041 18.9731 39.7668 18.853 39.7047C18.1267 39.4056 17.4686 38.9639 16.9182 38.4061C15.5938 37.2513 14.5668 35.7986 13.9229 34.1691C13.7294 33.492 13.5708 32.8055 13.4477 32.1124C13.4758 32.0997 13.5056 32.0911 13.5362 32.0868C13.5994 30.4297 14.2559 28.8493 15.3876 27.6301C16.6602 26.1812 18.1836 24.9701 19.8857 24.0541C22.7142 22.4856 25.7372 21.2916 28.8777 20.5027" fill="white"/>
<path d="M60.8054 51.7732C60.5854 51.7418 60.3633 51.7268 60.1409 51.7282H51.7568C51.6375 51.7282 51.5162 51.7476 51.366 51.7538V62.777C51.366 62.9139 51.3495 63.0641 51.3464 63.202H60.8733C60.9957 63.155 61.1222 63.1101 61.2436 63.0641C61.577 62.964 61.8745 62.7713 62.1011 62.5085C62.3277 62.2458 62.4738 61.9242 62.5222 61.5816C62.5827 61.301 62.61 61.0143 62.6034 60.7274C62.6116 59.3257 62.6034 57.9433 62.6034 56.5527C62.6034 55.7272 62.6281 54.9037 62.59 54.0853C62.5468 52.661 62.013 52.003 60.8054 51.7732M59.207 59.3737C59.17 60.2033 58.9406 60.4158 58.1239 60.425H54.7881V54.4633C55.9875 54.4633 57.1724 54.4521 58.3574 54.4715C58.8614 54.4848 59.0609 54.7269 59.1494 55.2194C59.1874 55.3798 59.207 55.544 59.208 55.7088C59.2142 56.8715 59.208 58.0434 59.208 59.2102C59.2113 59.2633 59.2113 59.3165 59.208 59.3696" fill="white"/>
<path d="M75.2346 52.1083V51.7098C75.0814 51.7037 74.9826 51.6873 74.8859 51.6873C72.2291 51.7037 69.5629 51.7098 66.9009 51.7241C66.7857 51.7241 66.6808 51.7415 66.5707 51.7486C66.2547 51.7457 65.9412 51.8058 65.6489 51.9252C65.3566 52.0446 65.0913 52.221 64.8687 52.444C64.6462 52.6669 64.4709 52.9319 64.3532 53.2233C64.2355 53.5147 64.1777 53.8266 64.1834 54.1405C64.1494 57.1668 64.17 60.1859 64.17 63.201H67.4543V60.6917H71.8773V63.2031H75.2356C75.2356 63.0733 75.2243 62.9384 75.2243 62.8066C75.2243 59.2439 75.2305 55.671 75.2305 52.1103M71.8773 57.788H67.4543C67.4543 56.9532 67.4296 56.1226 67.4708 55.293C67.4684 55.1941 67.4861 55.0958 67.5228 55.0039C67.5594 54.912 67.6143 54.8283 67.6842 54.7579C67.754 54.6874 67.8374 54.6317 67.9294 54.5939C68.0214 54.5561 68.1201 54.5371 68.2196 54.5379C69.0887 54.4787 69.9795 54.495 70.8559 54.4787C71.1891 54.4787 71.5317 54.4787 71.8773 54.4787V57.788Z" fill="white"/>
<path d="M36.7116 51.6863C35.8002 51.6863 34.8766 51.7027 33.9673 51.6771C33.6484 51.6771 33.5713 51.7793 33.5764 52.0766C33.5877 54.5696 33.5877 57.083 33.5764 59.579C33.5764 60.2278 33.381 60.4056 32.7422 60.4138H29.1833V51.7159H25.7632V52.1788C25.7632 54.3877 25.7549 56.5936 25.7632 58.8036C25.7632 60.2758 25.7632 61.7369 25.7714 63.1969H35.3744C35.4083 63.1908 35.4341 63.1469 35.4773 63.1387C35.8869 63.0871 36.2651 62.8938 36.5455 62.5928C36.826 62.2918 36.9907 61.9023 37.0109 61.4927C37.0582 61.2172 37.083 60.9384 37.085 60.659C37.0983 57.8094 37.0983 54.9435 37.0994 52.1032V51.7047C36.9543 51.6986 36.8278 51.6822 36.7095 51.6822" fill="white"/>
<path d="M49.855 56.3831C49.855 55.4861 49.8416 54.5941 49.7871 53.7195C49.7862 53.3016 49.6456 52.8959 49.3873 52.566C49.1291 52.2361 48.7679 52.0007 48.3604 51.8968C47.9107 51.7779 47.4484 51.7127 46.9831 51.7027C44.2656 51.6741 41.5439 51.6771 38.8263 51.6771C38.7338 51.6771 38.6587 51.6863 38.5322 51.6976V54.9732C38.5322 57.7185 38.5322 60.4526 38.5239 63.2H41.9461C41.9461 60.329 41.9461 57.4692 41.9348 54.5972C41.9415 54.5624 41.9511 54.5282 41.9636 54.495C42.0232 54.4782 42.0847 54.4686 42.1466 54.4664C43.2781 54.4664 44.4322 54.4572 45.5667 54.4664C46.1006 54.4664 46.333 54.6932 46.333 55.2255C46.3392 57.8299 46.333 60.4424 46.333 63.0478C46.3311 63.0994 46.3211 63.1504 46.3032 63.199H49.8724C49.8527 63.1388 49.8413 63.0762 49.8385 63.013C49.8515 60.7911 49.856 58.5808 49.8519 56.3821" fill="white"/>
<path d="M8.67808 51.6874C8.44973 51.6874 8.48265 51.8498 8.48265 51.9939V55.7875H4.07613V51.6874H3.65338C2.70296 51.6771 1.75665 51.6741 0.800049 51.6628V63.2H4.09156V58.6861H8.52276V63.201H11.9501C11.9557 63.1707 11.9578 63.1399 11.9562 63.1091V51.9663C11.9491 51.8765 11.9371 51.7871 11.9202 51.6986C10.8227 51.6874 9.75091 51.6986 8.67808 51.6874Z" fill="white"/>
<path d="M22.0591 51.7037C21.9931 51.7172 21.9306 51.7438 21.8753 51.7819C21.82 51.82 21.773 51.8688 21.7371 51.9254C20.8803 53.0922 20.0533 54.2804 19.2026 55.4483C19.1364 55.5517 19.0628 55.6504 18.9825 55.7435C18.8941 55.6168 18.8406 55.5392 18.7871 55.4483C18.0228 54.2937 17.2534 53.131 16.4882 51.9673C16.4489 51.8897 16.3882 51.825 16.3131 51.7806C16.238 51.7362 16.1517 51.7142 16.0644 51.717C15.0152 51.717 13.966 51.7037 12.9128 51.6884H12.4849C12.6073 51.8682 12.6659 51.9673 12.7338 52.0643C13.9753 53.9167 15.1839 55.7956 16.481 57.6194C17.0236 58.3228 17.2861 59.2002 17.2185 60.0838C17.1444 61.1198 17.1897 62.165 17.1814 63.202H20.6067C20.6067 61.8002 20.6067 60.3841 20.6231 58.9742C20.6291 58.7888 20.6845 58.6083 20.7836 58.4511C22.2723 56.3109 23.7648 54.168 25.2611 52.0225C25.3228 51.9387 25.3763 51.8457 25.437 51.7435C25.3997 51.7216 25.3585 51.707 25.3156 51.7006C24.2376 51.7006 23.1453 51.6802 22.0601 51.7006" fill="white"/>
<path d="M76.8011 52.1206C76.8186 55.669 76.8144 59.2286 76.8144 62.777C76.8144 62.9139 76.7856 63.0631 76.7856 63.201H80.001V51.7425C79.0815 51.7149 78.1496 51.7231 77.2238 51.6782C76.8762 51.6639 76.8031 51.7926 76.8031 52.1195" fill="white"/>
</g>
<defs>
<clipPath id="clip0_13_6705">
<rect width="79.2" height="46.4" fill="white" transform="translate(0.800049 16.8)"/>
</clipPath>
</defs>
</svg>
