<svg width="80" height="80" viewBox="0 0 80 80" fill="none" xmlns="http://www.w3.org/2000/svg">
<g clip-path="url(#clip0_13_6472)">
<path d="M16.3772 49.3862V56.3592C16.3772 56.3592 14.0731 49.8239 14.0202 49.6527C13.9643 49.4783 13.8385 49.3859 13.6017 49.3859H11.4043V57.8753H12.8877V50.9944C12.8877 50.9944 15.1568 57.4411 15.2147 57.6088C15.2648 57.7786 15.4107 57.8755 15.602 57.8755H17.8598V49.3859L16.3772 49.3862ZM24.1754 49.3862V57.8753H25.9195L25.9165 54.263H29.0585V52.7111L25.9195 52.7154V50.9486H29.1058V49.3859L24.1754 49.3862ZM64.4985 49.3862V51.0183H66.4457V57.8745H68.219V51.0183H70.1625V49.3859L64.4985 49.3862ZM35.2437 57.8748H37.1212V49.3892H35.2437V57.8748ZM56.6285 57.8748H58.5065V49.3892H56.6285V57.8748ZM76.1308 57.8748H78V49.3892H76.1308V57.8748ZM3 57.8748H4.87802V49.3892H3V57.8748ZM50.1415 49.3862H48.6586V56.3592C48.6586 56.3592 46.3563 49.8239 46.3012 49.6527C46.2446 49.4783 46.1187 49.3859 45.8879 49.3859H43.6857V57.8753H45.1661V50.9944C45.1661 50.9944 47.4413 57.4411 47.4941 57.6088C47.5477 57.7786 47.6945 57.8755 47.8805 57.8755H50.1415V49.3862ZM48.1865 35.4526C47.471 34.5256 40.5008 25.1307 40.5008 25.1307C40.5008 25.1307 33.5039 34.6052 32.8352 35.4734C30.2509 35.253 25.7605 33.5292 25.7605 30.5378C25.7605 26.7339 32.2802 23.2109 40.5008 23.2109C49.1338 23.2109 55.2423 26.7339 55.2423 30.5378C55.2423 33.5292 50.7742 35.2323 48.1865 35.4526M40.5008 22.1245C29.8832 22.1245 22.4932 26.2716 22.4932 31.6429C22.4932 34.1486 24.109 36.9835 27.5381 38.6884C30.7211 40.2692 35.2173 40.8201 35.8666 40.8999L40.5008 27.2441L45.1825 40.9001C45.8298 40.8203 50.285 40.2692 53.4685 38.6884C56.8956 36.9838 58.5121 34.1486 58.5121 31.6429C58.5121 26.2716 51.1198 22.1245 40.5008 22.1245" fill="white"/>
</g>
<defs>
<clipPath id="clip0_13_6472">
<rect width="75" height="36" fill="white" transform="translate(3 22)"/>
</clipPath>
</defs>
</svg>
