<svg width="80" height="80" viewBox="0 0 80 80" fill="none" xmlns="http://www.w3.org/2000/svg">
<g clip-path="url(#clip0_13_6475)">
<g clip-path="url(#clip1_13_6475)">
<path d="M2.59509 32.8025H-0.0761097C-0.174453 32.7865 -0.275187 32.794 -0.370053 32.8245C-0.464919 32.8549 -0.551215 32.9075 -0.621863 32.9777C-0.692511 33.048 -0.7455 33.134 -0.776483 33.2287C-0.807467 33.3234 -0.815564 33.4241 -0.80011 33.5225V45.7001C-0.813422 45.7976 -0.803731 45.897 -0.77181 45.9901C-0.739889 46.0832 -0.686624 46.1676 -0.616273 46.2365C-0.545921 46.3053 -0.460433 46.3568 -0.366641 46.3868C-0.272849 46.4167 -0.173355 46.4243 -0.0761097 46.4089H2.60309C2.70051 46.423 2.79989 46.4141 2.8932 46.3827C2.98652 46.3514 3.07116 46.2985 3.1403 46.2285C3.20944 46.1584 3.26113 46.0731 3.29122 45.9793C3.3213 45.8856 3.32893 45.7861 3.31349 45.6889V33.5225C3.32889 33.4246 3.32096 33.3244 3.29033 33.2301C3.2597 33.1358 3.20724 33.0501 3.13723 32.98C3.06721 32.9098 2.98162 32.8571 2.88741 32.8263C2.7932 32.7955 2.69305 32.7873 2.59509 32.8025" fill="white"/>
<path d="M20.7071 39.476C19.2919 39.0224 11.6567 36.612 11.3031 36.5032C11.2576 36.4977 11.214 36.4819 11.1754 36.457C11.1369 36.4321 11.1046 36.3988 11.0809 36.3596C11.0571 36.3203 11.0426 36.2762 11.0384 36.2306C11.0343 36.1849 11.0405 36.1389 11.0567 36.096C11.0863 35.9632 11.2031 35.9064 11.4327 35.9064H21.8903C22.3751 35.9064 22.5959 35.6872 22.5959 35.1928V33.5224C22.5959 33.0424 22.3839 32.8072 21.8887 32.8072H11.2935C8.35994 32.8024 7.09674 34.412 7.09674 36.2808C7.09674 37.76 7.81674 38.9688 9.71914 39.6072C10.1103 39.74 19.2335 42.6296 19.5095 42.716C19.5548 42.7252 19.5976 42.7437 19.6353 42.7703C19.673 42.797 19.7047 42.8312 19.7284 42.8708C19.7521 42.9104 19.7673 42.9545 19.773 43.0003C19.7787 43.0461 19.7748 43.0926 19.7615 43.1368C19.7183 43.28 19.6135 43.3576 19.3959 43.3576H7.79274C7.30154 43.3576 7.06714 43.5848 7.06714 44.0696V45.692C7.06714 46.22 7.28474 46.412 7.79834 46.412C7.79834 46.412 18.4591 46.4272 19.4663 46.412C22.1351 46.3792 23.6887 45.3152 23.6887 43.0656C23.6887 41.1848 22.8735 40.1808 20.7079 39.4792" fill="white"/>
<path d="M41.755 32.8048L39.0534 32.8C38.5398 32.8 38.3334 33.0328 38.3334 33.512V41.2328C38.3334 42.5128 38.1366 43.2712 36.3798 43.328C35.9726 43.3384 35.2262 43.3472 34.683 43.3472C34.1398 43.3472 33.5174 43.3384 33.1038 43.328C31.3438 43.2712 31.035 42.516 31.035 41.2328V33.512C31.0498 33.415 31.0415 33.3159 31.0107 33.2228C30.9798 33.1297 30.9274 33.0452 30.8576 32.9762C30.7879 32.9072 30.7028 32.8557 30.6093 32.8259C30.5158 32.7961 30.4166 32.7889 30.3198 32.8048H27.6206C27.1278 32.8048 26.915 33.0344 26.915 33.512C26.915 33.512 26.915 40.3344 26.915 41.88C26.915 44.0304 27.395 46.3528 31.4446 46.3992C32.9238 46.4184 34.6774 46.4392 34.6774 46.4392C34.6774 46.4392 36.3238 46.424 37.807 46.3992C42.0934 46.3288 42.4678 44.1264 42.4678 41.88V33.52C42.4839 33.4225 42.4765 33.3225 42.4462 33.2284C42.4159 33.1343 42.3637 33.0487 42.2938 32.9788C42.2239 32.9089 42.1384 32.8567 42.0443 32.8264C41.9501 32.7962 41.8502 32.7887 41.7526 32.8048" fill="white"/>
<path d="M80.4207 32.8048L77.7087 32.8C77.2015 32.8 76.9887 33.0328 76.9887 33.512V41.2328C76.9887 42.5128 76.7919 43.2712 75.0383 43.328C74.6311 43.3384 73.8799 43.3472 73.3431 43.3472C72.8063 43.3472 72.1743 43.3384 71.7623 43.328C70.0023 43.2712 69.6895 42.516 69.6895 41.2328V33.512C69.7046 33.4151 69.6965 33.316 69.6659 33.2229C69.6353 33.1297 69.583 33.0452 69.5133 32.9761C69.4437 32.9071 69.3586 32.8556 69.2652 32.8258C69.1718 32.796 69.0726 32.7888 68.9759 32.8048H66.2823C65.7839 32.8048 65.5719 33.0344 65.5719 33.512V41.88C65.5719 44.0304 66.0615 46.3528 70.1119 46.3992C71.5895 46.4184 73.3447 46.4392 73.3447 46.4392C73.3447 46.4392 74.9879 46.424 76.4647 46.3992C80.7599 46.3288 81.1303 44.1264 81.1303 41.88V33.52C81.1474 33.4229 81.1409 33.323 81.1114 33.2289C81.082 33.1348 81.0303 33.0491 80.9609 32.979C80.8915 32.909 80.8063 32.8566 80.7124 32.8263C80.6186 32.796 80.5188 32.7886 80.4215 32.8048" fill="white"/>
<path d="M61.5927 43.3568H49.9751C49.7679 43.3568 49.6631 43.2768 49.6199 43.1376C49.6056 43.0928 49.601 43.0456 49.6065 42.9989C49.6121 42.9523 49.6275 42.9074 49.6518 42.8672C49.6762 42.827 49.7088 42.7925 49.7476 42.766C49.7864 42.7395 49.8304 42.7216 49.8767 42.7136C50.1423 42.6288 59.2719 39.7424 59.6599 39.6064C61.5599 38.9624 62.2799 37.7624 62.2799 36.2808C62.2799 34.412 61.0199 32.8024 58.0871 32.8024H47.4935C47.3957 32.786 47.2954 32.7932 47.2009 32.8233C47.1064 32.8533 47.0204 32.9055 46.9501 32.9753C46.8797 33.0452 46.827 33.1309 46.7963 33.2251C46.7656 33.3194 46.7578 33.4197 46.7735 33.5176V35.1944C46.7735 35.6896 46.9991 35.908 47.4855 35.908H57.9495C58.1735 35.908 58.2871 35.9648 58.3239 36.096C58.3384 36.139 58.3434 36.1847 58.3384 36.2299C58.3335 36.275 58.3188 36.3186 58.2954 36.3575C58.2719 36.3964 58.2403 36.4297 58.2027 36.4552C58.165 36.4806 58.1223 36.4975 58.0775 36.5048C57.7255 36.6136 50.0775 39.0224 48.6671 39.4776C46.4999 40.1792 45.6879 41.1832 45.6879 43.064C45.6879 45.3144 47.2399 46.3776 49.9071 46.4104C50.9103 46.4296 61.5799 46.4104 61.5799 46.4104C62.0887 46.4104 62.3111 46.2192 62.3111 45.6904V44.0688C62.3111 43.584 62.0815 43.3568 61.5911 43.3568" fill="white"/>
</g>
</g>
<defs>
<clipPath id="clip0_13_6475">
<rect width="80" height="80" fill="white"/>
</clipPath>
<clipPath id="clip1_13_6475">
<rect width="81.9312" height="13.6392" fill="white" transform="translate(-0.800049 32.8)"/>
</clipPath>
</defs>
</svg>
