<svg width="80" height="80" viewBox="0 0 80 80" fill="none" xmlns="http://www.w3.org/2000/svg">
<g clip-path="url(#clip0_13_6483)">
<path d="M76.9 40.2C76.8 48.2 60.3 54.6 39.9 54.5C19.4 54.3 2.89996 47.7 2.99996 39.7C3.09996 31.7 19.6 25.3 40 25.4C60.4 25.5 76.9 32.1 76.9 40.2ZM39.9 29.4C30.1 29.3 20.4 31.2 15.3 33.7C13.7 34.6 12.8 35.5 11.2 38.7C9.89996 41.3 8.59996 43.8 10.4 45.1C13.2 47.3 19.4 49.5 25 50.5C26.5 50.6 28.1 50.4 29.6 49.8C31 49.3 32.3 49 33.8 49C36 49 37.9 48.9 40 48.9C42.1 48.9 43.8 49 46.2 49C47.6 49 49.1 49.3 50.4 49.8C51.8 50.5 53.4 50.7 55 50.5C60.6 49.6 66.9 47.4 69.6 45.1C71.4 43.8 70.1 41.3 68.8 38.7C67.1 35.5 66.3 34.6 64.7 33.7C59.6 31.2 50.1 29.4 40.4 29.4H39.9" fill="white"/>
<path d="M50.7999 35.8C50.0999 36.5 49.7999 37.4 49.7999 38.4V41.6C49.7999 42.5 50.1999 43.5 50.7999 44.2C51.6999 44.9 52.7999 45.4 53.8999 45.3H62.8999C63.2999 45.3 63.5999 45 63.5999 44.6V44.5V42.6H55.8999C54.8999 42.6 53.9999 41.8 53.9999 40.8V39.1C54.0999 38.1 54.8999 37.3 55.8999 37.3H63.5999V35.4C63.6999 35 63.3999 34.7 62.9999 34.7H62.8999H53.8999C52.6999 34.6 51.5999 35 50.7999 35.8Z" fill="white"/>
<path d="M40.8 34.7H37.6C36.9 34.7 36.2 35.1 35.9 35.8L31.5 45.3H34.7C35.4 45.4 36.1 45 36.5 44.4L38.5 40.1V40C38.6 39.8 38.9 39.6 39.1 39.6H39.7C39.9 39.6 40.2 39.7 40.3 40V40.1L42.3 44.4C42.7 45 43.4 45.3 44.1 45.3H47.3L42.9 35.8C42.4 35 41.6 34.6 40.8 34.7Z" fill="white"/>
<path d="M28.3 34.7H18.5C18.2 34.6 17.9 34.8 17.9 35.1V35.2V37.2H23.6C24.1 37.2 24.5 37.6 24.6 38C24.6 38.1 24.7 38.3 24.7 38.4V40.8C24.6 41.8 23.8 42.6 22.8 42.6H14.9V44.5C14.8 44.9 15.1 45.2 15.5 45.2H15.6H24.6C25.8 45.3 26.8 44.8 27.7 44.1C28.4 43.4 28.7 42.5 28.7 41.5V35.1C28.8 34.9 28.6 34.7 28.3 34.7C28.3 34.6 28.3 34.6 28.3 34.7Z" fill="white"/>
</g>
<defs>
<clipPath id="clip0_13_6483">
<rect width="73.9" height="37.8" fill="white" transform="translate(3 21)"/>
</clipPath>
</defs>
</svg>
