<svg width="80" height="80" viewBox="0 0 80 80" fill="none" xmlns="http://www.w3.org/2000/svg">
<path fill-rule="evenodd" clip-rule="evenodd" d="M50.2776 41.5563L46.1304 51.9901C45.7819 52.8411 45.3441 53.4297 44.8213 53.7579H48.2698C47.9421 53.5179 47.7897 53.2779 47.7897 53.0154L47.9202 52.4263L48.5323 50.6355H52.8757L53.639 52.7529C53.7925 53.1453 53.6829 53.4735 53.3124 53.7574H57.3281C56.9138 53.5174 56.5648 53.0368 56.2809 52.3167L51.9375 41.5563H50.2776V41.5563ZM45.3238 41.5996H41.9618C42.4857 41.9267 42.7482 42.5378 42.7482 43.4332V49.5888C42.7482 51.4004 41.918 52.3172 40.2811 52.3172C38.4695 52.3172 37.5751 51.4224 37.5751 49.6112V41.5996H34.3666C34.7381 41.8834 34.9124 42.3202 34.9124 42.9093V49.0644C34.9124 52.3605 36.615 54.0198 40.0192 54.0198C41.4171 54.0198 42.5082 53.6264 43.3154 52.8192C44.1236 52.0109 44.516 50.876 44.516 49.4145V43.4551C44.5155 42.5602 44.7774 41.9492 45.3238 41.5996V41.5996ZM49.0989 49.2178L50.7139 45.1352L52.285 49.2178H49.0989ZM61.694 47.5152L64.3123 52.9507C64.5743 53.496 64.9453 53.7579 65.4472 53.7579H68.1532C67.7828 53.5179 67.4337 53.1458 67.1279 52.623L64.5962 47.93C66.1454 47.2532 66.9098 46.206 66.9098 44.7872C66.9098 42.6698 65.4034 41.6006 62.3702 41.6006H58.1792C58.4849 41.9278 58.6373 42.3213 58.6373 42.7794V53.759H61.7362C61.4315 53.4313 61.2781 52.9726 61.2781 52.3621V43.0403L62.2387 42.9745C63.5051 43.0403 64.1381 43.6951 64.1381 44.9391C64.1381 46.5326 63.3298 47.4066 61.694 47.5152V47.5152ZM14.6125 41.5563L10.4653 51.9901C10.1162 52.8411 9.67949 53.4297 9.15561 53.7579H12.5608C12.2337 53.5179 12.0808 53.2779 12.0808 53.0154L12.2337 52.4263L12.8672 50.6355H17.1886L17.9306 52.7529C18.1049 53.1453 17.9958 53.4735 17.6029 53.7574H21.6192C21.2263 53.5174 20.8772 53.0368 20.5933 52.3167L16.228 41.5563H14.6125V41.5563ZM5.81613 42.7783V51.3561C5.81613 52.731 5.64132 53.8231 5.29225 54.6303C4.8555 55.569 4.0916 56.3773 3 57.0974H5.88135C7.56205 55.6348 8.39117 53.3639 8.39117 50.2869V41.5996H5.35693C5.66324 41.9492 5.81613 42.3416 5.81613 42.7783V42.7783ZM13.39 49.2178L15.0493 45.1352L16.5771 49.2178H13.39V49.2178ZM23.758 43.1274C22.4921 44.328 21.8592 45.8558 21.8592 47.7333C21.8592 49.7192 22.4702 51.2695 23.6709 52.3824C24.8934 53.5173 26.5089 54.0845 28.4943 54.0845C30.1317 54.0845 31.4847 53.7579 32.5763 53.1031V47.9733H29.4117C29.8265 48.4972 30.0446 48.9778 30.0446 49.414V52.2509L28.3639 52.5786C27.2723 52.5786 26.3774 52.1424 25.7012 51.2695C25.0463 50.4174 24.7192 49.2605 24.7192 47.799C24.7192 46.2488 25.1121 45.0267 25.876 44.1538C26.6618 43.2808 27.7315 42.8441 29.0626 42.8441C30.2851 42.8441 31.3548 43.2803 32.2935 44.1318V41.9273C31.0491 41.513 29.827 41.3163 28.6044 41.3163C26.6607 41.3163 25.0458 41.9273 23.758 43.1274V43.1274Z" fill="white"/>
<path fill-rule="evenodd" clip-rule="evenodd" d="M41.045 26.6919C41.045 26.2338 41.3727 26.0152 42.0276 26.0152C41.8752 25.8404 41.5694 25.7752 41.1327 25.7971C40.4768 25.7752 40.1501 26.1028 40.1501 26.8229L40.3025 27.4778L42.1799 31.385L41.1108 33.1095H39.4958L35.3048 32.5418L32.8815 32.738L33.3616 33.5243L32.3796 34.7031L31.3537 34.5716L30.6118 33.1314L31.4847 31.5817L33.6241 31.0583L37.6842 30.9707L40.1721 31.123L39.1238 30.6654L36.2429 30.1415C35.479 29.028 35.0861 28.417 35.0861 28.2641L35.741 25.6233L34.5622 27.1731C34.148 27.7189 33.9293 28.0899 33.9293 28.2866C33.9074 28.6137 34.257 29.2034 34.9771 30.0763L33.8641 30.033L33.1002 29.3563L32.293 28.9195L29.0187 27.6756L29.5864 26.5407L32.904 27.8065L33.9956 26.8897C34.3666 26.4311 34.6943 25.8858 34.9776 25.231C33.9085 26.082 33.144 26.5845 32.6859 26.7149L29.0187 25.34L27.709 27.7408C27.098 28.8318 26.3341 29.4867 25.4387 29.6834L24.9806 29.7486L24.8496 29.5744L25.0025 29.4867C25.6354 29.29 25.9626 28.8538 26.0064 28.1989C26.0502 27.6969 25.9193 27.2607 25.6354 26.9111C25.3516 26.562 24.9373 26.3653 24.3915 26.3215C23.2341 26.2344 22.645 26.7577 22.5798 27.8926H22.3179C21.9902 27.8712 21.8378 27.6093 21.8597 27.1068L22.0126 26.7139L22.6455 26.059L22.0126 26.4519L21.6849 26.4744L21.7501 26.2777L22.7974 25.3609L23.4089 25.6228L24.4786 25.5357C25.1554 25.579 25.7012 25.8409 26.0716 26.3215C26.0935 25.9724 25.984 25.6014 25.7664 25.2299L25.2644 24.7498L25.8321 24.4441L26.7489 24.706C27.2509 24.8808 27.6219 24.946 27.8181 24.9027L28.9968 23.8769L30.4808 23.4188L29.6736 23.3316C28.8658 23.2878 28.342 23.4188 28.08 23.7459C27.7962 24.0517 27.5123 24.204 27.2723 24.1827L26.6826 24.1169L26.0711 24.0079L25.4601 24.0736L23.5388 24.6194L23.3645 24.4884C23.3426 24.3355 23.6698 24.1388 24.3904 23.9207L25.9615 23.4631C27.4241 23.0483 29.2796 22.8516 31.5494 22.8735L35.1727 22.9387C36.4605 23.0264 37.8135 23.3535 39.2547 23.9207L49.0764 27.8065C51.4777 28.7452 54.5558 30.1202 58.3091 31.8885L62.784 34.115C65.6001 35.6204 67.9137 37.0397 69.7687 38.3708L71.7327 39.7457C72.5848 40.2043 73.4797 40.4882 74.374 40.5759L76.0542 40.5101L76.6663 40.7063L76.8844 41.1644C76.8406 41.6231 76.5567 41.8631 76.0114 41.885L73.654 41.9941L72.6057 40.7934L71.907 40.3786C71.1436 40.3348 70.6636 40.2263 70.4882 40.0734L67.848 37.7378C67.346 37.3016 66.9093 37.0611 66.5169 37.0391L64.2679 36.8863C62.0201 34.6817 60.3388 33.4372 59.2697 33.1319L61.409 35.0965L63.024 37.0824C63.3506 37.5406 63.8103 37.7811 64.3989 37.803L66.6687 37.9773L69.6591 40.7058C69.9211 40.9458 70.2493 41.0987 70.6197 41.1858L71.667 41.2949L72.7372 42.4517L72.0385 43.1285L70.0296 42.9756L66.6687 39.9419L60.164 39.5928C59.2253 39.527 58.4839 39.3309 57.96 39.047C57.5457 38.8503 57.0213 38.436 56.4316 37.803L53.4193 34.5069C52.7425 33.8082 52.2844 33.4591 52.0225 33.4372L49.4041 33.5901C47.5705 33.6777 46.1956 33.6991 45.2788 33.6339L42.3103 33.1972L42.9871 32.0842L44.362 32.2809L47.0023 32.1494C47.8106 32.0842 48.4868 31.888 49.0331 31.5603C48.3125 31.648 47.2862 31.648 45.977 31.5822C44.8629 31.4951 43.9681 31.3203 43.2485 31.0589L41.1311 27.0421C41.075 26.9339 41.0455 26.8138 41.045 26.6919ZM52.6132 35.2045L55.974 38.8278C56.7166 39.6136 57.5462 40.1151 58.4849 40.3337L61.4315 40.6395L66.2549 40.8576L69.5939 43.8699L72.3662 44.0661L73.4145 42.9312L75.9462 42.8441C77.2335 42.7783 77.9102 42.2106 77.9979 41.1848C78.0198 40.6828 77.8675 40.2899 77.5617 40.006C77.0817 39.5693 76.6887 39.395 76.383 39.4821L75.9248 39.526L75.2261 39.5484L73.917 39.5923C73.283 39.5265 72.4106 39.0903 71.3414 38.3264C68.4814 36.2528 65.5793 34.463 62.6535 33.0004L55.6918 29.639L44.756 25.077C41.8095 23.833 39.6482 23.0253 38.2294 22.6324L36.8326 22.3052L34.9557 22.0652L31.682 22L25.374 22.6768C23.2133 23.2226 22.1217 23.8336 22.0778 24.5537V24.9466L20.8339 26.0157C20.5281 26.2777 20.3538 26.5396 20.3319 26.8235L20.6377 27.4783L20.9215 27.6745L21.2268 28.1326L21.4887 28.4817C21.7068 28.8094 22.0126 29.0056 22.4055 29.0275C22.7979 29.0494 23.1261 28.8965 23.4094 28.5913L23.2571 28.1332C23.3009 27.4345 23.6495 27.1073 24.2829 27.1731C24.8287 27.195 25.0907 27.5008 25.0468 28.0679C25.003 28.5266 24.7192 28.7885 24.1953 28.8538C23.8462 28.8976 23.6495 29.0938 23.6276 29.4215C23.6056 29.8796 23.7585 30.2511 24.0643 30.5345C24.2605 30.7093 24.4353 30.7964 24.5882 30.8183C26.2031 30.8183 27.5128 30.0544 28.5387 28.548L32.6421 30.2725L31.0052 30.6654L29.5864 33.11L30.6994 35.3365L32.8821 35.6423L34.4965 33.6548L34.257 33.3057L38.0984 33.7638L41.3289 33.8948C43.5329 34.5283 46.1085 34.7464 49.077 34.5496L51.6964 34.4406L52.6132 35.2045Z" fill="white"/>
</svg>
