<svg width="80" height="80" viewBox="0 0 80 80" fill="none" xmlns="http://www.w3.org/2000/svg">
<path d="M46.5672 47.4182C46.5672 47.5273 46.6757 47.6364 46.6757 47.6364C46.6757 47.6364 46.7843 47.6364 46.7843 47.5273L71.7503 31.1636C72.1845 30.8364 72.6187 30.7273 73.1615 30.7273H78.5889C79.3487 30.6182 80 31.1636 80 31.9273C80 32.0364 80 32.0364 80 32.1454V42.7273C80 44.0364 79.6744 44.6909 78.5889 45.4545L71.9674 49.4909C71.8589 49.6 71.8589 49.6 71.7503 49.6C71.6418 49.6 71.6418 49.4909 71.6418 49.2727V36.8364C71.6418 36.7273 71.5332 36.6182 71.5332 36.6182C71.4247 36.6182 71.4247 36.6182 71.4247 36.7273L53.1886 48.7273C52.7544 49.0545 52.2117 49.1636 51.7775 49.1636H39.6201C38.8602 49.2727 38.209 48.7273 38.209 47.9636C38.209 47.8545 38.209 47.8545 38.209 47.7454V32.4727C38.209 32.3636 38.1004 32.2545 38.1004 32.2545C38.1004 32.2545 37.9919 32.2545 37.9919 32.3636L25.943 39.6727C25.8345 39.7818 25.8345 39.7818 25.8345 39.7818C25.8345 39.8909 25.8345 39.8909 25.943 39.8909L34.5183 48.5091C34.6269 48.6182 34.6269 48.7273 34.6269 48.8364C34.6269 48.9455 34.5183 48.9454 34.4098 48.9454H26.5943C26.0516 49.0545 25.6174 48.8364 25.1832 48.5091L19.9729 43.2727C19.6472 43.2727 19.6472 43.2727 19.6472 43.2727C19.6472 43.2727 19.5387 43.2727 19.5387 43.3818L10.8548 48.6182C10.4206 48.9454 9.87788 49.0545 9.44369 49.0545H1.41113C0.651289 49.1636 0 48.6182 0 47.8545C0 47.7454 0 47.6364 0 47.6364V37.2727C0 35.9636 0.325644 35.3091 1.41113 34.5454L8.03257 30.5091L8.14111 30.4C8.24966 30.4 8.24966 30.5091 8.24966 30.7273V44.4727C8.24966 44.5818 8.35821 44.6909 8.35821 44.6909C8.46676 44.6909 8.57531 44.6909 8.57531 44.5818L31.479 30.9454C31.9132 30.6182 32.4559 30.5091 32.9986 30.5091H45.2646C46.0244 30.4 46.6757 30.9454 46.6757 31.7091C46.6757 31.8182 46.6757 31.8182 46.6757 31.9273L46.5672 47.4182Z" fill="white"/>
</svg>
