<svg width="80" height="80" viewBox="0 0 80 80" fill="none" xmlns="http://www.w3.org/2000/svg">
<g clip-path="url(#clip0_13_6712)">
<path fill-rule="evenodd" clip-rule="evenodd" d="M78 39.665C78 50.5242 61.2085 59.3275 40.5017 59.3275C19.7892 59.3275 3 50.5242 3 39.665C3 28.8058 19.7892 20.0025 40.5017 20.0025C61.2085 20.0025 78 28.8058 78 39.665Z" fill="white"/>
<path fill-rule="evenodd" clip-rule="evenodd" d="M74.1451 39.6509C74.1451 48.3443 59.0768 55.3919 40.4893 55.3919C21.9013 55.3919 6.83301 48.3443 6.83301 39.6509C6.83301 30.958 21.9013 23.9108 40.4893 23.9108C59.0769 23.9108 74.1451 30.9579 74.1451 39.6509ZM62.0591 32.2815H56.2868L55.5837 34.2914H59.3199L55.0582 35.767L54.7765 36.5821L61.3344 34.4317L62.0591 32.2815ZM25.2563 35.8093H22.9049C22.9049 35.8093 25.0842 30.0009 25.2589 29.5618C25.5698 28.7837 25.7554 28.8373 25.7554 28.8373H22.5078C22.9098 29.0296 22.5537 29.7879 22.5537 29.7879C22.5537 29.7879 19.9525 37.0316 19.7713 37.3934C19.5901 37.7561 19.4544 37.8016 19.4544 37.8016H25.0785L25.8652 35.6563C25.7974 35.8605 25.2563 35.8093 25.2563 35.8093ZM35.1217 37.7924H37.7707C37.7707 37.7924 37.5892 37.5236 37.7025 37.2296C37.8595 36.8212 39.2648 32.9965 39.2648 32.9965L39.8758 37.7924H42.2754L45.421 29.2614C45.421 29.2614 45.5498 28.8613 45.7252 28.8613L43.1756 28.8538C43.1756 28.8538 43.2485 29.1482 43.1577 29.3747C43.0677 29.6012 41.6182 33.472 41.6182 33.472L41.0523 28.8539H38.3139C38.3139 28.8539 38.4556 29.08 38.365 29.3289C38.291 29.5308 35.4617 37.2971 35.4617 37.2971C35.4617 37.2971 35.2807 37.7924 35.1217 37.7924ZM47.233 28.8563C47.233 28.8563 47.4593 29.2184 47.1643 30.0556C46.87 30.8935 44.5612 37.1182 44.5612 37.1182C44.5612 37.1182 44.3795 37.7038 44.1312 37.8175L47.7531 37.8133C47.7531 37.8133 52.1439 37.9756 53.5025 33.3604C53.5025 33.3604 55.2228 28.8106 50.2427 28.8563H47.233ZM47.6172 35.7522C47.6172 35.7522 47.6288 35.7486 48.0356 35.7486C48.6519 35.7486 49.793 35.6128 50.5598 33.7455C51.82 30.6764 50.0618 30.7802 50.0618 30.7802H49.3825L47.6172 35.7522ZM15.4065 45.0199H21.1786L21.8811 43.0096H18.1454L22.4068 41.5344L22.6891 40.7196L16.131 42.87L15.4065 45.0199ZM25.522 48.7277C25.4308 48.7277 25.4308 48.4356 25.4308 48.4356L26.4924 45.6184C26.4924 45.6184 27.8149 48.2135 27.9058 48.3947C27.9964 48.576 27.9506 48.7269 27.9506 48.7269H31.1145C30.8128 48.7269 30.5015 48.1535 30.5015 48.1535L28.9264 45.3271C31.1295 45.3271 31.8343 43.1434 31.8343 43.1434C32.9207 39.6725 29.264 39.7629 29.264 39.7629H25.522C25.7933 40.0648 25.5818 40.6987 25.5818 40.6987C25.5818 40.6987 23.2578 47.3429 23.0772 47.8563C22.8958 48.3693 22.564 48.7277 22.564 48.7277H25.522ZM27.7645 41.8239L27.1512 43.6267H27.7246C27.7246 43.6267 28.8418 43.725 29.2539 42.8369C29.2539 42.8369 29.736 41.8193 28.3883 41.8193C28.0933 41.8193 27.7645 41.8239 27.7645 41.8239ZM58.2605 48.7606C58.0342 48.7652 58.1918 48.2114 58.1918 48.2114L59.139 45.6512C59.139 45.6512 60.4159 48.2468 60.5055 48.4285C60.5964 48.6093 60.5514 48.7602 60.5514 48.7602H63.8278C63.5256 48.7602 63.1934 48.1868 63.1934 48.1868L61.6177 45.3596C63.8219 45.3596 64.4849 43.2546 64.4849 43.2546C65.6423 39.6202 61.9565 39.7963 61.9565 39.7963H58.2441C58.5163 40.0981 58.3049 40.732 58.3049 40.732C58.3049 40.732 55.884 47.4016 55.7023 47.9142C55.5214 48.4284 55.1739 48.7556 55.1739 48.7556L58.2605 48.7606ZM60.4179 43.6592C60.4179 43.6592 61.5264 43.743 61.8657 42.8745C62.2661 41.8514 61.2668 41.8785 61.2668 41.8785H60.4474L59.8439 43.6592H60.4179ZM35.747 48.9494C39.0131 48.9494 40.9567 45.7459 40.9567 43.4475C40.9567 41.0366 39.9657 39.5322 37.7025 39.5322C34.8151 39.5322 32.9316 41.723 32.4455 44.4468C31.9988 46.9516 33.4133 48.9494 35.747 48.9494ZM35.9527 46.8311C36.7674 46.9814 37.6631 46.3952 38.1308 44.5219C38.8401 41.6872 37.5328 41.6639 37.2942 41.6347C36.5713 41.5464 35.6064 42.3789 35.2143 44.1147C35.0348 44.9074 34.8444 46.6257 35.9527 46.8311ZM41.7319 39.7963C41.7319 39.7963 41.9565 39.9168 41.9565 40.4898V48.2467C41.9565 48.2467 41.9258 48.6714 41.7653 48.7602H44.192C44.192 48.7602 44.192 48.5785 44.4328 48.2768C44.6745 47.975 49.7147 41.2151 49.7147 41.2151C49.7147 41.2151 50.8641 39.7963 51.1654 39.7963H47.6923C47.6923 39.7963 47.9644 39.9776 47.7531 40.3094C47.5418 40.6416 44.4545 45.2592 44.4545 45.2592L44.4932 40.6016C44.4932 40.6016 44.4878 39.8548 44.7875 39.792L41.7319 39.7963ZM56.4034 41.9111L57.1881 39.7942L51.3033 39.7948C51.3033 39.7948 51.5142 39.981 51.2433 40.7353C50.9712 41.4906 48.5869 47.9175 48.5869 47.9175C48.5869 47.9175 48.1644 48.7623 48.0444 48.7623H54.1101L54.8347 46.6198C54.8347 46.6198 54.7443 46.7402 54.1708 46.7402H51.605L52.1488 45.2916H54.14C54.14 45.2916 54.5631 45.2616 54.6535 45.3824L55.4682 43.0924C55.4682 43.0924 55.4086 43.2996 54.8644 43.2996H52.9328L53.5071 41.7005H55.9513C55.9513 41.7006 56.2834 41.6548 56.4034 41.9111ZM25.7234 37.8004H28.6267C28.6267 37.8004 28.6177 37.5775 28.6933 37.4326C28.8313 37.1711 29.1915 36.54 29.1915 36.54H32.1135L32.1192 37.3273C32.1192 37.3273 32.1342 37.5986 31.9191 37.8079H34.8167C34.8167 37.8079 34.6015 37.6871 34.5619 37.3307L34.1983 29.4537C34.1983 29.4537 34.1827 28.9502 34.4223 28.8442H31.5478C31.5478 28.8442 31.7491 29.093 31.3643 29.6589C30.9798 30.2248 26.0693 37.5058 26.0693 37.5058C26.0693 37.5058 25.9717 37.693 25.7234 37.8004ZM32.0578 31.8928L30.4444 34.5179H32.081L32.0578 31.8928ZM76.4513 39.6504C76.4513 49.6234 60.3504 57.7082 40.4909 57.7082C20.6306 57.7082 4.53003 49.6234 4.53003 39.6504C4.53003 29.6779 20.6306 21.5935 40.4909 21.5935C60.3504 21.5934 76.4513 29.6779 76.4513 39.6504ZM40.4909 23.0151C21.4094 23.0151 5.93965 30.4632 5.93965 39.6503C5.93965 48.8376 21.4094 56.2857 40.4909 56.2857C59.5719 56.2857 75.041 48.8376 75.041 39.6503C75.041 30.4632 59.5719 23.0151 40.4909 23.0151V23.0151Z" fill="#151317"/>
</g>
<defs>
<clipPath id="clip0_13_6712">
<rect width="75" height="39.33" fill="white" transform="translate(3 20)"/>
</clipPath>
</defs>
</svg>
