<svg width="80" height="80" viewBox="0 0 80 80" fill="none" xmlns="http://www.w3.org/2000/svg">
<g clip-path="url(#clip0_13_6724)">
<path fill-rule="evenodd" clip-rule="evenodd" d="M40.1745 48.099C39.7319 47.5381 38.9987 47.223 38.2776 47.223C36.5133 47.223 35.3472 48.5973 35.3472 50.3395C35.3472 51.9497 36.447 53.3256 38.2776 53.3256C39.1772 53.3256 39.8646 52.9362 40.3313 52.2961L41.2297 52.956C40.9958 53.2728 40.0527 54.299 38.2559 54.299C35.7572 54.299 34.2161 52.2631 34.2161 50.3395C34.2161 47.9604 35.8899 46.2496 38.3102 46.2496C39.3424 46.2496 40.4314 46.6291 41.0621 47.4391L40.1745 48.099" fill="white"/>
<path fill-rule="evenodd" clip-rule="evenodd" d="M50.5692 53.3256C48.893 53.3256 47.8076 51.9497 47.8076 50.2735C47.8076 48.5973 48.893 47.223 50.5692 47.223C52.2454 47.223 53.3307 48.5973 53.3307 50.2735C53.3307 51.9497 52.2454 53.3256 50.5692 53.3256ZM50.5692 54.299C52.8037 54.299 54.3859 52.5469 54.3859 50.2735C54.3859 48.0033 52.8037 46.2496 50.5692 46.2496C48.3334 46.2496 46.7524 48.0033 46.7524 50.2735C46.7524 52.5469 48.3334 54.299 50.5692 54.299Z" fill="white"/>
<path fill-rule="evenodd" clip-rule="evenodd" d="M3 46.6406H4.01205V53.3256H7.43976V54.299H3V46.6406Z" fill="white"/>
<path fill-rule="evenodd" clip-rule="evenodd" d="M13.4819 46.6406H14.494V54.299H13.4819V46.6406Z" fill="white"/>
<path fill-rule="evenodd" clip-rule="evenodd" d="M21.2898 46.6406H22.6465L26.8455 52.9379H26.8684V46.6406H27.9019V54.299H26.5874L22.345 48.005H22.3233V54.299H21.2898V46.6406" fill="white"/>
<path fill-rule="evenodd" clip-rule="evenodd" d="M61.0422 46.6406H62.0543V53.3256H65.482V54.299H61.0422V46.6406Z" fill="white"/>
<path fill-rule="evenodd" clip-rule="evenodd" d="M71.5256 46.6406H72.8524L76.9669 52.9379H76.988V46.6406H78V54.299H76.7124L72.5603 48.005H72.5347V54.299H71.5256V46.6406" fill="white"/>
<path fill-rule="evenodd" clip-rule="evenodd" d="M42.9613 34.3891C42.9513 32.2058 42.8267 29.7412 42.4777 27.4728C42.4777 27.4728 41.7522 27.3877 40.8074 27.3741C40.7426 26.486 40.6902 26 40.6902 26H40.4559C40.4559 26 40.4036 26.486 40.3387 27.3741C39.3939 27.3877 38.6685 27.4728 38.6685 27.4728C38.317 29.7412 38.1923 32.2058 38.1836 34.3891C37.4071 34.4779 36.7888 34.5655 36.7888 34.5655V34.79C36.7888 34.79 37.4071 34.8763 38.1836 34.9664C38.1923 37.1497 38.317 39.613 38.6685 41.8814C38.6685 41.8814 39.3939 41.9678 40.3387 41.9813C40.4036 42.8695 40.4559 43.3542 40.4559 43.3542H40.6902C40.6902 43.3542 40.7426 42.8695 40.8074 41.9813C41.7522 41.9678 42.4777 41.8814 42.4777 41.8814C42.8267 39.613 42.9513 37.1497 42.9613 34.9664C43.7379 34.8763 44.3573 34.79 44.3573 34.79V34.5655C44.3573 34.5655 43.7379 34.4779 42.9613 34.3891ZM41.9554 28.1426C42.2608 30.2679 42.3393 32.936 42.348 34.3225C41.9043 34.2768 41.4493 34.2386 41.0555 34.2201C41.0455 31.6532 40.9508 29.5698 40.8598 28.1426H41.9554ZM39.1895 28.1426H40.2851C40.1966 29.5698 40.0994 31.6532 40.0907 34.2201C39.6968 34.2386 39.2394 34.2768 38.7981 34.3225C38.8068 32.936 38.8829 30.2679 39.1895 28.1426V28.1426ZM39.1895 41.2129C38.8829 39.0863 38.8068 36.4194 38.7981 35.033C39.2394 35.0774 39.6968 35.1156 40.0907 35.1354C40.0994 37.7023 40.1966 39.7845 40.2851 41.2129H39.1895H41.9554H40.8598C40.9508 39.7845 41.0455 37.7023 41.0555 35.1354C41.4493 35.1156 41.9043 35.0774 42.348 35.033C42.3393 36.4194 42.2608 39.0863 41.9554 41.2129H39.1895" fill="white"/>
</g>
<defs>
<clipPath id="clip0_13_6724">
<rect width="75" height="28.299" fill="white" transform="translate(3 26)"/>
</clipPath>
</defs>
</svg>
