<svg width="80" height="80" viewBox="0 0 80 80" fill="none" xmlns="http://www.w3.org/2000/svg">
<path fill-rule="evenodd" clip-rule="evenodd" d="M41.3973 76.7942C51.1188 76.7942 60.2598 73.0084 67.1342 66.1339C74.0087 59.259 77.7946 50.1192 77.7946 40.3969C77.7946 30.675 74.0087 21.5349 67.1342 14.6604C60.2598 7.78587 51.1192 4 41.3973 4C31.6754 4 22.5353 7.78587 15.6608 14.6604C8.78626 21.5349 5 30.675 5 40.3969C5 50.1188 8.78587 59.259 15.6604 66.1339C22.5353 73.008 31.6754 76.7942 41.3973 76.7942Z" fill="#151317"/>
<path fill-rule="evenodd" clip-rule="evenodd" d="M5.27588 40.3969C5.27588 30.749 9.03335 21.6781 15.8557 14.8553C22.6785 8.03295 31.7494 4.27548 41.3973 4.27548C51.0453 4.27548 60.1158 8.03295 66.9389 14.8553C73.7621 21.6777 77.5188 30.7486 77.5188 40.3969C77.5188 50.0453 73.7617 59.1158 66.9389 65.9385C60.1162 72.7613 51.0453 76.5184 41.3973 76.5184C31.7494 76.5184 22.6785 72.7613 15.8557 65.9385C9.03335 59.1158 5.27588 50.0453 5.27588 40.3969Z" fill="white"/>
<path fill-rule="evenodd" clip-rule="evenodd" d="M41.3972 74.7067C60.3453 74.7067 75.7071 59.3457 75.7071 40.3969C75.7071 21.4481 60.3453 6.0871 41.3972 6.0871C22.4488 6.0871 7.0874 21.4481 7.0874 40.3969C7.0874 59.3457 22.4488 74.7067 41.3972 74.7067V74.7067Z" fill="#151317"/>
<path fill-rule="evenodd" clip-rule="evenodd" d="M41.2078 59.6979C49.8702 59.6979 64.9013 56.6614 70.0824 51.0351C74.9309 45.7707 72.9314 40.7304 70.2346 37.0535L50.3262 15.6249C48.8064 14.1051 45.6155 11.8254 41.2078 11.8254C36.8006 11.8254 33.6089 14.1051 32.0891 15.6249L12.1807 37.0538C8.62636 41.3436 7.97463 46.3835 12.3329 51.0355C17.5619 56.6174 32.5451 59.6979 41.2078 59.6979V59.6979Z" fill="white"/>
<path fill-rule="evenodd" clip-rule="evenodd" d="M41.2077 57.4727C49.0647 57.4727 62.16 54.1642 67.3983 49.6157C72.1289 45.5073 70.9823 40.3802 67.5361 36.934L49.4783 17.4976C48.0997 16.1195 45.2053 14.0518 41.2081 14.0518C37.2106 14.0518 34.3157 16.1195 32.9372 17.4976L14.8794 36.9336C11.4332 40.3798 10.2865 45.5073 15.0171 49.6153C20.2555 54.1642 33.3508 57.4727 41.2077 57.4727V57.4727Z" fill="#151317"/>
<path fill-rule="evenodd" clip-rule="evenodd" d="M40.8632 42.9646C39.9671 42.9646 37.6236 42.8611 36.8657 42.7579L36.2454 44.1361C36.0042 44.6532 36.6587 44.8945 36.9345 44.6186C37.21 44.3431 38.7263 43.5848 39.4504 44.1707V50.753C39.4504 51.2009 39.0197 51.5799 38.7096 51.5799C38.3995 51.5799 38.1411 51.7868 38.1411 52.0277C38.1411 52.2689 38.28 52.4413 38.7959 52.4755C39.8298 52.5448 42.2417 52.5448 42.9308 52.4755C43.4483 52.4755 43.5861 52.2689 43.5861 52.0277C43.5861 51.7868 43.3277 51.5799 43.0176 51.5799C42.7075 51.5799 42.2768 51.2009 42.2768 50.753V44.1707C43.0001 43.5848 44.5164 44.3431 44.7923 44.6186C45.0681 44.8945 45.7226 44.6532 45.4813 44.1361L44.8611 42.7579C44.1024 42.8611 41.7597 42.9646 40.8632 42.9646V42.9646ZM46.4113 42.6198C45.9638 42.7233 45.9121 43.0848 45.9813 43.2575C46.0498 43.4295 46.2739 43.533 46.584 43.5676C46.8941 43.6023 47.1007 43.826 47.17 44.1361L48.6521 49.2021C48.9279 50.2013 50.7882 52.0627 54.3729 50.7184C57.9568 49.3745 56.7849 46.652 56.6125 46.1353L55.4063 41.9996C55.234 41.414 55.3721 41.2417 55.5441 41.0004C55.7164 40.7592 55.6822 39.9324 54.8896 40.2078C54.4071 40.3802 53.5795 40.621 53.2694 40.7249C52.9593 40.8284 52.6842 41.4829 53.2352 41.5864C53.7869 41.6899 53.9585 41.7241 54.097 42.2412L55.3032 46.3765C55.6133 47.4796 55.5098 48.72 53.9939 49.2714C52.4772 49.8227 51.271 48.8235 51.0644 48.134L49.8582 44.033C49.7205 43.447 49.7723 43.0684 50.1166 42.8614C50.4617 42.6548 50.5298 41.7588 49.8407 41.8965C49.1517 42.0338 46.7902 42.6544 46.4113 42.6198V42.6198ZM31.6966 41.4825C29.9048 40.5175 26.5275 40.2763 24.8734 43.2743C23.1458 46.4061 24.3221 48.9258 27.3547 50.3733C31.3059 52.2592 33.5233 49.5118 34.0747 48.2714C34.9638 46.2699 35.4182 43.4813 31.6966 41.4825Z" fill="white"/>
<path fill-rule="evenodd" clip-rule="evenodd" d="M31.0417 42.551C29.5943 41.8957 28.2504 42.5163 27.2165 44.4462C26.1827 46.3757 26.4119 48.3866 27.5613 48.9947C28.7328 49.6153 30.1803 49.5461 31.4899 47.1341C32.7992 44.7217 32.3172 43.3435 31.0417 42.551Z" fill="#151317"/>
<path fill-rule="evenodd" clip-rule="evenodd" d="M20.6864 35.9862C20.4448 35.6932 20.1693 35.7107 19.9973 35.9173C19.8249 36.1243 19.9284 36.3652 20.135 36.6064C20.3417 36.8476 20.514 37.3819 20.2214 37.7091L16.3791 42.7062C16.1204 42.9992 15.6212 43.0163 15.2764 42.7579C14.9321 42.4996 14.3119 42.947 14.8286 43.3264C15.3457 43.7058 19.7222 46.9104 21.2385 47.5823L22.8237 46.1174C23.0478 45.8937 22.8097 45.375 22.4272 45.6353C21.1868 46.4796 19.1705 46.0485 18.4985 44.1532L22.2377 39.2771C22.3926 39.0701 22.8054 38.6238 23.375 38.8635C23.7022 39.0013 23.84 38.8806 23.9264 38.7429C24.0124 38.6052 24.0003 38.3028 23.7886 38.1916C23.4256 38.0021 20.979 36.2617 20.6864 35.9862V35.9862ZM63.1598 36.7266C62.7115 36.9679 62.0221 37.0367 61.4369 37.1749C60.8509 37.3126 59.7132 37.6573 58.9899 38.1052C58.2665 38.553 56.4394 40.2763 57.5078 42.3782C58.0938 43.412 59.4031 44.0669 62.2295 43.2054C63.2286 42.8949 64.8481 42.4128 65.1582 43.1019C65.4683 43.791 64.7107 44.8594 63.5388 45.3419C62.3668 45.824 60.6781 45.7209 59.9548 45.3419C59.6097 45.1353 59.1272 45.3762 59.4031 45.7898L60.4365 47.1679C61.6773 47.1337 63.6761 46.7547 64.7788 46.0999C65.8815 45.445 68.0876 43.6186 67.0534 41.3786C66.02 39.1386 63.8831 39.8281 63.4353 39.9658C62.987 40.1036 59.4031 41.2755 59.1272 40.4487C58.8521 39.6215 59.8163 38.6908 60.7124 38.4495C61.6085 38.2083 63.1936 38.174 63.7103 38.3118C64.2278 38.4495 64.4344 38.1052 64.1586 37.7262L63.2625 36.7612L63.1598 36.7266V36.7266ZM49.8917 35.3485C48.9956 36.1068 46.4463 38.0363 42.9997 38.0363C39.8621 38.0363 34.3249 37.178 33.3591 30.4688L34.3607 28.9385H35.9894C35.9828 29.037 35.9785 29.137 35.9785 29.2401C35.9719 31.8416 37.5329 33.4353 39.4504 33.9606V34.1769C39.4504 34.9006 38.9679 35.073 38.5543 35.1076C38.1411 35.1418 38.1065 35.8656 38.6921 35.8656H44.9642C46.9972 35.8656 49.1684 34.7282 49.1341 32.1781C49.0991 29.628 47.2038 28.8354 46.1704 28.353C46.7214 28.1806 48.0315 27.6639 48.0315 25.9752C48.0315 24.2865 46.2735 23.1838 44.7919 23.1838H36.0384C35.5906 23.1838 35.5731 23.3733 35.5731 23.5457C35.5731 23.7523 35.7455 23.8041 35.8143 23.9076C35.8836 24.0111 35.9007 24.2694 35.6937 24.5799L33.2128 28.3716L33.2125 28.3187C33.2125 20.0135 40.4492 19.9789 41.483 19.9104C42.5168 19.8415 46.2731 20.2894 49.1338 21.9781C49.9606 22.5983 49.9606 21.9092 49.8228 21.7026C49.547 21.0824 48.7886 19.8415 48.4443 19.3595C48.0992 18.877 47.4101 18.8081 47.2035 19.0836C46.9969 19.3595 46.721 19.7042 45.963 19.4283C45.2047 19.1528 42.9993 18.6357 40.3457 18.6357C38.0715 18.6357 30.49 20.6345 30.4557 28.2506C30.4495 29.5837 30.6133 30.7937 30.9149 31.8855L29.6632 33.7987C28.8363 35.1084 27.699 35.1426 27.1819 35.1426C26.6652 35.1426 26.5271 35.8317 27.0784 35.8663H31.0417C31.5818 35.8663 31.4896 35.1601 31.1452 35.0391C30.883 34.9477 30.6285 34.643 30.8868 34.2465L31.4483 33.3886C33.4303 37.8978 38.0679 39.8997 42.4487 39.6911C46.1012 39.5534 49.1341 38.106 50.8567 36.1072C51.5461 35.3485 50.7878 34.5901 49.8917 35.3485V35.3485Z" fill="white"/>
<path fill-rule="evenodd" clip-rule="evenodd" d="M37.46 29.3058C37.4589 29.1835 37.4613 29.0611 37.4674 28.9389H39.4502V32.5209C38.5269 32.082 37.476 31.1606 37.46 29.3058V29.3058ZM39.4502 27.767H37.6623C38.0106 26.6398 38.7534 26.076 39.4502 25.7912V27.767ZM37.4514 24.2173H38.9335C39.4506 24.2173 39.4506 24.7344 39.4506 25.0099V25.0663C38.3421 25.3631 36.8188 26.1374 36.2278 27.7666H35.1282L37.4514 24.2173ZM44.0162 27.7712C44.488 27.7712 44.9405 27.5838 45.2741 27.2502C45.6077 26.9166 45.7952 26.4641 45.7952 25.9923C45.7952 25.5205 45.6077 25.068 45.2741 24.7344C44.9405 24.4008 44.488 24.2134 44.0162 24.2134H41.4832V27.767L44.0162 27.7712V27.7712ZM41.4832 28.9385H43.1369C44.2053 28.9385 46.7558 29.421 46.7558 31.9711C46.7558 34.5212 44.2403 35.0379 43.2754 35.0037C42.3104 34.9691 41.4832 34.9344 41.4832 34.0041V28.9385V28.9385Z" fill="#151317"/>
</svg>
