<svg width="80" height="80" viewBox="0 0 80 80" fill="none" xmlns="http://www.w3.org/2000/svg">
<g clip-path="url(#clip0_13_6751)">
<path fill-rule="evenodd" clip-rule="evenodd" d="M38.8292 40.1606H42.1708V40.9857H38.8292V40.1606ZM39.2418 41.3157H41.7789V43.0277H39.2418V41.3157ZM35.5289 36.3239H45.4918V36.7365H35.5289V36.3239ZM34.9926 37.1078H46.0074V37.5203H34.9926V37.1078ZM34.972 35.5607H45.9868V35.9733H34.972V35.5607ZM42.2327 38.4073C41.6758 38.9023 41.6758 39.8099 41.6758 39.8099H39.3036C39.3036 39.8099 39.3036 38.9023 38.7467 38.4073C38.3548 38.0566 37.8804 37.9741 37.8804 37.9741C37.571 37.9122 37.571 37.871 37.571 37.8504H43.3672C43.3672 37.8504 43.3672 37.9122 43.0578 37.9741C43.099 37.9947 42.6246 38.0566 42.2327 38.4073V38.4073ZM35.5701 37.871H36.7665C36.7665 38.5723 36.3127 38.9023 35.5701 38.7373V37.871ZM39.7987 26.4436C40.2731 25.4947 40.3762 24.0921 40.5 24.0715C40.6238 24.0921 40.7063 25.5154 41.1807 26.4436C41.6345 27.3305 42.604 28.0937 42.5421 28.1763C42.4802 28.2794 41.9439 28.0112 41.6758 27.8875C41.2426 27.6812 40.8919 27.5368 40.8919 27.5368C40.8919 27.5368 40.7269 29.7852 41.2632 31.8685C41.717 33.5599 42.7896 35.1276 42.8927 35.2513H41.5107L41.387 35.0451C41.0157 34.385 40.7475 33.8281 40.5 32.838C40.2319 33.8074 39.9637 34.385 39.5924 35.0451L39.4687 35.2513H38.0866C38.1898 35.107 39.2624 33.5599 39.7162 31.8685C40.2731 29.7852 40.0875 27.5368 40.0875 27.5368C40.0875 27.5368 39.7368 27.7018 39.3036 27.8875C39.0355 28.0112 38.4992 28.2794 38.4373 28.1763C38.3961 28.0937 39.3655 27.3305 39.7987 26.4436V26.4436ZM35.5289 35.2513C35.5289 35.0863 35.4258 32.7967 34.9101 31.0022C34.3325 29.0426 33.1361 27.8669 33.2187 27.7431C33.3012 27.64 34.2706 27.8256 34.9926 28.3413C35.7764 28.8776 36.5396 29.7645 36.4777 29.8264C36.4365 29.8677 36.189 29.6408 35.6939 29.4758C35.1989 29.2901 34.972 29.3314 34.972 29.3314C34.972 29.3314 35.8177 30.7134 36.2302 32.2192C36.5809 33.4774 36.7665 35.107 36.7665 35.2513H35.5289ZM45.4711 35.2513C45.4711 35.0863 45.5536 32.7967 46.0899 31.0022C46.6675 29.0426 47.8639 27.8669 47.7814 27.7431C47.7195 27.64 46.7294 27.8256 46.0074 28.3413C45.2236 28.8776 44.4604 29.7645 44.5223 29.8264C44.5635 29.8677 44.8111 29.6408 45.2855 29.4758C45.8012 29.2901 46.0074 29.3314 46.0074 29.3314C46.0074 29.3314 45.1617 30.7134 44.7492 32.2192C44.3985 33.4774 44.2129 35.107 44.2129 35.2513H45.4711ZM45.4299 37.871H44.2335C44.2335 38.5723 44.6873 38.9023 45.4299 38.7373V37.871Z" fill="white"/>
<path d="M58.1568 50.1235L57.1048 52.8256H59.1262L58.1568 50.1235ZM56.5272 54.2901C56.3622 54.6821 56.1766 55.1977 56.1766 55.6103C56.1766 56.0228 56.5685 56.1053 56.8779 56.1672L57.3729 56.2085V56.6004H54.2995V56.2291C54.9183 56.1053 55.1658 55.9609 55.434 55.404C55.5165 55.239 55.599 55.0327 55.6815 54.7852L55.8878 54.2695L57.8474 49.319L57.6617 48.7827H59.0025L61.0446 54.2695L61.3952 55.2184C61.4777 55.4246 61.6015 55.8372 61.7871 56.0022C61.9315 56.1466 62.1584 56.1878 62.6328 56.2085V56.6004H58.92V56.2085C59.58 56.1878 60.0751 56.1672 60.0751 55.734C60.0751 55.4865 59.9719 55.1152 59.8276 54.8058L59.6419 54.2695L59.3325 53.3619H56.8573L56.5272 54.2901ZM48.4208 49.3809C48.1526 49.3809 47.8639 49.4222 47.6988 49.4222V52.9494H48.4414C48.8127 52.9494 49.1634 52.9081 49.514 52.7431C49.9059 52.5368 50.236 52.1037 50.236 51.2167C50.236 49.7728 49.184 49.3809 48.4208 49.3809V49.3809ZM47.6988 54.2901V55.0533C47.6988 56.0434 47.802 56.2291 48.5033 56.2291H49.0602V56.621H45.1205V56.2291C46.2756 56.2703 46.3581 55.9609 46.3581 55.2802V50.371C46.3581 49.5872 46.2343 49.5872 45.1205 49.5253V49.1334C45.8837 49.0509 46.8944 48.9477 48.2145 48.9477C48.8127 48.9477 51.618 48.9477 51.618 51.1548C51.618 52.0418 51.2054 52.5987 50.4422 52.97C50.2772 53.0525 50.1122 53.0938 49.9884 53.1556C50.1328 53.3 50.2566 53.4238 50.3804 53.5888C50.4835 53.7538 50.6073 53.9601 50.7723 54.3108L51.0198 54.8471C51.5974 56.0228 51.9068 56.2497 52.5462 56.3735V56.7654C51.4323 56.8066 50.5454 56.3941 49.8234 55.2802C49.7203 55.1358 49.4934 54.7233 49.2665 54.3108C49.0602 53.9189 48.8333 53.5476 48.7508 53.4032H47.6988V54.2901ZM20.368 50.1235L19.316 52.8256H21.3375L20.368 50.1235ZM18.7384 54.2901C18.5941 54.6821 18.4084 55.1977 18.4084 55.6103C18.4084 56.0228 18.7797 56.1053 19.1097 56.1672L19.5842 56.2085V56.6004H16.5314V56.2291C17.1708 56.1053 17.3977 55.9609 17.6658 55.404L17.9134 54.7852L18.1196 54.2695L20.0998 49.319L19.9142 48.7827H21.2549L23.297 54.2695L23.6477 55.2184C23.7302 55.4246 23.854 55.8372 24.0396 56.0022C24.2046 56.1466 24.4109 56.1878 24.9059 56.2085V56.6004H21.1518V56.2085C21.7913 56.1878 22.3069 56.1672 22.3069 55.734C22.3069 55.4865 22.1832 55.1152 22.0594 54.8058L21.8738 54.2695L21.5437 53.3619H19.0891L18.7384 54.2901ZM76.6592 54.2901V55.0946C76.6592 56.0228 76.9068 56.1672 78 56.2291V56.621H74.1015V56.2291C75.0297 56.1672 75.0503 56.1466 75.1535 55.9609C75.3391 55.6722 75.3391 54.7439 75.3391 54.3726V50.5566C75.3391 49.6284 75.1535 49.5047 74.0396 49.4222V49.0302H77.9381V49.4222C76.6592 49.4634 76.6386 49.6491 76.6386 50.9073V54.2901H76.6592ZM68.2228 54.2901V55.1771C68.2228 55.6928 68.264 55.9197 68.4497 56.0434C68.5528 56.1053 68.6766 56.1466 68.8622 56.1672C69.0479 56.1878 69.2954 56.2085 69.6254 56.2085V56.6004H65.4381V56.2085C65.8094 56.1878 66.0569 56.1672 66.2426 56.1672C66.4282 56.1259 66.5726 56.1053 66.6551 56.0434C66.8201 55.9403 66.8614 55.7134 66.8614 55.2596V49.5253H65.6031C65.1081 49.5253 64.9018 49.5665 64.7781 49.649C64.6749 49.7109 64.613 49.7934 64.5512 49.9585C64.4893 50.1235 64.4274 50.371 64.283 50.8042H63.9117L64.0767 48.8033H64.3861C64.5099 49.0096 64.613 49.0302 64.8193 49.0509H69.9761C70.533 49.0509 70.5949 49.0096 70.6774 48.8033H70.9868L71.1724 50.8042H70.7805C70.5124 49.5459 70.2648 49.5253 69.6254 49.5253H68.2228V54.2901ZM38.1691 54.2901V55.4246C38.1691 56.1259 38.2104 56.1259 38.9117 56.1259H40.2318C40.995 56.1259 41.387 56.0022 41.717 54.6821H42.1295L41.9439 56.5797H35.5908V56.1878C36.7252 56.2291 36.8078 55.9197 36.8078 55.239V50.3504C36.8078 49.5047 36.5809 49.3603 35.5908 49.3809V49.0302H41.6139L41.6964 50.7629H41.3045C41.0982 49.6078 40.83 49.5253 40.0049 49.5253H38.1485V52.5368H39.9843C40.6031 52.5368 40.7682 52.5368 40.8713 51.6086H41.2838V53.9807H40.8713C40.83 53.0319 40.7063 52.9906 39.8606 52.9906H38.1485V54.2901H38.1691ZM32.3523 54.2901C32.3729 54.4139 32.3936 54.5583 32.3936 54.6821C32.3936 55.8372 31.4653 56.8685 30.0215 56.8685C29.7946 56.8685 29.6502 56.8479 29.4439 56.8273C29.2376 56.786 28.9695 56.7035 28.5157 56.5797C28.4332 56.5385 28.3713 56.5385 28.3094 56.5385C28.165 56.5385 28.1238 56.5797 28.1238 56.7035H27.7525L27.5256 54.7439H27.9381C28.4538 56.2291 29.5264 56.4147 29.8771 56.4147C30.3515 56.4147 31.3003 56.1053 31.3003 55.1152C31.3003 54.7852 31.1972 54.517 31.0116 54.2695C30.7021 53.857 30.1452 53.5269 29.382 53.0525C27.835 52.1037 27.5462 51.4023 27.5462 50.7217C27.5462 49.5872 28.5776 48.7621 29.6295 48.7621C30.0421 48.7621 30.4134 48.824 30.7434 48.9477C30.8465 48.989 31.1972 49.1334 31.2591 49.1334C31.3003 49.1334 31.3622 49.0921 31.4653 48.9684H31.8366L32.0223 50.7835H31.6097C31.2384 49.8141 30.6403 49.2159 29.7946 49.2159C29.1345 49.2159 28.6394 49.7109 28.6394 50.2679C28.6394 50.6185 28.7426 50.8454 29.052 51.1342C29.217 51.2786 29.4439 51.4642 29.7327 51.6499L30.8259 52.3718C31.1766 52.5987 31.5066 52.8256 31.7748 53.135C32.0429 53.4651 32.2698 53.8363 32.3523 54.2901V54.2901ZM5.04208 54.2901L4.95957 55.2184C4.93894 55.3009 4.93894 55.5484 4.93894 55.734C4.93894 56.2085 5.59901 56.2085 6.01155 56.2085V56.6004H3V56.2085C4.2995 56.1466 4.2995 56.0847 4.40264 54.7646L4.44389 54.2695L4.77393 50.206C4.81518 49.484 4.69142 49.484 3.70132 49.4222V49.0302H6.25908L8.52805 54.2695L8.69307 54.6614L8.87871 54.2695L11.1683 49.0302H13.6848V49.4222C13.3754 49.4222 13.1898 49.4222 13.0248 49.4428C12.8804 49.484 12.7772 49.5047 12.7153 49.5665C12.5916 49.6903 12.571 49.9585 12.6122 50.536L12.8597 54.2901L12.901 54.9708C12.9629 55.9609 12.9835 56.2703 14.118 56.2291V56.621H10.4257V56.2291C10.6939 56.2085 11.0858 56.1878 11.3333 56.1053C11.5396 56.0228 11.6634 55.899 11.6634 55.6309C11.6634 55.5278 11.6221 55.1771 11.6221 55.074L11.5809 54.3108L11.3333 50.1854L9.51815 54.3108L8.50743 56.6416H8.13614L7.14604 54.3108L5.39274 50.1854L5.04208 54.2901Z" fill="white"/>
</g>
<defs>
<clipPath id="clip0_13_6751">
<rect width="75" height="32.94" fill="white" transform="translate(3 24)"/>
</clipPath>
</defs>
</svg>
