<svg width="80" height="80" viewBox="0 0 80 80" fill="none" xmlns="http://www.w3.org/2000/svg">
<path d="M17.0546 44.711H20.2617V38.6145H18.4009C17.6144 38.6145 17.0849 38.9474 16.54 39.386C15.9502 39.9004 13.8169 41.7461 13.8169 41.7461V38.6294H11.926C10.8519 38.6294 10.3072 39.0077 9.71712 39.4764C9.29361 39.7795 3 44.7115 3 44.7115H6.81236L10.5949 41.5947V44.711H13.666L17.0549 41.6399L17.0546 44.711ZM24.0592 44.711H29.2484V43.1376H24.9968C24.6036 43.1376 24.1798 42.8958 24.1798 42.1242V42.0182C24.1798 41.3375 24.5279 41.05 24.9817 41.05H29.2481V39.4612H23.9529C21.7895 39.4612 20.9273 40.3994 20.9273 41.8519V42.336C20.9273 44.0303 21.8652 44.7112 24.0587 44.7112L24.0592 44.711ZM35.6477 44.711V43.1075H33.1667V38.6294H29.9442V44.7264H35.6477V44.711ZM41.8807 42.6689C41.8807 42.9712 41.7596 43.153 41.3967 43.153H39.6569C39.3541 43.153 39.1574 43.0621 39.1574 42.8352C39.1574 42.5932 39.2786 42.4569 39.6569 42.4569H41.8807V42.6689ZM45.0881 42.6689V41.519C45.0881 40.2028 44.2257 39.4615 42.38 39.4615H36.631V40.9743H41.2452C41.7144 40.9743 41.8807 41.1258 41.8807 41.4887V41.5493H38.2044C36.6613 41.5493 36.1166 42.1997 36.1166 43.0469V43.2133C36.11 43.3803 36.1375 43.5469 36.1973 43.703C36.2571 43.8591 36.3481 44.0013 36.4647 44.1211C36.9185 44.5446 37.7809 44.6807 38.9457 44.6807H42.1379C44.2257 44.7112 45.0881 44.242 45.0881 42.6689V42.6689ZM49.0062 41.05H51.0185V39.4612H46.9036C46.2378 39.4612 45.8142 39.8095 45.8142 40.3994V44.7112H49.0365V41.05H49.0062ZM57.3121 41.3375C57.3121 41.5644 57.2061 41.7004 56.8429 41.7004H54.5586V41.4887C54.5586 41.1861 54.6797 41.0046 55.0578 41.0046H56.8127C57.1001 41.0046 57.3119 41.0955 57.3119 41.3375H57.3121ZM60.3529 41.2164V41.0046C60.3529 40.1422 59.8686 39.4766 57.6145 39.4766H54.3014C52.2136 39.4766 51.3512 40.1876 51.3512 41.7307V42.6386C51.3512 43.9548 52.2136 44.7112 54.0745 44.7112H59.9595V43.1832H55.1943C54.7251 43.1832 54.5588 43.0472 54.5588 42.684V42.6386H58.2503C59.5514 42.6232 60.3532 42.1997 60.3532 41.2166L60.3529 41.2164ZM69.5359 44.7112V41.7762C69.5359 39.9456 68.6586 39.4615 66.0565 39.4615H60.9579V44.711H64.1804V41.1709H65.0429C66.011 41.1709 66.3288 41.7307 66.3288 42.336V44.7264H69.5359V44.7112Z" fill="white"/>
<path d="M75.542 34C73.908 34 71.563 34.4841 69.0215 35.4071C66.768 36.2315 64.6078 37.2912 62.5767 38.5688C64.5246 37.8453 66.5809 37.4565 68.6585 37.4189C71.5327 37.4189 73.6205 38.5236 70.5797 42.4117C79.5509 36.557 79.2937 34 75.542 34Z" fill="white"/>
</svg>
