<svg width="80" height="80" viewBox="0 0 80 80" fill="none" xmlns="http://www.w3.org/2000/svg">
<path fill-rule="evenodd" clip-rule="evenodd" d="M56.941 1H23.059L1 23.0586V56.6762L22.8826 78.6472H56.5882L78.6472 56.5882V22.8826L56.941 1V1ZM71.9415 53.5884L53.5883 71.9415H26.0588L7.70609 53.6768V26.0588L26.0588 7.79408H53.9407L71.9411 25.8824V53.5884H71.9415V53.5884Z" fill="white"/>
<path fill-rule="evenodd" clip-rule="evenodd" d="M23.3379 30.9994L18.6613 21.4698L11.6904 27.9995V51.382L18.3965 58.1761V35.4112L24.2203 48.3818L30.8375 31.0878V67.3525H38.2492V12.1171H30.3968L23.3379 30.9994ZM43.4321 12.1171V67.3525H51.9029L67.9618 51.382V39.7346H55.6088V46.4407H60.1969C61.4325 46.2639 61.5205 47.6762 60.6377 48.7345C59.7558 49.7933 50.8438 58.5289 50.8438 58.5289V20.9407L61.2553 31.7933V34.4404H67.9614V28.2639L52.0789 12.1171H43.4321V12.1171Z" fill="white"/>
</svg>
