<svg width="80" height="80" viewBox="0 0 80 80" fill="none" xmlns="http://www.w3.org/2000/svg">
<g clip-path="url(#clip0_13_6801)">
<path d="M40.5 24.0115C37.7377 24.012 35.0199 24.7083 32.5977 26.0362C30.1755 27.3642 28.1269 29.2809 26.6409 31.6095H3L5.35332 33.9628H25.4129C25.0319 34.8486 24.7295 35.7662 24.5092 36.705H8.09555L10.42 39.0294H24.1294C24.0844 39.5034 24.06 39.9792 24.0563 40.4553C24.0606 40.8948 24.0825 41.3339 24.122 41.7717H13.1622L15.4871 44.0966H24.4798C24.6883 45.0341 24.9785 45.9515 25.3472 46.8383H18.2294L20.5821 49.1922H26.5927C28.0701 51.5477 30.1207 53.4901 32.5528 54.8378C34.9849 56.1855 37.7189 56.8945 40.4994 56.8984C43.2801 56.8947 46.0144 56.1858 48.4467 54.8381C50.879 53.4904 52.9298 51.5479 54.4073 49.1922H60.4167L62.7706 46.8383H55.6528C56.0215 45.9515 56.3117 45.0341 56.5202 44.0966H65.5129L67.8373 41.7722H56.8774C56.9169 41.3343 56.9389 40.895 56.9432 40.4553C56.9396 39.9792 56.9154 39.5034 56.8706 39.0294H70.5795L72.9039 36.705H56.4896C56.2698 35.7663 55.9677 34.8487 55.5871 33.9628H75.6461L78 31.6095H54.3591C52.8731 29.2809 50.8245 27.3642 48.4023 26.0362C45.9801 24.7083 43.2623 24.012 40.5 24.0115V24.0115ZM40.5 26.2407C44.2699 26.2407 47.8855 27.7383 50.5512 30.404C53.217 33.0698 54.7146 36.6853 54.7146 40.4553C54.7146 44.2252 53.217 47.8407 50.5512 50.5065C47.8855 53.1722 44.2699 54.6699 40.5 54.6699C38.6333 54.6699 36.7848 54.3023 35.0601 53.588C33.3355 52.8737 31.7684 51.8267 30.4484 50.5067C29.1284 49.1867 28.0813 47.6197 27.3669 45.8951C26.6525 44.1705 26.2849 42.322 26.2849 40.4553C26.2849 38.5885 26.6525 36.7401 27.3669 35.0155C28.0813 33.2908 29.1284 31.7238 30.4484 30.4038C31.7684 29.0839 33.3355 28.0369 35.0601 27.3226C36.7848 26.6082 38.6333 26.2406 40.5 26.2407V26.2407ZM29.1921 36.7708V44.1392H30.7284V38.3395L32.3498 44.1392H33.9418L35.5683 38.3395V44.1392H37.1047V36.7708H34.6238L33.1543 41.7972L31.6678 36.7708H29.1921ZM38.7091 36.7708V44.1392H40.3628V36.7708H38.7091ZM41.9502 36.7708V44.1392H43.4866V39.3345L46.7895 44.1392H48.4495V36.7708H46.9131V41.6917L43.5597 36.7708H41.9502ZM50.1536 36.7708V44.1392H51.8079V36.7708H50.1536Z" fill="white"/>
</g>
<defs>
<clipPath id="clip0_13_6801">
<rect width="75" height="32.91" fill="white" transform="translate(3 24)"/>
</clipPath>
</defs>
</svg>
