<svg width="80" height="80" viewBox="0 0 80 80" fill="none" xmlns="http://www.w3.org/2000/svg">
<g clip-path="url(#clip0_13_6807)">
<path d="M32.9699 33.18C33.4499 32.77 33.8799 32.36 34.3599 32.02C38.5299 29.01 43.9799 29.4 47.6799 32.98C47.8199 33.11 47.9299 33.27 48.1499 33.09C49.3499 32.1 50.7599 32.1 52.1899 32.25C55.0299 32.55 57.8499 32.97 60.6999 33.17C63.1299 33.34 65.5799 33.36 68.0099 33.31C71.1299 33.24 74.2399 32.9 77.2899 32.16C77.5499 32.1 77.8099 32.08 77.9499 32.38C78.0899 32.68 77.9399 32.87 77.6899 33.01C76.4099 33.75 75.3199 34.73 74.1899 35.68C73.3299 36.4 72.2199 36.81 71.2199 37.37C70.9899 37.5 70.7499 37.63 70.5899 37.83C69.1699 39.58 67.2399 40.44 65.1399 41C64.6099 41.14 64.1899 41.37 63.7999 41.75C62.4899 43.04 60.8399 43.68 59.0899 44.09C58.7599 44.17 58.4199 44.19 58.0999 44.28C57.8099 44.36 57.4999 44.46 57.2699 44.64C55.4099 46.05 53.2699 46.72 50.9799 46.93C50.1899 47 49.3899 46.98 48.5999 47.04C48.3999 47.06 48.1499 47.16 48.0199 47.3C46.3299 49.07 44.2999 50.17 41.8699 50.48C38.5599 50.91 35.6799 49.95 33.2899 47.64C32.7699 47.14 32.2999 47 31.6299 47C29.2599 46.99 26.9699 46.56 24.8799 45.37C24.6499 45.24 24.3999 45.11 24.1999 44.93C23.6599 44.46 23.0299 44.27 22.3399 44.15C20.6399 43.85 19.0399 43.25 17.6699 42.17C17.6199 42.13 17.5499 42.1 17.5099 42.04C16.9599 41.3 16.1499 41.06 15.3099 40.82C13.5799 40.32 11.9699 39.57 10.7599 38.18C10.3099 37.66 9.78987 37.34 9.16987 37.08C7.95987 36.57 6.80987 35.91 5.93987 34.92C5.43987 34.35 4.85987 33.93 4.19987 33.59C3.87987 33.42 3.58987 33.19 3.28987 32.99C3.04987 32.83 2.90987 32.64 3.03987 32.35C3.16987 32.07 3.40987 32.08 3.65987 32.13C4.64987 32.33 5.62987 32.56 6.62987 32.7C8.01987 32.89 9.40987 33.09 10.7999 33.15C13.2599 33.26 15.7399 33.38 18.1999 33.27C20.8699 33.16 23.5299 32.79 26.1999 32.53C27.1199 32.44 28.0399 32.29 28.9699 32.21C30.3999 32.08 31.8099 32.12 32.9599 33.17L32.9699 33.18ZM48.1999 33.38C48.6099 33.97 48.9799 34.51 49.3699 35.04C49.4299 35.12 49.5999 35.2 49.6999 35.18C50.9399 34.96 52.1799 35.15 53.4099 35.3C56.6399 35.69 59.8599 36.07 63.1199 36.09C66.5899 36.11 70.0099 35.78 73.3499 34.8C74.8399 34.36 76.2699 33.76 77.5299 32.82C77.6299 32.75 77.6599 32.59 77.7199 32.47C77.5999 32.45 77.4699 32.39 77.3499 32.42C76.9299 32.5 76.5099 32.61 76.0899 32.69C73.0499 33.28 69.9799 33.53 66.8899 33.59C63.0099 33.67 59.1599 33.42 55.3099 32.9C53.7599 32.69 52.1999 32.55 50.6499 32.46C49.7299 32.4 48.9299 32.81 48.2199 33.39L48.1999 33.38ZM32.7799 33.33C32.5599 33.19 32.3399 33.04 32.1099 32.9C31.1399 32.34 30.0899 32.37 29.0399 32.48C27.2199 32.68 25.3999 32.94 23.5799 33.16C20.3899 33.54 17.1799 33.65 13.9699 33.58C10.5099 33.5 7.07987 33.19 3.69987 32.42C3.57987 32.39 3.42987 32.46 3.29987 32.48C3.36987 32.6 3.40987 32.76 3.50987 32.82C4.34987 33.3 5.16987 33.85 6.05987 34.21C9.16987 35.47 12.4499 35.92 15.7799 36.06C19.6999 36.22 23.5899 35.81 27.4699 35.33C28.7399 35.17 30.0099 34.97 31.2899 35.18C31.3799 35.19 31.5199 35.11 31.5699 35.03C31.9699 34.49 32.3499 33.93 32.7699 33.33H32.7799ZM75.0799 34.54C74.9399 34.56 74.8999 34.56 74.8699 34.57C71.9499 35.67 68.9099 36.16 65.8199 36.31C62.0399 36.49 58.2799 36.21 54.5199 35.72C53.2399 35.55 51.9499 35.46 50.6599 35.37C50.3299 35.35 49.9899 35.44 49.6499 35.47C49.9299 36.16 50.1699 36.76 50.4299 37.4H53.2799C53.2799 37.57 53.2899 37.7 53.2799 37.83C53.2499 38.12 53.3299 38.26 53.6599 38.29C54.2099 38.33 54.7499 38.44 55.2999 38.51C58.4299 38.88 61.5599 38.94 64.6999 38.6C67.0899 38.34 69.4399 37.88 71.6599 36.9C72.9299 36.34 74.0999 35.64 75.0899 34.54H75.0799ZM5.98987 34.59C5.98987 34.59 6.05987 34.68 6.09987 34.72C7.22987 35.91 8.64987 36.65 10.1599 37.22C13.2399 38.38 16.4599 38.77 19.7299 38.79C21.7499 38.8 23.7699 38.62 25.7799 38.49C26.4099 38.45 27.0199 38.32 27.6499 38.24C27.6599 37.93 27.6799 37.67 27.6899 37.38H30.5299C30.7899 36.73 31.0399 36.11 31.2899 35.48C30.3999 35.26 29.5199 35.37 28.6499 35.47C25.3999 35.84 22.1499 36.29 18.8699 36.35C15.6699 36.41 12.4799 36.27 9.34987 35.52C8.22987 35.25 7.11987 34.91 5.98987 34.6V34.59ZM37.5599 47.71C37.5599 47.52 37.5899 47.34 37.5599 47.18C37.5399 47.06 37.4599 46.9 37.3599 46.85C35.8499 46.09 34.7099 44.97 33.9499 43.46C33.8999 43.36 33.7699 43.23 33.6699 43.23C32.9699 43.21 32.2799 43.22 31.5099 43.22C32.0799 44.91 32.9999 46.29 34.2999 47.41C36.2099 49.06 38.4499 49.83 40.9699 49.71C43.4699 49.58 45.5799 48.58 47.3099 46.78C48.2799 45.77 48.9899 44.6 49.4299 43.22C48.7199 43.22 48.0899 43.23 47.4599 43.22C47.2099 43.22 47.0799 43.29 46.9699 43.52C46.3199 44.84 45.3699 45.89 44.0699 46.58C43.5899 46.83 43.2799 47.09 43.3799 47.66C43.3799 47.68 43.3499 47.7 43.3299 47.72H37.5599V47.71ZM43.3899 32.89C43.3899 33.09 43.3599 33.26 43.3899 33.41C43.4199 33.53 43.4899 33.7 43.5899 33.75C45.1099 34.52 46.2599 35.65 47.0099 37.18C47.0499 37.27 47.1799 37.38 47.2699 37.38C47.9699 37.4 48.6699 37.38 49.3699 37.38C48.6399 34.49 45.1499 30.51 39.7199 30.91C37.3099 31.09 35.2599 32.1 33.5999 33.86C32.6499 34.86 31.9399 36.02 31.5099 37.39C32.2199 37.39 32.8499 37.38 33.4799 37.39C33.7299 37.39 33.8599 37.32 33.9699 37.09C34.6199 35.76 35.5899 34.7 36.9099 34.01C37.3699 33.77 37.6499 33.52 37.5499 32.98C37.5499 32.96 37.5699 32.93 37.5999 32.89H43.3799H43.3899ZM42.9599 42.76C43.5299 42.76 44.0399 42.76 44.5499 42.76C47.2099 42.76 49.8599 42.76 52.5199 42.78C52.7999 42.78 52.8599 42.66 52.8499 42.42C52.8399 41.92 52.8499 41.42 52.8499 40.92C52.8499 39.9 52.8499 38.88 52.8499 37.82H42.9699V33.35H37.9899V37.82C36.5199 37.82 35.0999 37.82 33.6699 37.82C31.9199 37.82 30.1599 37.82 28.4099 37.82C28.2099 37.82 28.1199 37.88 28.1199 38.1C28.1199 39.54 28.1299 40.98 28.1199 42.43C28.1199 42.75 28.2399 42.81 28.5199 42.81C29.2999 42.79 30.0799 42.79 30.8699 42.79C32.7399 42.79 34.6199 42.79 36.4899 42.79C36.9899 42.79 37.4999 42.79 38.0299 42.79V47.27H42.9799V42.79L42.9599 42.76ZM53.2999 41.11C54.0999 41.2 54.8699 41.3 55.6499 41.37C58.5699 41.63 61.4699 41.57 64.3399 40.94C66.1599 40.54 67.8799 39.91 69.3599 38.72C69.6799 38.46 70.0199 38.21 70.3499 37.96C70.2999 37.91 70.2499 37.85 70.1999 37.8C64.6399 39.43 58.9999 39.36 53.3099 38.54V41.13L53.2999 41.11ZM27.6499 38.53C21.9599 39.34 16.3499 39.4 10.7799 37.83C11.2399 38.3 11.7099 38.75 12.2399 39.13C13.5799 40.07 15.1099 40.59 16.6999 40.94C19.4899 41.55 22.3099 41.61 25.1499 41.4C25.9799 41.34 26.8099 41.22 27.6499 41.12V38.54V38.53ZM53.2699 41.38V43.2C52.4499 43.2 51.6799 43.2 50.9099 43.2C50.3299 43.2 50.3099 43.21 50.2399 43.81C50.3799 43.87 50.5099 43.94 50.6499 43.97C50.7899 44 50.9399 43.96 51.0799 43.97C53.5799 44.32 56.0799 44.39 58.5699 43.92C60.2399 43.6 61.8199 43.05 63.1799 41.97C63.3999 41.8 63.5999 41.59 63.8099 41.4C60.2899 41.95 56.8099 41.86 53.2799 41.37L53.2699 41.38ZM27.6699 41.39C24.1599 41.87 20.7099 41.94 17.1699 41.34C17.2899 41.47 17.3299 41.52 17.3699 41.56C18.5099 42.66 19.8999 43.28 21.3999 43.68C23.7899 44.32 26.2199 44.36 28.6699 44.13C29.3599 44.06 30.0499 43.95 30.7499 43.86C30.6432 43.42 30.3865 43.2 29.9799 43.2C29.8299 43.2 29.6799 43.2 29.5299 43.2H27.6599V41.39H27.6699ZM56.9099 44.45C56.6399 44.46 56.3699 44.48 56.1099 44.49C54.1899 44.57 52.2799 44.47 50.3899 44.15C50.1599 44.11 50.0599 44.17 49.9599 44.38C49.7599 44.82 49.5299 45.25 49.2899 45.67C49.0799 46.04 48.8199 46.38 48.5499 46.78C51.5999 46.78 54.4499 46.36 56.9099 44.46V44.45ZM24.0199 44.5C26.5599 46.33 29.3899 46.79 32.3299 46.77C31.8899 46 31.4499 45.3 31.0899 44.55C30.9199 44.2 30.7499 44.13 30.3899 44.18C29.3299 44.31 28.2799 44.44 27.2099 44.49C26.1799 44.54 25.1399 44.5 24.0199 44.5V44.5ZM31.0899 37.32C31.0899 37.32 31.1699 37.38 31.2099 37.41C31.2999 37.25 31.4099 37.11 31.4699 36.94C33.5599 31.3 40.3799 28.95 45.4999 32.12C47.4099 33.31 48.7499 34.97 49.5299 37.08C49.5699 37.2 49.6899 37.29 49.7699 37.39C49.7999 37.36 49.8299 37.34 49.8499 37.31C48.8199 33.8 45.3499 30.48 40.5499 30.43C36.2199 30.38 32.1799 33.34 31.0899 37.31V37.32ZM31.2099 43.18C31.2099 43.18 31.1299 43.24 31.0999 43.27C32.1699 46.95 35.9499 50.38 40.9599 50.14C45.0899 49.94 49.4599 46.52 49.7799 43.21C49.6499 43.34 49.5299 43.49 49.4699 43.65C47.4599 49.09 40.9599 51.52 35.8999 48.73C33.7599 47.54 32.2699 45.8 31.4199 43.51C31.3799 43.39 31.2799 43.29 31.2099 43.18V43.18ZM37.0099 43.2C36.2099 43.2 35.7799 43.82 35.1299 44.13C35.2999 44.34 35.4399 44.51 35.5599 44.66C36.0399 44.17 36.4999 43.72 36.9999 43.21L37.0099 43.2ZM43.4599 34.02C43.4599 34.02 43.3999 34.08 43.3699 34.11C43.4299 34.17 43.4899 34.26 43.5599 34.3C44.8299 34.98 45.8099 35.95 46.4799 37.23C46.5199 37.3 46.6299 37.33 46.6999 37.38C46.0199 35.83 44.9299 34.73 43.4599 34.02V34.02ZM36.6699 45.66C36.9399 45.02 37.5999 44.63 37.5399 43.89C37.0699 44.34 36.6199 44.78 36.1499 45.24C36.2899 45.35 36.4499 45.48 36.6699 45.66ZM43.3799 36.84C43.8799 36.33 44.3399 35.87 44.8299 35.39C44.6799 35.27 44.5099 35.14 44.2999 34.97C44.0099 35.63 43.3699 36.04 43.3799 36.84ZM37.4799 46.57C37.4799 46.57 37.5399 46.51 37.5699 46.47C37.4899 46.4 37.4299 46.32 37.3399 46.27C36.0999 45.6 35.1399 44.64 34.4799 43.39C34.4399 43.31 34.3399 43.26 34.2699 43.2C34.2399 43.23 34.2199 43.26 34.1899 43.29C34.9099 44.76 35.9999 45.86 37.4799 46.57V46.57ZM45.4499 36.01C44.9699 36.49 44.5199 36.94 44.0599 37.4C44.7899 37.4 45.2099 36.79 45.8299 36.49C45.6599 36.28 45.5399 36.12 45.4499 36.01ZM34.1999 37.34C34.1999 37.34 34.2599 37.39 34.2799 37.41C34.3499 37.33 34.4399 37.27 34.4899 37.18C35.1599 35.94 36.1099 34.98 37.3599 34.31C37.4399 34.27 37.4999 34.17 37.5599 34.1C36.1599 34.5 34.6399 36.15 34.1899 37.34H34.1999ZM43.3699 46.46C44.6099 46.22 46.5199 44.29 46.6799 43.21C46.3599 43.61 46.0999 44.07 45.7699 44.46C45.4399 44.86 45.0599 45.24 44.6599 45.57C44.2599 45.9 43.7999 46.17 43.3699 46.46V46.46ZM45.8299 44.1C45.1699 43.83 44.7699 43.18 43.9799 43.21C44.4799 43.7 44.9299 44.16 45.3999 44.62C45.5099 44.48 45.6399 44.32 45.8199 44.09L45.8299 44.1ZM36.6599 34.95C36.4499 35.12 36.2799 35.26 36.1799 35.34C36.6499 35.82 37.0999 36.27 37.5599 36.73C37.5799 35.98 36.9699 35.56 36.6599 34.94V34.95ZM43.3799 43.77C43.3799 44.58 44.0099 44.99 44.3099 45.62C44.5199 45.45 44.6899 45.32 44.8099 45.21C44.3299 44.73 43.8799 44.27 43.3799 43.76V43.77ZM35.5399 35.97C35.4299 36.1 35.2999 36.26 35.1299 36.48C35.7899 36.74 36.1899 37.42 36.9899 37.38C36.4899 36.89 36.0299 36.44 35.5499 35.97H35.5399ZM43.4099 35.35C43.4099 35.35 43.4599 35.37 43.4799 35.39C43.6199 35.18 43.7599 34.96 43.9199 34.72C43.7399 34.62 43.5899 34.54 43.3999 34.44V35.36L43.4099 35.35ZM34.8899 43.75C35.1499 43.57 35.3599 43.42 35.6299 43.23H34.5999C34.6999 43.42 34.7799 43.56 34.8899 43.75V43.75ZM43.9199 45.88C43.7499 45.63 43.6099 45.42 43.4099 45.12V46.14C43.5899 46.05 43.7199 45.98 43.9199 45.88V45.88ZM46.0699 43.73C46.1699 43.53 46.2399 43.4 46.3299 43.23H45.3299C45.6199 43.42 45.8199 43.56 46.0699 43.73ZM35.6299 37.36C35.3399 37.16 35.1199 37.02 34.8799 36.85C34.7799 37.03 34.6999 37.18 34.6099 37.36H35.6299ZM37.0499 34.69C37.1899 34.91 37.3199 35.11 37.5199 35.41V34.45C37.3499 34.54 37.2199 34.6 37.0499 34.69ZM46.0799 36.88C45.8499 37.03 45.6499 37.17 45.3799 37.36H46.3499C46.2499 37.18 46.1799 37.05 46.0899 36.88H46.0799ZM37.0499 45.9C37.2299 45.99 37.3599 46.06 37.5199 46.14V45.2C37.3399 45.48 37.2099 45.66 37.0499 45.9V45.9Z" fill="white"/>
<path d="M38.4501 42.34H28.5601V38.28H38.4201V33.77H42.4701V38.25H52.3601V42.34H42.5001V46.84H38.4501V42.35V42.34ZM30.7801 40.11C30.4601 39.7 30.1401 39.29 29.8301 38.86C29.6701 38.64 29.5001 38.52 29.2301 38.64V42.01C29.3801 42 29.4901 41.99 29.6501 41.97V39.39C29.9601 39.79 30.1901 40.1 30.4201 40.41C30.7701 40.87 30.8601 40.87 31.2201 40.4C31.4401 40.11 31.6701 39.81 31.8901 39.52C31.9201 39.53 31.9501 39.54 31.9901 39.55V42.02C32.1701 42.01 32.3001 42 32.4201 41.99V38.55C31.5501 38.78 31.4101 39.67 30.7901 40.13L30.7801 40.11ZM51.7001 41.97V38.61C51.5501 38.61 51.4201 38.62 51.2301 38.63V40.99C50.6501 40.29 50.1501 39.59 49.6701 38.88C49.5101 38.65 49.3401 38.54 49.0501 38.65V41.99H49.5301V39.64C50.1001 40.33 50.5901 41.02 51.0701 41.72C51.2301 41.96 51.4001 42.09 51.7101 41.98L51.7001 41.97ZM37.6001 38.61V42.01C37.7601 42.01 37.8901 42 38.0501 41.99V40.73C38.4701 40.67 38.7901 40.8 39.0101 41.12C39.1501 41.32 39.3001 41.51 39.4201 41.72C39.5801 42.03 39.8201 42.06 40.1501 41.97C39.8601 41.52 39.5701 41.09 39.2901 40.67C39.4201 40.57 39.5201 40.5 39.6001 40.42C39.9401 40.07 39.9301 39.63 39.8001 39.21C39.6901 38.84 39.4001 38.64 39.0101 38.62C38.5501 38.6 38.1001 38.62 37.5901 38.62L37.6001 38.61ZM36.3401 40.34C36.3401 40.06 36.3501 39.77 36.3401 39.49C36.3201 39 35.9801 38.64 35.5001 38.61C35.1501 38.59 34.8001 38.59 34.4501 38.61C33.9901 38.64 33.6501 39 33.6401 39.47C33.6201 40.04 33.6201 40.6 33.6401 41.17C33.6501 41.65 34.0101 41.99 34.5001 42.01C34.8101 42.02 35.1201 42.01 35.4301 42.01C35.9601 41.99 36.3101 41.65 36.3301 41.11C36.3401 40.85 36.3301 40.6 36.3301 40.34H36.3401ZM48.0301 41.96C47.5401 40.87 47.0801 39.82 46.6001 38.77C46.4901 38.53 46.1501 38.53 46.0401 38.77C45.5501 39.83 45.0801 40.9 44.6001 41.97C44.6201 42 44.6401 42.04 44.6701 42.07C44.8401 42 45.1101 41.97 45.1501 41.86C45.2901 41.45 45.5601 41.4 45.9301 41.42C46.2701 41.45 46.6001 41.44 46.9401 41.42C47.1701 41.42 47.3401 41.46 47.4001 41.7C47.4801 42.03 47.7001 42.07 48.0401 41.97L48.0301 41.96ZM43.5501 39.14C42.9501 38.31 41.6901 38.38 41.2301 39.26C40.8801 39.93 40.8901 40.64 41.2101 41.32C41.5201 41.98 42.3201 42.23 43.0501 41.94C43.6801 41.69 44.0101 40.99 43.8101 40.33H42.6001V40.74C42.7401 40.74 42.8601 40.76 42.9801 40.76C43.1101 40.76 43.2301 40.78 43.3601 40.79C43.2501 41.32 43.0301 41.53 42.5901 41.59C42.1501 41.65 41.7701 41.45 41.6001 41.05C41.3901 40.56 41.3801 40.05 41.6001 39.56C41.8601 38.99 42.5401 38.85 43.0201 39.24C43.0801 39.29 43.1401 39.33 43.2001 39.39C43.3201 39.3 43.4101 39.23 43.5301 39.14H43.5501Z" fill="white"/>
<path d="M38.0498 40.24V39.07C38.4798 39.11 38.9498 38.87 39.2898 39.26C39.4098 39.4 39.4298 39.76 39.3298 39.93C39.0398 40.45 38.5098 40.12 38.0498 40.23V40.24Z" fill="white"/>
<path d="M35.8498 40.35C35.8498 40.58 35.8498 40.81 35.8498 41.04C35.8498 41.38 35.6798 41.53 35.3598 41.53C35.0998 41.53 34.8498 41.53 34.5898 41.53C34.2498 41.53 34.0998 41.34 34.0898 41.02C34.0898 40.54 34.0898 40.05 34.0898 39.57C34.0898 39.25 34.2598 39.08 34.5998 39.08C35.8998 39.08 35.8698 38.95 35.8498 40.27C35.8498 40.3 35.8498 40.32 35.8498 40.35Z" fill="white"/>
<path d="M47.0398 40.93H45.5698C45.8098 40.39 46.0398 39.88 46.2998 39.29C46.5598 39.88 46.7898 40.39 47.0398 40.93Z" fill="white"/>
</g>
<defs>
<clipPath id="clip0_13_6807">
<rect width="75" height="20.59" fill="white" transform="translate(3 30)"/>
</clipPath>
</defs>
</svg>
