<svg width="80" height="80" viewBox="0 0 80 80" fill="none" xmlns="http://www.w3.org/2000/svg">
<g clip-path="url(#clip0_13_6831)">
<g clip-path="url(#clip1_13_6831)">
<path fill-rule="evenodd" clip-rule="evenodd" d="M37.9554 10.5348L23.8975 4.42093L38.0003 57.1716L52.1923 4.42093L37.9554 10.5348V10.5348ZM25.9245 6.85551L38.0003 12.0841L50.1632 6.89909L38.0003 51.8774L25.9245 6.85551V6.85551Z" fill="white"/>
<path fill-rule="evenodd" clip-rule="evenodd" d="M38.0001 13.1233L27.4774 8.56171L38.0001 48.5613L48.6756 8.58412L38.0001 13.1233ZM38.0001 23.5253L37.1269 19.9577L31.6775 19.1064L37.1269 18.2336L38.0001 14.764L38.8513 18.2336L44.4323 19.1064L38.8513 19.9577L38.0001 23.5253V23.5253ZM51.3206 75.2583C51.3544 75.2582 51.3878 75.2515 51.419 75.2385C51.4502 75.2255 51.4785 75.2065 51.5024 75.1826C51.5263 75.1587 51.5452 75.1303 51.558 75.099C51.5709 75.0678 51.5775 75.0343 51.5775 75.0005V65.9279C51.5775 65.8941 51.5709 65.8607 51.558 65.8294C51.5452 65.7982 51.5263 65.7698 51.5024 65.7458C51.4785 65.7219 51.4502 65.7029 51.419 65.6899C51.3878 65.6769 51.3544 65.6702 51.3206 65.6702H49.9078C49.8739 65.6701 49.8404 65.6768 49.8091 65.6897C49.7778 65.7026 49.7494 65.7216 49.7254 65.7455C49.7015 65.7695 49.6825 65.7979 49.6696 65.8292C49.6566 65.8605 49.65 65.8941 49.6501 65.9279V75.0005C49.65 75.0344 49.6566 75.0679 49.6696 75.0992C49.6825 75.1305 49.7015 75.159 49.7254 75.1829C49.7494 75.2068 49.7778 75.2258 49.8091 75.2388C49.8404 75.2517 49.8739 75.2583 49.9078 75.2583H51.3206ZM35.5431 65.925C35.5431 65.8911 35.5497 65.8576 35.5626 65.8263C35.5755 65.795 35.5945 65.7666 35.6185 65.7426C35.6424 65.7187 35.6709 65.6997 35.7021 65.6868C35.7334 65.6738 35.767 65.6672 35.8008 65.6673H37.2186C37.3605 65.6673 37.4763 65.7827 37.4763 65.925V73.3284C37.4763 74.0804 37.19 75.2612 35.5435 75.2612C34.9886 75.2433 34.3441 75.1358 33.8606 74.4377L29.3857 68.1014C29.2068 67.8508 28.8129 67.7794 28.8129 68.2446V75.0034C28.813 75.0373 28.8064 75.0708 28.7934 75.1021C28.7805 75.1334 28.7615 75.1619 28.7376 75.1858C28.7136 75.2097 28.6852 75.2287 28.6539 75.2417C28.6226 75.2546 28.5891 75.2612 28.5552 75.2612H27.1375C27.0691 75.2612 27.0035 75.234 26.9552 75.1857C26.9069 75.1373 26.8797 75.0718 26.8797 75.0034V68.2807C26.844 67.4573 27.1661 65.6673 28.8129 65.6673C29.3857 65.6673 30.0302 65.7034 30.603 66.5264L35.0061 72.7735C35.1853 73.0241 35.5431 73.0773 35.5431 72.6299V65.925V65.925ZM4.4414 70.8934C4.37305 70.8934 4.30749 70.9205 4.25916 70.9689C4.21082 71.0172 4.18367 71.0827 4.18367 71.1511V72.5688C4.18367 72.7112 4.29905 72.8266 4.4414 72.8266H8.87353C10.3054 72.8266 12.3457 72.2177 12.3457 69.2469C12.3457 66.2753 10.019 65.6669 8.62285 65.6669H1.43449C1.36614 65.6669 1.30058 65.694 1.25225 65.7424C1.20391 65.7907 1.17676 65.8562 1.17676 65.9246V75.003C1.1767 75.0369 1.18333 75.0704 1.19627 75.1017C1.2092 75.133 1.22818 75.1614 1.25213 75.1854C1.27607 75.2093 1.3045 75.2283 1.3358 75.2412C1.36709 75.2542 1.40063 75.2608 1.43449 75.2608H2.85224C2.88611 75.2608 2.91965 75.2542 2.95094 75.2412C2.98223 75.2283 3.01067 75.2093 3.03461 75.1854C3.05856 75.1614 3.07754 75.133 3.09047 75.1017C3.1034 75.0704 3.11003 75.0369 3.10998 75.003V68.0292C3.10998 67.7785 3.21747 67.6001 3.46815 67.6001H8.76646C9.37489 67.6001 10.4133 67.779 10.4133 69.2108C10.4133 70.4995 9.80487 70.8934 8.76646 70.8934H4.4414V70.8934ZM59.1788 68.2986C58.9638 67.9226 58.66 67.8956 58.4363 68.2807L54.5877 74.9748C54.4806 75.1898 54.4084 75.2612 54.2304 75.2612H52.6545C52.3951 75.2612 52.4395 75.118 52.5117 75.0105L57.3091 66.6692C58.1673 65.2016 59.5278 65.3091 60.3156 66.7049L65.1038 75.0462C65.2374 75.252 65.1303 75.2612 64.9515 75.2612H63.5022C63.2511 75.2612 63.1083 75.1537 63.0361 75.0105L62.2135 73.5786C62.1512 73.4624 62.0877 73.3279 61.703 73.3279H56.8077C56.7098 73.3279 56.6284 73.2831 56.7276 73.113C56.8256 72.9428 57.6672 71.5736 57.6672 71.5736C57.7116 71.5018 57.7839 71.3943 57.9532 71.3943H60.6833C60.826 71.3943 60.8983 71.2868 60.8082 71.1345C60.7181 70.983 59.1788 68.2986 59.1788 68.2986V68.2986ZM75.0285 73.3284C75.0623 73.3283 75.0958 73.3349 75.1271 73.3478C75.1583 73.3607 75.1867 73.3797 75.2107 73.4036C75.2346 73.4275 75.2536 73.4559 75.2666 73.4871C75.2795 73.5184 75.2862 73.5519 75.2862 73.5857V75.0034C75.2862 75.0718 75.259 75.1373 75.2107 75.1857C75.1624 75.234 75.0968 75.2612 75.0285 75.2612H69.372C67.2603 75.2612 64.7896 73.8293 64.7539 70.4281C64.7149 66.741 67.4815 65.6669 68.9852 65.6669H75.021C75.0549 65.6668 75.0884 65.6734 75.1197 65.6864C75.151 65.6993 75.1794 65.7183 75.2034 65.7422C75.2273 65.7662 75.2463 65.7946 75.2592 65.8259C75.2721 65.8572 75.2788 65.8907 75.2787 65.9246V67.2705C75.2788 67.3044 75.2721 67.3379 75.2592 67.3692C75.2463 67.4005 75.2273 67.429 75.2034 67.4529C75.1794 67.4769 75.151 67.4958 75.1197 67.5088C75.0884 67.5217 75.0549 67.5283 75.021 67.5283H69.5152C68.1186 67.564 66.6871 68.1367 66.6871 70.4277C66.6871 72.7187 68.6204 73.3275 69.5152 73.3275H75.0285V73.3284ZM21.188 65.6673H18.2881C15.8183 65.6673 13.563 67.3498 13.563 70.4285C13.563 73.5072 15.4601 75.2616 17.7872 75.2616H21.0448C23.3714 75.2616 25.3051 73.579 25.3051 70.2858C25.3051 66.9925 22.5841 65.6673 21.188 65.6673V65.6673ZM20.3645 73.4711H18.5031C16.1046 73.4711 15.4962 71.8961 15.4962 70.5717C15.4962 67.9939 17.3933 67.5287 18.2167 67.5287H20.687C22.1189 67.5287 23.3719 68.5671 23.3719 70.4281C23.3714 72.8984 21.6171 73.4711 20.3645 73.4711ZM42.6335 75.0005C42.6335 75.0344 42.6401 75.0679 42.653 75.0992C42.666 75.1305 42.6849 75.159 42.7089 75.1829C42.7328 75.2068 42.7613 75.2258 42.7926 75.2388C42.8239 75.2517 42.8574 75.2583 42.8913 75.2583H44.304C44.3723 75.2581 44.4378 75.231 44.4861 75.1827C44.5345 75.1343 44.5617 75.0689 44.5618 75.0005L44.5643 67.7702C44.5643 67.6271 44.6356 67.5287 44.7701 67.5287H48.3871C48.421 67.5288 48.4545 67.5221 48.4858 67.5092C48.5171 67.4963 48.5455 67.4773 48.5695 67.4533C48.5934 67.4294 48.6124 67.401 48.6253 67.3697C48.6383 67.3384 48.6449 67.3048 48.6448 67.271V65.925C48.6449 65.8911 48.6383 65.8576 48.6253 65.8263C48.6124 65.795 48.5934 65.7666 48.5695 65.7426C48.5455 65.7187 48.5171 65.6997 48.4858 65.6868C48.4545 65.6738 48.421 65.6672 48.3871 65.6673H38.8077C38.7394 65.6673 38.6738 65.6944 38.6255 65.7428C38.5772 65.7911 38.55 65.8567 38.55 65.925V67.271C38.55 67.4133 38.6654 67.5287 38.8077 67.5287H42.4073C42.5509 67.5287 42.631 67.6092 42.631 67.7437L42.6335 75.0005V75.0005ZM46.8785 42.6384C45.9795 42.6384 45.1785 43.2601 45.1785 44.3292C45.1785 45.3983 45.9795 46.0201 46.8785 46.0201C47.7733 46.0201 48.5743 45.3983 48.5743 44.3292C48.5743 43.2601 47.7733 42.6384 46.8785 42.6384ZM46.8785 45.6312V45.6266C46.2074 45.6312 45.6666 45.1078 45.6666 44.3292C45.6666 43.5506 46.2074 43.0318 46.8785 43.0318C47.5317 43.0318 48.0862 43.5506 48.0862 44.3292C48.0862 45.1078 47.5317 45.6312 46.8785 45.6312Z" fill="white"/>
<path fill-rule="evenodd" clip-rule="evenodd" d="M47.1965 44.4413C47.4381 44.4234 47.6352 44.3026 47.6352 43.9669C47.6352 43.5506 47.358 43.417 46.8878 43.417H46.2075V45.2377H46.5972V44.4724H46.7803L47.2011 45.2377H47.6614L47.1965 44.4413V44.4413ZM46.9413 44.164H46.5977V43.7253H46.8699C47.0172 43.7253 47.2194 43.7386 47.2194 43.9266C47.219 44.1279 47.116 44.164 46.9413 44.164ZM77.6371 73.2113C77.0071 73.2113 76.4472 73.6467 76.4472 74.3954C76.4472 75.1437 77.0075 75.5791 77.6371 75.5791C78.263 75.5791 78.8237 75.1437 78.8237 74.3954C78.8241 73.6467 78.263 73.2113 77.6371 73.2113ZM77.6371 75.3064V75.3031C77.1669 75.3064 76.7884 74.9399 76.7884 74.395C76.7884 73.8501 77.1669 73.4869 77.6371 73.4869C78.0945 73.4869 78.4825 73.8505 78.4825 74.395C78.4825 74.9395 78.0945 75.3064 77.6371 75.3064Z" fill="white"/>
<path fill-rule="evenodd" clip-rule="evenodd" d="M77.8593 74.4734C78.0278 74.461 78.1656 74.3767 78.1656 74.1414C78.1656 73.8505 77.9717 73.7563 77.6426 73.7563H77.167V75.0304H77.4393V74.495H77.5675L77.8626 75.0304H78.1851L77.8593 74.4734V74.4734ZM77.6808 74.2796H77.4393V73.9729H77.6306C77.7335 73.9729 77.8746 73.982 77.8746 74.1136C77.8746 74.2543 77.8024 74.2796 77.6808 74.2796Z" fill="white"/>
</g>
</g>
<defs>
<clipPath id="clip0_13_6831">
<rect width="80" height="80" fill="white"/>
</clipPath>
<clipPath id="clip1_13_6831">
<rect width="80" height="80" fill="white"/>
</clipPath>
</defs>
</svg>
