<svg width="80" height="80" viewBox="0 0 80 80" fill="none" xmlns="http://www.w3.org/2000/svg">
<path d="M24.9096 8.57315L40.2196 8.57182C41.4482 9.31114 43.1067 11.0953 43.7244 12.6295H32.6519V34.6356C31.2394 35.1276 28.413 36.0508 26.3869 36.2333V13.1201C26.3869 10.6035 25.9008 9.93697 25.185 8.95552C25.0965 8.83423 25.0046 8.70814 24.9096 8.57315Z" fill="white"/>
<path fill-rule="evenodd" clip-rule="evenodd" d="M12 70.2391L22.4496 70.2364C22.3543 70.0998 22.2545 69.9618 22.1523 69.8205L22.152 69.8201C21.3322 68.6866 20.3599 67.3423 20.3599 64.8271L20.3613 43.4333C27.4052 43.3156 33.2893 42.1531 38.0069 40.279C45.1964 47.979 46.056 59.1718 46.1804 62.2402C46.302 65.3191 44.7057 68.0238 42.2444 70.2377H55.8933C53.801 69.1294 53.0643 66.1801 52.944 63.3511C51.6607 51.224 45.181 41.6415 43.0437 38.4807C42.9275 38.3088 42.8241 38.156 42.7351 38.0227C50.8358 33.1649 54.416 25.7202 54.416 18.8455C54.416 7.41061 44.3341 2 35.6051 2H12.615C12.7105 2.13654 12.803 2.26399 12.892 2.38655C13.6035 3.36686 14.0883 4.0349 14.0883 6.5483V64.8258C14.0883 67.3494 13.1126 68.6974 12.2908 69.8328C12.1909 69.9708 12.0933 70.1056 12 70.2391ZM20.3613 6.05763H33.8845C43.2271 6.05763 46.302 11.9616 46.1804 18.2292C45.5654 35.5667 28.3509 38.151 20.3613 38.151V6.05763Z" fill="white"/>
<path d="M57.2026 31.968C54.1647 39.6032 47.1366 42.0327 47.1366 42.0327L49.6521 47.2397C49.6521 47.2397 50.0092 47.1524 50.6163 46.9368C52.1716 48.6932 58.2911 56.3759 58.5927 68.4179C58.5927 68.4152 59.0238 73.3643 54.5985 76.8334H68.0516C68.0516 76.8334 66.3138 75.7052 65.6208 72.5813C65.4279 71.7139 65.3018 70.6655 65.157 69.4622C64.7806 66.3335 64.2782 62.1575 62.149 57.393C59.7711 52.0842 56.4977 46.6061 55.3114 44.6739C58.8995 42.4784 63.301 38.6152 65.7067 32.1386C70.2167 19.9908 61.542 10.9643 53.3844 9.40239C53.3844 9.40239 55.638 13.4838 55.9885 16.4331C55.9885 16.4318 61.1293 22.0951 57.2026 31.968Z" fill="white"/>
<path d="M41.7524 49.4166C41.3821 48.1668 40.0265 45.4621 39.3493 44.3459C36.8378 44.7691 34.4982 44.9093 32.6505 44.9093L32.6519 43.559C31.7922 43.8631 27.9766 44.416 26.3803 44.6051V71.5907C26.3803 74.1064 25.4066 75.4507 24.5855 76.5844C24.4832 76.7256 24.3833 76.8635 24.288 77H34.7389C34.6441 76.8644 34.5449 76.7273 34.4434 76.5871L34.4433 76.5869C33.6223 75.4527 32.6492 74.1086 32.6492 71.5934L32.6519 50.1969C35.8895 50.1466 39.0028 49.8755 41.7524 49.4166Z" fill="white"/>
</svg>
