<svg width="80" height="80" viewBox="0 0 80 80" fill="none" xmlns="http://www.w3.org/2000/svg">
<g clip-path="url(#clip0_13_6854)">
<path fill-rule="evenodd" clip-rule="evenodd" d="M70.8286 39.9734C70.8286 22.9608 57.0383 9.17139 40.0266 9.17139C22.9617 9.17139 9.17139 22.9613 9.17139 39.9734C9.17139 56.9856 22.9617 70.8286 40.0266 70.8286C57.0387 70.8286 70.8286 56.986 70.8286 39.9734Z" fill="white"/>
<path fill-rule="evenodd" clip-rule="evenodd" d="M40.0266 10.8622C56.0353 10.8622 69.1378 23.9121 69.1378 39.9739C69.1378 56.0352 56.0353 69.1382 40.0266 69.1382C23.9653 69.1382 10.8623 56.0356 10.8623 39.9739C10.8623 23.9121 23.9653 10.8622 40.0266 10.8622V10.8622Z" fill="#151317"/>
<path fill-rule="evenodd" clip-rule="evenodd" d="M40.0264 13.1868C25.2325 13.1868 13.2397 25.2327 13.2397 39.9739C13.2397 54.7677 25.2325 66.7605 40.0264 66.7605C54.7671 66.7605 66.813 54.7677 66.813 39.9739C66.8126 25.2327 54.7671 13.1868 40.0264 13.1868V13.1868Z" fill="white"/>
<path fill-rule="evenodd" clip-rule="evenodd" d="M40.0265 66.0209C25.6556 66.0209 13.9795 54.344 13.9795 39.9735C13.9795 25.6552 25.6556 13.9796 40.0265 13.9796C54.3443 13.9796 66.0208 25.6557 66.0208 39.9735C66.0208 54.344 54.3439 66.0209 40.0265 66.0209V66.0209Z" fill="#151317"/>
<path fill-rule="evenodd" clip-rule="evenodd" d="M26.0781 29.0896C26.6065 30.3576 27.6104 31.784 29.3013 31.784C30.4106 31.784 31.7313 31.0444 32.4182 31.0444C33.4752 31.0444 34.109 31.3615 34.3734 31.6255C33.845 30.4103 32.6825 30.0405 31.9957 30.0405C31.0975 30.0405 30.0936 30.5161 28.7725 30.5161C27.4515 30.5161 26.6065 29.6184 26.0781 29.0896V29.0896Z" fill="white"/>
<path fill-rule="evenodd" clip-rule="evenodd" d="M35.3768 24.2292C34.9543 24.5459 34.5845 25.18 34.4786 25.7611C33.6332 25.2854 32.8409 25.0215 32.154 25.0215C30.7272 25.0215 29.0367 26.1304 28.8782 29.7238C30.3047 29.0369 31.2028 28.8253 31.8365 28.8253C32.3649 28.8253 32.7351 28.9311 32.9991 29.2482C33.6332 30.0936 34.3197 30.2517 34.7953 30.3571C35.1124 30.5157 35.6407 30.6746 36.1691 30.9913C35.0066 32.5236 33.8445 32.8934 32.9459 32.8934C31.9951 32.8934 31.3609 32.5236 30.674 31.9953C30.5682 33.9501 31.2551 35.218 33.4216 35.3238C32.523 36.6449 32.2591 38.5466 32.4703 40.2374C33.0513 39.0749 33.6328 38.4407 34.5305 38.1241C33.8964 39.128 33.5793 40.1312 33.5793 41.0828C33.5793 43.4605 35.3755 44.887 35.957 45.3622C36.1682 43.566 36.7493 42.1391 37.2249 41.3999C37.4362 44.7808 37.0664 47.5283 36.6439 48.5849C39.127 48.0039 40.7651 47.0531 41.9268 45.5208C42.5079 44.3055 42.5614 42.562 42.5079 40.9766C43.0889 41.7166 43.7766 42.8791 44.0406 43.671C45.5725 42.7201 46.2066 41.2409 46.2066 39.5505C46.2066 38.9163 46.0477 38.0182 45.9423 37.5953C46.4706 38.0182 46.8931 38.4934 47.3164 39.1803L47.6335 38.4934C48.0033 37.648 48.161 36.6972 48.161 35.799C48.161 34.5311 47.8975 33.4744 47.1048 32.2065C47.6331 32.3124 48.4789 32.6821 48.901 32.9988C49.2181 30.4103 48.6367 28.4023 47.1048 26.87C47.4219 26.289 47.7385 25.7607 48.161 24.7567C48.0556 24.6513 47.7385 24.5981 47.7385 24.5981C47.6331 24.5454 47.3687 24.4923 46.8931 24.4923C46.4706 24.4923 45.8368 24.545 45.2031 24.8094C45.0441 24.545 44.8325 24.3338 44.6747 24.1225L47.6335 17.0425C46.3648 17.0425 45.0973 17.5708 45.0973 18.6275C45.0973 18.9446 45.2035 19.3144 45.5206 19.6842C45.5206 19.7369 45.4679 19.7369 45.4143 19.7369H45.3616C45.15 19.4729 44.8333 19.314 44.5162 19.314C43.8297 19.314 43.301 19.8954 43.301 20.5292C43.301 21.216 43.8293 21.7448 44.5162 21.7448C44.5689 21.7448 44.6752 21.7448 44.7279 21.6917C44.0941 22.3258 43.46 22.5371 42.8262 22.5371C41.7164 22.5371 40.8183 21.6917 40.6593 21.1633C40.871 21.3219 41.1349 21.4273 41.452 21.4273C42.0858 21.4273 42.6145 20.899 42.6145 20.2121C42.6145 19.5783 42.0862 18.9969 41.452 18.9969C41.2404 18.9969 41.0295 19.05 40.871 19.1554C41.0826 18.9442 41.1881 18.6271 41.1881 18.31C41.1881 17.6762 40.6597 17.1479 40.026 17.1479C39.3391 17.1479 38.8108 17.6762 38.8108 18.31C38.8108 18.6798 38.9689 18.9969 39.1805 19.2085C39.022 19.1031 38.7576 18.9973 38.5468 18.9973C37.8599 18.9973 37.3316 19.5783 37.3316 20.2125C37.3316 20.8994 37.8599 21.4277 38.5468 21.4277C38.8112 21.4277 39.0747 21.3223 39.2337 21.2165C38.758 22.1677 37.9126 22.4317 37.1203 22.4317C36.1691 22.4317 35.3237 22.0092 35.2709 21.6921C35.3237 21.7452 35.4295 21.7452 35.4822 21.7452C36.1691 21.7452 36.6974 21.2169 36.6974 20.5296C36.6974 19.8958 36.1691 19.3144 35.4822 19.3144C35.1651 19.3144 34.8484 19.4729 34.6368 19.7373H34.5841C34.5314 19.7373 34.5314 19.7373 34.5314 19.6846C34.7957 19.3144 34.9012 18.945 34.9012 18.6279C34.9012 17.5712 33.6332 17.0429 32.3653 17.0429L35.3768 24.2292V24.2292ZM27.0819 49.906C25.2326 49.906 22.9615 50.3293 22.9615 52.3368C22.9615 54.0796 24.493 54.4502 26.6594 54.4502C28.1386 54.4502 28.4557 54.7673 28.4557 55.2421C28.4557 55.5064 28.3499 55.9294 27.1346 55.9294C26.1311 55.9294 25.8136 55.4537 25.8136 54.9777H22.6963C22.749 56.9329 24.8096 57.4085 27.1874 57.4085C29.6174 57.4085 30.357 56.9852 30.7799 56.6158L30.5155 57.2496H33.263L33.6859 56.0871H37.2257L37.7014 57.2496H41.0831L41.5583 56.0871H45.0454L45.521 57.2496H54.0794C55.5063 57.2496 56.0346 56.0344 56.0346 55.2944C56.0346 54.6606 55.7175 53.6043 54.3438 53.4454C55.5598 53.2873 55.8229 52.4418 55.8229 51.8081C55.8229 51.1743 55.4004 50.0118 53.8158 50.0118H47.4754V55.2948L45.3093 50.0118H41.347L39.3918 54.7669L37.437 50.0118H33.4747L31.6784 54.4498C31.4672 53.181 30.2515 52.6535 27.4513 52.6535C26.3419 52.6535 25.9721 52.4946 25.9721 51.9662C25.9721 51.491 26.3951 51.2798 27.0815 51.2798C27.8215 51.2798 28.3494 51.3852 28.3494 52.2306H31.4668C31.4672 50.2766 29.3538 49.906 27.0819 49.906V49.906Z" fill="white"/>
<path fill-rule="evenodd" clip-rule="evenodd" d="M37.1207 26.8709C37.2788 26.8709 37.4901 26.8709 37.6486 26.9236C37.4374 27.8744 36.7505 28.033 36.2753 28.033C35.6942 28.033 35.0601 27.7686 35.0601 26.8705C35.1655 26.9232 35.324 26.9232 35.4299 26.9232C35.5357 27.1875 35.7469 27.5042 36.2753 27.5042C36.8036 27.5046 37.068 27.1348 37.1207 26.8709V26.8709Z" fill="#151317"/>
<path fill-rule="evenodd" clip-rule="evenodd" d="M34.3734 26.6596C34.2676 27.3992 34.5847 28.7198 36.3282 28.7198C36.962 28.7198 37.966 28.4027 38.283 27.029C38.3889 27.029 38.4947 27.0821 38.6001 27.1348C38.7587 26.9763 38.8645 26.8177 38.9699 26.5538C38.3889 26.184 37.438 26.1309 36.8566 26.1309C36.4868 26.1309 36.1697 26.184 35.8526 26.184C35.5887 26.184 35.2716 26.1309 35.0603 26.0786C35.2189 25.4444 35.4828 24.8633 35.7999 24.8633H44.3595C44.4122 24.9161 44.5177 25.0219 44.5177 25.1273C43.7258 25.6029 42.9858 26.2898 42.3516 27.1348C42.457 27.2934 42.7214 27.5046 42.9327 27.6104C44.4118 25.6556 46.0495 25.2854 47.0539 25.3386C45.522 28.4559 42.5097 29.5653 40.027 29.8292C42.1399 30.6219 43.5668 31.8371 42.1935 34.1617C41.7179 32.9992 41.031 32.3123 39.7099 31.6255C40.6081 34.3203 39.9212 35.7995 39.0758 36.6449C39.023 36.0638 38.8118 34.7955 38.442 33.8974C38.0722 34.4261 37.6493 34.9013 37.2268 35.2184C37.1737 35.5351 37.2268 36.0107 37.2795 36.222C37.5966 36.0103 37.9137 35.7463 38.0722 35.5351C38.2308 36.3278 38.3893 37.1732 38.2835 38.1241C40.767 36.9615 41.0314 34.7428 40.9251 33.5803C41.5062 34.2672 41.7706 35.0594 41.9287 35.958C43.6722 33.8446 44.201 31.6786 42.352 30.1994C44.4654 29.4598 45.5225 28.7202 46.6314 27.4519C47.9002 28.7198 48.2168 30.3575 48.1633 31.7313C47.4241 31.4673 46.685 31.2557 45.3635 31.2557C46.2089 32.0484 47.3714 33.5803 47.3714 35.7467C47.3714 36.3805 47.266 36.962 47.107 37.543C46.367 36.7503 45.5225 36.3278 44.5708 35.958C44.9941 36.962 45.4162 38.1245 45.4162 39.5509C45.4162 40.7661 45.0464 41.717 44.36 42.4039C43.8316 41.2941 42.8281 39.9211 41.612 39.1811C41.8237 41.4003 41.771 44.0947 41.2422 45.0983C40.2914 46.3135 39.1293 46.9472 37.8082 47.4233C38.0722 46.0491 38.2839 42.5628 37.8082 39.3924C37.0687 40.0793 35.9062 41.5057 35.4305 43.778C35.0076 43.3024 34.3739 42.5093 34.3739 41.0836C34.3739 39.7095 35.1134 38.3357 36.3814 36.9624C35.3247 37.0151 34.3207 37.1736 33.3172 37.9136C33.5284 36.1701 34.4797 35.0603 35.5891 34.2153C34.5324 34.4265 34.0041 34.5319 33.4757 34.5319C32.7888 34.5319 31.9434 34.3207 31.6795 33.4753C31.9965 33.5807 32.4718 33.6865 32.9474 33.6865C34.0568 33.6865 35.4305 33.2109 36.8043 31.3615C36.9628 31.2034 37.016 31.0444 37.016 30.939C37.016 30.2521 35.5891 29.7238 34.7436 29.5125C34.6382 29.4598 34.0568 29.354 33.6343 28.7198C33.1586 28.2442 32.5776 28.0329 31.8376 28.0329C31.2565 28.0329 30.6228 28.1915 29.8301 28.4559C30.0409 27.4519 30.6228 25.8669 32.1547 25.8669C32.788 25.8669 33.528 26.1309 34.3734 26.6596V26.6596ZM42.2458 54.3975L43.302 51.7558L44.4118 54.3975H42.2458V54.3975ZM34.3734 54.3975L35.4828 51.7558L36.5395 54.3975H34.3734V54.3975ZM52.3373 52.812H50.065V51.7558H52.3373C52.6008 51.7558 52.8125 51.9666 52.8125 52.2833C52.8121 52.5477 52.6004 52.812 52.3373 52.812ZM50.065 55.3483V54.3439H52.495C52.7594 54.3439 52.9706 54.5556 52.9706 54.8196C52.9706 55.1366 52.759 55.3479 52.495 55.3479H50.065V55.3483ZM44.042 24.1238H35.9584L35.6077 23.2779H44.3915L44.042 24.1238Z" fill="#151317"/>
</g>
<defs>
<clipPath id="clip0_13_6854">
<rect width="80" height="80" fill="white"/>
</clipPath>
</defs>
</svg>
