<svg width="80" height="80" viewBox="0 0 80 80" fill="none" xmlns="http://www.w3.org/2000/svg">
<path d="M33.0625 10.114C41.2921 9.82597 49.5319 10.114 57.7512 10.6386C58.6153 10.7107 59.4897 10.7107 60.3435 10.8855C60.8064 10.9987 61.3002 11.1736 61.5677 11.5953C61.8146 12.048 61.8146 12.5829 61.8866 13.0869C62.082 15.5558 62.1437 18.0247 62.3186 20.4935C61.9586 20.5347 61.6088 20.4833 61.2488 20.473C54.912 20.1438 48.565 19.8763 42.2179 19.866C38.9261 19.8763 35.6343 19.8455 32.3527 19.9998C31.5606 20.1129 30.6554 20.3804 30.1925 21.0902C32.6819 21.5325 35.1611 22.0057 37.6402 22.4583C45.8698 24.0014 54.1096 25.5033 62.3495 27.0463C62.3392 28.6099 62.3495 30.1736 62.3495 31.7269C57.7204 30.9554 53.1015 30.1324 48.4724 29.3403C38.5146 27.6224 28.5671 25.8839 18.6094 24.1866C18.6299 22.4583 18.702 20.7199 18.7431 18.9916C18.8048 17.6235 18.7637 16.2245 19.0723 14.8769C19.278 13.9305 19.6689 12.9738 20.389 12.2846C21.6337 11.0501 23.434 10.7107 25.1107 10.5358C27.7648 10.2992 30.4188 10.2169 33.0625 10.114Z" fill="white"/>
<path d="M18.5783 26.4805C32.836 29.114 47.0937 31.7886 61.3514 34.4323C61.66 34.5044 61.9995 34.5146 62.2978 34.6278L62.3389 34.7101C62.2566 37.0452 62.2155 39.3907 62.1332 41.7258C62.0818 43.166 61.9275 44.6781 61.1868 45.9537C60.3947 47.2705 58.9031 48.0008 57.4424 48.2683C55.2821 48.6798 53.0704 48.7003 50.8793 48.8238C41.4564 49.2558 32.0027 49.0192 22.5902 48.3712C21.8392 48.3197 21.0677 48.3094 20.3373 48.0934C19.9567 47.97 19.5658 47.7848 19.3498 47.435C19.1235 46.9721 19.1029 46.4578 19.0515 45.9537C18.8457 43.2277 18.7428 40.4914 18.5988 37.755C23.4543 38.0636 28.32 38.2385 33.1857 38.3414C37.8869 38.4134 42.5777 38.4134 47.2788 38.4648C48.2973 38.506 49.3877 38.3105 50.1592 37.6007C50.2723 37.4773 50.4575 37.3538 50.4369 37.1584C48.3178 36.8395 46.2193 36.4486 44.1002 36.0988C35.6032 34.6484 27.0958 33.2082 18.5885 31.7474C18.568 29.9884 18.5783 28.2293 18.5783 26.4805Z" fill="white"/>
<path d="M44.2753 60.3349C45.016 59.5634 46.127 59.3165 47.1659 59.2959C51.1573 59.2959 55.1486 59.2856 59.14 59.2959C59.1502 62.7318 59.1502 66.1676 59.14 69.6034H56.4242C56.4036 68.6056 56.4139 67.6078 56.4242 66.6099C52.9884 66.5482 49.5525 66.6099 46.1167 66.5791C46.0241 67.5872 46.1064 68.6056 46.0755 69.6137H43.3598C43.3186 67.4535 43.3598 65.2932 43.3392 63.133C43.3289 62.1248 43.5552 61.055 44.2753 60.3349ZM46.3224 62.0734C45.9624 62.8449 46.1064 63.7193 46.0652 64.5423C49.5114 64.5628 52.9575 64.5526 56.4036 64.5423C56.3933 63.4621 56.4242 62.382 56.3933 61.3019C53.5233 61.3225 50.6532 61.3019 47.7832 61.3122C47.2174 61.3225 46.5796 61.5282 46.3224 62.0734Z" fill="white"/>
<path d="M62.4731 59.3062C67.6371 59.2754 72.8114 59.3062 77.9755 59.2959C78.0166 59.9646 77.9961 60.6435 77.9858 61.3225C75.8564 61.3225 73.7167 61.3225 71.5873 61.3225C71.5976 64.0897 71.5976 66.8466 71.5873 69.6137H68.8818C68.8304 67.114 68.8716 64.604 68.8613 62.1043C68.8304 61.8368 68.9538 61.5282 68.7995 61.3019C68.3469 61.3636 67.8943 61.3225 67.4417 61.3327C65.7855 61.3327 64.1396 61.343 62.4834 61.3225C62.4628 60.6435 62.4628 59.9749 62.4731 59.3062Z" fill="white"/>
<path d="M4.1873 59.6457C4.90738 59.2857 5.73034 59.2857 6.52244 59.2857C10.6372 59.296 14.752 59.2754 18.8668 59.296C18.8668 59.9543 18.8771 60.6024 18.8668 61.2608C14.6903 61.3019 10.5035 61.2608 6.3167 61.2813C5.97723 61.2608 5.54518 61.4048 5.47317 61.7751C5.44231 62.0631 5.42173 62.4335 5.67891 62.6392C5.91551 62.8347 6.2344 62.845 6.53272 62.8758C9.9377 63.1639 13.3427 63.4313 16.7477 63.7193C17.5398 63.8119 18.4039 63.956 18.9902 64.5526C19.556 65.1184 19.6692 65.9619 19.6486 66.7231C19.6383 67.4947 19.4634 68.3382 18.8771 68.8937C18.3421 69.3463 17.6221 69.5829 16.9123 69.5315C12.4271 69.5212 7.93175 69.5418 3.44664 69.5212C3.42606 68.8731 3.40549 68.2147 3.45692 67.5667C7.66429 67.5872 11.8819 67.5667 16.0996 67.577C16.3876 67.5872 16.7065 67.5564 16.9225 67.3506C17.1797 67.042 17.19 66.5791 17.0254 66.2191C16.83 65.9105 16.4391 65.8487 16.1099 65.8282C13.1267 65.571 10.1434 65.3241 7.14994 65.0772C6.22411 64.9846 5.26743 64.9949 4.38275 64.6657C3.83754 64.46 3.36434 64.0485 3.1586 63.493C2.91172 62.917 3.03516 62.2792 3.0043 61.6825C2.95286 60.8493 3.42606 59.9955 4.1873 59.6457Z" fill="white"/>
<path d="M23.1563 59.296C28.4129 59.2857 33.6798 59.296 38.9365 59.296C38.9879 59.296 39.0805 59.3166 39.1216 59.3166C39.1216 59.975 39.1113 60.623 39.1216 61.2814C38.957 61.3328 38.7822 61.3123 38.6176 61.3123C34.3793 61.3123 30.1308 61.3225 25.8926 61.3123C25.872 61.9809 25.8926 62.6496 25.8823 63.3182C28.9993 63.3388 32.1162 63.3182 35.2229 63.3285C36.3441 63.3491 37.4654 63.2874 38.5867 63.3594C38.5764 63.9972 38.5764 64.6349 38.5867 65.2727C38.3295 65.3139 38.0621 65.3036 37.7946 65.3036C33.8238 65.3036 29.8531 65.3036 25.872 65.3036C25.8926 65.8694 25.8206 66.4763 26.1086 66.9907C26.407 67.505 27.0653 67.5667 27.6002 67.577C31.4373 67.577 35.264 67.5873 39.1011 67.577C39.1113 68.2251 39.1011 68.8629 39.1011 69.511C37.5374 69.5727 35.9635 69.5212 34.3896 69.5418C31.6842 69.5418 28.9787 69.5418 26.2732 69.5418C25.3268 69.4698 24.329 69.0995 23.7529 68.3177C23.2489 67.6284 23.1048 66.7541 23.1254 65.9208C23.1563 63.6988 23.1357 61.4974 23.1563 59.296Z" fill="white"/>
</svg>
