<svg width="80" height="80" viewBox="0 0 80 80" fill="none" xmlns="http://www.w3.org/2000/svg">
<g clip-path="url(#clip0_13_6894)">
<path fill-rule="evenodd" clip-rule="evenodd" d="M12.7159 42.5757C15.0571 42.5757 14.765 45.0634 14.8065 45.168H12.3814C12.3814 45.1468 12.3814 44.4151 11.7128 44.4151H6.82165C5.86002 44.4151 5.86002 46.0881 6.73781 46.1296C8.32656 46.213 10.9184 46.1919 13.0505 46.2965C14.0536 46.3595 14.9318 47.0074 14.9318 48.0944C14.9318 48.1359 14.9737 49.9757 14.9737 49.9757C14.9945 51.2295 13.9079 51.8151 12.8417 51.8151H5.86002C4.68963 51.8151 3.72799 50.9585 3.56074 49.808C3.51882 49.531 3.51882 49.2492 3.56074 48.9722H5.98536C5.98536 48.9722 5.94344 50.0172 6.98849 50.0172C8.82791 50.0172 9.87297 50.0595 11.5451 50.0172C12.7994 49.996 13.0081 48.1778 11.5451 48.0944C9.78954 48.0109 8.45148 47.9483 6.23604 47.8852C4.73113 47.8437 3.64374 47.2585 3.64374 46.0458V44.1644C3.64374 43.2866 4.48003 42.5757 5.65043 42.5757H12.7159V42.5757ZM18.4857 42.8683C18.4438 42.9314 18.4857 46.5475 18.4857 49.3071C18.4857 49.7043 18.7364 50.0172 19.2378 50.0172H23.9202C24.4219 50.0172 24.5473 49.5997 24.5473 49.2652C24.5892 46.7986 24.5892 42.9733 24.5473 42.9106H27.2226C27.2226 42.9106 27.2437 47.5092 27.2645 49.9757C27.2857 51.0839 26.3448 51.794 25.0071 51.8151C22.4987 51.8575 21.2444 51.8151 18.9032 51.8151C17.2726 51.8151 15.8723 51.3345 15.8511 49.9757C15.8303 47.1742 15.7677 42.9314 15.8092 42.8683H18.4857V42.8683ZM36.5454 42.9106C39.012 42.9106 39.2627 44.7085 39.2627 45.2518C39.2627 46.7148 38.0296 47.3212 37.9665 47.3423C37.9877 47.3423 39.4299 47.8856 39.4299 49.3071C39.4299 50.1015 39.3046 51.794 36.545 51.8151C33.368 51.8575 28.2465 51.8151 28.2257 51.8151V42.9106H36.5454V42.9106ZM35.8768 46.589C36.3782 46.589 36.7965 46.2965 36.7965 45.6278C36.7965 45.0426 36.3159 44.7085 35.7934 44.7085C34.0378 44.7085 30.9649 44.6662 30.9022 44.7085V46.589C30.9645 46.631 33.9536 46.589 35.8768 46.589ZM35.9183 50.0172C36.4409 50.0172 36.9634 49.7254 36.9634 49.056C36.9634 48.4285 36.4409 48.0321 35.8764 48.0525C34.2457 48.0736 30.9641 48.0525 30.9014 48.0948V50.0176C30.9645 50.0591 33.7863 50.0172 35.9183 50.0172V50.0172ZM44.1546 42.9106H47.4147L52.2233 51.8151H49.5887L48.6275 50.0172H43.0253L42.0218 51.8151H39.3465L44.1546 42.9106V42.9106ZM45.7426 44.8754L43.987 48.0944H47.5828L45.7426 44.8754ZM60.5426 44.7085C61.2112 44.7085 61.6296 45.5021 61.6296 46.1296C61.6296 46.7571 61.1901 47.4258 60.5426 47.4258C58.6189 47.4258 55.6925 47.4469 55.6515 47.4258V44.7085C55.7137 44.6662 58.7862 44.7085 60.5426 44.7085V44.7085ZM55.6515 49.0556C55.6718 49.0556 58.8705 49.0768 60.4592 49.0556C61.1482 49.0344 61.7126 49.7665 61.7126 50.3941V51.8151H64.0957V50.4356C64.0957 49.1394 62.7373 48.387 62.7161 48.387C62.7792 48.3658 64.0546 47.5092 64.0546 46.0881C64.0546 44.4151 63.386 42.9106 60.9191 42.9106H52.9757V51.8151H55.6515V49.0556V49.0556ZM67.6916 42.8683C67.6285 42.9517 67.7331 46.5475 67.7331 49.3071C67.7331 49.7043 67.9422 50.0172 68.4859 50.0172H73.126C73.6278 50.0172 73.7535 49.5997 73.7535 49.2652C73.795 46.7986 73.8369 42.9733 73.795 42.9106H76.4297C76.4297 42.9106 76.45 47.5092 76.4712 49.9757C76.4923 51.0839 75.5934 51.794 74.2557 51.8151C71.7053 51.8575 70.4507 51.8151 68.1518 51.8151C66.5216 51.8151 65.0789 51.3557 65.0586 49.9757C65.0163 47.1742 65.0163 42.9314 65.0586 42.8683H67.6916V42.8683Z" fill="white"/>
<path d="M40.6231 25.1302C37.2729 25.1302 34.1814 26.0192 31.9028 27.3681C29.5691 28.7497 28.0966 30.6074 28.0966 32.4696C28.0966 34.3277 29.5625 36.1651 31.8871 37.5297C34.1664 38.8678 37.2646 39.7456 40.6227 39.7456C44.0077 39.7456 47.1188 38.8694 49.4064 37.5335C51.7435 36.168 53.2123 34.329 53.2123 32.4696C53.2123 30.6053 51.7368 28.746 49.3911 27.3639C47.1063 26.0176 44.0019 25.1302 40.6231 25.1302V25.1302ZM31.7115 27.0435C34.0436 25.6627 37.2036 24.7525 40.6231 24.7525C44.0699 24.7525 47.2416 25.6606 49.582 27.0389C52.0423 28.4887 53.5904 30.4646 53.5904 32.4688C53.5904 34.4697 52.0485 36.4262 49.5965 37.8584C47.2561 39.2255 44.077 40.1224 40.6231 40.1224C37.1974 40.1224 34.0311 39.2235 31.6974 37.8534C29.2578 36.4212 27.7197 34.4676 27.7197 32.4688C27.7193 30.4671 29.2636 28.4928 31.7115 27.0435Z" fill="white"/>
<path fill-rule="evenodd" clip-rule="evenodd" d="M37.1439 29.686L42.9643 30.9515L37.207 32.153L35.942 35.316L34.6769 32.0899L29.3633 30.9515L34.6769 29.8126L35.8789 26.7762L37.1439 29.686ZM43.5333 32.6589L45.9999 33.1653L43.5333 33.7347L43.0266 35.0628L42.4576 33.6712L40.1803 33.1653L42.4576 32.6589L42.9643 31.3939L43.5333 32.6589V32.6589ZM49.543 32.6589L52.0095 33.1653L49.543 33.7347L49.0362 35.0628L48.4672 33.6712L46.2526 33.1653L48.4672 32.6589L49.0362 31.3939L49.543 32.6589V32.6589ZM47.9617 28.9269L50.4283 29.4329L47.9617 29.9388L47.455 31.3308L46.886 29.9388L44.6087 29.4329L46.886 28.9269L47.3919 27.6615L47.9617 28.9269ZM45.6205 35.6322L48.1514 36.2016L45.6836 36.7076L45.1146 38.0361L44.5448 36.7076L42.331 36.2016L44.5448 35.6957L45.1146 34.4303L45.6205 35.6322ZM39.1049 36.075L41.5723 36.6445L39.1049 37.1504L38.5986 38.4789L38.0296 37.0873L35.7523 36.6445L38.0296 36.1381L38.5355 34.81L39.1049 36.075Z" fill="white"/>
</g>
<defs>
<clipPath id="clip0_13_6894">
<rect width="80" height="80" fill="white"/>
</clipPath>
</defs>
</svg>
