<svg width="80" height="80" viewBox="0 0 80 80" fill="none" xmlns="http://www.w3.org/2000/svg">
<path d="M54.6488 64.5206V68.0259H55.773V65.6921H59.8643V68.0259H60.9876V64.5267L54.6488 64.5206M55.6477 63.3867H59.9702C60.5705 63.2674 61.017 62.7374 61.1429 62.2249H54.4751C54.5997 62.7377 55.0528 63.2674 55.6477 63.3867Z" fill="white"/>
<path d="M51.2445 68.0282C51.8113 67.7879 52.1162 67.3723 52.2332 66.8858H47.1911L47.1945 62.2279L46.0643 62.2311V68.0282H51.2445M37.6595 63.371H41.6514C42.2533 63.1962 42.7586 62.7377 42.8818 62.2295H36.5403V65.6553H41.7305V66.8575L37.6593 66.8608C37.0214 67.0387 36.4803 67.4671 36.2104 68.033L36.5403 68.0269H42.8456V64.5164H37.6593V63.371" fill="white"/>
<path d="M27.8046 63.3821H32.1256C32.7268 63.2623 33.1736 62.7328 33.2988 62.2197H26.6313C26.7558 62.7328 27.2092 63.2623 27.8046 63.3821ZM27.8046 65.6732H32.1256C32.7268 65.5547 33.1736 65.0247 33.2988 64.5113H26.6313C26.7558 65.025 27.2092 65.5547 27.8046 65.6732ZM27.8046 68.0275H32.1256C32.7268 67.908 33.1736 67.3782 33.2988 66.8655H26.6313C26.7558 67.3787 27.2092 67.908 27.8046 68.0275Z" fill="white"/>
<path d="M16.563 62.234C16.6929 62.7406 17.1317 63.2583 17.7333 63.3882H19.5522L19.645 63.4248V68.0146H20.7808V63.4248L20.8842 63.3882H22.7047C23.3132 63.2314 23.7422 62.7406 23.8699 62.234V62.2228H16.563V62.234" fill="white"/>
<path d="M39.6984 50.766L45.3737 18.8484C50.783 18.8484 52.4893 19.4416 52.7358 21.8628C52.7358 21.8628 56.3648 20.5097 58.1949 17.7617C51.0527 14.4522 43.8765 14.303 43.8765 14.303L39.6891 19.4032L39.6985 19.4026L35.5109 14.3022C35.5109 14.3022 28.3345 14.4516 21.1934 17.7611C23.022 20.5091 26.6523 21.8621 26.6523 21.8621C26.9001 19.4408 28.6043 18.8476 33.9774 18.8438L39.6984 50.766" fill="white"/>
<path d="M39.6963 12.8298C45.4698 12.7856 52.0779 13.7229 58.843 16.6714C59.7472 15.044 59.9796 14.3247 59.9796 14.3247C52.5844 11.399 45.659 10.3977 39.6955 10.3726C33.7322 10.3977 26.8072 11.3991 19.4131 14.3247C19.4131 14.3247 19.7429 15.2106 20.5489 16.6714C27.3125 13.7229 33.9221 12.7856 39.6957 12.8298H39.6963" fill="white"/>
</svg>
