<svg width="80" height="80" viewBox="0 0 80 80" fill="none" xmlns="http://www.w3.org/2000/svg">
<g clip-path="url(#clip0_13_6915)">
<path fill-rule="evenodd" clip-rule="evenodd" d="M39.9512 51.3528C42.324 51.3528 44.2584 46.416 44.3608 40.2248L44.3744 40.2304C42.9448 40.3624 41.4656 40.4304 39.9512 40.4304C38.4368 40.4304 36.9584 40.3616 35.5288 40.2304L35.5424 40.2248C35.6448 46.416 37.5792 51.3528 39.9512 51.3528ZM39.9512 35.5216C41.3624 35.5216 42.736 35.4616 44.048 35.3456C43.3928 31.0704 41.808 28.0536 39.952 28.0536C38.096 28.0536 36.512 31.0704 35.8568 35.3456C37.1688 35.4616 38.5416 35.5192 39.9512 35.5192V35.5216ZM41.8592 57.3328C55.0888 56.6448 65.5192 48.8592 65.5192 39.3576C65.4729 36.1038 64.3021 32.9663 62.2056 30.4776L62.1792 30.4256C62.0192 34.8152 55.7928 38.5256 47.1728 39.8816V39.8768C47.1784 40.164 47.1824 40.452 47.1824 40.7448C47.1824 48.7048 44.8976 55.4024 41.8 57.344L41.8592 57.3328ZM39.9512 23.5776C43.1024 23.5776 45.7832 28.3568 46.7752 35.0264V35.0168C52.9056 34.0608 57.1976 31.86 57.1976 29.2992C57.1976 25.8592 49.4728 23.0768 39.9472 23.0768C30.4216 23.0768 22.6984 25.8624 22.6984 29.2992C22.6984 31.8592 26.9896 34.0608 33.12 35.0168L33.124 35.0264C34.1224 28.3568 36.8032 23.5776 39.9512 23.5776ZM10.3984 40.0512C10.3984 29.4192 23.6296 20.8 39.9512 20.8C56.2728 20.8 69.504 29.4192 69.504 40.0512C69.504 50.6832 56.2712 59.3032 39.9512 59.3032C23.6312 59.3032 10.4 50.6824 10.4 40.0512H10.3984ZM38.0992 57.344C35 55.4024 32.7176 48.704 32.7176 40.7448C32.7176 40.452 32.7176 40.164 32.7264 39.8768V39.8816C24.1072 38.5256 17.88 34.816 17.72 30.4256L17.6952 30.4776C15.598 32.9658 14.4273 36.1037 14.3824 39.3576C14.3824 48.8592 24.812 56.6448 38.0416 57.3328L38.0992 57.344Z" fill="white"/>
</g>
<defs>
<clipPath id="clip0_13_6915">
<rect width="59.1048" height="38.5032" fill="white" transform="translate(10.3999 20.8)"/>
</clipPath>
</defs>
</svg>
