<svg width="80" height="80" viewBox="0 0 80 80" fill="none" xmlns="http://www.w3.org/2000/svg">
<g clip-path="url(#clip0_13_6928)">
<path d="M44.4156 23.7952C41.6219 23.0596 38.6861 23.053 35.8892 23.776L40.162 35.5672L44.4156 23.7952Z" fill="white"/>
<path d="M56.9456 40.0999C56.9556 38.0616 56.5953 36.0383 55.8824 34.1287L47.8672 55.0463C50.6002 53.6205 52.8909 51.474 54.4912 48.8394C56.0914 46.2048 56.9402 43.1825 56.9456 40.0999" fill="white"/>
<path d="M48.5812 25.5287L43.6396 39.1287H36.6796L31.7196 25.4743C29.8944 26.5257 28.2799 27.9064 26.958 29.5463L34.002 47.8103L36.582 41.1383H43.3476L45.926 47.8103L53.038 29.3303C51.7837 27.8142 50.274 26.529 48.5772 25.5327" fill="white"/>
<path d="M40.1042 17.6008C35.6555 17.5983 31.306 18.915 27.6057 21.3845C23.9053 23.8539 21.0204 27.3652 19.3156 31.4743C17.6109 35.5834 17.1629 40.1058 18.0284 44.4695C18.8939 48.8332 21.0339 52.8422 24.1779 55.9896C27.3218 59.1371 31.3285 61.2815 35.6912 62.1518C40.054 63.0221 44.5768 62.5791 48.6878 60.8789C52.7988 59.1787 56.3132 56.2976 58.7868 52.6C61.2603 48.9024 62.5819 44.5543 62.5842 40.1056C62.5722 34.1449 60.2007 28.4315 55.9882 24.2143C51.7757 19.9972 46.0649 17.6194 40.1042 17.6008M40.1042 59.7104C36.2222 59.7096 32.4276 58.5575 29.2005 56.3998C25.9733 54.2421 23.4586 51.1758 21.9744 47.5887C20.4902 44.0016 20.1032 40.0548 20.8624 36.2478C21.6215 32.4407 23.4928 28.9443 26.2393 26.2009C28.9859 23.4574 32.4845 21.5902 36.2924 20.8354C40.1003 20.0805 44.0466 20.472 47.632 21.9603C51.2174 23.4486 54.2809 25.9668 56.4349 29.1965C58.5889 32.4261 59.7367 36.222 59.733 40.104C59.7182 45.3033 57.6447 50.285 53.9662 53.9594C50.2876 57.6337 45.3035 59.7015 40.1042 59.7104" fill="white"/>
<path d="M39.9572 44.7119L35.61 55.9919L35.5908 56.3415C37.0606 56.7502 38.5797 56.9545 40.1052 56.9487C41.5394 56.9504 42.9681 56.7709 44.3572 56.4143L44.3084 55.9919L39.9572 44.7119Z" fill="white"/>
<path d="M23.2474 40.104C23.2495 43.1248 24.0647 46.0892 25.6075 48.6863C27.1502 51.2834 29.3636 53.4173 32.0154 54.864L24.2042 34.504C23.5638 36.3014 23.239 38.196 23.2442 40.104" fill="white"/>
</g>
<defs>
<clipPath id="clip0_13_6928">
<rect width="44.9856" height="44.9856" fill="white" transform="translate(17.6001 17.6)"/>
</clipPath>
</defs>
</svg>
