<svg width="80" height="80" viewBox="0 0 80 80" fill="none" xmlns="http://www.w3.org/2000/svg">
<g clip-path="url(#clip0_13_6937)">
<path fill-rule="evenodd" clip-rule="evenodd" d="M1.17627 35.1167V36.5345H3.5017L8.05253 45.0692H13.6526L18.2034 36.5204L20.5284 36.5058L20.5334 35.1167H13.5766V36.5108H15.4293L12.2157 42.5782L8.73982 36.532L11.2753 36.5204L11.2707 35.1167H1.17627ZM46.0566 35.1167V36.5345H48.3812L52.9329 45.0692H58.5325L63.0833 36.5204L65.4092 36.5058L65.4129 35.1167H58.4574V36.5108H60.3093L57.0961 42.5782L53.6202 36.532L56.1552 36.5204L56.1511 35.1167H46.0566V35.1167ZM34.6146 35.1167V36.5345H36.94L36.9434 43.5025H34.4926V45.0563L36.945 45.0692H48.5551V40.4366H47.0423C46.9597 42.8895 44.8319 43.5058 43.9362 43.5058C43.1145 43.5058 41.5232 43.5025 41.5232 43.5025V36.532L43.8134 36.5204L43.8101 35.1167H34.6146ZM26.7867 34.8312C22.8343 34.8312 19.6307 37.1844 19.6307 40.0863C19.6307 42.9882 22.8343 45.3415 26.7867 45.3415C30.739 45.3415 33.9431 42.9882 33.9431 40.0863C33.9431 37.1844 30.739 34.8312 26.7867 34.8312ZM26.6842 43.7946C25.2909 43.7946 24.162 42.1258 24.162 40.066C24.162 38.0058 25.2909 36.3357 26.6842 36.3357C28.077 36.3357 29.2067 38.0058 29.2067 40.066C29.2067 42.1258 28.077 43.7946 26.6842 43.7946ZM71.6679 34.6585C67.7155 34.6585 64.5119 37.0495 64.5119 39.9996C64.5119 42.9484 67.7155 45.3398 71.6679 45.3398C75.6194 45.3398 78.8239 42.9484 78.8239 39.9996C78.8239 37.05 75.6194 34.6585 71.6679 34.6585ZM71.5649 43.7681C70.1725 43.7681 69.0432 42.0714 69.0432 39.978C69.0432 37.8846 70.1725 36.1875 71.5649 36.1875C72.9582 36.1875 74.0867 37.8842 74.0867 39.978C74.0867 42.0714 72.9582 43.7681 71.5649 43.7681Z" fill="white"/>
</g>
<defs>
<clipPath id="clip0_13_6937">
<rect width="80" height="80" fill="white"/>
</clipPath>
</defs>
</svg>
