<svg width="96" height="18" viewBox="0 0 96 18" fill="none" xmlns="http://www.w3.org/2000/svg">
<g clip-path="url(#clip0_312_9307)">
<path d="M16.6936 0.0332031H0V3.95601H12.7273C13.6608 2.30845 15.0336 0.950694 16.6936 0.0332031Z" fill="white"/>
<path d="M30.962 0.0332031H21.999C20.5364 0.033865 19.0962 0.391772 17.8044 1.07562C16.5126 1.75947 15.4085 2.74843 14.5888 3.95601V3.95601C14.5888 3.95601 14.5888 3.95601 14.5888 3.96251C14.4794 4.12352 14.3778 4.28843 14.2801 4.45594C14.2579 4.4923 14.2371 4.53126 14.2149 4.56761C14.1225 4.73123 14.0313 4.90003 13.9544 5.07014C13.9544 5.07793 13.9479 5.08053 13.9453 5.08702C13.8606 5.26102 13.7812 5.44151 13.7082 5.6259L13.6587 5.75575C13.5897 5.93235 13.5285 6.11285 13.4647 6.29594C13.4654 6.30154 13.4654 6.30721 13.4647 6.31282C13.4047 6.4998 13.3553 6.69068 13.3097 6.88416C13.2992 6.93091 13.2875 6.97895 13.2771 7.0257C13.2341 7.21139 13.1976 7.40227 13.1651 7.59575C13.1651 7.59575 13.1651 7.60614 13.1651 7.61263C13.1351 7.8087 13.113 8.00218 13.096 8.20735C13.096 8.25929 13.0856 8.30863 13.083 8.36187C13.07 8.56184 13.0596 8.76311 13.0596 8.96568V17.9111H16.9946V8.97088C16.9956 7.64658 17.5222 6.37648 18.4593 5.43787C19.3964 4.49927 20.668 3.96841 21.9964 3.96121H30.9581V0.0332031H30.962Z" fill="white"/>
<path d="M49.444 9.11226C49.4422 10.4342 48.9147 11.7015 47.9771 12.6362C47.0394 13.5709 45.7682 14.0968 44.4421 14.0986H42.4766C41.1505 14.0968 39.8793 13.5709 38.9416 12.6362C38.004 11.7015 37.4765 10.4342 37.4747 9.11226V0.214844H33.5605V9.11226C33.5636 11.4686 34.504 13.7276 36.1754 15.3938C37.8468 17.0601 40.1128 17.9975 42.4766 18.0006H44.4421C46.8061 17.9978 49.0724 17.0606 50.7441 15.3943C52.4158 13.728 53.3564 11.4689 53.3595 9.11226V0.214844H49.444V9.11226Z" fill="white"/>
<path d="M55.75 8.89742V17.7896H59.6642V8.89742C59.6659 7.57355 60.1943 6.30442 61.1335 5.36842C62.0726 4.43243 63.3459 3.90601 64.6738 3.90463H73.5951V0H64.6778C62.3108 0.00137533 60.0412 0.939138 58.3673 2.60735C56.6934 4.27557 55.7521 6.53786 55.75 8.89742Z" fill="white"/>
<path d="M87.0876 0H85.1221C82.7581 0.00309286 80.4919 0.94071 78.8205 2.60721C77.149 4.2737 76.2088 6.53302 76.2061 8.88963V17.7896H80.1202V8.88963C80.122 7.56839 80.6492 6.30177 81.5864 5.36752C82.5236 4.43327 83.7941 3.90765 85.1195 3.90593H87.085C88.4115 3.90593 89.6838 4.43079 90.6223 5.36523C91.5609 6.29966 92.0891 7.56727 92.0908 8.88963V17.7896H95.9985V8.88963C95.9978 6.53329 95.0589 4.27356 93.3882 2.60676C91.7174 0.939972 89.4513 0.00240854 87.0876 0V0Z" fill="white"/>
</g>
<defs>
<clipPath id="clip0_312_9307">
<rect width="96" height="18" fill="white"/>
</clipPath>
</defs>
</svg>
