<svg width="80" height="80" viewBox="0 0 80 80" fill="none" xmlns="http://www.w3.org/2000/svg">
<g clip-path="url(#clip0_13_6336)">
<path d="M40.5102 65C54.0465 65 65.0196 53.8075 65.0196 39.9996C65.0196 26.1934 54.0465 15 40.5102 15C26.9739 15 16 26.1934 16 40.0004C16 53.8075 26.9739 65 40.5102 65Z" fill="#151317"/>
<path d="M40.5102 64.4992C53.7751 64.4992 64.5286 53.5306 64.5286 40.0005C64.5286 26.4695 53.7759 15.5008 40.5102 15.5008C27.2446 15.5008 16.491 26.4695 16.491 40.0005C16.491 53.5297 27.2446 64.4992 40.5102 64.4992Z" fill="white"/>
<path d="M40.5102 58.0097C50.2607 58.0097 58.1664 49.9469 58.1664 40.0004C58.1664 30.054 50.2607 21.9903 40.5102 21.9903C30.7588 21.9903 22.8532 30.054 22.8532 40.0004C22.8532 49.9469 30.7588 58.0097 40.5102 58.0097V58.0097ZM21.3838 40.7035L22.2221 41.0721L22.2053 42.5044L17.3821 40.4482L17.3997 38.9746L22.2688 37.0794L22.252 38.5188L21.4059 38.8451L21.3838 40.7035V40.7035ZM22.6795 32.3763L23.2886 30.8821L24.2741 31.301L23.1564 34.0405L18.6813 32.1417L19.1899 30.8956L22.6795 32.3763V32.3763Z" fill="#151317"/>
<path d="M24.1806 24.9015L24.7783 25.4589L25.7575 24.3656L26.5455 25.1002L25.5663 26.1934L26.9713 27.5025L26.0784 28.4987L22.5006 25.164L24.4715 22.9631L25.2595 23.6967L24.1806 24.9015ZM30.8664 23.1528L30.9466 24.0797L29.7029 24.7441L29.1872 19.4387L30.4671 18.7545L34.4142 22.2267L33.1643 22.8947L32.4803 22.2897L30.8664 23.1528V23.1528ZM41.456 21.2234L39.8139 21.3564L38.4221 19.5619L38.4089 19.5628L38.5561 21.4571L37.2374 21.5632L36.854 16.6363L38.8249 16.4772C39.828 16.3954 40.6248 16.7981 40.7059 17.851C40.7588 18.5307 40.4141 19.151 39.7037 19.3326L41.456 21.2234V21.2234ZM49.6234 20.6929C49.1431 22.2168 47.679 22.9208 46.1232 22.4101C44.5684 21.8986 43.7839 20.4565 44.2643 18.9334C44.7138 17.5102 46.3145 16.9339 47.709 17.3915C49.1034 17.8492 50.0721 19.2706 49.6234 20.6929V20.6929ZM54.7349 21.2117L55.6834 22.1215L54.6591 24.7684L57.2312 23.6095L58.1893 24.5302L55.6155 28.9311L54.6688 27.9898L56.1064 25.4103L56.0968 25.4014L53.2938 26.6178L52.9103 26.2501L53.9734 23.3614L53.9637 23.3524L51.567 24.9914L50.5974 24.0824L54.7349 21.2117V21.2117ZM60.9288 31.3316L60.1805 31.6481L60.7525 33.0533L59.7671 33.4705L59.195 32.0653L58.4229 32.3916L59.0258 33.8742L58.0403 34.2905L56.9315 31.5627L61.4074 29.6683L62.5172 32.3961L61.5317 32.8124L60.9288 31.3316V31.3316ZM61.4656 42.1726C59.8984 42.2284 58.7525 41.0632 58.6952 39.3972C58.6406 37.7321 59.7045 36.4887 61.2726 36.4329C62.7367 36.3826 63.8111 37.7222 63.8614 39.2156C63.9125 40.708 62.9306 42.1205 61.4656 42.1726Z" fill="#151317"/>
<path d="M18.8885 39.7298V39.7442L20.424 40.3205L20.4381 39.1976L18.8885 39.7298V39.7298ZM30.5218 20.4502L30.5103 20.4565L30.7412 22.1089L31.7161 21.5875L30.5218 20.4502ZM38.3445 18.7392L38.4724 18.7284C38.9025 18.6943 39.3811 18.5765 39.3397 18.0398C39.2983 17.5039 38.8073 17.4652 38.3772 17.5003L38.2494 17.5093L38.3445 18.7392ZM45.5724 19.3704C45.5109 19.5539 45.4863 19.7481 45.4998 19.9416C45.5133 20.135 45.5647 20.3237 45.651 20.4965C45.7373 20.6693 45.8567 20.8226 46.0022 20.9475C46.1477 21.0723 46.3162 21.1662 46.4979 21.2234C46.6782 21.2851 46.8689 21.3093 47.0586 21.2946C47.2483 21.2798 47.4331 21.2264 47.6022 21.1374C47.7713 21.0485 47.9211 20.9258 48.0429 20.7767C48.1646 20.6276 48.2558 20.4551 48.311 20.2694C48.5155 19.6203 48.0862 18.8246 47.3344 18.5774C46.5816 18.3302 45.7777 18.7212 45.5724 19.3704ZM61.3131 37.8382C61.1231 37.8415 60.9355 37.8836 60.7617 37.9621C60.5879 38.0406 60.4312 38.1539 60.301 38.2952C60.1709 38.4365 60.0698 38.603 60.0038 38.7849C59.9379 38.9668 59.9083 39.1603 59.9169 39.354C59.9212 39.5479 59.9635 39.739 60.0415 39.9159C60.1195 40.0928 60.2315 40.2519 60.371 40.3838C60.5104 40.5157 60.6744 40.6177 60.8532 40.6838C61.032 40.7498 61.222 40.7785 61.4119 40.7682C62.08 40.7449 62.6688 40.0634 62.6415 39.2587C62.6142 38.4531 61.9813 37.8139 61.3131 37.8382ZM40.7165 57.544L40.7156 22.4569C50.103 22.5522 57.7098 30.3705 57.7098 40.0004C57.7098 49.6304 50.1074 57.4478 40.6839 57.544H40.7165ZM23.4455 42.2149C24.0154 46.8024 26.3404 50.974 29.9136 53.8201L29.9109 42.2167H23.4455V42.2149ZM29.903 26.1889L29.9109 36.8987L23.5742 36.8969C24.327 32.5615 26.6416 28.798 29.903 26.1889ZM40.304 36.8978H35.1238L35.1282 23.3326C36.7992 22.7715 38.5449 22.4761 40.304 22.4569V36.8978ZM40.304 57.544C38.5423 57.5249 36.794 57.2283 35.1211 56.6647L35.1238 42.2158H40.304V57.544Z" fill="white"/>
<path d="M45.5486 29.8535H51.8033V29.1891H45.5486V29.8535V29.8535ZM45.5486 28.6353H51.8033V28.1264H45.5486V28.6353V28.6353ZM49.9576 27.8396C50.0609 27.8396 50.162 27.8083 50.248 27.7498C50.3339 27.6912 50.4009 27.6079 50.4405 27.5105C50.48 27.4131 50.4904 27.3059 50.4702 27.2025C50.45 27.099 50.4003 27.004 50.3272 26.9295C50.2541 26.8549 50.1609 26.8041 50.0595 26.7836C49.9581 26.763 49.853 26.7735 49.7575 26.8139C49.662 26.8543 49.5804 26.9226 49.523 27.0103C49.4655 27.0979 49.4349 27.201 49.4349 27.3065C49.4351 27.4478 49.4902 27.5833 49.5882 27.6832C49.6862 27.7831 49.819 27.8394 49.9576 27.8396V27.8396ZM47.6773 53.8102C46.9633 53.8102 46.386 53.2653 46.386 52.538C46.386 51.8124 46.9633 51.1786 47.6773 51.1786L50.1955 51.1795C50.4679 51.1795 50.6874 50.9547 50.6874 50.6769C50.6879 50.5429 50.6365 50.414 50.5444 50.3184C50.4523 50.2228 50.3269 50.1681 50.1955 50.1662H46.1559C45.5286 50.166 44.9271 49.9116 44.4836 49.4591C44.0401 49.0066 43.791 48.393 43.791 47.7531C43.791 46.4216 44.8496 45.3958 46.1559 45.3958L51.107 45.3922C51.4128 45.3922 51.6605 45.2285 51.6605 44.9184C51.6612 44.7673 51.6035 44.6221 51.4999 44.5142C51.3962 44.4063 51.255 44.3444 51.107 44.3421H46.1127C45.6382 44.3528 45.1663 44.2668 44.7248 44.089C44.2833 43.9112 43.8811 43.6452 43.5417 43.3067C43.2024 42.9682 42.9328 42.5639 42.7487 42.1177C42.5646 41.6714 42.4698 41.1922 42.4698 40.708C42.4698 40.2239 42.5646 39.7446 42.7487 39.2983C42.9328 38.8521 43.2024 38.4478 43.5417 38.1093C43.8811 37.7708 44.2833 37.5048 44.7248 37.327C45.1663 37.1492 45.6382 37.0632 46.1127 37.074L50.9122 37.0776C51.285 37.0776 51.5873 36.7467 51.5873 36.3664C51.5873 35.9852 51.285 35.6993 50.9122 35.6993L45.5036 35.702C45.7645 34.5503 46.5032 34.3723 47.1537 34.3732H49.6729C49.7415 34.3733 49.8096 34.3596 49.873 34.3328C49.9365 34.3061 49.9942 34.2668 50.0427 34.2173C50.0913 34.1677 50.1298 34.1089 50.156 34.0442C50.1822 33.9794 50.1957 33.9101 50.1955 33.84C50.1955 33.5469 49.962 33.3527 49.6729 33.3527H47.1537C46.0686 33.3527 45.5477 32.3781 45.5036 31.8477H48.1101C48.3269 31.1383 48.7614 30.7841 49.2392 30.7841H52.0193C52.9747 30.7841 53.3652 30.1637 53.4525 29.8976C54.1039 30.2078 56.4485 32.1129 56.4485 35.3028C56.4485 38.4927 53.6693 40.1317 51.9311 40.1443H46.1109C45.9644 40.1443 45.8238 40.2037 45.7202 40.3094C45.6165 40.4151 45.5583 40.5585 45.5583 40.708C45.5583 40.8575 45.6165 41.0009 45.7202 41.1066C45.8238 41.2123 45.9644 41.2717 46.1109 41.2717L51.5838 41.2672C53.3141 41.2672 54.7165 42.7543 54.7165 44.5183C54.7165 46.2831 53.3141 47.6695 51.5838 47.6695L46.371 47.6632C46.2325 47.6632 46.0996 47.7193 46.0017 47.8192C45.9037 47.9191 45.8487 48.0546 45.8487 48.1959C45.8487 48.3372 45.9037 48.4727 46.0017 48.5726C46.0996 48.6725 46.2325 48.7286 46.371 48.7286L50.3242 48.7322C51.2568 48.7322 52.0131 49.5036 52.0131 50.4557C52.0131 51.4087 51.2568 52.1676 50.3242 52.1676L47.9347 52.1747C47.8288 52.1747 47.7272 52.2177 47.6523 52.294C47.5774 52.3704 47.5354 52.474 47.5354 52.582C47.5354 52.69 47.5774 52.7936 47.6523 52.87C47.7272 52.9464 47.8288 52.9893 47.9347 52.9893H49.7698C50.4106 52.992 51.1272 53.9549 49.7487 54.4872C49.7601 54.2102 49.716 53.8111 49.1405 53.8111C48.5675 53.812 47.6773 53.8102 47.6773 53.8102V53.8102Z" fill="#151317"/>
<path d="M45.9505 33.8643C44.9298 34.3516 44.6803 35.8126 44.7332 36.3224L43.3009 37.3302C43.2546 37.3815 43.1987 37.4227 43.1364 37.4513C43.0742 37.4799 43.0069 37.4955 42.9386 37.4969C42.8703 37.4984 42.8025 37.4858 42.7391 37.4598C42.6757 37.4338 42.6182 37.3951 42.5698 37.3458C42.5215 37.2966 42.4834 37.2379 42.4579 37.1733C42.4324 37.1087 42.4199 37.0395 42.4213 36.9699C42.4226 36.9002 42.4377 36.8316 42.4657 36.7681C42.4938 36.7045 42.5341 36.6474 42.5843 36.6002L43.5071 35.9457C43.9628 35.6355 43.8764 35.1266 43.8112 34.7058C43.7469 34.2851 43.3123 34.4838 43.181 34.6393C42.9871 34.838 42.7182 34.9612 42.4212 34.9612C41.8271 34.9612 41.3458 34.4919 41.3458 33.8859C41.3459 33.669 41.409 33.4571 41.5271 33.2768C41.6452 33.0965 41.813 32.956 42.0094 32.8729C42.2058 32.7899 42.4219 32.7681 42.6304 32.8103C42.839 32.8525 43.0305 32.9568 43.181 33.11C43.3114 33.2655 43.7469 33.4651 43.8112 33.0435C43.8764 32.6227 43.9628 32.1129 43.5071 31.8027L42.5843 31.1491C42.5372 31.1011 42.4999 31.0441 42.4744 30.9814C42.4489 30.9187 42.4358 30.8515 42.4358 30.7836C42.4358 30.7158 42.4489 30.6486 42.4744 30.5858C42.4999 30.5231 42.5372 30.4662 42.5843 30.4182C42.6313 30.3702 42.6872 30.3321 42.7486 30.3061C42.8101 30.2802 42.876 30.2668 42.9426 30.2668C43.0091 30.2668 43.075 30.2802 43.1365 30.3061C43.198 30.3321 43.2538 30.3702 43.3009 30.4182L44.7332 31.426C44.6468 31.8486 44.9298 33.377 45.9505 33.8643V33.8643Z" fill="#151317"/>
</g>
<defs>
<clipPath id="clip0_13_6336">
<rect width="49.0196" height="50" fill="white" transform="translate(16 15)"/>
</clipPath>
</defs>
</svg>
