<svg width="80" height="80" viewBox="0 0 80 80" fill="none" xmlns="http://www.w3.org/2000/svg">
<path fill-rule="evenodd" clip-rule="evenodd" d="M53.6755 35.7505V31.7405H25.4359V35.7505H53.6755Z" fill="#151317"/>
<path fill-rule="evenodd" clip-rule="evenodd" d="M76.1148 30.0827C76.2244 29.8086 76.2634 29.4971 76.0968 29.2588C75.9242 29.012 75.6246 28.9684 75.3431 29.0183H45.858C44.8293 29.0183 44.0506 29.3282 43.5902 29.9047C43.5824 29.9144 43.5753 29.9247 43.5689 29.9354C43.3027 30.3804 43.0974 30.8516 43.1144 31.4636H36.0948C36.1117 30.8517 35.9071 30.3806 35.6404 29.9352C35.6287 29.9158 35.6147 29.8978 35.5987 29.8818C35.0532 29.3358 34.296 29.0183 33.351 29.0183H3.86632C3.58475 28.9684 3.28519 29.012 3.11265 29.2588C2.94617 29.4971 2.98517 29.8085 3.09447 30.0825C3.10058 30.0978 3.10804 30.1125 3.11676 30.1265L4.09375 31.6916C4.10487 31.7094 4.11798 31.7259 4.13283 31.7407L4.13787 31.7458C4.1857 31.7937 4.26175 31.8699 4.376 31.9269C4.49689 31.9873 4.63946 32.0173 4.81749 32.0173H5.18762L5.23285 32.1988C5.24053 32.2296 5.25346 32.2589 5.27107 32.2853L6.23952 33.7392C6.31446 33.8807 6.4332 34.0028 6.60094 34.0658C6.75929 34.1254 6.93242 34.1215 7.10676 34.0713H7.38225L8.07077 35.4491C8.10316 35.5637 8.19104 35.6322 8.23001 35.6599C8.2926 35.7043 8.37085 35.7413 8.44857 35.7737C8.60602 35.8394 8.83613 35.9159 9.12221 36.0111L9.12225 36.0111L9.12738 36.0128C9.132 36.0143 9.13665 36.0157 9.14134 36.017L21.8309 39.5075L22.6418 40.9503C22.7785 41.3263 23.1412 41.6715 23.6087 41.789L23.6097 41.7892L35.7246 44.9185C35.8116 44.941 35.9042 44.9198 35.9728 44.8617L39.4744 41.8959C39.5176 41.8962 39.5609 41.8963 39.6043 41.8963C39.6479 41.8963 39.6915 41.8962 39.735 41.8959L43.237 44.8617C43.3056 44.9198 43.3981 44.941 43.4852 44.9185L55.6001 41.7892L55.6012 41.7889C56.068 41.6715 56.4312 41.3265 56.5676 40.9502L57.3785 39.5075L70.0684 36.017C70.0732 36.0157 70.0779 36.0143 70.0826 36.0127L70.0939 36.0089C70.3769 35.9145 70.6048 35.8385 70.761 35.7734C70.8387 35.741 70.9169 35.7041 70.9794 35.6598C71.018 35.6325 71.1064 35.564 71.139 35.4491L71.8272 34.0713H72.1031C72.2771 34.1213 72.45 34.1251 72.6082 34.0657C72.7758 34.0028 72.8948 33.8809 72.9698 33.7392L73.9387 32.2854C73.9564 32.2588 73.9693 32.2295 73.977 32.1985L74.022 32.0173H74.3915C74.5696 32.0173 74.7123 31.9874 74.8332 31.9269C74.9472 31.8699 75.0231 31.7938 75.0708 31.7461L75.0761 31.7407C75.091 31.7259 75.1041 31.7094 75.1152 31.6916L76.0926 30.1265C76.1013 30.1126 76.1087 30.0979 76.1148 30.0827ZM40.5668 41.8748L43.1391 44.0533V41.5961C42.2987 41.7422 41.4416 41.8354 40.5668 41.8748ZM43.6927 41.4917V44.2931L45.7364 43.7652L45.2531 41.1077C44.7394 41.2566 44.2194 41.3847 43.6927 41.4917ZM45.7862 40.945L46.2739 43.6264L48.3103 43.1003L47.153 40.4513C46.7025 40.6327 46.2469 40.7973 45.7862 40.945ZM47.6638 40.2376L48.8532 42.9601L50.7107 42.4803L48.7389 39.7339C48.3837 39.9126 48.0254 40.0806 47.6638 40.2376ZM49.2353 39.476L51.2856 42.3318L53.0745 41.8698L50.3154 38.8575C49.9586 39.075 49.5986 39.2812 49.2353 39.476ZM50.7925 38.5586L53.6817 41.7129L55.4636 41.2527L55.4655 41.2522C55.5722 41.2254 55.6684 41.1797 55.751 41.123L51.6351 37.9884C51.4261 38.1394 51.2125 38.286 50.9938 38.4277C50.9268 38.4717 50.8597 38.5154 50.7925 38.5586ZM52.0952 37.6429L56.084 40.6807L56.7824 39.438L52.8856 36.9886C52.6293 37.2134 52.3662 37.4318 52.0952 37.6429ZM53.3124 36.6029L57.129 39.0019L59.3096 38.4021L53.851 36.084C53.6746 36.2598 53.4952 36.4329 53.3124 36.6029ZM54.2672 35.6592L60.1692 38.1657L63.213 37.3285L54.5248 35.3862C54.4396 35.4778 54.3537 35.5688 54.2672 35.6592ZM54.9545 34.915L64.3508 37.0155L68.8035 35.7907L55.3033 34.5188C55.188 34.6516 55.0717 34.7837 54.9545 34.915ZM55.0697 33.9407L53.7019 33.8119L53.65 34.3631L54.6229 34.4547C53.9088 35.2596 53.1624 36.0253 52.3499 36.7201L51.55 35.6797L51.1111 36.0172L51.9231 37.0733C51.678 37.2696 51.4266 37.4592 51.1681 37.6415L49.9016 35.6974L49.4377 35.9996L50.7097 37.9521C50.7038 37.9559 50.6979 37.9597 50.692 37.9635L50.6904 37.9646C50.3941 38.1594 50.0956 38.3461 49.7949 38.5245L48.3519 35.7217L47.8597 35.9752L49.3147 38.8012C48.9835 38.9866 48.6495 39.162 48.3128 39.3275L46.6977 35.735L46.1928 35.962L47.8125 39.565C47.3662 39.7695 46.915 39.9568 46.4586 40.1266L44.9469 35.8537L44.4249 36.0383L45.937 40.3122C45.3969 40.4958 44.8496 40.6552 44.2948 40.7902L43.2964 35.7942L42.7535 35.9027L43.7548 40.9133C43.2399 41.0229 42.7186 41.1117 42.1906 41.1795L41.737 35.8251L41.1853 35.8718L41.6403 41.2423C41.0796 41.2984 40.5114 41.331 39.9354 41.3401L39.8811 41.2941V35.7505H39.3274V41.2948L39.274 41.3401C38.6996 41.3311 38.1312 41.2986 37.569 41.2427L38.0237 35.8718L37.472 35.8251L37.0187 41.1802C36.4915 41.1128 35.9699 41.0244 35.4542 40.9151L36.4559 35.9027L35.9129 35.7942L34.9141 40.7924C34.3594 40.6579 33.8115 40.4987 33.271 40.3149L34.784 36.0383L34.262 35.8537L32.7495 40.1291C32.2911 39.9582 31.8382 39.7693 31.3907 39.5623L32.9218 35.9567L32.4122 35.7403L30.8911 39.3225C30.5572 39.1564 30.2265 38.98 29.899 38.7934L31.3493 35.9751L30.857 35.7218L29.421 38.5124C29.1168 38.3279 28.8154 38.1344 28.517 37.9319L29.8677 35.904L29.4069 35.5971L28.0612 37.6175C27.802 37.4344 27.5485 37.2469 27.3007 37.055L28.0983 36.0171L27.6593 35.6798L26.8674 36.7102C26.016 36.014 25.2352 35.2621 24.5248 34.4519L25.462 34.3631L25.4098 33.8119L24.0893 33.937C23.9138 33.7221 23.7431 33.5032 23.577 33.2804L25.4491 33.1907L25.4226 32.6377L23.1918 32.7446C23.0268 32.5064 22.8669 32.264 22.712 32.0173H56.4648C56.3104 32.2652 56.1504 32.5084 55.9843 32.7471L53.6887 32.6377L53.6624 33.1907L55.5954 33.2828C55.4261 33.5064 55.251 33.7257 55.0697 33.9407ZM55.7352 34.0034L70.2529 35.3712C70.3757 35.3289 70.4731 35.2936 70.548 35.2624C70.5874 35.246 70.6146 35.233 70.6328 35.2235L71.2299 34.028L56.2606 33.3145C56.0916 33.5484 55.9165 33.778 55.7352 34.0034ZM56.6331 32.778L72.1548 33.5178C72.1812 33.5188 72.2073 33.5235 72.2324 33.5318C72.3357 33.5663 72.3903 33.5562 72.4136 33.5474C72.4347 33.5394 72.4598 33.5218 72.4833 33.4748C72.4884 33.4645 72.4942 33.4546 72.5006 33.4451L73.4512 32.0184L73.4515 32.0173H57.1133C56.9592 32.2754 56.7992 32.529 56.6331 32.778ZM57.4314 31.4636H74.3915C74.5067 31.4636 74.5598 31.4446 74.5856 31.4317C74.6094 31.4198 74.6276 31.4052 74.6627 31.371L75.6092 29.8553C75.684 29.6568 75.6474 29.5822 75.6431 29.5761C75.642 29.5745 75.6407 29.573 75.6376 29.5709C75.6341 29.5687 75.6261 29.5642 75.6106 29.5603C75.5781 29.552 75.5181 29.5475 75.4232 29.5665C75.4053 29.5701 75.3871 29.5719 75.3689 29.5719H58.3542C58.0729 30.226 57.7668 30.8567 57.4314 31.4636ZM56.796 31.4636C57.143 30.8593 57.4595 30.2288 57.7502 29.5719H45.858C44.9435 29.5719 44.3572 29.8424 44.0341 30.2361C43.8026 30.6265 43.6517 30.9925 43.6684 31.4636H56.796ZM21.7392 31.4636H4.81749C4.7025 31.4636 4.64938 31.4446 4.62346 31.4317C4.59955 31.4197 4.5812 31.405 4.54629 31.371L3.60023 29.8554C3.52561 29.6569 3.5621 29.5822 3.56646 29.576C3.56755 29.5745 3.56888 29.5729 3.57197 29.5709C3.57538 29.5686 3.58339 29.5642 3.59881 29.5603C3.63129 29.552 3.69124 29.5475 3.78612 29.5665C3.80403 29.5701 3.82224 29.5719 3.8405 29.5719H20.7999C21.0855 30.2267 21.3986 30.8571 21.7392 31.4636ZM22.377 31.4636C22.0244 30.8582 21.7005 30.2279 21.4054 29.5719H33.351C34.1491 29.5719 34.753 29.8314 35.1831 30.2495C35.4104 30.6346 35.5572 30.9976 35.5409 31.4636H22.377ZM22.0617 32.0173C22.2171 32.2745 22.3777 32.5273 22.5434 32.7756L7.05191 33.5179C7.02652 33.5191 7.00139 33.5238 6.97724 33.5319C6.87352 33.5665 6.81896 33.5563 6.79579 33.5476C6.77477 33.5397 6.74969 33.5221 6.72605 33.4748C6.72093 33.4645 6.71518 33.4546 6.70884 33.4451L5.75846 32.0183L5.75821 32.0173H22.0617ZM22.9145 33.3121L7.97945 34.0278L8.57724 35.224C8.59532 35.2335 8.62246 35.2464 8.66166 35.2627C8.73639 35.2939 8.83361 35.3291 8.95623 35.3712L23.4301 33.9995C23.2534 33.7744 23.0815 33.5453 22.9145 33.3121ZM23.8499 34.5159L10.4041 35.7901L14.9017 37.0273L24.1904 34.9097C24.0752 34.7799 23.9616 34.6486 23.8499 34.5159ZM24.6213 35.3793L16.0305 37.3378L19.0422 38.1662L24.9443 35.7123C24.8352 35.6025 24.7276 35.4915 24.6213 35.3793ZM25.3747 36.133L19.9102 38.405L22.0804 39.0019L25.8917 36.6068C25.7162 36.4514 25.5439 36.2935 25.3747 36.133ZM26.3307 36.9847L22.4269 39.4381L23.1255 40.6809L27.1362 37.6264C26.8611 37.4178 26.5926 37.2039 26.3307 36.9847ZM27.6003 37.9689L23.4587 41.1231C23.5413 41.1798 23.6374 41.2254 23.7443 41.2522L23.7462 41.2527L25.5279 41.7129L28.4276 38.5383C28.3225 38.4689 28.2178 38.3983 28.1134 38.3267C27.94 38.2093 27.7689 38.09 27.6003 37.9689ZM28.9001 38.8419L26.1346 41.8696L27.9207 42.3309L29.9105 39.4342C29.5702 39.2474 29.2334 39.05 28.9001 38.8419ZM30.4025 39.6958L28.4911 42.4783L30.3554 42.9598L31.5447 40.2386C31.16 40.0704 30.7792 39.8895 30.4025 39.6958ZM32.0551 40.4532L30.8984 43.1001L32.9355 43.6262L33.4222 40.9479C32.9614 40.8002 32.5056 40.6354 32.0551 40.4532ZM33.9554 41.1104L33.473 43.7651L35.5166 44.2929V41.4934C34.9903 41.3869 34.4698 41.2592 33.9554 41.1104ZM36.0703 41.5973V44.0536L38.6426 41.8749C37.7712 41.8358 36.9134 41.7432 36.0703 41.5973ZM70.6642 35.2042C70.6643 35.2043 70.6629 35.2055 70.6595 35.2079L70.6589 35.2084C70.6621 35.2056 70.6641 35.2042 70.6642 35.2042ZM8.54601 35.2048C8.54566 35.2047 8.54697 35.2059 8.55049 35.2084L8.55108 35.2088C8.5482 35.2063 8.54635 35.2049 8.54601 35.2048Z" fill="white"/>
<path fill-rule="evenodd" clip-rule="evenodd" d="M15.4685 47.0585L17.7163 52.2423H16.9344L16.1529 50.2862H14.2964L13.5145 52.2423H13.026L15.2734 47.0585H15.4685V47.0585ZM16.0549 49.8948L15.175 48.0359L14.3935 49.8948H16.0549ZM20.6477 51.8509C20.3546 52.1443 19.8657 52.3398 19.3772 52.3398L18.6933 52.2427L18.2048 51.8513L18.3027 51.2644H18.4003C18.6933 51.7534 19.0842 52.0468 19.5727 52.0468C19.8657 52.0468 20.0612 51.9497 20.2567 51.6562C20.4522 51.4608 20.5497 51.1665 20.5497 50.8739C20.5497 50.5796 20.4522 50.3842 20.2567 50.1891L19.4752 49.7977C19.0842 49.7006 18.7912 49.5043 18.6933 49.4072C18.4003 49.1137 18.3027 48.8203 18.3027 48.5269C18.3027 48.0371 18.4978 47.7437 18.7912 47.4503C19.0846 47.1569 19.3777 47.0597 19.8662 47.0597C20.3551 47.0597 20.6481 47.1569 20.9411 47.4503L20.7456 48.0371C20.5501 47.5482 20.2571 47.3532 19.7686 47.3532C19.4756 47.3532 19.2801 47.4503 19.1826 47.6466C18.9871 47.7437 18.8892 47.94 18.8892 48.2335C18.8892 48.5269 18.9867 48.8203 19.1826 49.0158L20.062 49.3092C20.3555 49.5047 20.6485 49.7006 20.844 49.7981C21.0394 49.9944 21.137 50.2879 21.137 50.6784C21.1384 50.8967 21.0958 51.113 21.0117 51.3145C20.9276 51.5159 20.8038 51.6984 20.6477 51.8509V51.8509ZM25.4359 47.3519L25.5334 47.6454L23.97 47.5474V52.2423H23.286V47.5474L21.6246 47.6454L21.7222 47.3519L21.6246 47.1556H25.5334L25.4359 47.3519V47.3519ZM26.9989 51.4603C27.3899 51.8509 27.8784 52.0464 28.3668 52.0464C29.0508 52.0464 29.6373 51.7529 30.0282 51.1661C30.3216 50.6772 30.5167 50.1887 30.4188 49.6998C30.4188 49.015 30.3212 48.4281 30.0282 48.0363C29.6373 47.5474 29.1488 47.254 28.4644 47.254C27.7804 47.254 27.2915 47.5474 26.901 48.0363C26.5795 48.5672 26.4104 49.1763 26.412 49.7969C26.4129 50.4817 26.6084 51.0685 26.9989 51.4603V51.4603ZM25.631 49.6994C25.631 48.9162 25.9244 48.2322 26.4125 47.7425C26.9014 47.2536 27.5853 47.0585 28.3668 47.0585C29.1488 47.0585 29.8327 47.254 30.3212 47.6454C30.9073 48.1343 31.2007 48.7211 31.2007 49.6014C31.2007 50.4817 30.9073 51.0685 30.4188 51.5575C29.9303 52.0464 29.2463 52.3398 28.3668 52.3398C27.5853 52.3398 26.9014 52.1443 26.4125 51.6558C25.9248 51.1661 25.631 50.4817 25.631 49.6994ZM36.5754 52.2423H36.2819L32.7641 48.2322H32.6666V52.2423H32.276V47.1556H32.5691L36.0869 50.9702V47.1556H36.5754V52.2423V52.2423ZM40.4837 47.156C41.3632 48.8195 42.0476 50.0903 42.6344 51.069L44.7843 47.156H44.8814L45.4674 52.2427H44.7843L44.3937 48.4281C43.5143 50.0907 42.8299 51.3624 42.5365 52.1447H42.4385L41.9504 51.3624L40.4841 48.4281L40.1915 52.2427H39.6047L40.3866 47.156H40.4837ZM50.3536 52.2423H49.9631L49.1807 50.2862H47.2263L46.5424 52.2423H45.9563L48.3013 47.0585H48.4976L50.6466 52.2423H50.3536V52.2423ZM48.9852 49.8948L48.2037 48.0359L47.4214 49.8948H48.9852ZM52.1129 47.4495V49.5035L53.0899 49.4063C53.3825 49.3084 53.5788 49.21 53.7739 49.1129L54.0673 48.4281C54.0673 47.8413 53.7739 47.5478 53.1879 47.4499H52.1129V47.4495ZM53.0895 47.156C54.1644 47.156 54.6533 47.5474 54.6533 48.3297C54.6533 48.7211 54.4579 49.0146 54.1644 49.308C53.8718 49.5035 53.5784 49.6014 53.1874 49.6994L55.141 52.2423H54.3595L52.4051 49.7965H52.1125V52.2423H51.5257V47.1556H53.0895V47.156V47.156ZM56.8028 52.2423V47.5474L55.239 47.6454V47.1556H58.9522V47.6454L57.4868 47.5474V52.2423H56.8028ZM60.5165 47.156V52.2427H59.8325V47.156H60.5165ZM66.2813 52.2423H65.9879L62.4705 48.2322H62.3725V52.2423H61.982V47.1556H62.1775L65.7928 50.9702V47.1556H66.2817V52.2423H66.2813V52.2423Z" fill="white"/>
<path fill-rule="evenodd" clip-rule="evenodd" d="M27.3625 32.4967L28.4905 35.0981H28.0979L27.7057 34.1165H26.774L26.3818 35.0981H26.1369L27.2645 32.4967H27.3625V32.4967ZM27.6567 33.9194L27.2156 32.9872L26.8234 33.9194H27.6567ZM29.9614 34.9014C29.8145 35.0483 29.5692 35.1466 29.3239 35.1466L28.9807 35.0977L28.7354 34.9009L28.7848 34.6067H28.8338C28.9807 34.8524 29.177 34.9993 29.4219 34.9993C29.5688 34.9993 29.6672 34.9503 29.7651 34.803C29.8631 34.7046 29.912 34.5577 29.912 34.4104C29.912 34.263 29.8631 34.1651 29.7651 34.0667L29.3729 33.8704C29.1766 33.8214 29.0297 33.7231 28.9807 33.6741C28.8338 33.5272 28.7848 33.3799 28.7848 33.2325C28.7848 32.9872 28.8823 32.8403 29.0297 32.6926C29.1766 32.5456 29.3239 32.4962 29.5692 32.4962C29.8145 32.4962 29.9614 32.5452 30.1088 32.6926L30.0108 32.9872C29.9129 32.7419 29.7655 32.6436 29.5207 32.6436C29.3733 32.6436 29.2754 32.6926 29.2264 32.7909C29.1285 32.8403 29.0795 32.9383 29.0795 33.0852C29.0795 33.2321 29.1285 33.3798 29.2264 33.4778L29.6676 33.6247C29.8145 33.7227 29.9618 33.821 30.0598 33.87C30.1577 33.9684 30.2067 34.1153 30.2067 34.3116C30.2067 34.5581 30.1088 34.754 29.9614 34.9014V34.9014ZM32.364 32.6436L32.413 32.7909L31.6286 32.7419V35.0977H31.2854V32.7419L30.452 32.7909L30.501 32.6436L30.452 32.5456H32.413L32.364 32.6436ZM33.1485 34.705C33.3448 34.9014 33.5896 34.9993 33.8349 34.9993C34.1782 34.9993 34.4724 34.8524 34.6683 34.5577C34.8152 34.3124 34.9136 34.0667 34.8646 33.8214C34.8646 33.4778 34.8156 33.1831 34.6683 32.9872C34.472 32.7419 34.2271 32.5946 33.8839 32.5946C33.5407 32.5946 33.2954 32.7419 33.0991 32.9872C32.9522 33.2325 32.8542 33.5272 32.8542 33.8704C32.8542 34.2137 32.9526 34.5087 33.1485 34.705V34.705ZM32.462 33.8219C32.462 33.4292 32.6089 33.0856 32.8542 32.8403C33.0991 32.5946 33.4423 32.4967 33.8349 32.4967C34.2275 32.4967 34.5704 32.5946 34.8156 32.7909C35.1095 33.0362 35.2568 33.3309 35.2568 33.7725C35.2568 34.2141 35.1099 34.5087 34.8646 34.754C34.6193 34.9993 34.2765 35.1466 33.8349 35.1466C33.4427 35.1466 33.0991 35.0483 32.8542 34.8034C32.6093 34.5581 32.462 34.2141 32.462 33.8219V33.8219ZM37.9533 35.0977H37.8064L36.0412 33.0852H35.9923V35.0977H35.7959V32.5456H35.9429L37.708 34.4598V32.5456H37.9529V35.0977H37.9533V35.0977ZM39.9147 32.5456C40.3555 33.3803 40.6996 34.0178 40.9938 34.5087L42.0729 32.5456H42.1215L42.4157 35.0977H42.0729L41.8766 33.1835C41.435 34.0178 41.0918 34.6561 40.9444 35.0483H40.8959L40.6502 34.6561L39.9151 33.1835L39.7682 35.0977H39.474L39.8666 32.5456H39.9147ZM44.8669 35.0977H44.6714L44.2792 34.1161H43.2985L42.9548 35.0977H42.6606L43.8376 32.4962H43.9356L45.0147 35.0977H44.8669ZM44.1809 33.9194L43.7886 32.9872L43.3964 33.9194H44.1809V33.9194ZM45.7497 32.6926V33.7231L46.2402 33.6741C46.3876 33.6251 46.4851 33.5762 46.5831 33.5272L46.7304 33.1835C46.7304 32.8893 46.5831 32.7419 46.2896 32.6926H45.7497ZM46.2398 32.5456C46.779 32.5456 47.0247 32.7419 47.0247 33.1346C47.0247 33.3309 46.9267 33.4782 46.779 33.6255C46.632 33.7235 46.4847 33.7725 46.2892 33.8219L47.2691 35.0981H46.8769L45.897 33.8708H45.7497V35.0981H45.4554V32.5461H46.2398V32.5456ZM48.1033 35.0977V32.7419L47.3185 32.7909V32.5456H49.1812V32.7909L48.4461 32.7419V35.0977H48.1033ZM49.9664 32.5456V35.0977H49.6232V32.5456H49.9664ZM52.8592 35.0977H52.7118L50.9471 33.0852H50.8977V35.0977H50.7014V32.5456H50.7994L52.6135 34.4598V32.5456H52.8592V35.0977Z" fill="white"/>
</svg>
