<svg width="80" height="80" viewBox="0 0 80 80" fill="none" xmlns="http://www.w3.org/2000/svg">
<g clip-path="url(#clip0_13_6364)">
<path d="M40 17.6C27.6296 17.6 17.6 27.6296 17.6 40C17.6 52.3704 27.6296 62.4 40 62.4C52.3704 62.4 62.4 52.3704 62.4 40C62.4 27.6296 52.3704 17.6 40 17.6ZM40 19.056C51.5659 19.056 60.9421 28.4323 60.9421 40C60.9421 51.5659 51.5677 60.9421 40 60.9421C28.4323 60.9421 19.0579 51.5659 19.0579 40C19.0579 28.4341 28.4341 19.056 40 19.056ZM38.7344 20.232C38.1184 20.2581 37.5024 20.3104 36.8827 20.3776L36.6829 25.8731C37.1225 25.7987 37.5645 25.7402 38.0083 25.6976L38.1389 21.9867L38.1147 21.7309L38.1949 21.9736L39.4344 24.7531H40.5656L41.8051 21.9755L41.8797 21.7309L41.8611 21.9867L41.9917 25.6976C42.4248 25.7387 42.8747 25.7984 43.3171 25.8731L43.1136 20.3776C42.4982 20.3083 41.8806 20.2597 41.2619 20.232L40.0429 23.2653L40 23.4893L39.9571 23.2653L38.7344 20.232ZM51.2336 23.6368L48.3533 28.1691C48.7173 28.4491 49.1971 28.8616 49.5051 29.1435L52.2173 27.736L52.3891 27.6072L52.2603 27.7827L50.8565 30.4949C51.1608 30.8216 51.5995 31.3499 51.8459 31.6709L56.3819 28.7888C56.1037 28.4289 55.8174 28.0754 55.5232 27.7285L52.6504 29.6213L52.4544 29.7931L52.6 29.5784L53.8693 27.0472L52.9733 26.1512L50.4421 27.4205L50.2275 27.5661L50.3973 27.3683L52.2976 24.4955C51.9616 24.2117 51.6424 23.9523 51.2336 23.6368ZM27.8667 24.6653C27.1947 24.7344 26.6757 25.1936 25.2664 26.7653C24.7777 27.3192 24.3065 27.8882 23.8533 28.4715L27.7248 32.1432C29.0072 30.7245 29.528 30.1981 30.5397 29.1323C31.2547 28.3763 31.6597 27.5083 30.9429 26.6739C30.5547 26.2221 29.9013 26.1232 29.3563 26.3472L29.304 26.3659L29.3227 26.3173C29.39 26.0697 29.3829 25.8076 29.3022 25.564C29.2215 25.3203 29.0709 25.1058 28.8691 24.9472C28.7288 24.8366 28.568 24.7549 28.3959 24.7068C28.2238 24.6588 28.044 24.6453 27.8667 24.6672V24.6653ZM27.8779 25.8133C28.1317 25.7443 28.3949 25.9253 28.4528 26.1867C28.5125 26.448 28.3483 26.6944 28.1653 26.8997C27.7547 27.3664 26.2408 28.9493 26.2408 28.9493L25.4904 28.2344C26.2688 27.2824 27.0976 26.4163 27.4728 26.0728C27.5854 25.9555 27.7242 25.8665 27.8779 25.8133V25.8133ZM40 26.7149C36.7117 26.7135 33.5398 27.9321 31.0983 30.1349C28.6569 32.3378 27.1196 35.3681 26.784 38.6392V38.6429C26.5731 40.7183 26.8535 42.8142 27.6026 44.7611C28.3516 46.708 29.5483 48.4513 31.0959 49.8501C32.6435 51.2488 34.4986 52.2638 36.5111 52.8128C38.5236 53.3619 40.637 53.4297 42.6805 53.0107C45.6759 52.3949 48.3669 50.764 50.2988 48.3934C52.2306 46.0228 53.2848 43.058 53.2832 40C53.2797 36.4783 51.8791 33.1019 49.3887 30.6118C46.8983 28.1218 43.5217 26.7216 40 26.7187V26.7149ZM29.6643 27.1667C29.752 27.1667 29.8435 27.1909 29.9256 27.2469C30.0899 27.3571 30.1645 27.5456 30.1235 27.7323C30.0749 27.9544 29.8901 28.1635 29.7408 28.3259L27.7901 30.4165L27.0061 29.6699C27.0061 29.6699 28.4752 28.1168 28.9568 27.6184C29.1472 27.4205 29.2704 27.3011 29.4011 27.2357C29.482 27.1937 29.5713 27.1701 29.6624 27.1667H29.6643ZM40 28.4603C41.5159 28.4586 43.0173 28.7559 44.4181 29.3352C45.8189 29.9145 47.0918 30.7644 48.1637 31.8363C49.2356 32.9083 50.0855 34.1811 50.6648 35.5819C51.2441 36.9827 51.5415 38.4841 51.5397 40H40V51.5397C38.4841 51.5415 36.9827 51.2441 35.5819 50.6648C34.1811 50.0855 32.9083 49.2356 31.8363 48.1637C30.7644 47.0918 29.9145 45.8189 29.3352 44.4181C28.7559 43.0173 28.4586 41.5159 28.4603 40H40V28.4603Z" fill="white"/>
</g>
<defs>
<clipPath id="clip0_13_6364">
<rect width="44.8" height="44.8" fill="white" transform="translate(17.6 17.6)"/>
</clipPath>
</defs>
</svg>
