<svg width="80" height="80" viewBox="0 0 80 80" fill="none" xmlns="http://www.w3.org/2000/svg">
<path d="M44.9268 65.1376C44.5427 65.4419 44.0646 65.4712 43.8587 65.205C43.6529 64.938 43.7984 64.4758 44.1825 64.1724C44.5667 63.8682 45.0448 63.8389 45.2506 64.105C45.4565 64.372 45.311 64.8342 44.9268 65.1376ZM37.8946 66.3441C37.7686 66.2545 37.5761 66.1835 37.2674 66.1933C36.9081 66.2048 36.5346 66.369 36.1913 66.5473C34.6806 67.3306 32.8744 69.064 32.0156 70.3841C31.6253 70.9838 31.6253 71.2508 31.738 71.3484C31.8391 71.4371 32.1514 71.3892 32.594 71.1346C33.9363 70.3628 36.3004 68.0084 37.8946 66.3441V66.3441ZM30.1642 66.337C30.0471 66.2377 29.8856 66.2031 29.5778 66.2048C29.2194 66.2066 28.7794 66.3503 28.4316 66.5189C26.9022 67.2623 24.9169 69.072 24.0235 70.3699C23.6172 70.9598 23.6146 71.2544 23.7317 71.3715C23.8301 71.469 24.138 71.3883 24.5868 71.1452C25.9477 70.408 28.5275 67.9605 30.1642 66.337V66.337ZM44.7494 69.5528C47.5652 67.6784 50.0065 65.2796 51.0986 63.7457C51.6903 62.9145 51.347 62.5357 50.4847 63.0804C48.2128 64.5175 45.3136 67.5861 44.7494 69.5528ZM62.0617 66.337C61.9446 66.2377 61.7831 66.2031 61.4753 66.2048C61.1169 66.2066 60.6769 66.3503 60.3291 66.5189C58.8006 67.2623 56.8143 69.072 55.921 70.3699C55.5147 70.9598 55.512 71.2544 55.6291 71.3715C55.7276 71.469 56.0354 71.3883 56.4843 71.1452C57.8452 70.408 60.4258 67.9605 62.0617 66.337V66.337ZM69.9881 69.6407L70.0875 70.0514C69.5206 70.6653 68.1198 71.6234 66.5807 71.9871C65.2988 72.2905 64.3442 72.0962 63.7916 71.532C63.3214 71.0521 63.238 70.2679 63.5183 69.4624C60.8986 71.9224 59.3985 72.1761 58.8831 71.721C58.4378 71.328 58.5708 70.4125 59.0969 69.7099C58.3109 70.3832 57.4424 71.0681 56.7496 71.4735C55.6229 72.1317 55.0037 71.8745 54.8893 71.1523C54.8316 70.7833 54.9922 70.2883 55.2787 69.7693C53.0387 71.7015 51.3408 72.0927 50.349 71.776C49.9267 71.6411 49.6357 71.2845 49.5 70.8019C46.5742 72.3562 44.1772 72.2604 43.66 70.7549C41.8787 71.7325 40.1577 72.1734 39.4834 71.7476C38.9592 71.4167 38.7241 70.738 39.2555 69.6602C37.4173 71.3369 35.8028 72.2861 34.9671 71.7414C34.4561 71.4087 34.6158 70.377 35.1126 69.677C34.3434 70.3699 33.5504 71.0326 32.8682 71.4548C31.7584 72.1415 31.0966 71.8851 30.991 71.1612C30.9333 70.7638 31.0992 70.2297 31.3813 69.6859C29.034 71.8478 27.5055 72.2124 26.9821 71.697C26.5563 71.2774 26.668 70.4196 27.1994 69.709C26.4134 70.3823 25.5449 71.0672 24.8521 71.4726C23.7254 72.1308 23.1062 71.8736 22.9918 71.1514C22.9253 70.7327 23.1426 70.1517 23.5046 69.5582C20.4954 72.0155 16.742 74.0036 14.2128 74C11.0635 73.9956 10.1613 71.7325 11.2959 69.0206C11.6854 68.0909 12.4368 67.0485 13.3922 66.0744C10.533 65.889 9.21474 65.2308 8.67714 64.2363C8.30721 63.5514 8.46867 62.3024 9.81799 61.174C11.8672 59.46 15.7591 58.3635 18.7487 58.0273C19.4229 57.9519 20.0111 57.9262 20.334 57.9315L20.6081 58.4318C17.9627 58.187 13.0915 59.4476 11.0218 61.3177C9.59887 62.604 9.69645 63.7883 10.3982 64.5282C10.8994 65.0569 11.7528 65.4827 13.9005 65.5812C14.1259 65.3727 14.3592 65.1687 14.6005 64.9708C18.9155 61.4481 25.8812 58.2943 30.5625 57.6459C31.785 57.4764 32.924 57.5412 33.1538 58.4026C33.4395 59.4671 32.3421 61.126 28.5168 63.0334C25.2123 64.6808 19.7919 66.1144 15.2587 66.1285C14.2643 67.1612 13.457 68.1902 12.8573 69.1962C11.453 71.5551 12.1041 73.497 14.3388 73.505C17.457 73.5165 21.6939 70.6538 24.4857 68.1884C25.0088 67.7225 25.578 67.3111 26.1846 66.9607C26.9457 66.4949 27.651 66.1782 28.3554 65.9848C29.6364 65.6335 31.0025 65.6486 31.8639 66.1986C31.7983 66.243 31.6634 66.3281 31.5605 66.4124C29.8067 67.8558 28.0067 69.8394 27.5383 70.652C27.3751 70.935 27.3192 71.1896 27.446 71.3227C27.8178 71.7165 29.7313 70.7638 32.4157 68.1574C32.7096 67.8683 33.0281 67.6053 33.3676 67.3714C34.2778 66.675 35.2164 66.1933 35.9598 65.9902C37.1743 65.6575 37.9824 65.7107 38.4943 65.897C39.3362 65.0862 40.823 63.7218 41.9168 62.698C42.4491 62.6963 42.8377 62.6998 43.3824 62.6776C43.2892 62.7388 43.2067 62.7903 43.1207 62.8684C42.3107 63.6011 40.6438 65.0897 39.2519 66.4036C37.5477 68.0119 36.0396 69.6283 35.5047 70.5722C35.2971 70.9394 35.2261 71.1931 35.3938 71.3289C35.7921 71.65 37.4954 70.7726 40.0148 68.436C40.8681 67.5351 41.7541 66.6657 42.6709 65.8296C43.1872 65.8305 43.6316 65.8305 44.179 65.8189C44.0156 65.9228 43.8602 66.0388 43.7141 66.1658C42.6168 67.1789 40.7822 68.8857 40.0849 69.8997C39.5243 70.7159 39.6307 71.0956 39.8756 71.2756C40.3351 71.6145 42.018 71.1825 43.6166 70.2971C43.5722 69.6611 43.81 68.8201 44.2837 67.9995C45.0945 66.5952 46.9406 64.5796 49.8735 62.9012C50.7455 62.4026 51.4162 62.2385 51.7409 62.5499C52.0496 62.8471 51.9742 63.4725 51.4641 64.239C50.0163 66.4151 47.3913 68.3898 44.6066 70.1996C44.4398 71.2898 46.0641 72.1628 49.4263 70.3202C49.3962 69.6691 49.6135 68.86 50.1671 67.9915C51.2006 66.3716 53.1984 64.3685 55.8039 62.887C56.6768 62.3902 57.3191 62.203 57.6713 62.5463C57.9871 62.8551 57.9117 63.4707 57.4007 64.2381C56.0354 66.29 53.9649 67.9117 50.4714 70.2519C50.2815 71.1772 50.9291 71.7973 52.7096 70.9057C53.6553 70.432 54.8893 69.536 56.5846 68.0501C56.707 67.9436 56.8418 67.8363 56.9625 67.7431C57.0796 67.6446 57.1967 67.5515 57.312 67.4708C58.381 66.7194 59.3178 66.2439 60.2528 65.9875C61.5338 65.6362 62.9009 65.6513 63.7614 66.2013C63.6957 66.2456 63.5609 66.3308 63.4589 66.4151C61.705 67.8584 59.9086 69.8092 59.4402 70.6405C59.2796 70.9261 59.2379 71.1807 59.3675 71.3102C59.6451 71.5897 61.2757 71.0902 64.2014 68.2497C64.6521 67.8123 64.9351 67.5435 65.2926 67.2729C66.2702 66.4994 67.3019 65.9635 68.3248 65.6672C69.4275 65.3479 70.5248 65.3816 70.6632 66.211C70.8282 67.202 69.6759 68.074 68.5412 68.4759L68.5049 68.0438C69.3476 67.4814 70.0795 66.5828 69.7459 66.1064C69.5472 65.8251 68.9777 65.8651 68.1482 66.2412C67.2212 66.6617 65.7086 68.0075 64.9297 69.2415C64.4063 70.0718 64.291 70.9101 64.6946 71.3058C65.1001 71.7032 65.7415 71.7378 66.5124 71.5666C67.6035 71.3253 69.1187 70.5056 69.9881 69.6407V69.6407ZM15.7981 65.5892C20.5478 65.4401 24.5984 64.0332 28.8974 61.9475C31.604 60.6346 32.8327 59.2746 32.6561 58.5427C32.508 57.9306 31.5934 57.9324 30.6184 58.0788C26.0914 58.7592 19.6802 62.085 16.6329 64.8076C16.341 65.0675 16.066 65.3284 15.7981 65.5892ZM50.6018 69.6158C53.4326 67.7307 56.0496 65.1811 57.1168 63.6198C57.5994 62.9136 57.1896 62.5942 56.5446 62.9926C54.2825 64.3898 51.2121 67.5754 50.6018 69.6158Z" fill="white"/>
<path d="M56.6812 17.6254C56.6066 17.6153 49.0012 16.5654 39.5639 15.6243C30.1286 16.5654 22.5252 17.6153 22.4506 17.6254L21.9347 17.6979L24.9797 22.9113C25.0039 23.6126 25.1813 28.3504 25.679 32.4635C25.9632 34.8132 26.475 36.0526 29.9311 37.2758C33.0628 38.3822 34.3707 38.7449 35.6362 39.0956C36.1602 39.2406 36.5189 39.3555 36.8655 39.4664C37.4902 39.6659 38.0787 39.8533 39.4873 40.1697L39.5699 40.1858L39.6445 40.1697C41.0552 39.8533 41.6436 39.6659 42.2683 39.4664C42.6149 39.3555 42.9737 39.2427 43.4976 39.0956C44.7612 38.7449 46.069 38.3822 49.2027 37.2758C52.6608 36.0546 53.1727 34.8132 53.4568 32.4635C53.9526 28.3504 54.1319 23.6126 54.1561 22.9113L57.2011 17.6999L56.6812 17.6254V17.6254ZM45.6398 23.3869V19.5157H53.2956L52.5379 20.8135H45.8433V22.0085H51.8366L51.6754 22.2846L51.6472 23.5884H45.8433V27.5645L51.5666 27.5624L51.5625 27.7619H39.6707V30.5913H51.5061L51.5021 30.7888H39.6647V32.8887H51.3912C51.3892 32.9088 51.361 33.0398 51.3509 33.0841L39.6667 33.0862V37.173H39.4652L39.4631 31.9294H33.49V36.0042C32.6517 35.838 31.8213 35.6342 31.0012 35.3936C29.9674 35.0712 29.2863 34.791 28.8268 34.521H33.2925V33.324H27.8454C27.8133 33.1991 27.7844 33.0735 27.7587 32.9471C27.6969 32.5442 27.6633 32.1375 27.658 31.7299H33.2905V27.7539H27.5733C27.573 27.6874 27.5716 27.6209 27.5693 27.5544H39.4672V24.7391L27.5129 24.7411C27.5126 24.6753 27.5112 24.6094 27.5088 24.5436L39.4652 24.5416V22.4438L27.4645 22.4498C27.4645 22.4498 27.4544 22.2725 27.4403 22.2503L39.4652 22.2443V19.5157H39.6707V23.3869H45.6398V23.3869ZM39.8259 37.173V33.2554H51.3348C51.1353 34.0273 50.698 34.6016 48.1427 35.3976C46.996 35.7543 45.3174 36.0868 43.8261 36.3669C42.3147 36.6511 40.9242 36.909 39.8259 37.173V37.173ZM51.5101 30.4059H39.838V27.9453H51.5605L51.5101 30.4059ZM25.8423 19.5157H39.2979V22.0669C38.9513 22.0669 29.3931 22.0609 27.3275 22.0669L25.8423 19.5157V19.5157ZM39.2999 27.375H27.5653L27.5169 24.9265L39.2999 24.9245V27.375ZM35.7692 38.6119C34.5117 38.2633 33.2119 37.9025 30.0984 36.8022C26.8781 35.6636 26.4468 34.6399 26.1768 32.403C25.677 28.2698 25.4997 23.4312 25.4815 22.8932L25.4755 22.7662L22.7469 18.0929C28.3173 17.3496 33.8995 16.6979 39.4913 16.1381V19.3141H25.4916L27.261 22.341L27.2872 23.4897L27.3698 27.6612L27.4323 30.688C27.4484 31.6574 27.4645 32.4816 27.5592 32.9894C27.7849 34.0635 28.0187 34.6842 30.9367 35.5891C32.0693 35.9417 33.6875 36.2662 35.2755 36.5644C36.8514 36.8587 38.3245 37.1408 39.4873 37.4269V39.6457C38.6518 39.4698 37.8264 39.2492 37.0146 38.9847C36.668 38.8759 36.3053 38.759 35.7692 38.6119ZM53.6543 22.7662L53.6503 22.8932C53.6322 23.4312 53.4528 28.2698 52.953 32.403C52.683 34.6379 52.2537 35.6616 49.0314 36.8022C45.9159 37.9025 44.6161 38.2633 43.3606 38.6119C42.8245 38.761 42.4638 38.8759 42.1132 38.9867C41.5207 39.1762 40.9544 39.3555 39.6385 39.6477V37.431C40.8053 37.1448 42.2784 36.8607 43.8583 36.5664C45.4463 36.2682 47.0646 35.9417 48.1971 35.5911C51.1151 34.6862 51.3469 34.0656 51.5746 32.9914C51.6693 32.4836 51.6855 31.6614 51.7016 30.6901L51.764 27.6632H51.7661L51.8487 23.4917L51.8749 22.343L53.6443 19.3162H39.6385V16.1381C48.0722 16.9785 55.0549 17.9115 56.3829 18.0929L53.6543 22.7662Z" fill="white"/>
<path d="M39.4974 46.3141H39.6485V51.5395H39.4974V46.3141Z" fill="white"/>
<path d="M39.6043 51.3964L39.4653 51.3944C32.8211 51.0579 26.5638 48.4018 21.8421 43.9119C17.0399 39.3434 14.41 33.3844 14.4423 27.1312C14.4946 16.3638 20.6491 8.57097 31.7772 5.18742C32.1621 5.22974 32.6175 5.35266 32.9944 5.51187L33.0367 5.53L32.8614 5.58643C30.2597 6.38647 27.8636 7.51298 25.7456 8.92767L25.7235 8.89945C26.2676 8.38154 26.6444 7.89587 27.0112 7.24697L26.8822 7.32758L26.7956 7.37393L26.1305 7.73063C25.4171 8.10949 24.8509 8.40774 24.2987 8.89945C23.5772 9.54231 23.2286 10.2738 22.9203 10.9187L22.7248 11.3157C22.1182 11.884 21.5419 12.4845 21.0119 13.1032C20.4694 13.7358 19.9666 14.4015 19.5065 15.0963L19.4743 15.0781C19.9237 14.0443 20.1131 13.1878 20.2924 12.2629L20.1433 12.4402L20.0426 12.543L20.0164 12.5651L20.0103 12.5732L19.831 12.7505C19.0732 13.5022 18.4747 14.0967 18.0354 15.4368C17.8784 15.918 17.8028 16.422 17.8117 16.9281C17.8117 17.0954 17.8157 17.2566 17.8218 17.4178C17.8258 17.5669 17.8298 17.71 17.8298 17.8531C17.8298 17.978 17.8278 18.101 17.8177 18.2239C17.0056 20.1222 16.4897 22.1536 16.2902 24.2615H16.2559C16.1391 23.2539 15.9134 22.5788 15.7139 21.9823C15.6108 21.6747 15.5167 21.3643 15.4317 21.0512L15.337 21.3979C15.075 22.349 14.9279 23.0584 14.9279 23.8242C14.9279 24.2393 14.9702 24.6706 15.065 25.1683C15.2483 26.1437 15.6736 26.9437 16.0141 27.5886L16.264 28.0743C16.4575 30.5026 17.062 32.8463 18.0555 35.0429L18.0253 35.059L17.7351 34.6278C17.1547 33.7935 16.7195 33.4045 16.2983 33.0257C16.0282 32.7839 15.7723 32.5561 15.4982 32.2256L15.472 32.1934L15.4579 32.1773L15.3531 32.0443C15.3057 31.9758 15.2627 31.9045 15.2242 31.8307C15.4075 33.465 15.7904 34.4222 16.7678 35.6979C17.4369 36.5725 18.2994 37.0481 18.9301 37.3947L19.0833 37.4793C19.2486 37.568 19.4057 37.6526 19.5186 37.7353C20.5517 39.3432 21.7818 40.8156 23.1802 42.1184L23.1601 42.1466L22.622 41.8262C21.9715 41.4513 21.2742 41.164 20.5484 40.9717C20.1897 40.8669 19.8491 40.7682 19.4561 40.5908L19.0611 40.4014C19.9418 41.8262 20.7056 42.5053 22.1747 43.1723C23.0855 43.5854 23.8896 43.6781 24.5345 43.7527L24.6635 43.7668C24.8972 43.793 25.1169 43.8152 25.266 43.8676C26.7965 45.0152 28.4473 45.993 30.1892 46.7836L30.1791 46.8158C29.6717 46.661 29.1519 46.5504 28.6254 46.4854C28.0126 46.4028 27.3919 46.396 26.7774 46.4652C26.3283 46.522 25.8738 46.52 25.4252 46.4592L25.2761 46.441C26.6202 47.3378 27.6883 47.769 28.9418 47.9162C30.0824 48.0492 30.8441 47.9303 31.4588 47.8356L31.6321 47.8073C31.9424 47.757 32.2367 47.7106 32.545 47.7227C33.7924 48.154 35.066 48.4905 36.3336 48.7243L36.3316 48.7585C36.0917 48.7547 35.8518 48.758 35.6122 48.7686C34.4453 48.819 33.7743 49.0366 33.0649 49.2643C32.7651 49.3647 32.462 49.4548 32.156 49.5344L31.8719 49.5989L31.7873 49.615H31.7913L31.5978 49.6573C33.126 50.1986 34.761 50.3685 36.3679 50.1531C37.4379 50.0059 38.1433 49.6936 38.766 49.4195C39.0138 49.3107 39.2355 49.214 39.4612 49.1334L39.6063 49.1253L39.6023 48.9258H39.4673C38.1359 48.8525 36.8128 48.6698 35.5114 48.3797C35.2212 48.0774 35.0056 47.8013 34.796 47.5373C34.4171 47.0577 34.0242 46.5599 33.1878 45.8828C32.7264 45.51 31.6825 44.9538 29.9977 44.182L29.7882 44.0812C30.1912 44.716 31.1625 45.9412 31.9606 46.6143C32.6719 47.2128 33.2019 47.5957 33.7319 47.89L33.7158 47.9242C31.5634 47.2854 29.5008 46.376 27.5775 45.2178C27.3751 44.8228 27.1823 44.423 26.9991 44.0187C26.7091 43.3585 26.3779 42.717 26.0076 42.0982C25.5139 41.3002 24.2483 40.1414 23.7264 39.6799L23.5974 39.559L23.7586 40.1031C23.9884 40.9113 24.3047 42.0196 24.7682 42.735C25.0705 43.2005 25.3426 43.5653 25.6247 43.8817L25.6005 43.9079C24.9736 43.4485 24.3677 42.961 23.7848 42.4468C22.9082 41.671 22.092 40.8327 21.3504 39.948L21.1912 38.761C21.1026 38.0416 21.0199 37.3624 20.8406 36.5644C20.631 35.6354 19.8289 34.1522 19.4944 33.5557L19.4178 33.3965L19.3957 33.8822C19.3755 34.3013 19.3513 34.8293 19.3513 35.3513C19.3513 35.8591 19.3735 36.3629 19.4481 36.7538C19.5045 37.0541 19.575 37.3322 19.6657 37.6002L19.6335 37.6143C18.5461 35.9206 17.713 34.0765 17.1608 32.141L17.2273 31.8407L17.4731 30.8855C17.6747 30.1419 17.8661 29.4366 17.9326 28.6204C17.9487 28.4108 17.9588 28.175 17.9588 27.9252C17.9588 27.1574 17.8802 26.2344 17.7351 25.3275L17.715 25.1986L17.6364 25.3779C17.3321 26.1054 16.7638 27.4617 16.6106 28.3484C16.5802 28.5234 16.5567 28.6995 16.5401 28.8763H16.5119C16.2509 26.7399 16.3182 24.576 16.7114 22.4599C16.9204 22.0466 17.1863 21.6647 17.5014 21.3253C17.7895 20.9928 18.118 20.618 18.6077 19.8522C19.1095 19.0703 19.5589 18.0909 19.9821 16.8636C19.9107 16.9326 19.8401 17.0024 19.7705 17.0732C19.6294 17.2082 19.4662 17.3432 19.2969 17.4843C18.8677 17.841 18.3316 18.2823 17.8016 19.0139L17.6041 19.304L17.5739 19.2899C18.2192 17.5185 19.1179 15.85 20.2421 14.3365C20.6794 14.0403 20.9615 13.875 21.2819 13.7299C21.7474 13.5204 22.2291 13.3027 22.9545 12.7425C23.6977 12.1526 24.3771 11.4866 24.9819 10.7555L24.7985 10.8441C24.5269 10.9574 24.249 11.0549 23.9662 11.1363C23.5369 11.2714 23.1641 11.3842 22.5374 11.7711L22.5152 11.7449L22.5495 11.7127C22.5495 11.7127 22.5958 11.6664 22.6019 11.6744L23.0654 11.227C24.1377 10.2549 25.2966 9.38276 26.5275 8.62135L27.3981 8.40572C28.1155 8.22839 28.7926 8.06112 29.6693 7.71047C30.6527 7.3175 31.1061 7.08777 31.4729 6.90438L31.5414 6.87013C31.8397 6.721 32.3253 6.47514 32.7586 6.30989H32.4966H32.4382C31.9041 6.31795 31.4003 6.3905 30.699 6.56381V6.5618L30.691 6.56381V6.55172L30.6769 6.53157C31.4003 6.24138 32.152 5.97738 32.9097 5.74362L32.9299 5.73959L33.2543 5.64286L33.2604 5.64084L33.2684 5.64487C33.5284 5.78392 33.7602 5.94917 33.9395 6.12449L33.9597 6.14465L33.9315 6.15271C29.1433 7.84952 25.6126 10.1227 22.8195 13.3088C19.8148 16.7367 18.1724 20.884 18.0717 25.2973C17.9467 30.7989 20.1715 36.0163 24.335 39.9883C28.2969 43.7688 33.6715 46.1387 39.4673 46.6607H39.6003V46.1851C33.8791 45.6893 28.577 43.3638 24.6695 39.6376C20.6048 35.7603 18.4344 30.6719 18.5573 25.3094C18.6561 21.0109 20.2562 16.9704 23.1843 13.6292C25.9008 10.5298 29.3226 8.27272 34.4353 6.48723L34.4332 6.48119C34.4085 6.42919 34.3795 6.37931 34.3466 6.33206L34.3405 6.32199C34.2677 6.2153 34.1862 6.11487 34.0967 6.02172C33.8452 5.77657 33.5552 5.57437 33.2382 5.4232C32.8544 5.24052 32.4477 5.11037 32.0291 5.03627L31.8638 5.01008L31.757 5C26.3502 6.64241 22.1908 9.27429 19.2405 12.7606C15.9637 16.6339 14.2871 21.4684 14.2589 27.1312C14.2266 33.4489 16.8867 39.4683 21.7474 44.0751C26.5215 48.5993 32.8432 51.2655 39.5499 51.5839H39.5942L39.6043 51.3964V51.3964ZM16.2418 28.03L16.1935 27.8808L16.2398 27.9997C16.2416 28.0097 16.2423 28.0198 16.2418 28.03V28.03ZM38.6874 49.2563C38.0768 49.5263 37.3855 49.8306 36.3417 49.9737C35.0276 50.1547 33.6904 50.0656 32.412 49.7117C34.5116 49.7006 36.6081 49.5485 38.6874 49.2563V49.2563ZM31.8135 45.7659C32.8654 46.6284 33.9556 47.5071 35.1083 48.2648C33.9839 47.9464 33.1153 47.3519 32.0754 46.4753C31.491 45.9815 30.8482 45.2238 30.3968 44.6293C30.8623 44.9941 31.3278 45.3689 31.8135 45.7659V45.7659ZM31.7208 47.6119L31.4326 47.6542C30.6184 47.8051 29.7862 47.8323 28.9639 47.7348C27.9483 47.6159 27.114 47.3277 26.0802 46.7252C27.9342 47.2128 28.9942 47.3176 30.1086 47.4265C30.6084 47.4748 31.1222 47.5252 31.7208 47.6119V47.6119ZM24.0831 40.4538C24.8751 41.7697 26.0076 43.654 27.0575 44.8631C26.1467 44.2545 25.5844 43.654 24.9234 42.6383C24.5264 42.0257 24.2382 41.1027 24.0186 40.345L24.0831 40.4538ZM24.3914 43.5492C23.7888 43.4766 23.0614 43.3718 22.2512 43.003C21.0623 42.463 20.3408 41.9048 19.6516 40.9495C20.7821 41.7838 22.8618 42.9204 24.3914 43.5492ZM18.8314 37.1327C18.2389 36.8022 17.4953 36.3488 16.9129 35.587C16.125 34.5573 15.7663 33.8157 15.5426 32.669C16.3527 34.253 17.6908 35.986 18.8314 37.1327ZM19.5609 34.3336C19.8733 35.8389 20.3509 37.9267 20.9958 39.4784C20.3227 38.6623 19.8612 37.9549 19.6294 36.7216C19.5594 36.2785 19.5284 35.83 19.5367 35.3815C19.5367 35.0228 19.5488 34.662 19.5609 34.3336V34.3336ZM17.4772 26.6012C17.2817 27.8748 17.0459 29.4184 17.0459 31.3793L17.0479 31.5002C16.8545 30.815 16.7053 30.156 16.7053 29.4043C16.7053 29.0819 16.7336 28.7433 16.796 28.3766C16.9109 27.7176 17.2615 26.7825 17.5578 26.055L17.4772 26.6012V26.6012ZM16.2015 27.5483C15.7884 26.0188 15.4962 23.3929 15.472 21.8311L15.5405 22.0407C15.7723 22.734 16.0343 23.5219 16.1209 24.8116C16.1572 25.3416 16.1632 25.783 16.1693 26.2042C16.1688 26.6524 16.1796 27.1006 16.2015 27.5483V27.5483ZM19.4743 17.6979C19.1417 18.5362 18.8294 19.167 18.4525 19.7534C17.9689 20.5071 17.6465 20.8779 17.3623 21.2044C17.2615 21.3213 17.1608 21.4382 17.058 21.5651C17.6988 20.1766 18.4022 19.1932 19.0873 18.244L19.4743 17.6979V17.6979ZM18.0999 17.45C18.5029 15.8117 19.1176 14.3144 19.964 12.9158C19.7524 13.9798 19.3764 15.0044 18.8495 15.9527C18.4868 16.6399 18.2752 17.0631 18.0999 17.45V17.45ZM24.1556 11.4064C23.7444 11.8327 23.3047 12.2306 22.8397 12.5974C22.1343 13.1455 21.6628 13.3571 21.2053 13.5647C21.0844 13.6191 20.9615 13.6755 20.8365 13.736C21.953 12.7646 23.0916 12.0613 23.8876 11.5716L24.1556 11.4064V11.4064ZM24.5566 9.68136C23.9702 10.1751 23.5772 10.5136 23.2286 10.828C24.1818 9.61083 25.272 8.75637 26.0419 8.15785L26.3663 7.90393C25.9129 8.52059 25.4091 8.95991 24.5566 9.68136ZM31.5736 6.65047L31.3882 6.74115C30.8072 7.03768 30.2112 7.30405 29.6028 7.53918C29.0467 7.76108 28.4765 7.94555 27.8959 8.09135C28.1397 7.98454 28.3795 7.87774 28.6133 7.77093C29.6209 7.31549 30.5217 6.91043 31.5736 6.65047V6.65047Z" fill="white"/>
<path d="M39.5901 51.5839H39.6344C46.3411 51.2675 52.6628 48.6013 57.4369 44.0751C62.2976 39.4663 64.9557 33.4489 64.9255 27.1312C64.8972 21.4684 63.2206 16.6339 59.9438 12.7606C56.9935 9.27429 52.8361 6.64442 47.4293 5L47.3225 5.01008L47.1552 5.03627C46.7562 5.10681 46.3088 5.24586 45.9481 5.42118C45.6314 5.57289 45.3415 5.77503 45.0896 6.0197C44.9994 6.11274 44.9172 6.21318 44.8438 6.31997L44.8377 6.33005C44.8048 6.37798 44.7758 6.42853 44.7511 6.48119L44.7491 6.48723C49.8617 8.27272 53.2835 10.5318 56 13.6292C58.9302 16.9704 60.5303 21.0109 60.627 25.3094C60.7499 30.6719 58.5775 35.7603 54.5148 39.6376C50.6093 43.3638 45.3073 45.6893 39.5861 46.1851L39.584 46.6607H39.7171C45.5128 46.1387 50.8874 43.7688 54.8494 39.9883C59.0128 36.0163 61.2376 30.7989 61.1106 25.2993C61.0099 20.886 59.3675 16.7387 56.3648 13.3108C53.5717 10.1247 50.041 7.85154 45.2529 6.15472L45.2267 6.14666L45.2468 6.12651C45.4262 5.95118 45.6579 5.78594 45.9179 5.64689L45.9239 5.64286L45.93 5.64487L46.2544 5.7416L46.2726 5.74563C47.0303 5.9794 47.784 6.24541 48.5054 6.53358L48.4933 6.55374V6.56583L48.4853 6.56381V6.56583C47.9177 6.41291 47.3338 6.32834 46.7461 6.31392H46.6877H46.4257C46.857 6.47917 47.3447 6.72301 47.6449 6.87416L47.7114 6.90841C48.0762 7.0918 48.5296 7.32154 49.5151 7.7145C50.3937 8.06515 51.0708 8.23242 51.7862 8.40976L52.6548 8.62337C53.9042 9.39721 55.067 10.2738 56.1169 11.2291L56.5804 11.6764C56.5865 11.6684 56.6348 11.7147 56.6348 11.7147L56.6671 11.747L56.6469 11.7711C56.0202 11.3842 55.6474 11.2694 55.2181 11.1363C54.9723 11.0598 54.7163 10.9812 54.3859 10.8441L54.2045 10.7555C54.8071 11.4885 55.4868 12.1547 56.2318 12.7425C56.9553 13.3027 57.4389 13.5204 57.9044 13.7299C58.2248 13.875 58.507 14.0383 58.9443 14.3365C60.0677 15.8505 60.9663 17.5189 61.6124 19.2899L61.5802 19.304L61.3827 19.0118C60.8527 18.2803 60.3187 17.839 59.8894 17.4823C59.726 17.351 59.5673 17.2139 59.4138 17.0712L59.2042 16.8616C59.6274 18.0889 60.0789 19.0703 60.5786 19.8502C61.0683 20.6139 61.3968 20.9908 61.685 21.3213C61.957 21.6357 62.1928 21.9057 62.477 22.4558C62.866 24.5738 62.9326 26.7385 62.6745 28.8763H62.6382C62.6213 28.6996 62.5984 28.5235 62.5697 28.3484C62.4165 27.4617 61.8482 26.1054 61.5439 25.3779L61.4653 25.1986L61.4452 25.3275C61.2981 26.2344 61.2215 27.1574 61.2215 27.9252C61.2215 28.1771 61.2295 28.4108 61.2457 28.6204C61.3122 29.4366 61.5016 30.1419 61.7051 30.8855L61.953 31.8407L62.0195 32.141C61.4673 34.0765 60.6342 35.9206 59.5468 37.6143L59.5146 37.6002C59.6053 37.3322 59.6778 37.0541 59.7342 36.7538C59.8077 36.2901 59.8401 35.8207 59.831 35.3513C59.831 34.8293 59.8068 34.3013 59.7887 33.8822L59.7665 33.3965L59.6879 33.5557C59.3514 34.1522 58.5513 35.6354 58.3417 36.5644C58.1624 37.3624 58.0777 38.0416 57.9891 38.761L57.8299 39.948C57.0819 40.8405 56.2681 41.6758 55.3955 42.4468C54.8272 42.9507 54.2166 43.4424 53.5818 43.9079L53.5576 43.8817C53.8397 43.5653 54.1118 43.2026 54.4141 42.735C54.8776 42.0216 55.194 40.9133 55.4237 40.1031L55.5849 39.559L55.4559 39.6799C54.934 40.1414 53.6684 41.3002 53.1747 42.0982C52.7676 42.7552 52.4835 43.3678 52.1832 44.0187C52.0039 44.4056 51.8185 44.8067 51.6048 45.2178C49.6819 46.3755 47.6201 47.2849 45.4685 47.9242L45.4544 47.89C45.9844 47.5957 46.5144 47.2149 47.2258 46.6143C48.0238 45.9412 48.9951 44.716 49.3982 44.0812L49.1886 44.182C47.5039 44.9538 46.46 45.51 45.9985 45.8828C45.1602 46.5579 44.7692 47.0577 44.3883 47.5373C44.1788 47.8033 43.9631 48.0794 43.6729 48.3797C42.3489 48.6739 41.0209 48.8553 39.7171 48.9258H39.582L39.578 49.1253L39.7231 49.1334C39.9488 49.214 40.1725 49.3107 40.4183 49.4195C41.039 49.6956 41.7444 50.0059 42.8144 50.1531C44.4219 50.3685 46.0576 50.1986 47.5865 49.6573L47.391 49.615H47.395L47.3104 49.5989L47.0263 49.5324C46.7201 49.4534 46.417 49.3633 46.1174 49.2623C45.406 49.0346 44.737 48.817 43.5702 48.7666C43.3305 48.756 43.0906 48.7527 42.8507 48.7565L42.8467 48.7222C44.1335 48.4837 45.4006 48.1489 46.6373 47.7207C46.9436 47.7086 47.2379 47.757 47.5502 47.8053L47.7235 47.8335C48.3382 47.9282 49.0999 48.0471 50.2405 47.9141C51.496 47.767 52.5641 47.3358 53.9082 46.439L53.7571 46.4571C53.1545 46.5357 52.7898 46.4995 52.4049 46.4632C51.7911 46.394 51.1711 46.4007 50.5589 46.4833C50.0327 46.5496 49.5129 46.6601 49.0052 46.8138L48.9931 46.7816C50.7351 45.9897 52.3864 45.0121 53.9183 43.8656C54.0674 43.8152 54.2871 43.791 54.5189 43.7648L54.6498 43.7507C55.2947 43.6761 56.0968 43.5834 57.0077 43.1703C58.4767 42.5033 59.2405 41.8241 60.1212 40.3994L59.7262 40.5888C59.3725 40.7438 59.0073 40.8712 58.6339 40.9697C58.0556 41.139 57.4591 41.3123 56.5603 41.8241L56.0222 42.1446L56.0021 42.1163C57.3999 40.8131 58.63 39.3407 59.6637 37.7332C59.8039 37.6388 59.95 37.5533 60.101 37.4773L60.2542 37.3927C60.8829 37.0461 61.7475 36.5705 62.4165 35.6959C63.3919 34.4202 63.7748 33.461 63.9622 31.8226C63.9237 31.8964 63.8806 31.9678 63.8332 32.0362L63.7284 32.1692C63.7235 32.1744 63.7188 32.1798 63.7143 32.1853L63.6881 32.2176C63.412 32.5501 63.1561 32.7778 62.8881 33.0176C62.4669 33.3965 62.0296 33.7854 61.4512 34.6197L61.159 35.051L61.1288 35.0349C62.1243 32.8383 62.7248 30.4946 62.9203 28.0662C62.9203 28.0602 63.1702 27.5806 63.1702 27.5806C63.5108 26.9377 63.936 26.1356 64.1194 25.1603C64.2121 24.6645 64.2564 24.2333 64.2564 23.8161C64.2564 23.0503 64.1073 22.341 63.8473 21.3898L63.7546 21.0432C63.6683 21.356 63.5736 21.6665 63.4705 21.9742C63.2037 22.7109 63.0218 23.4755 62.9284 24.2534H62.8941C62.7008 22.1739 62.1855 20.1371 61.3666 18.2158C61.3584 18.0951 61.3544 17.9741 61.3545 17.8531C61.3545 17.71 61.3585 17.5669 61.3646 17.4198C61.3686 17.2586 61.3746 17.0974 61.3746 16.9301C61.3746 16.4787 61.3363 15.9971 61.153 15.4368C60.7116 14.0967 60.1131 13.5042 59.3554 12.7505L59.178 12.5752L59.17 12.5672L59.1438 12.543L59.043 12.4402L58.8939 12.2629C59.0733 13.1878 59.2627 14.0463 59.7121 15.0781L59.6798 15.0963C59.219 14.4019 58.7163 13.7363 58.1745 13.1032C57.6363 12.4761 57.0638 11.8794 56.4595 11.3157L56.264 10.9187C55.9557 10.2738 55.6071 9.54231 54.8836 8.89945C54.3314 8.40774 53.7672 8.10747 53.0518 7.73063L52.3888 7.37393L52.3021 7.32758L52.1731 7.24697C52.5399 7.89587 52.9168 8.38154 53.4609 8.89945L53.4387 8.92767C51.2403 7.47527 48.8427 6.34979 46.3209 5.58643L46.1476 5.53202L46.192 5.51388C46.5688 5.35266 47.0222 5.23175 47.4092 5.18943C58.5352 8.57299 64.6897 16.3658 64.7441 27.1332C64.7763 33.3864 62.1465 39.3454 57.3442 43.9139C52.6225 48.4038 46.3653 51.0619 39.7211 51.3964L39.582 51.3985L39.5901 51.5839V51.5839ZM62.9445 27.9997C62.9606 27.9614 62.9767 27.9231 62.9908 27.8808L62.9425 28.03L62.9445 27.9997ZM46.7723 49.7117C45.4943 50.0676 44.1567 50.1567 42.8427 49.9737C41.7988 49.8306 41.1055 49.5243 40.4949 49.2563C42.3731 49.5344 44.6161 49.6956 46.7723 49.7117V49.7117ZM48.7876 44.6293C48.3341 45.2238 47.6933 45.9815 47.1089 46.4753C46.069 47.3519 45.2005 47.9464 44.076 48.2648C45.2267 47.5071 46.3169 46.6284 47.3709 45.7659C47.8565 45.3689 48.322 44.9941 48.7876 44.6293V44.6293ZM49.0757 47.4244C50.4373 47.3152 51.7858 47.0804 53.1042 46.7231C52.0704 47.3257 51.2381 47.6139 50.2204 47.7328C49.106 47.8617 48.3865 47.7509 47.7538 47.6522L47.4656 47.6098C48.0621 47.5252 48.576 47.4748 49.0757 47.4244V47.4244ZM55.1657 40.347C54.9461 41.1047 54.6579 42.0277 54.2609 42.6403C53.5999 43.656 53.0377 44.2565 52.1268 44.8651C53.1767 43.656 54.3093 41.7697 55.1013 40.4558L55.1657 40.347V40.347ZM59.5327 40.9495C58.8435 41.9048 58.1241 42.463 56.9331 43.003C56.123 43.3718 55.3955 43.4766 54.7929 43.5492C56.3245 42.9204 58.4022 41.7838 59.5327 40.9495ZM63.6418 32.669C63.4181 33.8157 63.0573 34.5593 62.2714 35.587C61.689 36.3488 60.9454 36.8022 60.3529 37.1327C61.4955 35.986 62.8337 34.253 63.6418 32.669V32.669ZM59.6476 35.3815C59.6476 35.8692 59.6234 36.3488 59.5549 36.7216C59.3231 37.9549 58.8617 38.6623 58.1886 39.4784C58.8334 37.9267 59.311 35.8389 59.6234 34.3336C59.6375 34.662 59.6476 35.0228 59.6476 35.3815V35.3815ZM61.6265 26.0571C61.9228 26.7845 62.2754 27.7196 62.3883 28.3786C62.4508 28.7454 62.479 29.0839 62.479 29.4063C62.479 30.156 62.3299 30.817 62.1364 31.5022L62.1384 31.3813C62.1384 29.4184 61.9026 27.8748 61.7071 26.6032C61.6807 26.4211 61.6539 26.239 61.6265 26.0571V26.0571ZM63.011 26.6092L63.013 26.2021C63.017 25.783 63.0271 25.3396 63.0614 24.8096C63.146 23.5199 63.41 22.7339 63.6418 22.0387L63.7103 21.8291C63.6841 23.3889 63.3939 26.0167 62.9808 27.5463C63.0009 27.2259 63.009 26.9175 63.011 26.6092V26.6092ZM60.099 18.244C60.7822 19.1952 61.4855 20.1766 62.1263 21.5651C62.0235 21.4382 61.9228 21.3213 61.822 21.2044C60.9124 20.1724 60.1969 18.9845 59.7101 17.6979C59.839 17.8833 59.97 18.0647 60.099 18.244V18.244ZM60.3348 15.9527C59.8091 15.0046 59.4332 13.9808 59.2204 12.9178C60.0668 14.3164 60.6834 15.8117 61.0844 17.4521C60.8512 16.9442 60.6011 16.4441 60.3348 15.9527V15.9527ZM55.2967 11.5716C56.0948 12.0613 57.2313 12.7646 58.3478 13.736C58.2259 13.6767 58.1029 13.6196 57.979 13.5647C57.3932 13.3181 56.8434 12.9934 56.3446 12.5994C55.8802 12.2326 55.4413 11.8347 55.0307 11.4084L55.2967 11.5716ZM52.818 7.90393L53.1445 8.15785C53.9143 8.75436 55.0025 9.61083 55.9577 10.828C55.5216 10.4383 55.0789 10.056 54.6297 9.68136C53.7752 8.95991 53.2714 8.52059 52.818 7.90393V7.90393ZM50.571 7.77093C50.8048 7.87774 51.0446 7.98454 51.2885 8.09135C50.7085 7.94552 50.1389 7.76105 49.5836 7.53918C48.6082 7.15024 48.1568 6.92252 47.7961 6.74115C47.7356 6.70971 47.6744 6.67947 47.6127 6.65047C48.6626 6.91043 49.5654 7.31549 50.571 7.77093Z" fill="white"/>
<path d="M54.1581 49.8991H53.5193V49.6775H55.0428V49.8991H54.41V51.6201H54.1581V49.8991ZM56.0766 51.6181L55.5466 50.0422V51.6181H55.2907V49.6775H55.6454L56.2036 51.3279L56.7638 49.6775H57.1185V51.6181H56.8626V50.0422L56.3326 51.6181H56.0766V51.6181Z" fill="white"/>
</svg>
