<svg width="80" height="80" viewBox="0 0 80 80" fill="none" xmlns="http://www.w3.org/2000/svg">
<g clip-path="url(#clip0_13_6406)">
<path d="M13.3017 30.0017C10.8338 30.0487 7.8619 30.4772 6.13586 31.513C5.0229 32.1877 3.65445 33.5615 3.2345 35.6766C2.81456 37.7917 3.00868 39.8517 3.42285 41.9689C3.83702 44.0861 4.6666 46.4563 6.96468 47.6772C9.26276 48.8981 10.804 49.0429 13.9537 49.0338C17.1033 49.0429 18.6446 48.8981 20.9427 47.6772C23.2408 46.4563 24.0703 44.0861 24.4845 41.9689C24.8987 39.8517 25.0928 37.7917 24.6729 35.6766C24.2529 33.5615 22.8845 32.1877 21.7715 31.513C19.529 30.2794 17.0618 30.0428 14.6057 30.0017C14.1584 30.0047 13.7159 29.9967 13.3017 30.0017ZM16.5153 30.5711C17.4266 30.658 19.7069 30.8347 21.4135 31.8522C23.1202 32.8697 23.883 34.1637 24.2017 35.733C24.5205 37.3024 24.4927 39.2872 24.0511 41.7993C23.6095 44.3114 22.3738 46.4015 20.6976 47.2818C19.0215 48.162 16.8936 48.6278 13.9537 48.5824C11.0138 48.6278 8.88588 48.162 7.20972 47.2818C5.53356 46.4015 4.29785 44.3114 3.85624 41.7993C3.41463 39.2872 3.38689 37.3024 3.70561 35.733C4.02432 34.1637 4.78718 32.8697 6.49381 31.8522C8.20044 30.8347 10.4807 30.658 11.392 30.5711C13.0939 30.4298 14.8348 30.4187 16.5153 30.5711ZM13.3884 31.0078C11.9895 31.0252 10.4919 31.1964 9.467 31.4167C8.29571 31.6684 7.89524 31.7573 6.88516 32.3615C5.87507 32.9658 4.63304 34.1961 4.25191 36.0905C3.87078 37.9849 4.04707 39.8302 4.42296 41.7265C4.79885 43.6228 5.55167 45.7458 7.63734 46.8392C11.1037 48.6446 16.8907 48.5727 20.27 46.8392C22.3557 45.7458 23.1085 43.6228 23.4844 41.7265C23.8603 39.8302 24.0366 37.9849 23.6554 36.0905C23.2743 34.1961 22.0323 32.9658 21.0222 32.3615C20.0121 31.7573 19.6116 31.6684 18.4404 31.4167C17.4155 31.1964 15.9179 31.0252 14.519 31.0078C14.1311 31.0108 13.7476 31.0036 13.3884 31.0078ZM16.1398 31.9188C16.5202 31.9545 17.1775 32.0089 17.9207 32.1521C18.0307 32.1747 18.0927 32.2103 18.0685 32.3149C16.8733 35.2137 15.5967 38.1137 14.265 41.0125C14.0855 41.3969 13.8587 41.4117 13.675 41.0836C12.3315 38.1611 11.0438 35.2374 9.83888 32.3149C9.81471 32.2103 9.87661 32.1747 9.98663 32.1521C10.7298 32.0089 11.3872 31.9545 11.7675 31.9188C13.2199 31.7993 14.7105 31.7912 16.1398 31.9188ZM8.78496 32.4672C8.85301 32.4655 8.8758 32.5105 8.87337 32.5955L8.87433 32.5929V37.4707C8.87433 39.0102 9.12603 39.7323 9.80693 40.9875L13.0701 46.9966C13.1815 47.2089 13.0008 47.1951 12.8044 47.1972C10.8587 47.1136 9.36888 46.7353 8.15506 46.1087C6.7072 45.3612 5.63972 43.5865 5.25827 41.4533C4.87681 39.3202 4.85276 37.6348 5.12806 36.3022C5.40336 34.9695 6.06228 33.8706 7.53644 33.0066C7.90403 32.7911 8.30249 32.6201 8.70568 32.4836C8.73694 32.4735 8.7634 32.4678 8.78496 32.4672ZM19.1224 32.4672C19.144 32.4678 19.1704 32.4735 19.2017 32.4836C19.6049 32.6201 20.0033 32.7911 20.3709 33.0066C21.8451 33.8706 22.504 34.9695 22.7793 36.3022C23.0546 37.6348 23.0305 39.3202 22.6491 41.4533C22.2676 43.5865 21.2002 45.3612 19.7523 46.1087C18.5385 46.7353 17.0487 47.1136 15.103 47.1972C14.9066 47.1951 14.7259 47.2089 14.8373 46.9966L18.1004 40.9875C18.7813 39.7323 19.033 39.0102 19.033 37.4707V32.5929L19.034 32.5955C19.0316 32.5105 19.0543 32.4655 19.1224 32.4672Z" fill="white"/>
<path d="M46.3767 31.4603V32.2116H42.036V34.3122L43.5793 34.3261V33.3263C43.5778 33.1876 43.6888 33.1422 43.8724 33.1569H50.7014C50.7814 33.1562 50.9645 33.1743 50.9676 33.3106V34.3122L52.5119 34.2983L52.5034 33.0574C52.5078 32.5135 52.0921 32.2624 51.6355 32.2534H48.06V31.4603H46.3767ZM58.6259 31.524L57.1669 34.2507H58.5781L59.1282 33.246H65.1193V32.4328L59.7022 32.397L60.3121 31.536L58.6259 31.524ZM70.4528 31.524L69.8071 32.4806L67.052 32.4893V33.3186L68.9701 33.3169C69.0891 33.316 69.1473 33.3869 69.1015 33.4613L67.6786 35.578C67.4727 35.916 67.5046 36.453 68.085 36.4628L72.0394 36.477L72.0506 37.8913H66.9244V38.7845L72.0394 38.7953L72.0504 40.8688H73.6021L73.6131 38.7953L77.9413 38.7845V37.8913H73.6021L73.6131 36.477L77.3457 36.4662V35.7008L73.6218 35.6976L73.6026 34.1481H72.0502L72.0552 35.6856L69.8431 35.6616C69.487 35.6802 69.4306 35.5047 69.544 35.3387L70.9311 33.3299L77.7712 33.3186V32.4897L71.5889 32.4806L72.2203 31.5322L70.4528 31.524ZM30.7703 31.6386V35.1427L29.1115 35.1691V36.0623H30.7703V40.1692C30.8001 40.5492 31.0531 40.7305 31.4158 40.8145H34.2456V39.9326H32.5623C32.455 40.0118 32.2701 39.8911 32.2838 39.6544V36.0373H33.9811C35.2638 37.9143 36.3009 39.8811 40.1283 40.8262L40.0884 39.7517C38.3449 38.9959 36.5828 38.2792 35.5254 36.0789H40.1302V35.1886H32.2701V31.6412L30.7703 31.6386ZM55.8396 31.7392L54.2252 31.7513C54.6434 32.2234 54.9823 32.6132 55.5766 33.6049H56.9517C56.6183 32.9906 56.3239 32.3838 55.8396 31.7392ZM37.4314 31.808C36.0541 32.7509 34.8607 33.6326 34.1481 34.354L35.7481 34.3679C37.0644 33.2347 38.3338 32.6155 39.6154 31.8637L37.4314 31.808ZM45.6629 34.0232L44.8557 35.2042H41.7494V36.0691H44.1742C44.235 36.1258 44.158 36.2276 44.0785 36.3312L43.4746 37.282C43.3769 37.4606 43.3684 37.6435 43.5882 37.8379L45.956 38.9322C46.0545 38.9811 46.1641 39.0281 45.968 39.1234C44.8526 39.4276 43.6216 39.7 41.7494 39.7992V40.8695C44.0131 40.6377 46.1609 40.3283 47.6362 39.6078C47.6722 39.5779 47.686 39.5296 47.8515 39.6078C49.4195 40.0785 50.9547 40.5881 52.7514 40.8455V39.7992C51.5952 39.5787 50.3966 39.294 49.113 38.9142C49.0167 38.857 49.0202 38.79 49.0832 38.717C50.1263 38.0073 50.6583 37.0627 51.086 36.0691H52.7514V35.2042H46.7034C46.6534 35.1767 46.5605 35.183 46.6138 35.0817L47.3672 34.1668C47.4044 34.117 47.4087 34.073 47.415 34.0232H45.6629ZM59.0552 34.0844V34.8712H64.6701V34.0844H59.0552ZM55.8516 34.4897L54.3091 34.5138C54.7476 35.0852 55.1859 35.6306 55.6244 36.5106C55.7029 36.7785 55.7013 37.06 55.5886 37.3598C55.2481 38.5801 54.8404 39.7107 54.4047 40.8039L55.8396 40.8157C56.2918 39.5999 56.6221 38.3842 56.9159 37.1684C57.051 36.435 56.9064 36.3218 56.7963 36.0323C56.5284 35.4553 56.2152 34.9391 55.8516 34.4897ZM57.928 35.7008V36.5301L62.6081 36.5466C62.8449 36.5287 62.8907 36.6745 62.9072 36.8455L62.919 38.9264C62.9459 39.8955 64.1366 40.8174 65.3081 40.8476L65.3293 39.8739C64.6884 39.7185 64.3665 39.0337 64.3659 38.6273V36.415C64.3576 36.1242 64.1178 35.7518 63.6486 35.7094L57.928 35.7008ZM45.8335 36.0691H49.5456C49.3318 36.956 48.6629 37.7387 47.5923 38.4452C46.7383 38.1773 45.9265 37.8673 45.1402 37.5319C44.9019 37.3994 44.9331 37.267 45.0301 37.1345L45.8335 36.0691Z" fill="white"/>
<path d="M32.0029 42.541C30.4564 42.541 29.1683 43.0401 29.1683 45.0116C29.2032 46.9881 30.8819 47.4743 32.1138 47.4743H34.4607V46.5042L32.3445 46.5174C31.8693 46.5174 30.7137 46.3452 30.7137 45.02C30.6795 43.6419 31.9229 43.5224 32.4189 43.5224H34.4607V42.5489L32.0029 42.541ZM60.3521 42.541C59.579 42.5492 57.5173 42.7803 57.5173 45.0116C57.5173 47.1323 59.1386 47.4743 60.3312 47.4743H62.81H63.4171C63.4909 47.4743 63.5533 47.4202 63.5533 47.3316V44.6841C63.5533 44.6258 63.5148 44.5854 63.4543 44.5854L61.1089 44.5801V45.4894H62.1104C62.2278 45.4894 62.2573 45.6201 62.2414 45.6201V46.3891C62.2414 46.4597 62.2156 46.5126 62.1232 46.5073L60.3798 46.5174C60.071 46.5174 59.0628 46.3377 59.0628 44.9909C59.0628 43.5932 60.027 43.5224 60.4545 43.5224H63.5643V42.5489L60.3521 42.541ZM44.9584 42.5489L42.8662 47.4642L44.0753 47.4743L45.6762 43.6581C45.7277 43.5334 45.8929 43.5488 45.9417 43.6763L47.6003 47.4745L49.1436 47.4743L47.1772 42.9854C46.9825 42.5806 46.7904 42.5489 46.42 42.5489H44.9584ZM50.9444 42.5489L50.2972 42.5492L50.3071 47.4651L51.4487 47.4757V44.5986C51.4876 44.6063 51.538 44.5307 51.7348 44.6801L54.5802 47.1723C54.7179 47.3037 54.9398 47.4745 55.3247 47.4745H55.9546C56.0433 47.4745 56.1206 47.4013 56.1206 47.2681L56.1323 42.5492L54.9792 42.5489L54.9758 45.2002C54.9758 45.4681 54.7717 45.4753 54.5823 45.2859L51.7485 42.8444C51.5915 42.7037 51.437 42.5489 50.9444 42.5489ZM66.8662 42.5489L64.7739 47.4642L65.9828 47.4743L67.584 43.6581C67.6355 43.5334 67.8006 43.5488 67.8495 43.6763L69.5078 47.4745L71.0514 47.4743L69.0848 42.9854C68.8901 42.5806 68.6982 42.5489 68.3278 42.5489H66.8662ZM72.8121 42.5489L72.1649 42.5492L72.1747 47.4651L73.3163 47.4757V44.5986C73.3553 44.6063 73.4057 44.5307 73.6024 44.6801L76.4478 47.1723C76.5855 47.3037 76.8075 47.4745 77.1923 47.4745H77.8222C77.9109 47.4745 77.9882 47.4013 77.9882 47.2681L78 42.5492L76.8469 42.5489L76.8435 45.2002C76.8435 45.4681 76.6393 45.4753 76.45 45.2859L73.6161 42.8444C73.4591 42.7037 73.3047 42.5489 72.8121 42.5489ZM36.0218 42.5492V47.4745H37.402V45.4241H40.2803V47.4745H41.72V42.5492H40.2803V44.3973H37.402V42.5492H36.0218Z" fill="white"/>
<path d="M30.9155 31.7254V31.7402H30.9317V31.7254H30.9155ZM30.877 31.7261C30.8716 31.7261 30.8667 31.7268 30.8622 31.7283C30.8579 31.7296 30.8543 31.7315 30.8514 31.7339C30.8485 31.7363 30.8463 31.7391 30.8448 31.7422C30.8434 31.7453 30.8427 31.7486 30.8427 31.7521C30.8427 31.7576 30.8443 31.7624 30.8473 31.7662C30.8505 31.77 30.8558 31.7729 30.8632 31.7749C30.8659 31.7756 30.8689 31.7763 30.8721 31.7769C30.8754 31.7775 30.8781 31.778 30.8801 31.7785C30.8856 31.7797 30.8893 31.7811 30.8912 31.7829C30.8931 31.7846 30.8941 31.7871 30.8941 31.7905C30.8941 31.7948 30.8923 31.798 30.8888 31.8001C30.8852 31.8021 30.8803 31.8031 30.874 31.8031C30.869 31.8031 30.8637 31.8021 30.8581 31.8001C30.8526 31.7981 30.8476 31.7954 30.8431 31.792H30.8423V31.808C30.8459 31.8098 30.8503 31.8115 30.8555 31.813C30.8608 31.8145 30.8665 31.8152 30.8728 31.8152C30.8839 31.8152 30.8927 31.8127 30.8991 31.8077C30.9055 31.8028 30.9087 31.7964 30.9087 31.7886C30.9087 31.7825 30.9069 31.7775 30.9033 31.7737C30.8997 31.77 30.8946 31.7674 30.8879 31.7659C30.8858 31.7654 30.883 31.7648 30.8797 31.7642C30.8765 31.7636 30.8735 31.763 30.8709 31.7624C30.8661 31.7613 30.8627 31.7599 30.8606 31.7581C30.8584 31.7563 30.8573 31.7537 30.8573 31.7502C30.8573 31.7462 30.8591 31.7433 30.8627 31.7413C30.8663 31.7392 30.8707 31.7382 30.8759 31.7382C30.881 31.7382 30.8861 31.7392 30.8913 31.741C30.8965 31.7429 30.901 31.7451 30.9046 31.7478H30.9054V31.7325C30.9019 31.7308 30.8976 31.7293 30.8924 31.728C30.8872 31.7268 30.8821 31.7261 30.877 31.7261ZM30.8987 31.7544V31.7664H30.9164V31.8349C30.9164 31.839 30.9163 31.8425 30.9159 31.8453C30.9156 31.8482 30.9149 31.8506 30.9138 31.8527C30.9127 31.8547 30.911 31.8562 30.9088 31.8572C30.9065 31.8582 30.9036 31.8587 30.8999 31.8587C30.8977 31.8587 30.8953 31.8584 30.8929 31.8577C30.8905 31.857 30.8886 31.8563 30.8872 31.8558H30.8864V31.8694C30.8886 31.87 30.8914 31.8705 30.8947 31.8709C30.898 31.8713 30.9007 31.8715 30.9028 31.8715C30.9113 31.8715 30.9181 31.869 30.9231 31.8639C30.9282 31.8589 30.9307 31.8513 30.9307 31.8414V31.7544H30.8987ZM30.9697 31.7567C30.9645 31.7567 30.9593 31.7572 30.9541 31.7581C30.9488 31.759 30.9448 31.7599 30.942 31.7606V31.7751H30.9427C30.9477 31.7733 30.9524 31.7718 30.957 31.7709C30.9617 31.7699 30.9658 31.7694 30.9696 31.7694C30.9727 31.7694 30.9756 31.7696 30.9785 31.77C30.9813 31.7704 30.9838 31.7712 30.9858 31.7723C30.9879 31.7735 30.9895 31.7752 30.9907 31.7773C30.9918 31.7795 30.9924 31.7822 30.9924 31.7854V31.7876C30.9841 31.788 30.9763 31.7886 30.9691 31.7894C30.9618 31.7902 30.9556 31.7918 30.9504 31.7941C30.9453 31.7964 30.9414 31.7995 30.9386 31.8035C30.9358 31.8075 30.9345 31.8127 30.9345 31.8191C30.9345 31.827 30.9371 31.8334 30.9424 31.8385C30.9478 31.8436 30.9543 31.8461 30.9619 31.8461C30.9661 31.8461 30.9697 31.8457 30.9728 31.8449C30.9759 31.8441 30.9786 31.8431 30.981 31.842C30.983 31.8411 30.9851 31.8399 30.9872 31.8383C30.9894 31.8368 30.9911 31.8355 30.9924 31.8347V31.8437H31.0066V31.7861C31.0066 31.7806 31.0058 31.776 31.0041 31.7723C31.0024 31.7686 31 31.7656 30.9968 31.7633C30.9936 31.7609 30.9897 31.7592 30.9852 31.7583C30.9808 31.7572 30.9756 31.7567 30.9697 31.7567ZM30.9924 31.7992V31.8228C30.9889 31.8256 30.985 31.8279 30.9808 31.8299C30.9767 31.8318 30.9721 31.8328 30.9671 31.8328C30.961 31.8328 30.9566 31.8316 30.9536 31.8291C30.9507 31.8266 30.9492 31.823 30.9492 31.8181C30.9492 31.8138 30.9505 31.8104 30.953 31.808C30.9555 31.8055 30.9589 31.8037 30.963 31.8025C30.9664 31.8016 30.9711 31.8008 30.977 31.8003C30.9829 31.7998 30.988 31.7994 30.9924 31.7992Z" fill="white"/>
</g>
<defs>
<clipPath id="clip0_13_6406">
<rect width="75" height="19.0342" fill="white" transform="translate(3 30)"/>
</clipPath>
</defs>
</svg>
