<svg width="80" height="80" viewBox="0 0 80 80" fill="none" xmlns="http://www.w3.org/2000/svg">
<path d="M72.9989 40.613C72.9989 40.6117 73 40.61 73 40.6088L72.9981 40.61C72.9873 40.5372 72.8226 40.5056 72.5251 40.5014L68.1388 40.4104C61.4313 40.3194 48.9477 40.1417 48.3809 40.1417H48.2431C47.5876 40.092 46.9319 40.2323 46.3104 40.5553L46.0594 40.6711C45.3532 41.0514 44.6187 41.2945 43.8731 41.3947C43.0929 41.4402 40.124 41.4318 39.9997 41.4318C39.8754 41.4318 36.9038 41.4318 36.1264 41.3989C35.3807 41.2992 34.6462 41.0561 33.9401 40.6753L33.689 40.5595C33.0666 40.2369 32.4102 40.0966 31.7539 40.1459H31.6326C31.0631 40.1459 18.5794 40.2326 11.8747 40.3278L7.47248 40.4104C7.173 40.4104 6.99755 40.4475 7.00003 40.522L7.2511 40.6172C8.1751 40.9078 9.11312 41.0834 10.0555 41.1424C11.8505 41.1963 25.0007 41.7005 25.3167 41.7089C26.0273 41.6807 26.7343 41.8732 27.3948 42.2746H31.511C31.511 42.2746 29.8484 42.4232 29.8242 42.5804H29.7216C29.3058 42.5804 28.0535 42.5803 27.3437 42.5306C27.3437 42.5306 27.2925 42.8364 28.0158 42.8364C28.2696 43.0967 28.5339 43.3448 28.7742 43.5516H32.3129C32.3129 43.5516 30.9228 43.6797 30.8959 43.8368C30.7311 43.8368 30.1267 43.8119 29.5462 43.7871L28.7363 43.75C28.7363 43.75 28.6959 44.0187 29.3597 44.0229L29.473 44.1303C30.8021 45.0443 32.2101 45.6601 33.6541 45.9574C34.2019 46.1183 34.7552 46.2304 35.3115 46.2923C35.3115 46.2923 35.9836 46.3833 35.8676 46.3791C34.2933 46.281 32.7279 45.9683 31.1898 45.4449C29.9479 44.9811 28.763 44.2134 27.6808 43.1713C27.078 42.5589 26.3743 42.2206 25.6511 42.1958C25.1841 42.1461 10.1174 41.2368 10.085 41.2368C9.11815 41.1848 8.15703 40.9867 7.21563 40.6454L7.00003 40.53C7.00003 40.5919 7.10535 40.7617 7.19445 40.8855C7.65865 41.5181 9.42112 42.8284 10.4496 43.213C12.2338 43.8742 23.222 46.016 25.1737 46.3508L26.2533 46.537C29.2035 47.0247 32.9122 47.6489 34.8017 47.9425C35.1612 48.0428 35.5311 48.0116 35.8813 47.8515C37.1988 47.1035 38.5951 46.7349 40 46.7644C41.4087 46.748 42.8081 47.1161 44.1324 47.8515C44.4782 48.0097 44.8435 48.0409 45.1986 47.9425C47.0881 47.6531 50.8075 47.0205 53.7332 46.5244L54.8264 46.3382C56.7778 46.0076 67.7635 43.9488 69.5476 43.2871C70.5786 42.9068 72.3386 41.5922 72.8056 40.9596C72.8889 40.8442 72.9898 40.6846 72.9972 40.6176L73 40.6172C73 40.6155 72.9989 40.6142 72.9989 40.613V40.613ZM39.2713 44.8046C37.085 44.8046 34.923 44.7592 34.294 44.5195C32.7961 43.9492 32.0971 42.903 31.9783 42.585C31.8595 42.2666 31.8892 42.2708 32.0753 42.2708H47.914C48.1001 42.2708 48.1136 42.2998 48.0086 42.585C47.9032 42.8701 47.1987 43.9492 45.6953 44.5195C45.0663 44.7592 42.9043 44.7966 40.718 44.8046H39.2713V44.8046ZM72.7894 40.7162C71.8472 41.059 70.8853 41.2583 69.9175 41.3113C69.8851 41.3113 54.8022 42.1381 54.3487 42.1958C53.6255 42.2206 52.9217 42.5589 52.3189 43.1713C51.2367 44.2134 50.0518 44.9811 48.8099 45.4449C47.2719 45.9683 45.7064 46.281 44.1322 46.3791C44.0161 46.3791 44.6882 46.2923 44.6882 46.2923C45.2436 46.2302 45.7961 46.1184 46.3429 45.9574C47.7875 45.6593 49.1965 45.0439 50.5265 44.1303L50.656 44.0229C51.3201 44.0229 51.2822 43.75 51.2822 43.75L50.4723 43.7871C49.8731 43.8119 49.2576 43.8368 49.1039 43.8368C49.0769 43.6797 47.6975 43.5516 47.6975 43.5516H51.2335C51.4863 43.3274 51.7348 43.0917 51.9785 42.8449C52.7017 42.8449 52.6533 42.5391 52.6533 42.5391C51.8759 42.5681 50.4291 42.5968 50.1728 42.5846C50.1486 42.4275 48.6072 42.2788 48.6072 42.2788H52.5832C53.2478 41.8783 53.9584 41.687 54.6724 41.7165L69.9442 41.2368C70.8867 41.1778 71.8246 41.0021 72.7486 40.7115L72.9367 40.6404L72.7894 40.7162V40.7162ZM39.8919 42.9569H40.1403L39.6598 43.4821V43.8995H39.2955V43.4901L38.7774 42.9569H39.2011L39.5548 43.296L39.8919 42.9569ZM42.1161 43.726H42.9475V43.8995H41.7545V42.9527H42.1161V43.726V43.726ZM43.6033 43.726H44.4644V43.8995H43.2469V42.9527H44.4509V43.1262H43.6033V43.341H44.4347V43.5145H43.6033V43.726ZM36.6665 42.9569H37.0308V43.8995H36.6585V43.515H35.8945V43.8995H35.5302V42.9569H35.8945V43.3372H36.6585L36.6665 42.9569ZM38.3104 43.4859L38.7774 43.8995H38.3671C38.3671 43.8995 37.992 43.4901 37.9056 43.3869C38.2755 43.4076 38.3374 43.3456 38.3374 43.2505C38.3374 43.1553 38.0459 43.1018 37.7139 43.1304V43.8995H37.3278V42.9611H38.1674C38.5805 42.9611 38.7072 43.0934 38.7072 43.2256C38.7072 43.3457 38.556 43.4531 38.3104 43.4859V43.4859ZM45.7761 43.2505C45.7761 43.1553 45.4846 43.1018 45.1527 43.1304V43.9075H44.7693V42.9691H45.5979C46.011 42.9691 46.1377 43.114 46.1377 43.2336C46.1377 43.3537 45.9865 43.4611 45.7409 43.4859L46.2079 43.8995H45.7976C45.7976 43.8995 45.4225 43.4901 45.3361 43.3869C45.7032 43.4076 45.7761 43.3456 45.7761 43.2505V43.2505ZM41.4927 43.6182C41.4927 43.8578 41.1553 43.9366 40.8016 43.9366C40.6112 43.9361 40.4209 43.9168 40.2321 43.8789L40.2698 43.6763C40.4417 43.7224 40.6162 43.7418 40.7906 43.734C41.0876 43.734 41.1063 43.6801 41.1063 43.6224C41.1063 43.5647 41.0227 43.5272 40.8905 43.5272L40.6204 43.4775C40.3586 43.4278 40.2505 43.4114 40.2505 43.1717C40.2505 42.932 40.5907 42.8908 40.8093 42.8908C41.0009 42.8988 41.1919 42.9237 41.3816 42.9653L41.3519 43.1473C41.2028 43.1114 41.0521 43.0921 40.9012 43.0896C40.6691 43.0896 40.6177 43.1102 40.6177 43.1721C40.6177 43.234 40.6933 43.2715 40.8093 43.2715L41.1226 43.3048C41.3684 43.3621 41.4872 43.4531 41.4927 43.6182ZM34.1563 43.4118C34.1563 43.6308 34.5044 43.7218 34.7365 43.7218C34.9686 43.7218 35.1872 43.6847 35.2387 43.6847L35.201 43.8789C35.1361 43.8873 34.9095 43.9244 34.6612 43.9244C34.1997 43.9244 33.7867 43.755 33.7867 43.4118C33.7867 43.0685 34.1997 42.8992 34.6612 42.8992C34.9312 42.8992 35.1443 42.9405 35.201 42.9405L35.2387 43.1388C35.0718 43.1132 34.9042 43.0994 34.7365 43.0976C34.4937 43.0976 34.1563 43.1923 34.1563 43.4118V43.4118ZM36.8986 34.1473L35.3869 32.0515H36.3909L36.9659 32.7957L37.5949 33.6225L37.7082 33.7796L37.8215 33.6267L38.982 32.0641H39.3733C38.8846 32.7793 37.9724 34.1313 37.9724 34.1313L37.9185 34.2096V36.0288H36.9577V34.2256L36.8986 34.1473V34.1473ZM51.6848 36.0283H47.6335V32.0473H48.5297V35.5364H51.685V36.0283H51.6848ZM57.6957 36.0035H53.5795V32.0553H57.6446V32.5472H54.446V33.775H57.5907V34.2834H54.446V35.5153H57.6957V36.0035V36.0035ZM23.5567 36.0119H22.6417V32.0393H23.5567V33.7965H26.0724V32.0397H26.9821V36.0123H26.0724V34.272H23.5567V36.0119ZM30.5529 35.9993H29.6298V32.0182H32.0591C32.5211 31.9731 32.9837 32.0965 33.4088 32.3779C33.5006 32.438 33.5797 32.5358 33.6374 32.6606C33.695 32.7853 33.729 32.9321 33.7355 33.0846C33.7328 33.5395 33.5141 33.986 32.7422 34.114L32.5208 34.1511L32.6908 34.3579C32.9364 34.6637 33.5491 35.5983 33.8353 36.0115L33.862 36.0241H32.8041C32.6476 35.7596 31.7783 34.5525 31.4005 33.9569C31.7636 33.9392 32.125 33.8714 32.4801 33.7543C32.5568 33.7155 32.6238 33.6415 32.6721 33.5425C32.7204 33.4434 32.7476 33.324 32.7502 33.2005C32.748 33.1236 32.7338 33.0486 32.709 32.9818C32.6841 32.9149 32.6492 32.8581 32.6072 32.8159C32.3858 32.5308 31.8784 32.5308 31.2847 32.5308H30.5532V35.9993H30.5529ZM44.0433 34.9783C44.0433 34.7387 43.9083 34.627 43.7733 34.5647C43.59 34.4911 43.4031 34.4399 43.2145 34.4118C42.7071 34.3124 42.4481 34.2547 42.2699 34.2092C41.9433 34.1637 41.6254 34.0234 41.3332 33.7956C41.2507 33.7226 41.1831 33.6159 41.1378 33.4875C41.0926 33.3591 41.0715 33.2139 41.0769 33.0682C41.0742 32.6508 41.309 32.3859 41.6896 32.2124C42.0911 32.0599 42.5042 31.9891 42.9178 32.0013C43.5618 32.0127 44.2048 32.089 44.8422 32.2288L44.7801 32.7085C44.2893 32.5722 43.7917 32.5016 43.2929 32.4975C43.0213 32.4806 42.7493 32.514 42.483 32.5969C42.3155 32.6672 42.2129 32.8244 42.2129 33.0105C42.2183 33.1106 42.245 33.2053 42.2888 33.28C42.3327 33.3547 42.3913 33.4053 42.4558 33.4241C42.6208 33.4957 42.7896 33.5429 42.9604 33.5648C43.2439 33.6061 43.6432 33.6928 44.0238 33.7716C44.3423 33.8128 44.6519 33.9536 44.9335 34.1852C45.0166 34.2557 45.0856 34.3595 45.1332 34.4855C45.1808 34.6115 45.2051 34.7549 45.2036 34.9004C45.2063 35.3056 44.966 35.6156 44.5315 35.8304C44.0036 36.0469 43.4583 36.1471 42.912 36.1282L42.9147 36.0991C42.294 36.0911 41.6744 36.0165 41.0604 35.8759L41.1413 35.3094C41.7061 35.4993 42.2825 35.5949 42.8606 35.5945C43.1883 35.6288 43.5172 35.5598 43.8269 35.3919C43.8859 35.3641 43.938 35.3098 43.9766 35.2361C44.0152 35.1623 44.0385 35.0725 44.0433 34.9783V34.9783ZM15.7535 34.0479C15.7535 33.3824 16.0371 32.9069 16.5175 32.5556C17.1068 32.1737 17.7429 31.9904 18.3825 32.0182C18.9081 32.0228 19.4328 32.0797 19.9533 32.1875L20.0262 32.7292C19.5504 32.6424 19.072 32.5927 18.5929 32.5805C18.1804 32.5751 17.7707 32.6844 17.3837 32.9031C17.0194 33.1221 16.7144 33.4818 16.7144 34.0357C16.7171 34.5896 17.0194 34.9493 17.3837 35.1683C17.7707 35.3869 18.1804 35.496 18.5929 35.4909C19.072 35.4786 19.5504 35.429 20.0262 35.3422L19.9316 35.8961C19.4109 36.0043 18.8863 36.0608 18.3608 36.0654C17.729 36.0911 17.1008 35.9121 16.5172 35.5402C16.0233 35.1889 15.7535 34.697 15.7535 34.0479V34.0479ZM60.9105 36.0406H59.998V32.0553H62.4274C62.8896 32.0136 63.3519 32.1382 63.7771 32.4192C63.8685 32.479 63.9473 32.5762 64.005 32.7002C64.0626 32.8243 64.0968 32.9703 64.1037 33.1221C64.101 33.5808 63.8824 34.0277 63.1104 34.1557L62.8891 34.189L63.059 34.3958C63.3046 34.7016 63.9173 35.6152 64.2036 36.0494V36.0536H63.1616C63.0051 35.7891 62.1331 34.582 61.758 33.9864C62.1213 33.9692 62.4828 33.9 62.8377 33.7796C62.914 33.7415 62.9809 33.6683 63.0292 33.57C63.0775 33.4716 63.1049 33.3529 63.1077 33.23C63.1055 33.1531 63.0914 33.0781 63.0665 33.0113C63.0416 32.9444 63.0067 32.8876 62.9647 32.8454C62.7406 32.5561 62.236 32.5561 61.6422 32.5561H60.9107V36.0406H60.9105Z" fill="white"/>
</svg>
