<svg width="80" height="80" viewBox="0 0 80 80" fill="none" xmlns="http://www.w3.org/2000/svg">
<path fill-rule="evenodd" clip-rule="evenodd" d="M40.6317 2C53.2886 2 67.6474 3.07416 70.782 3.77055L70.7834 3.77086C72.3092 4.11027 76.948 5.1422 76.9476 10.5269C76.9476 10.9324 76.6727 51.5194 73.2626 57.0605C68.0293 65.5641 42.1201 76.4318 41.0195 76.8906C40.8435 76.964 40.6546 77.0012 40.4639 77C40.2733 76.9987 40.0848 76.9591 39.9098 76.8833C38.8512 76.4254 13.9046 65.58 7.74728 57.1542C4.1807 52.2731 4 17.4561 4 10.5264C4 5.14158 8.63854 4.11003 10.1642 3.77074L10.1651 3.77055C13.2997 3.07416 27.7945 2 40.6317 2ZM40.4841 74.0307C44.2892 72.4004 66.477 62.666 70.8429 55.5711C73.2534 51.6522 74.1054 18.6153 74.1054 10.5263C74.1054 8.26188 73.0381 7.18317 70.1665 6.54459C67.4747 5.94651 53.4842 4.84185 40.6325 4.84185C27.595 4.84185 13.4743 5.94651 10.7825 6.54459C7.9105 7.18317 6.84271 8.26234 6.84271 10.5263C6.84271 26.2127 7.71115 52.2871 10.0424 55.4768C15.2722 62.6341 36.7568 72.3772 40.4841 74.0307Z" fill="white"/>
<path fill-rule="evenodd" clip-rule="evenodd" d="M41.6263 21.776C42.0209 20.4342 44.9539 18.5008 45.3904 18.9127C45.3923 18.4165 47.5242 16.4644 48.2957 16.8126C48.1195 16.2131 51.0444 14.3839 51.7476 14.9014C51.8978 14.1563 56.133 13.5956 56.9723 14.3097C57.4557 13.7608 61.2134 14.6711 61.289 15.6296C61.9958 15.0093 65.8282 19.0601 65.8314 21.1051C65.8332 21.8935 62.2293 18.6792 59.9581 19.3765C56.2003 20.5298 51.4167 24.5306 47.2634 30.5387C46.121 32.1922 43.1579 32.789 42.5271 30.1049C42.5271 30.1054 41.2317 23.1183 41.6263 21.776V21.776Z" fill="white"/>
<path fill-rule="evenodd" clip-rule="evenodd" d="M41.3029 59.1178C40.7148 58.1237 40.901 56.9249 41.3998 56.4501C42.0957 55.7879 44.1007 56.33 44.2632 55.7228C44.6523 54.2763 43.6337 53.7697 43.8089 51.7766C43.8704 51.0798 45.1903 46.0257 45.5262 45.5788C45.8089 45.2028 47.4952 44.6134 47.9417 44.4409C48.2308 44.1059 48.426 43.7236 48.4474 43.0522C46.2367 42.3809 45.6446 44.4336 45.3287 44.3544C45.0128 44.2752 45.4912 42.1078 45.7679 41.8715C46.0433 41.6344 48.6304 41.06 48.9212 40.6048C49.2271 40.1247 50.421 35.5126 48.9212 35.4338C49.0414 35.4607 48.8439 35.128 48.9604 35.1553C52.0604 35.8813 54.1555 21.045 61.7894 21.1047C69.3695 21.1638 68.974 32.1422 68.5161 32.5518C67.6663 33.3124 66.4101 33.0311 66.3682 33.7361C65.9736 40.4464 59.9737 47.6311 58.1577 46.9988C57.0721 46.6211 58.0002 43.2101 58.5132 43.1309C58.0393 42.9334 58.5131 39.4205 59.0662 39.3413C58.6315 39.0255 59.0261 35.7889 59.5791 35.7493C59.3115 35.5039 59.3402 33.2873 58.773 32.1854C58.3366 31.337 56.4563 30.8814 56.3425 32.9469C57.4868 32.3943 57.566 36.1047 57.0917 36.7365C56.6179 37.3682 53.5784 38.7892 52.6316 39.578C52.7108 41.1579 51.2102 47.2364 50.1051 48.9738C49 50.7097 47.8944 51.7365 47.2631 53.3155C46.6309 54.8944 47.0364 57.5862 45.605 58.8024C44.9719 59.3404 41.5759 59.5802 41.3029 59.1178V59.1178Z" fill="white"/>
<path fill-rule="evenodd" clip-rule="evenodd" d="M67.355 34.2501C67.7096 33.6447 69.1665 33.4053 69.6923 33.6975C70.3099 34.0412 70.766 38.8685 70.1342 39.0265C70.6872 39.3077 69.9876 42.9695 69.2899 42.974C69.8429 43.2112 68.6977 46.8028 68.0268 46.6844C68.4215 47.2374 66.5663 50.1586 66.0533 50.0002C65.8949 53.0006 56.8487 54.4325 57.0535 51.8946C57.1523 50.673 58.505 52.469 64.5927 42.9736C67.2777 38.7861 66.8239 35.1554 67.355 34.2501V34.2501ZM39.3763 21.7998C38.7445 20.4179 36.1519 18.5636 35.7154 18.9756C35.7132 18.4794 33.5817 16.5273 32.8097 16.875C32.9854 16.2756 30.0615 14.4463 29.3583 14.9643C29.2077 14.2187 24.9724 13.6584 24.1331 14.3721C23.6498 13.8232 19.8925 14.7335 19.8169 15.6921C19.1096 15.0717 15.2777 19.1226 15.2736 21.1676C15.2722 21.9559 18.8766 18.7416 21.1469 19.4389C24.9046 20.5923 29.6887 24.5931 33.842 30.6016C34.9845 32.2547 37.8838 32.8514 38.516 30.1673C38.516 30.1683 40.008 23.1812 39.3763 21.7998V21.7998Z" fill="white"/>
<path fill-rule="evenodd" clip-rule="evenodd" d="M39.6843 59.181C40.2723 58.1091 40.1658 56.9489 39.6665 56.4742C38.9702 55.812 37.0053 56.3932 36.8423 55.786C36.4532 54.3395 37.4713 53.8339 37.297 51.8398C37.236 51.143 35.9152 46.089 35.5793 45.642C35.2966 45.2651 33.6103 44.6766 33.1638 44.5041C32.8752 44.17 32.6799 43.7877 32.6581 43.1154C34.8688 42.4441 35.4609 44.4968 35.7768 44.4176C36.0927 44.3384 35.6143 42.171 35.338 41.9348C35.0617 41.6976 32.5147 41.0841 32.1847 40.6681C31.8306 40.222 30.6845 35.5758 32.1847 35.4971C32.0641 35.5239 32.2616 35.1912 32.1456 35.2185C29.0455 35.9445 26.95 21.1083 19.3161 21.1679C11.7355 21.2271 12.132 32.2054 12.5899 32.615C13.4396 33.3756 14.6959 33.0943 14.7373 33.7993C15.1319 40.5097 21.1318 47.6943 22.9478 47.0621C24.0334 46.6843 23.1058 43.2725 22.5928 43.1942C23.0666 42.9966 22.5928 39.4838 22.0402 39.4046C22.4745 39.0887 22.0798 35.8521 21.5273 35.8125C21.7949 35.5672 21.7662 33.3506 22.3334 32.2482C22.7698 31.4002 24.6505 30.9446 24.7643 33.0097C23.6192 32.4566 23.5409 36.1675 24.0147 36.7993C24.4881 37.431 27.5276 38.852 28.4752 39.6408C28.396 41.2206 29.8962 47.2992 31.0013 49.0356C32.1064 50.7725 33.2115 51.7993 33.8433 53.3783C34.4805 54.9713 34.7755 58.1219 35.5406 58.826C36.2552 59.4832 39.4262 59.6521 39.6843 59.181V59.181ZM40.5523 62.2283C38.1841 62.2683 36.1059 60.5793 36.5264 60.1287C37.3389 59.2566 38.7567 60.5315 40.4535 59.7809C42.1121 60.4914 43.4926 59.2598 44.5781 60.0654C45.1944 60.5224 42.9213 62.1896 40.5523 62.2283Z" fill="white"/>
<path fill-rule="evenodd" clip-rule="evenodd" d="M13.7502 34.3129C13.3952 33.708 11.9387 33.6261 11.4134 33.9183C10.7962 34.2619 10.3397 38.9313 10.971 39.0893C10.4185 39.3701 11.1185 43.0323 11.8158 43.0364C11.2632 43.2731 12.4079 46.8651 13.0788 46.7468C12.6842 47.2998 14.5394 50.221 15.0524 50.0626C15.2103 53.063 24.257 54.4949 24.0522 51.9569C23.9538 50.7353 22.6011 52.5313 16.5125 43.0359C13.828 38.8494 14.2818 35.2191 13.7502 34.3129V34.3129Z" fill="white"/>
</svg>
