<svg width="80" height="80" viewBox="0 0 80 80" fill="none" xmlns="http://www.w3.org/2000/svg">
<g clip-path="url(#clip0_13_6709)">
<path d="M40.0782 1.99999C36.1999 2.02696 32.3265 2.28262 28.4782 2.76562L27.6282 2.88124L26.572 3.02499C26.3439 3.05312 26.0095 3.10624 25.8345 3.14374C25.621 3.1873 25.4063 3.22481 25.1907 3.25624C24.9139 3.29623 24.6379 3.34103 24.3626 3.39062L23.5345 3.54062C22.9314 3.64687 21.1501 4.00937 20.2501 4.21249C16.9251 4.95624 13.2345 6.06874 11.7189 6.78749C10.647 7.29687 9.30636 8.36874 8.81261 9.10937C8.3596 9.8532 8.05502 10.6778 7.91574 11.5375C7.82511 12.0312 7.81574 12.2562 7.80949 14.1375C7.80011 16.4125 7.83761 17.9594 7.94699 19.9656C8.46574 29.4 10.122 37.2781 13.2157 44.9656C15.2849 50.3176 18.0538 55.3719 21.4501 59.9969C24.5751 64.2562 28.0751 68.0344 32.0595 71.4656C34.4626 73.5281 37.4876 75.8562 38.547 76.45C39.7532 77.1281 41.1095 77.1812 42.2657 76.5969C43.2032 76.1187 46.5845 73.5531 48.8689 71.5844C52.4274 68.4875 55.6904 65.0665 58.6157 61.3656C60.2095 59.35 63.4314 54.3219 64.7939 51.725C69.8626 42.0687 72.7595 30.2156 73.0782 17.9375C73.172 15.9312 73.2189 14.1125 73.172 13.1594C73.1609 12.9214 73.1432 12.6838 73.1189 12.4469L73.122 11.2062L72.6064 10.1344C72.3206 9.50599 71.9139 8.94002 71.4095 8.46874C70.797 7.82812 70.247 7.46562 68.9626 6.84687C65.847 5.34687 61.6564 4.16562 56.5939 3.35312C54.9845 3.07818 53.3671 2.85308 51.7439 2.67812L50.4814 2.52812C50.0554 2.47814 49.6282 2.43958 49.2001 2.41249C47.1325 2.2382 45.0611 2.11316 42.9876 2.03749C42.0182 2.00494 41.0482 1.99348 40.0782 2.00312V1.99999ZM40.6001 4.59374C51.0376 4.57187 59.7501 5.95624 66.847 8.75624C69.472 9.78749 69.9407 10.1094 70.472 11.2312C70.872 12.075 70.8782 12.2 70.7657 16.5156C70.1501 40.2344 62.0157 57.825 45.4126 71.3312C43.4001 72.9719 41.3001 74.4656 40.7751 74.6312C40.5157 74.7125 40.0407 74.5281 39.2657 74.0469C37.7282 73.0937 33.897 69.975 31.3282 67.5844C27.1032 63.6625 22.8689 58.4062 19.9845 53.5031C13.8282 43.0531 10.6314 30.8656 10.2532 16.4219C10.1439 12.2031 10.1532 12.0719 10.5532 11.2281C11.0845 10.1125 11.5595 9.78437 14.0845 8.79999C21.0532 6.07187 28.4126 4.81249 38.4907 4.61562C39.2032 4.60312 39.9064 4.59374 40.6001 4.59374ZM37.6595 6.80624L37.5189 6.81562C36.8939 6.89062 36.1189 7.45937 35.747 8.13437C34.8939 9.68124 35.0595 13.1094 36.047 14.3031C36.4314 14.7719 36.6345 14.8531 37.3626 14.8531C37.847 14.8531 38.4064 14.7281 38.6345 14.5625C38.8626 14.4 39.2282 13.9156 39.447 13.4844C40.022 12.3594 40.0345 9.53124 39.4689 8.27187C39.1064 7.46874 38.4282 6.88749 37.7876 6.81562L37.7189 6.80937H37.6564L37.6595 6.80624ZM41.0782 6.99374L41.0251 10.8469C41.0024 12.0801 40.992 13.3135 40.9939 14.5469C41.0089 14.6111 41.0298 14.6739 41.0564 14.7344C41.1345 14.75 41.3345 14.7625 41.597 14.7625H42.1657V13.1094C42.1657 11.5281 42.1814 11.4625 42.5595 11.5187C42.872 11.5656 43.0657 11.9125 43.5189 13.2156L44.0876 14.8531H45.4626L44.8564 13.0906L44.2532 11.325L44.747 10.8531C45.3501 10.2719 45.5376 9.42812 45.2782 8.45624C44.9939 7.37187 44.272 6.99687 42.4939 6.99374H41.0782ZM48.5032 7.18124C46.9251 7.18124 46.2126 8.37812 46.222 11.0187C46.222 12.7625 46.4845 13.8625 47.047 14.4969C47.697 15.225 49.1095 15.3531 50.0001 14.7594C50.4814 14.4406 50.7876 13.4594 50.797 12.2344C50.797 11.9094 50.7845 11.6531 50.7407 11.4719C50.6376 11.1781 50.3345 11.1406 49.4689 11.0562L48.7345 10.9844C48.6064 11.0594 48.597 11.2344 48.597 11.6219V11.7469L48.6001 11.8031C48.6189 12.1719 48.7095 12.2344 49.0564 12.2344C49.4251 12.2344 49.5126 12.3281 49.5126 12.7156C49.5126 13.825 48.6376 14.3156 47.9814 13.5781C47.0814 12.5656 47.2845 8.70312 48.2532 8.39062C48.6595 8.25937 49.3314 8.74999 49.3314 9.17499C49.3314 9.33749 49.5564 9.42499 49.972 9.42499C50.7032 9.42499 50.7845 9.17812 50.3407 8.30624C50.1854 7.95393 49.9263 7.65743 49.5979 7.45639C49.2696 7.25535 48.8876 7.15935 48.5032 7.18124V7.18124ZM32.2564 7.29999C31.9151 7.29052 31.5737 7.30514 31.2345 7.34374L30.1314 7.46249L30.0314 15.2687L31.3689 15.1375C32.1032 15.0625 32.9001 14.9062 33.147 14.7906C33.9001 14.4219 34.3282 13.6469 34.3439 12.6187C34.3532 11.9 34.2657 11.5906 33.9595 11.2781C33.5657 10.8781 33.5657 10.8719 33.9126 10.2906C34.119 9.96754 34.2349 9.59496 34.2481 9.21181C34.2613 8.82866 34.1713 8.449 33.9876 8.11249C33.7282 7.60312 33.1657 7.33437 32.2564 7.29999V7.29999ZM51.9032 7.53124V15.375L52.5439 15.45L53.1876 15.5281V13.7875C53.1876 11.8594 53.1282 11.9312 54.522 12.1656L55.2095 12.2844V14.0219C55.2095 15.5219 55.2532 15.775 55.5314 15.85C56.3439 16.0656 56.322 16.1625 56.2689 12.0937L56.2189 8.20937L55.7157 8.14999L55.2095 8.09062V11.1156L54.4282 11.0031C53.147 10.8219 53.1876 10.8781 53.1876 9.24687C53.1876 8.16874 53.1251 7.74062 52.9595 7.74062C52.7416 7.72382 52.5259 7.68508 52.3157 7.62499L52.0157 7.54062L51.9032 7.53124ZM28.7532 7.63124L28.1282 7.70624C27.5126 7.77812 27.4907 7.81249 27.0126 9.39687C26.747 10.2875 26.4189 11.3531 26.2876 11.7656L26.047 12.5156L25.4501 10.55C25.122 9.46874 24.7876 8.51249 24.7064 8.42499C24.6282 8.33749 24.3064 8.32187 23.9939 8.39374L23.4251 8.51874V12.3437C23.4251 15.9844 23.4407 16.1656 23.7782 16.1656C23.9797 16.1645 24.1799 16.1328 24.372 16.0719C24.5532 16 24.6032 15.6344 24.5595 14.7062C24.5265 14.0369 24.5265 13.3663 24.5595 12.6969C24.6157 12.0094 24.672 12.1094 25.3345 14.0906L26.0501 16.2312L26.7126 13.8312L27.3751 11.4344L27.4032 12.5594C27.4506 12.7009 27.4538 12.8534 27.4126 12.9969L27.4282 13.5375C27.472 15.3437 27.522 15.6219 27.7626 15.5281C27.968 15.4579 28.1831 15.4199 28.4001 15.4156C28.7376 15.4156 28.7532 15.2344 28.7532 11.5219V7.63124ZM42.1657 8.06874L42.9407 8.17187C44.0407 8.32499 44.5032 9.09687 43.9564 9.86249C43.7064 10.2062 42.5314 10.4875 42.3001 10.2531C42.2282 10.1781 42.1657 9.65312 42.1657 9.09062V8.06874ZM37.597 8.14687C37.8564 8.15937 38.1064 8.36562 38.3064 8.77187C38.7189 9.60937 38.6876 12.5531 38.2564 13.225C37.8407 13.8719 37.3032 13.8719 36.8876 13.225C36.6501 12.8562 36.5439 12.2594 36.5064 11.0281C36.4595 9.57812 36.5064 9.24374 36.8345 8.71562C37.072 8.32499 37.3376 8.13749 37.597 8.14687V8.14687ZM31.3251 8.49062H31.9314C32.6657 8.49062 32.9782 8.77187 32.9782 9.44062C32.9782 10.0344 32.7282 10.2687 31.922 10.425L31.3282 10.5406V9.51562L31.3251 8.49062ZM57.8782 8.50624C57.8408 8.52225 57.8076 8.54688 57.7814 8.57812V16.3281L58.2876 16.4062C58.5657 16.4469 58.8532 16.4969 58.9314 16.5094C59.0064 16.525 59.0689 14.8187 59.0689 12.7125C59.0689 10.6094 59.0064 8.85312 58.9314 8.80624C58.723 8.72097 58.5076 8.65405 58.2876 8.60624L57.8782 8.50624ZM20.4439 9.18749C20.2989 9.19922 20.1555 9.22539 20.0157 9.26562C19.4532 9.42187 19.447 9.44687 18.7657 12.4687C18.3907 14.1437 17.9657 16 17.8282 16.6L17.5751 17.6875L18.1564 17.5625C18.3949 17.517 18.6291 17.4511 18.8564 17.3656C18.9189 17.3281 19.0282 16.8344 19.1001 16.2656C19.2407 15.1094 19.2282 15.1281 20.1439 14.9531L20.8095 14.825L21.0282 15.7687C21.247 16.6937 21.2657 16.7094 21.8345 16.6C22.0594 16.5661 22.2796 16.5063 22.4907 16.4219C22.5845 16.3437 20.8407 9.38124 20.6876 9.22187C20.6564 9.19062 20.5657 9.17812 20.4439 9.18749V9.18749ZM60.3532 9.24374V13.075C60.3532 16.0187 60.4064 16.9125 60.5845 16.9156C60.7095 16.9156 60.997 16.9687 61.222 17.0312C61.622 17.1406 61.6282 17.1125 61.6814 14.8625L61.7314 12.5812L62.7376 15.1344C63.2876 16.5406 63.8689 17.7656 64.022 17.8562C64.7532 18.2937 64.772 18.1875 64.722 14.1687L64.672 10.2937L64.1657 10.1594L63.6595 10.0219V12.1094C63.6532 14.5062 63.6345 14.4969 62.5345 11.6719C61.7282 9.60312 61.4689 9.24062 60.7782 9.24062L60.3532 9.24374ZM14.7282 10.9281C14.6907 10.9281 14.4001 11.0219 14.0814 11.1312L13.5032 11.3375V12.3062L13.5564 15.3937C13.5814 16.8625 13.6189 18.0344 13.7001 19.0875C13.7345 19.1 13.7751 19.0937 13.8251 19.0719C14.0032 19 14.8282 18.6906 15.6626 18.3781C17.0876 17.85 17.1782 17.7844 17.1782 17.2719C17.1782 16.975 17.1501 16.7281 17.1157 16.7281C17.0814 16.7281 16.572 16.8969 15.9845 17.1031C15.6115 17.2402 15.2342 17.3652 14.8532 17.4781C14.8189 17.4781 14.7907 16.0031 14.7907 14.2031C14.7907 12.4 14.7595 10.9281 14.7282 10.9281V10.9281ZM66.297 10.9281C66.2626 10.9281 66.2345 12.6844 66.2345 14.8312V18.7344L66.8282 18.9281C67.1595 19.0375 67.447 19.1312 67.472 19.1437C67.497 19.1531 67.5189 17.4031 67.5189 15.25V11.3344L66.9407 11.1281C66.73 11.0488 66.5151 10.981 66.297 10.925V10.9281ZM32.0845 11.5719C32.9064 11.6031 33.4189 12.5 32.9564 13.3469C32.7595 13.7062 32.5189 13.8437 32.0095 13.8875L31.3251 13.9437V12.8312C31.3251 11.8594 31.372 11.7062 31.7126 11.6156C31.8337 11.5827 31.959 11.568 32.0845 11.5719V11.5719ZM20.047 11.5812L20.2907 12.5875C20.4251 13.15 20.4689 13.4156 20.4189 13.575C20.4175 13.5976 20.4112 13.6197 20.4004 13.6397C20.3896 13.6597 20.3746 13.677 20.3564 13.6906C20.333 13.7146 20.3068 13.7356 20.2782 13.7531C19.8376 14.0375 19.5345 13.95 19.6532 13.5656C19.7157 13.3719 19.8282 12.8469 19.9032 12.3969L20.047 11.5812ZM41.5439 16.7687C39.8095 16.8094 38.3126 17.3 37.4626 18.1625C36.7032 18.9344 36.6189 19.7562 37.2501 20.1781C38.047 20.7062 39.3532 20.8656 44.0251 21.0156C48.3001 21.1531 48.8126 21.2031 49.5564 21.5687C50.4689 22.0219 50.8657 22.6094 50.8376 23.475C50.8189 24.1937 50.347 24.9656 49.922 24.9656C49.2064 24.9656 46.8314 24.3594 45.1532 23.7469C44.4792 23.489 43.7892 23.275 43.0876 23.1062L42.9689 23.0969C42.5189 23.1094 41.9751 23.475 40.4126 24.8187C39.7251 25.4094 38.5064 26.2375 37.7032 26.6625C35.097 28.0469 34.2939 29.1437 33.9314 31.8156C33.7345 33.2625 33.4939 33.8406 32.372 35.525C31.4407 36.925 30.7845 38.8062 30.7782 40.0781C30.7782 40.6937 30.5595 41.675 30.2032 42.7C29.7345 44.0531 29.6282 44.6594 29.5939 46.2062C29.5564 47.8125 29.4845 48.2062 29.0845 48.9531C28.7939 49.4906 28.5657 50.2969 28.4845 51.0594C28.3689 52.1844 28.2751 52.3906 27.4532 53.3719C26.9564 53.9594 26.5501 54.5437 26.5501 54.6687C26.5501 54.7375 26.472 54.8875 26.3532 55.0687C26.3282 55.1875 26.272 55.2719 26.2001 55.2812C26.136 55.3713 26.0672 55.4579 25.9939 55.5406C25.2939 56.3531 24.9501 57.2875 25.2439 57.5844C25.397 57.7406 25.522 57.6906 25.7345 57.3844C26.1376 56.7969 26.3689 56.8687 26.1845 57.5219C26.0782 57.8969 26.097 58.1031 26.2439 58.1687C26.5189 58.2906 27.5626 58.125 28.1095 57.8719C28.397 57.7375 28.6095 57.3937 28.7657 56.8094C28.8907 56.3312 29.122 55.7875 29.2782 55.6031C29.4501 55.3969 29.5939 54.775 29.6407 54.0219C29.7095 52.9219 29.8001 52.675 30.422 51.8719C30.8282 51.3531 31.2564 50.5062 31.4251 49.8969C31.5907 49.3094 31.8532 48.575 32.0126 48.2656C33.1907 45.9531 33.9501 44.6156 34.0845 44.6156C34.4907 44.6156 34.8157 45.5031 34.8157 46.6156C34.8157 47.4906 34.8907 47.8219 35.1095 47.9469C35.3751 48.0969 35.3782 48.175 35.1376 48.6594C34.9702 49.0105 34.8362 49.3768 34.7376 49.7531C34.5595 50.5031 33.972 51.3062 33.3564 51.6281C33.0751 51.7781 32.4626 52.2781 31.9939 52.7437C31.3189 53.4125 31.1407 53.7125 31.1439 54.2031C31.147 55.0281 31.4126 55.4594 31.722 55.1406C32.0907 54.7656 32.2595 54.875 32.1282 55.4062C32.0095 55.8875 32.0282 55.9 32.622 55.7812C33.3814 55.625 34.0689 55.1781 34.197 54.7594C34.2501 54.5844 34.3657 54.3156 34.4532 54.1625C34.5439 54.0062 34.8814 53.3062 35.2095 52.6C35.6157 51.725 36.0626 51.1062 36.6251 50.6375C37.0751 50.2625 37.5626 49.6594 37.7126 49.3C38.147 48.2437 39.4095 47.3375 39.4095 48.0875C39.4095 48.525 38.697 49.85 38.1782 50.3781C37.5251 51.0437 37.022 51.9375 37.022 52.4312C37.022 52.8656 37.2782 52.9937 37.4814 52.6656C37.6814 52.3344 37.9095 52.4656 37.8095 52.8531C37.8003 52.8892 37.7929 52.9257 37.7876 52.9625C37.8189 53.0562 37.8657 53.1344 37.9282 53.1969C38.0064 53.2187 38.1157 53.2281 38.2782 53.2281C39.222 53.2281 40.1126 52.6844 40.247 52.025C40.3517 51.6147 40.5115 51.2205 40.722 50.8531C40.9532 50.4656 41.0345 50.0969 40.9595 49.7875C40.8345 49.2844 41.172 47.9844 41.4282 47.9844C41.6157 47.9844 42.2845 49.3812 42.4532 50.1406C42.5459 50.4923 42.712 50.8204 42.9407 51.1031C43.2782 51.4812 43.4251 51.5031 45.0751 51.4094C46.7845 51.3125 46.8657 51.2844 47.3095 50.7312C47.6407 50.3125 47.797 49.8406 47.872 49.0219C48.0032 47.5781 48.6282 46.5969 50.0595 45.5719L51.1282 44.8094L51.3907 45.2281C51.5376 45.4562 51.8501 46.1312 52.0876 46.725C52.4876 47.7125 52.5032 47.875 52.2907 48.725C52.1626 49.2375 52.1126 49.8312 52.1782 50.0469C52.247 50.2656 52.1564 50.8469 51.9751 51.3594L51.8345 51.7594L51.8064 51.9344C51.7719 52.0902 51.7572 52.2498 51.7626 52.4094L52.0845 52.7531C52.5751 53.2906 52.9157 53.3562 53.072 52.9469C53.2095 52.5719 53.5564 52.5844 53.5564 52.9625C53.5564 53.3594 53.9157 53.2125 54.3314 52.65C54.6501 52.2125 54.6532 52.1344 54.3814 51.35C54.2189 50.8875 54.1282 50.3656 54.172 50.1906C54.2157 50.0125 54.172 49.5062 54.072 49.0656C53.8432 47.9352 53.8549 46.7693 54.1064 45.6437C54.2845 44.775 54.2626 44.5844 53.847 43.675C53.5939 43.1219 53.422 42.6312 53.4626 42.5906C53.5064 42.5469 53.8532 42.6375 54.2376 42.7906C56.0189 43.5031 57.4095 43.3406 58.2564 42.3219L58.6876 41.8C58.6945 41.7713 58.6986 41.742 58.7001 41.7125L57.672 41.6187C57.4372 41.5966 57.2028 41.5706 56.9689 41.5406C56.347 41.4375 56.0751 41.2125 55.0814 40.325C54.1626 39.5062 54.1314 39.4437 54.2282 38.7125C54.2876 38.2781 54.197 37.3312 54.0189 36.5219C53.7314 35.2031 53.7314 35.0125 54.0001 34.0719C54.1595 33.5094 54.2907 32.8 54.2907 32.5C54.2907 31.5937 53.797 30.2 53.2126 29.4594C52.8844 29.0239 52.6329 28.5356 52.4689 28.0156C52.3186 27.5111 52.0999 27.0295 51.8189 26.5844C51.3939 25.9469 51.3814 25.8687 51.6345 25.2562C51.8118 24.7134 51.9025 24.146 51.9032 23.575C51.9032 22.6781 51.8251 22.4531 51.3064 21.8531C50.1814 20.5469 49.6501 20.425 44.2751 20.2656C38.072 20.0781 37.097 19.8406 38.0595 18.7562C38.4532 18.3125 39.097 18.325 40.4345 18.8C41.9001 19.3187 43.6907 19.4469 44.7376 19.1094C45.6376 18.8187 45.6532 18.8344 44.0939 18.5031C43.8439 18.45 43.6345 18.3156 43.6345 18.2C43.6345 18.1594 43.6595 18.1312 43.7001 18.1094C43.7282 18.0531 43.8595 18.0406 44.1064 18.0687C44.2189 18.075 44.3501 18.0875 44.5064 18.1094C46.9095 18.4344 47.3095 18.4594 47.3095 18.275C47.3095 17.9719 45.697 17.3469 44.0126 17C43.201 16.8305 42.3728 16.7529 41.5439 16.7687V16.7687ZM42.2095 18.3031C42.4578 18.3255 42.7018 18.3823 42.9345 18.4719L43.7282 18.7594L43.1595 18.7687L43.0845 18.7719L42.9876 18.7656C42.7066 18.7729 42.4274 18.7196 42.1689 18.6094C41.847 18.4 41.9189 18.2875 42.2095 18.3031V18.3031Z" fill="white"/>
</g>
<defs>
<clipPath id="clip0_13_6709">
<rect width="75" height="75" fill="white" transform="translate(3 2)"/>
</clipPath>
</defs>
</svg>
