<svg width="80" height="80" viewBox="0 0 80 80" fill="none" xmlns="http://www.w3.org/2000/svg">
<path fill-rule="evenodd" clip-rule="evenodd" d="M41.2125 24.7249C39.6843 26.6094 35.3254 32.6936 34.8287 33.4814C33.8724 34.9908 33.7879 35.7223 33.7597 36.2096C33.732 36.688 33.732 37.5505 34.5099 38.2537C35.8132 39.4162 37.641 39.2284 39.2631 39.2284H52.6225C53.1943 39.2284 53.3633 39.0594 53.6727 38.6472C54.7413 37.0157 55.2197 35.2439 55.2197 33.6594C55.2197 30.2654 53.0168 25.9907 47.4383 24.0592L46.8097 24.9592C51.2347 27.0588 53.0633 29.8058 53.0633 33.6495C53.0915 34.681 52.8192 35.7965 52.1441 36.828H39.15C38.372 36.828 38.2594 35.9467 38.5406 35.4496C39.6546 33.467 40.8978 31.5598 42.2623 29.7405C43.5749 27.9874 44.8684 26.3466 46.228 24.631C46.5938 24.1531 46.3497 23.6935 45.6187 23.5437C44.0998 23.2249 42.5158 23 40.5937 23C29.9347 23 26.0342 29.1217 26.0342 33.6594C26.0342 38.5815 29.9625 44.291 40.6218 44.291C46.5374 44.291 50.4098 42.3872 52.6502 39.9407H50.3906C48.4309 41.7501 45.0652 43.035 40.6218 43.035C31.5935 43.035 28.2657 37.9627 28.2657 33.5936C28.331 29.6936 31.9029 24.3123 40.8472 24.1343C41.1847 24.1249 41.4476 24.4343 41.2125 24.7249V24.7249ZM73.2754 52.8217C73.8097 52.8968 74.2224 53.3184 74.2224 53.816C74.2224 54.3776 73.7163 54.8279 73.0971 54.8279H61.6414V47.3371H58.2658V54.8471H52.0596C50.3816 54.8471 50.0351 53.825 50.0351 52.8874V47.2906H44.4383C43.8848 47.6657 43.3505 48.0784 42.7786 48.4249L39.4598 50.4686L35.1475 47.3188H28.4347V49.2033H30.8625V48.1714L36.572 52.2691L32.6719 54.7152H28.4343V56.5997H33.3372C33.8621 56.2438 34.3593 55.8687 34.903 55.5405L38.3153 53.4687L42.6463 56.5626H47.5783L41.0618 51.6592L44.4092 49.4756C45.1219 49.0061 45.8721 48.6131 46.6032 48.1821V53.1132C46.6032 55.1944 47.1375 56.6381 51.3281 56.6381L75.0004 56.5822C76.8281 56.6095 78 55.3446 78 53.8169C78 52.2972 76.6498 51.0507 75.0004 51.0507H66.4504C66.5631 50.0103 67.4623 49.1388 68.3717 49.1388H77.0249L76.9976 47.3294H67.819C64.9124 47.3294 62.5879 49.7389 62.5222 52.5422C62.5132 52.7389 62.6438 52.8605 62.8598 52.8605L73.2754 52.8217V52.8217ZM28.4347 52.794V50.8719H30.1033V52.794H28.4347ZM28.4347 47.3188H22.0971C20.3815 47.3188 19.0594 47.769 18.0848 48.5371C16.3317 49.9249 15.7692 51.387 15.788 52.0437H18.0754C17.0721 52.794 16.397 53.6931 16.041 54.7344H8.54049C7.19068 54.7344 6.31841 53.7785 6.31841 52.8499V47.253H3V53.0658C3 55.156 4.9878 56.5997 8.17477 56.5997H28.4347V54.7152H20.3909C20.4285 53.7593 21.4501 52.794 22.3783 52.794H28.4347V50.8719H20.297C20.1848 50.3094 21.2346 49.2033 22.0407 49.2033H28.4347V47.3188V47.3188Z" fill="white"/>
</svg>
