<svg width="80" height="80" viewBox="0 0 80 80" fill="none" xmlns="http://www.w3.org/2000/svg">
<g clip-path="url(#clip0_13_6755)">
<path d="M38.74 2.04C40.02 1.96 41.47 2.01 42.93 2.04C45.15 2.09 47.37 2.25 49.58 2.5C52.35 2.81 55.11 3.24 57.84 3.82C62.83 4.87 67.68 6.35 72.4 8.27C73.44 8.69 74.47 9.16 75.5 9.61C75.71 9.7 75.79 9.81 75.75 10.06C75.42 12.17 75.1 14.28 74.73 16.39C74.31 18.81 73.85 21.23 73.35 23.64C72.48 27.82 71.46 31.96 70.27 36.06C68.66 41.58 66.76 47 64.35 52.24C62.38 56.53 60.12 60.65 57.34 64.47C55.52 66.97 53.52 69.3 51.2 71.35C48.61 73.64 45.77 75.5 42.44 76.53C41.81 76.72 41.17 76.89 40.51 77C40.2 77.05 39.89 76.94 39.59 76.87C37.07 76.3 34.78 75.21 32.65 73.77C30.38 72.24 28.38 70.41 26.56 68.38C22.86 64.27 20 59.61 17.55 54.68C15.49 50.53 13.78 46.23 12.29 41.84C10.51 36.61 9.08003 31.28 7.88003 25.89C7.12003 22.49 6.46003 19.07 5.88003 15.64C5.58003 13.76 5.30003 11.9 5.00003 10.04C4.96003 9.8 5.05003 9.7 5.25003 9.61C7.64003 8.52 10.07 7.55 12.55 6.69C15.36 5.71 18.21 4.89 21.11 4.21C23.48 3.66 25.87 3.21 28.28 2.87C29.96 2.64 31.64 2.44 33.33 2.3C34.6 2.2 35.88 2.11 37.16 2.07C37.62 2.06 38.09 2.01 38.73 2.03L38.74 2.04ZM40.15 2.13C39.27 2.16 38.13 2.2 37 2.23C35.54 2.28 34.09 2.38 32.64 2.51C30.53 2.7 28.43 2.98 26.34 3.32C23.69 3.76 21.08 4.33 18.49 5.02C15.84 5.73 13.24 6.56 10.67 7.52C8.90003 8.18 7.15003 8.91 5.42003 9.69C5.23003 9.77 5.14003 9.87 5.17003 10.1C5.59003 12.89 6.03003 15.67 6.54003 18.45C7.13003 21.67 7.79003 24.88 8.55003 28.07C9.28003 31.18 10.1 34.26 11.02 37.32C12.14 41.06 13.41 44.75 14.89 48.36C15.98 51.04 17.18 53.66 18.52 56.22C19.99 59.01 21.61 61.72 23.46 64.28C25.61 67.25 28.01 69.98 30.88 72.27C33.35 74.25 36.04 75.78 39.11 76.61C39.97 76.84 40.79 76.86 41.65 76.62C43.77 76.04 45.74 75.14 47.59 73.95C50.97 71.77 53.73 68.94 56.2 65.8C57.93 63.6 59.46 61.26 60.85 58.83C62.56 55.84 64.07 52.76 65.41 49.58C66.45 47.11 67.39 44.6 68.26 42.07C69.17 39.45 69.97 36.79 70.72 34.12C71.63 30.82 72.44 27.48 73.15 24.13C73.61 21.95 74.04 19.77 74.43 17.58C74.87 15.16 75.24 12.73 75.62 10.29C75.69 9.81 75.7 9.81 75.23 9.6C72.28 8.26 69.25 7.11 66.16 6.12C62.58 4.98 58.94 4.09 55.25 3.43C52.39 2.92 49.51 2.56 46.61 2.35C44.55 2.2 42.49 2.14 40.17 2.11L40.15 2.13Z" fill="white"/>
<path d="M54.06 49.72C53.36 50.02 52.73 50.29 52.09 50.56C51.04 51.01 49.98 51.46 48.93 51.91C48.84 51.95 48.74 52.06 48.65 51.97C48.57 51.9 48.64 51.79 48.65 51.7C48.95 50.09 49.25 48.48 49.47 46.86C49.51 46.58 49.4999 46.57 49.2299 46.68C47.3899 47.47 45.56 48.26 43.72 49.04C43.57 49.1 43.4899 49.2 43.4799 49.36C43.4499 49.78 43.42 50.19 43.4 50.61C43.34 51.74 43.2699 52.88 43.2099 54.01C43.1999 54.28 43.09 54.44 42.82 54.55C41.44 55.12 40.07 55.73 38.69 56.32C38.39 56.45 38.38 56.43 38.36 56.11C38.25 54.64 38.13 53.17 38.02 51.69C38 51.48 37.9 51.55 37.79 51.6C37.03 51.92 36.27 52.25 35.52 52.57C34.92 52.83 34.32 53.1 33.72 53.34C33.49 53.43 33.42 53.53 33.48 53.79C33.79 55.13 34.13 56.46 34.49 57.78C34.56 58.03 34.49 58.13 34.27 58.23C33.15 58.7 32.04 59.19 30.93 59.66C30.73 59.75 30.71 59.83 30.81 60.02C31.99 62.3 33.3 64.49 34.86 66.52C36.15 68.2 37.57 69.76 39.22 71.1C39.44 71.28 39.55 71.48 39.54 71.77C39.52 72.6 39.54 73.44 39.54 74.27C39.54 74.62 39.52 74.63 39.18 74.52C36.5 73.73 34.16 72.33 32.01 70.58C29.19 68.29 26.85 65.57 24.77 62.62C24.54 62.3 24.55 62.29 24.92 62.13C26.72 61.36 28.52 60.58 30.33 59.82C30.54 59.73 30.57 59.66 30.47 59.45C29.87 58.24 29.31 57 28.8 55.75C28.72 55.55 28.64 55.52 28.44 55.6C26.95 56.24 25.46 56.88 23.97 57.51C23.41 57.75 22.86 57.99 22.3 58.22C22.21 58.26 22.11 58.32 22 58.25C21.9 58.18 21.83 58.09 21.83 57.97C21.83 57.84 21.94 57.8 22.03 57.76C22.73 57.46 23.42 57.16 24.12 56.86C25.39 56.32 26.66 55.77 27.93 55.23C28.05 55.18 28.18 55.14 28.3 55.08C28.45 55.01 28.56 55.04 28.63 55.18C28.71 55.35 28.82 55.34 28.97 55.28C30.34 54.68 31.72 54.09 33.1 53.51C33.29 53.43 33.33 53.34 33.29 53.14C32.97 51.77 32.68 50.38 32.43 49C32.39 48.79 32.31 48.81 32.16 48.87C31.33 49.23 30.49 49.59 29.65 49.95C28.9 50.27 28.16 50.6 27.41 50.92C27.24 50.99 27.13 51.06 27.2 51.27C27.26 51.46 27.12 51.54 26.97 51.6C25.87 52.07 24.78 52.54 23.68 53.01C22.64 53.46 21.59 53.91 20.55 54.35C20.43 54.4 20.3 54.44 20.18 54.5C20 54.57 19.91 54.47 19.85 54.33C19.77 54.18 19.85 54.08 19.99 54.01C20.41 53.83 20.83 53.65 21.24 53.47C23.08 52.68 24.91 51.89 26.75 51.11C27 51.01 27.03 50.89 26.95 50.66C26.53 49.37 26.13 48.08 25.8 46.77C25.75 46.56 25.66 46.55 25.48 46.63C23.28 47.58 21.08 48.52 18.87 49.46C18.61 49.57 18.35 49.68 18.09 49.79C17.92 49.87 17.76 49.91 17.66 49.69C17.56 49.47 17.7 49.39 17.87 49.31C18.92 48.86 19.96 48.41 21 47.96C22.42 47.35 23.84 46.74 25.25 46.13C25.47 46.04 25.64 45.98 25.73 46.28C25.77 46.43 25.87 46.36 25.96 46.32C27.1 45.83 28.24 45.34 29.38 44.85C30.02 44.57 30.67 44.29 31.31 44.02C31.5 43.94 31.55 43.85 31.52 43.63C31.31 42.24 31.12 40.84 30.94 39.44C30.91 39.22 30.86 39.16 30.65 39.26C28.72 40.09 26.79 40.92 24.86 41.75C24.74 41.8 24.66 41.85 24.7 42C24.76 42.21 24.66 42.33 24.46 42.42C22.93 43.07 21.4 43.73 19.86 44.39C18.74 44.87 17.61 45.35 16.49 45.83C16.33 45.9 16.16 46.02 16.04 45.76C15.93 45.51 16.09 45.42 16.28 45.34C18.58 44.36 20.88 43.37 23.18 42.39C23.58 42.22 23.98 42.04 24.38 41.87C24.52 41.81 24.56 41.74 24.52 41.59C24.24 40.23 23.96 38.86 23.75 37.49C23.71 37.25 23.65 37.17 23.39 37.28C20.47 38.54 17.54 39.79 14.62 41.05C14.4 41.14 14.34 41.06 14.28 40.88C13.29 37.92 12.4 34.92 11.6 31.9C10.74 28.68 9.99995 25.43 9.32995 22.16C8.69995 19.08 8.14995 15.99 7.64995 12.88C7.56995 12.36 7.48995 11.83 7.39995 11.31C7.35995 11.09 7.42995 10.99 7.62995 10.9C9.61995 10.05 11.63 9.26998 13.68 8.57998C16.2 7.71998 18.75 6.97998 21.35 6.37998C21.75 6.28998 21.75 6.28998 21.75 6.68998C21.73 9.46998 21.71 12.24 21.77 15.02C21.81 17.04 21.9 19.07 22.01 21.09C22.1 22.66 22.21 24.23 22.33 25.79C22.48 27.62 22.67 29.45 22.9 31.27C23.13 33.07 23.39 34.87 23.69 36.67C23.75 37.05 23.75 37.05 24.1 36.9C26.04 36.07 27.98 35.23 29.92 34.39C30.4 34.18 30.41 34.18 30.46 34.68C30.62 36.04 30.79 37.4 30.94 38.77C30.97 39.04 31.07 39.02 31.26 38.94C32.92 38.22 34.58 37.51 36.25 36.8C36.49 36.7 36.74 36.59 36.98 36.49C37.13 36.43 37.2 36.33 37.19 36.17C37.14 34.89 37.12 33.61 37.04 32.34C36.99 31.41 36.95 31.4 37.79 31.03C39.81 30.15 41.8499 29.29 43.8699 28.41C44.0599 28.33 44.13 28.38 44.13 28.58C44.1 29.74 44.0799 30.91 44.0499 32.07C44.0499 32.46 44.0499 32.85 44.0299 33.23C44.0299 33.42 44.08 33.44 44.24 33.36C45.8 32.69 47.36 32.02 48.91 31.36C49.56 31.08 50.2099 30.79 50.8699 30.52C51.0699 30.44 51.15 30.32 51.16 30.09C51.23 28.52 51.31 26.95 51.38 25.38C51.38 25.19 51.4999 25.12 51.6399 25.06C53.4099 24.3 55.1699 23.54 56.9399 22.78C57.4499 22.56 57.9699 22.34 58.4799 22.12C58.6499 22.05 58.73 21.95 58.74 21.76C58.78 21 58.86 20.25 58.88 19.49C58.93 17.77 58.9899 16.04 59.0299 14.32C59.0799 12.22 59.05 10.11 59.06 8.00998C59.06 7.54998 59.03 7.07998 59.02 6.61998C59.02 6.29998 59.04 6.26998 59.36 6.33998C60.69 6.63998 62.01 6.98998 63.32 7.36998C65.26 7.92998 67.18 8.55998 69.07 9.25998C70.43 9.75998 71.77 10.3 73.11 10.87C73.33 10.96 73.42 11.06 73.38 11.33C73.15 12.87 72.89 14.4 72.63 15.93C72.6 16.11 72.5 16.18 72.35 16.25C70.94 16.85 69.5299 17.46 68.1199 18.07C65.2799 19.29 62.45 20.5 59.61 21.72C59.61 21.72 59.59 21.73 59.58 21.73C58.89 21.84 58.76 22.3 58.74 22.92C58.69 24.29 58.5699 25.66 58.4199 27.02C58.3899 27.27 58.5 27.21 58.65 27.15C60.1 26.53 61.5599 25.9 63.0099 25.28C65.1399 24.36 67.27 23.45 69.41 22.53C70 22.28 70.59 22.02 71.18 21.77C71.26 21.73 71.35 21.66 71.44 21.75C71.51 21.83 71.48 21.93 71.46 22.02C71.41 22.22 71.2699 22.31 71.0999 22.39C69.4699 23.09 67.84 23.78 66.22 24.48C64.08 25.4 61.9399 26.32 59.7999 27.24C59.3999 27.41 58.9999 27.58 58.5999 27.75C58.4299 27.83 58.29 27.84 58.32 27.59C58.34 27.41 58.2699 27.4 58.1199 27.46C56.0799 28.34 54.06 29.25 52 30.06C51.34 30.32 51.14 30.68 51.13 31.34C51.13 32.67 50.98 34 50.86 35.33C50.84 35.51 50.86 35.6 51.08 35.51C52.54 34.88 54 34.25 55.47 33.63C56.11 33.36 56.74 33.08 57.38 32.82C57.59 32.73 57.7399 32.63 57.7599 32.38C57.7699 32.2 57.9 32.1 58.06 32.04C60.08 31.17 62.0999 30.31 64.1199 29.44C66.0799 28.6 68.04 27.76 70 26.92C70.11 26.87 70.25 26.74 70.36 26.87C70.47 27.01 70.36 27.16 70.29 27.29C70.21 27.42 70.07 27.47 69.94 27.53C67.87 28.42 65.8 29.31 63.72 30.19C61.83 31 59.9399 31.81 58.0499 32.62C57.8599 32.7 57.78 32.82 57.75 33.02C57.51 34.64 57.29 36.26 56.99 37.87C56.98 37.93 56.92 38.01 56.99 38.06C57.06 38.11 57.13 38.06 57.2 38.02C59.05 37.22 60.8999 36.42 62.7599 35.63C64.6599 34.81 66.55 34 68.45 33.19C68.54 33.15 68.6599 33.04 68.7599 33.16C68.8399 33.26 68.76 33.38 68.72 33.48C68.66 33.64 68.5199 33.72 68.3699 33.79C66.0499 34.79 63.72 35.78 61.4 36.78C60 37.38 58.6 37.98 57.2 38.58C57.02 38.66 56.8099 38.81 56.7799 38.41C56.7699 38.22 56.5899 38.36 56.5099 38.39C55.8399 38.67 55.17 38.96 54.5 39.25C53.21 39.8 51.93 40.36 50.63 40.9C50.41 40.99 50.3099 41.11 50.2799 41.35C50.1399 42.76 49.95 44.17 49.75 45.57C49.72 45.8 49.5799 46.13 49.7099 46.24C49.8699 46.37 50.13 46.13 50.34 46.04C52.03 45.32 53.72 44.59 55.41 43.87C55.6 43.79 55.73 43.69 55.77 43.47C55.81 43.26 55.96 43.13 56.15 43.05C58.46 42.06 60.77 41.08 63.07 40.09C64.32 39.55 65.58 39.01 66.83 38.48C66.94 38.43 67.0899 38.3 67.1899 38.42C67.3099 38.56 67.1799 38.72 67.0999 38.86C67.0299 38.98 66.8999 39.03 66.7799 39.08C64.9799 39.85 63.1799 40.63 61.3699 41.4C59.5899 42.16 57.82 42.92 56.04 43.68C55.85 43.76 55.73 43.86 55.68 44.07C55.28 45.75 54.84 47.41 54.32 49.06C54.32 49.06 54.32 49.08 54.32 49.09C54.32 49.19 54.21 49.31 54.29 49.39C54.39 49.48 54.5 49.36 54.59 49.32C56.98 48.3 59.38 47.27 61.77 46.24C62.76 45.81 63.75 45.39 64.75 44.97C64.82 44.94 64.9099 44.85 64.9799 44.93C65.0499 45 64.9699 45.09 64.9399 45.16C64.0999 47.43 63.15 49.65 62.13 51.84C60.82 54.65 59.38 57.39 57.72 60.01C55.59 63.38 53.17 66.52 50.25 69.24C48.38 70.98 46.3299 72.46 44.0099 73.55C43.1899 73.93 42.3499 74.25 41.4799 74.49C41.2799 74.55 41.2 74.49 41.2 74.28C41.2 73.36 41.2 72.44 41.2 71.52C41.2 71.38 41.25 71.27 41.36 71.18C44.05 68.96 46.1999 66.29 48.0299 63.33C49.7899 60.49 51.21 57.48 52.41 54.36C52.97 52.89 53.49 51.41 53.97 49.91C53.99 49.85 54 49.79 54.04 49.65L54.06 49.72ZM43.7599 43.34C43.7466 43.6666 43.8899 43.7633 44.1899 43.63C46.0799 42.82 47.9599 42 49.8499 41.21C50.1699 41.07 50.2799 40.89 50.2999 40.56C50.4299 39.05 50.58 37.55 50.72 36.04C50.72 35.98 50.77 35.9 50.72 35.85C50.65 35.79 50.5799 35.85 50.5099 35.89C49.9299 36.14 49.3399 36.39 48.7599 36.64C47.2099 37.3 45.6699 37.97 44.1199 38.63C43.9699 38.69 43.8999 38.78 43.8899 38.95C43.8499 40.42 43.8 41.88 43.75 43.35L43.7599 43.34ZM43.93 34.4C43.93 34.2 43.93 34 43.93 33.8C43.93 33.67 43.87 33.63 43.75 33.68C43.65 33.72 43.5599 33.76 43.4599 33.8C41.4899 34.65 39.51 35.5 37.53 36.34C37.34 36.42 37.28 36.54 37.29 36.73C37.35 38.21 37.42 39.7 37.47 41.18C37.47 41.36 37.55 41.36 37.68 41.3C37.91 41.2 38.15 41.1 38.39 41C40.11 40.26 41.83 39.52 43.56 38.78C43.73 38.71 43.81 38.63 43.82 38.43C43.85 37.09 43.8899 35.74 43.9199 34.4H43.93ZM43.6399 44.29C43.6399 44.15 43.7199 43.93 43.4199 44.06C41.6099 44.84 39.8 45.61 37.99 46.38C37.82 46.45 37.77 46.55 37.78 46.73C37.84 47.64 37.89 48.54 37.95 49.45C37.98 49.99 38.02 50.53 38.07 51.06C38.08 51.21 38.1 51.38 38.34 51.27C39.96 50.57 41.59 49.87 43.22 49.17C43.37 49.1 43.4299 49.01 43.4399 48.85C43.5099 47.33 43.58 45.81 43.65 44.29H43.6399ZM37.66 46.21C37.61 45.18 37.56 44.09 37.5 42.99C37.48 42.58 37.44 42.18 37.42 41.77C37.42 41.59 37.36 41.53 37.18 41.62C35.4 42.39 33.61 43.16 31.83 43.92C31.7 43.98 31.64 44.04 31.67 44.2C31.91 45.61 32.15 47.02 32.39 48.43C32.42 48.63 32.49 48.68 32.69 48.59C33.46 48.25 34.24 47.93 35.01 47.59C35.83 47.24 36.65 46.89 37.46 46.53C37.57 46.48 37.71 46.45 37.67 46.21H37.66Z" fill="white"/>
<path d="M32.7099 20.09C32.6199 20.09 32.5399 20.09 32.4499 20.09C32.1999 20.11 32.0799 19.99 32.0599 19.75C31.8999 18.32 31.7299 16.89 31.5599 15.46C31.3799 13.88 31.1999 12.3 31.0199 10.72C30.9599 10.2 30.9099 9.69 30.8499 9.17C30.8499 9.09 30.8499 8.96 30.7599 8.95C30.6199 8.95 30.6599 9.09 30.6499 9.17C30.4499 10.71 30.2499 12.25 30.0499 13.79C29.7999 15.75 29.5499 17.71 29.2899 19.67C29.2699 19.86 29.2599 20.05 29.2199 20.23C29.1699 20.48 28.8399 20.63 28.6099 20.53C28.4799 20.47 28.4799 20.35 28.4999 20.24C28.6299 19.23 28.7599 18.21 28.8899 17.2C29.0799 15.76 29.2599 14.33 29.4499 12.89C29.7699 10.42 30.0899 7.95 30.3999 5.49C30.4199 5.34 30.4299 5.19 30.4499 5.04C30.4799 4.86 30.5699 4.73 30.7599 4.73C30.9499 4.73 31.0499 4.86 31.0699 5.04C31.1399 5.62 31.2199 6.2 31.2799 6.79C31.4599 8.39 31.6399 9.99 31.8199 11.59C32.0199 13.4 32.2299 15.2 32.4299 17.01C32.4999 17.64 32.5799 18.27 32.6499 18.9C32.6899 19.21 32.8399 19.36 33.1599 19.35C33.5799 19.34 33.9899 19.32 34.4099 19.27C34.8899 19.22 35.1099 18.99 35.1799 18.5C35.2999 17.7 35.0999 16.94 34.9099 16.18C34.4899 14.51 33.7899 12.94 33.1699 11.35C32.6899 10.13 32.1799 8.93 31.9699 7.63C31.8599 6.94 31.8399 6.26 32.0199 5.57C32.1399 5.12 32.4299 4.84 32.8699 4.69C33.3999 4.51 33.9599 4.45 34.5199 4.4C34.7499 4.38 34.9099 4.45 34.9299 4.71C34.9499 4.96 34.8699 5.09 34.5899 5.11C34.1399 5.15 33.6899 5.19 33.2399 5.3C32.8599 5.39 32.6899 5.61 32.6499 5.99C32.5199 7.1 32.7499 8.16 33.1199 9.19C33.7699 11.03 34.5799 12.81 35.1999 14.66C35.5599 15.71 35.8799 16.77 35.9299 17.89C35.9499 18.26 35.9299 18.63 35.7999 18.98C35.5699 19.65 35.0299 19.91 34.3799 19.97C33.8199 20.02 33.2699 20.06 32.7099 20.1V20.09Z" fill="white"/>
<path d="M27.45 8.61999C27.29 9.21999 27.13 9.78999 26.97 10.36C26.86 10.76 26.75 11.16 26.64 11.56C26.58 11.77 26.46 11.93 26.23 11.93C26.01 11.93 25.91 11.75 25.85 11.56C25.55 10.64 25.25 9.71999 24.95 8.80999C24.92 8.70999 24.89 8.61999 24.84 8.48999C24.7 8.61999 24.75 8.74999 24.75 8.85999C24.75 12.83 24.75 16.8 24.75 20.77C24.75 21.04 24.7 21.24 24.4 21.3C24.16 21.35 24.05 21.26 24.03 21.01C24.03 20.94 24.03 20.88 24.03 20.81C24.03 16.03 24.03 11.24 24.03 6.45999C24.03 6.02999 24.13 5.81999 24.37 5.80999C24.72 5.78999 24.78 6.07999 24.86 6.32999C25.24 7.49999 25.63 8.66999 26.01 9.83999C26.04 9.93999 26.04 10.1 26.2 10.09C26.34 10.08 26.33 9.92999 26.36 9.81999C26.75 8.39999 27.14 6.96999 27.52 5.53999C27.58 5.31999 27.66 5.12999 27.93 5.15999C28.19 5.18999 28.25 5.39999 28.25 5.61999C28.25 6.73999 28.25 7.85999 28.25 8.96999C28.25 12.7 28.25 16.43 28.25 20.17C28.25 20.53 28.14 20.66 27.83 20.69C27.66 20.7 27.53 20.65 27.52 20.45C27.52 20.32 27.5 20.19 27.5 20.05C27.5 16.3 27.5 12.55 27.5 8.79999C27.5 8.74999 27.52 8.68999 27.41 8.60999L27.45 8.61999Z" fill="white"/>
<path d="M39.73 12.09C39.73 9.68999 39.73 7.3 39.73 4.9C39.73 4.34 39.94 4.14999 40.5 4.18999C40.78 4.20999 41.07 4.18999 41.35 4.17999C42 4.12999 42.64 4.16999 43.19 4.58999C43.84 5.08999 44.06 5.96 43.72 6.71C43.28 7.68 42.84 8.65999 42.37 9.61999C42.16 10.03 42.14 10.42 42.23 10.85C42.76 13.45 43.28 16.05 43.8 18.64C43.85 18.89 43.94 18.98 44.21 18.99C45.36 19.05 46.52 19.09 47.67 19.21C47.91 19.23 47.98 19.36 47.97 19.57C47.96 19.79 47.87 19.94 47.62 19.92C47.08 19.88 46.54 19.84 46.01 19.8C45.43 19.76 44.86 19.72 44.28 19.7C43.48 19.67 43.25 19.47 43.1 18.69C42.74 16.85 42.37 15.01 42 13.18C41.83 12.33 41.66 11.47 41.49 10.62C41.42 10.29 41.45 9.96999 41.6 9.64999C42.09 8.61999 42.56 7.58999 43.04 6.55999C43.33 5.93999 43.15 5.32999 42.61 5.03999C42.49 4.97999 42.37 4.93 42.23 4.93C41.73 4.93 41.23 4.93 40.72 4.92C40.53 4.92 40.44 5.01999 40.45 5.19999C40.45 5.30999 40.45 5.42999 40.45 5.53999C40.45 10.13 40.45 14.71 40.45 19.3C40.45 19.68 40.33 19.81 40.03 19.77C39.86 19.75 39.75 19.66 39.75 19.47C39.75 19.38 39.75 19.28 39.75 19.19C39.75 16.83 39.75 14.47 39.75 12.11L39.73 12.09Z" fill="white"/>
<path d="M52.9601 13.26C52.9601 15.54 52.9601 17.83 52.9601 20.11C52.9601 20.59 52.9201 20.66 52.6701 20.66C52.3501 20.66 52.2501 20.52 52.2501 20.07C52.2501 15.52 52.2501 10.98 52.2501 6.43001C52.2501 6.36001 52.2501 6.30001 52.2501 6.23001C52.2501 5.77001 52.2501 5.76001 51.7901 5.69001C51.3001 5.62001 50.8201 5.56001 50.3301 5.50001C49.9901 5.46001 49.9301 5.50001 49.9301 5.86001C49.9301 8.05001 49.9301 10.24 49.9301 12.43C49.9301 14.9 49.9301 17.38 49.9301 19.85C49.9301 20.24 49.7301 20.38 49.3901 20.22C49.2601 20.16 49.2001 20.07 49.1901 19.93C49.1901 19.82 49.1901 19.7 49.1901 19.59C49.1901 15.02 49.1901 10.46 49.1901 5.89001C49.1901 5.53001 49.0168 5.33667 48.6701 5.31001C48.5601 5.30001 48.4501 5.28001 48.3301 5.26001C48.0501 5.22001 47.9501 5.09001 47.9901 4.82001C48.0301 4.57001 48.1801 4.54001 48.4001 4.57001C50.2401 4.74001 52.0701 5.00001 53.8901 5.29001C53.9901 5.31001 54.1001 5.32001 54.2001 5.34001C54.4801 5.39001 54.5701 5.51001 54.5301 5.79001C54.4901 6.06001 54.3301 6.10001 54.1001 6.05001C53.8401 6.00001 53.5801 5.96001 53.3201 5.91001C52.9901 5.85001 52.9601 5.87001 52.9601 6.21001C52.9601 8.56001 52.9601 10.91 52.9601 13.26V13.26Z" fill="white"/>
<path d="M57.3301 21.07C57.3401 21.28 57.3301 21.43 57.1201 21.45C56.8801 21.46 56.6501 21.3 56.6301 21.08C56.5701 20.54 56.5101 20.01 56.4601 19.47C56.3401 18.21 56.2101 16.95 56.0901 15.68C55.9601 14.36 55.8401 13.04 55.7101 11.73C55.6501 11.16 55.6001 10.58 55.5301 10.01C55.5301 9.93001 55.5301 9.80001 55.4301 9.80001C55.3101 9.80001 55.3401 9.93001 55.3301 10C55.1601 11.21 55.0001 12.42 54.8301 13.63C54.5701 15.49 54.3101 17.36 54.0601 19.22C54.0001 19.65 53.9401 20.08 53.8901 20.51C53.8601 20.8 53.6801 20.8 53.4601 20.77C53.2401 20.74 53.1501 20.62 53.1901 20.39C53.4601 18.45 53.7301 16.51 53.9901 14.57C54.2301 12.82 54.4601 11.06 54.6901 9.31001C54.8401 8.21001 54.9901 7.12001 55.1401 6.02001C55.1701 5.80001 55.2701 5.62001 55.5101 5.63001C55.7401 5.64001 55.8201 5.82001 55.8401 6.03001C56.0101 7.83001 56.1901 9.63001 56.3601 11.43C56.5001 12.82 56.6501 14.22 56.7901 15.61C56.9301 17.07 57.0701 18.53 57.2101 19.99C57.2501 20.37 57.2901 20.74 57.3201 21.07H57.3301Z" fill="white"/>
<path d="M37.08 12.36C37.08 10.05 37.08 7.73998 37.08 5.42998C37.08 4.96998 37.08 4.95998 36.62 4.97998C36.43 4.97998 36.24 4.97998 36.05 5.00998C35.8 5.03998 35.7 4.90998 35.68 4.68998C35.66 4.47998 35.73 4.32998 35.99 4.30998C37.02 4.22998 38.05 4.20998 39.08 4.19998C39.29 4.19998 39.36 4.32998 39.36 4.50998C39.36 4.69998 39.34 4.88998 39.09 4.89998C38.82 4.91998 38.54 4.90998 38.27 4.91998C37.84 4.91998 37.81 4.95998 37.81 5.39998C37.81 9.94998 37.81 14.51 37.81 19.06C37.81 19.21 37.81 19.36 37.81 19.51C37.79 19.74 37.64 19.81 37.44 19.81C37.24 19.81 37.09 19.73 37.09 19.5C37.09 19.11 37.09 18.72 37.09 18.34C37.09 16.35 37.09 14.36 37.09 12.37L37.08 12.36Z" fill="white"/>
<path d="M58.14 29.3C58.17 29.09 58.28 28.97 58.47 28.88C60.17 28.16 61.86 27.43 63.56 26.7C65.94 25.68 68.33 24.66 70.71 23.64C70.83 23.59 70.99 23.43 71.08 23.59C71.18 23.77 71.06 23.96 70.92 24.09C70.86 24.15 70.77 24.17 70.69 24.21C67.15 25.73 63.61 27.26 60.08 28.78C59.52 29.02 58.97 29.26 58.41 29.49C58.21 29.57 58.11 29.5 58.14 29.3V29.3Z" fill="white"/>
<path d="M57.9899 30.74C58.0099 30.56 58.1099 30.43 58.3099 30.34C59.9199 29.65 61.5299 28.96 63.1399 28.27C65.5499 27.24 67.9599 26.2 70.3699 25.17C70.4899 25.12 70.6699 24.94 70.7599 25.14C70.8499 25.32 70.7399 25.53 70.5599 25.65C70.4199 25.73 70.2699 25.79 70.1199 25.85C66.1899 27.54 62.2499 29.22 58.3199 30.91C58.0499 31.02 57.9799 30.99 57.9899 30.74V30.74Z" fill="white"/>
<path d="M68.2599 35.17C68.2299 35.47 68.0399 35.6 67.7799 35.71C66.5199 36.25 65.2499 36.79 63.9899 37.33C61.6099 38.35 59.2199 39.38 56.8399 40.4C56.7299 40.45 56.5999 40.59 56.4899 40.43C56.3999 40.3 56.4899 40.16 56.5599 40.03C56.6199 39.94 56.7099 39.89 56.7999 39.84C59.2299 38.8 61.6599 37.76 64.0899 36.72C65.3299 36.19 66.5799 35.65 67.8199 35.12C67.8999 35.09 67.9799 35.05 68.0599 35.02C68.1999 34.97 68.2799 35 68.2599 35.17V35.17Z" fill="white"/>
<path d="M56.1502 41.86C56.1902 41.56 56.3202 41.42 56.5402 41.33C57.7302 40.83 58.9102 40.32 60.0902 39.81C62.5102 38.77 64.9202 37.73 67.3402 36.7C67.4802 36.64 67.6302 36.46 67.7902 36.64C67.8902 36.75 67.6902 37.11 67.5002 37.2C67.1402 37.36 66.7702 37.52 66.4102 37.68C63.1002 39.1 59.7802 40.52 56.4702 41.95C56.2202 42.06 56.1302 42.03 56.1502 41.87V41.86Z" fill="white"/>
<path d="M25.0499 43.63C25.0799 43.81 24.9299 43.86 24.7999 43.92C23.8999 44.31 22.9899 44.7 22.0899 45.09C20.3999 45.81 18.7099 46.54 17.0299 47.26C16.9099 47.31 16.7799 47.41 16.6399 47.26C16.4799 47.08 16.5299 46.9 16.7699 46.79C17.6699 46.4 18.5799 46.01 19.4799 45.62C21.1899 44.88 22.9099 44.15 24.6199 43.41C24.9099 43.29 25.0399 43.34 25.0499 43.62V43.63Z" fill="white"/>
<path d="M17.3001 48.51C17.1401 48.51 17.0801 48.39 17.0401 48.27C16.9901 48.13 17.0601 48.05 17.1701 48C17.4101 47.89 17.6601 47.79 17.9001 47.68C20.2401 46.68 22.5801 45.67 24.9201 44.67C25.0701 44.6 25.2401 44.49 25.3401 44.75C25.4301 44.97 25.3201 45.08 25.1201 45.17C22.5801 46.26 20.0401 47.35 17.5001 48.44C17.4301 48.47 17.3601 48.49 17.3001 48.52V48.51Z" fill="white"/>
<path d="M27.7101 52.74C27.7101 52.91 27.5801 52.96 27.4601 53.01C26.3401 53.49 25.2201 53.98 24.0901 54.46C23.0501 54.9 22.0201 55.35 20.9801 55.79C20.8801 55.83 20.7701 55.91 20.6601 55.84C20.5601 55.78 20.4901 55.69 20.4801 55.57C20.4701 55.42 20.5901 55.39 20.7001 55.35C22.4701 54.58 24.2501 53.82 26.0201 53.05C26.4501 52.86 26.8901 52.67 27.3301 52.49C27.5501 52.4 27.7101 52.52 27.7101 52.74Z" fill="white"/>
<path d="M21.4 56.99C21.21 56.98 21.14 56.87 21.11 56.74C21.07 56.58 21.18 56.52 21.29 56.47C21.84 56.23 22.38 56 22.93 55.76C24.5 55.08 26.08 54.41 27.65 53.74C27.81 53.67 27.99 53.57 28.11 53.81C28.21 54.02 28.11 54.12 27.93 54.2C26.85 54.66 25.77 55.13 24.7 55.59C23.67 56.03 22.65 56.47 21.62 56.91C21.54 56.94 21.46 56.97 21.4 56.99V56.99Z" fill="white"/>
<path d="M46.6901 5.12C45.9201 5.07 45.1401 5.02 44.3701 4.97C44.1201 4.95 44.0801 4.78 44.0801 4.6C44.0801 4.41 44.1701 4.26 44.3901 4.27C45.1701 4.32 45.9601 4.37 46.7401 4.42C47.0101 4.44 47.0901 4.6 47.0801 4.84C47.0701 5.09 46.9101 5.15 46.6901 5.12V5.12Z" fill="white"/>
<path d="M45.4501 9.76999C45.7701 9.77999 46.1801 9.75999 46.5901 9.81999C46.8401 9.85999 46.8701 10.02 46.8601 10.21C46.8501 10.4 46.7601 10.54 46.5401 10.52C45.8501 10.46 45.1601 10.48 44.4701 10.47C44.1901 10.47 44.0601 10.33 44.0801 10.07C44.1001 9.88999 44.1801 9.76999 44.3801 9.76999C44.7101 9.76999 45.0401 9.76999 45.4601 9.76999H45.4501Z" fill="white"/>
</g>
<defs>
<clipPath id="clip0_13_6755">
<rect width="70.78" height="75" fill="white" transform="translate(5 2)"/>
</clipPath>
</defs>
</svg>
