<svg width="80" height="80" viewBox="0 0 80 80" fill="none" xmlns="http://www.w3.org/2000/svg">
<g clip-path="url(#clip0_13_6777)">
<path d="M11.4752 19.7802H12.9773V26.7678H11.3792V21.6242L8.29367 24.5689L5.20885 21.6242V26.7678H3.61084V19.7802H5.11212L8.29367 22.817L11.4752 19.7802ZM21.9141 24.3891L20.1881 21.4094L18.4621 24.3891H21.9141ZM20.9102 19.7802L25.0393 26.7678H23.292L22.5173 25.4296H17.8589L17.0843 26.7678H15.337L19.466 19.7802H20.9102ZM32.4725 19.7802H34.3737L30.5394 23.9557V26.7678H28.8667V23.9557L25.0324 19.7802H26.9343L29.7031 22.7957L32.4725 19.7802ZM38.2522 22.6052H41.1512C41.7674 22.6052 42.2663 22.2054 42.2663 21.7125C42.2663 21.2205 41.7674 20.8206 41.1512 20.8206H38.2522V22.6052ZM41.8946 23.6457H38.2522V25.7274H41.8946C42.593 25.7274 43.1582 25.2612 43.1582 24.6862C43.1582 24.1118 42.593 23.6457 41.8946 23.6457ZM43.9016 21.7125C43.9016 22.1398 43.7257 22.5344 43.4286 22.8543C44.2421 23.2062 44.7935 23.8948 44.7935 24.6862C44.7935 25.8355 43.6289 26.7678 42.1924 26.7678H36.6169V19.7802H41.449C42.804 19.7802 43.9016 20.6454 43.9016 21.7125ZM53.1363 24.3891L51.4095 21.4094L49.6835 24.3891H53.1363ZM52.1324 19.7802L56.2614 26.7678H54.5141L53.7387 25.4296H49.0811L48.3057 26.7678H46.5591L50.6882 19.7802H52.1324ZM66.0544 20.1442V21.3226C65.2028 20.9181 64.0839 20.6721 62.8576 20.6721C60.8871 20.6721 59.2899 21.8367 59.2899 23.274C59.2899 24.7105 60.8871 25.8759 62.8576 25.8759C64.0839 25.8759 65.2028 25.6299 66.0544 25.2254V26.4037C65.1198 26.729 64.026 26.9164 62.8576 26.9164C59.9427 26.9164 57.5799 25.2856 57.5799 23.274C57.5799 21.2624 59.9427 19.6316 62.8576 19.6316C64.026 19.6316 65.1198 19.8182 66.0544 20.1442ZM75.5693 19.7802H77.2047V26.7678H75.5693V23.6457H70.3655V26.7678H68.731V19.7802H70.3655V22.6052H75.5693V19.7802Z" fill="#151317"/>
<path d="M4.98565 21.1032L8.29364 24.2604L11.6024 21.1032V26.5447H12.7541V20.0033H11.5651L8.29364 23.1255L5.02297 20.0033H3.83398V26.5447H4.98565V21.1032ZM18.0752 24.6123L20.1881 20.9638L22.301 24.6123H18.0752ZM19.5932 20.0033L15.7277 26.5447H16.9555L17.7309 25.2064H22.6453L23.4207 26.5447H24.6485L20.783 20.0033H19.5932ZM32.5708 20.0033L29.703 23.1255L26.8361 20.0033H25.5404L29.0899 23.8689V26.5447H30.3162V23.8689L33.8664 20.0033H32.5708ZM41.1511 22.8276H38.029V20.5974H41.1511C41.89 20.5974 42.4894 21.0971 42.4894 21.7125C42.4894 22.3287 41.89 22.8276 41.1511 22.8276ZM41.8945 23.4225C42.7164 23.4225 43.3813 23.9885 43.3813 24.6862C43.3813 25.3846 42.7164 25.9498 41.8945 25.9498H38.029V23.4225H41.8945ZM43.0035 22.9389C43.4202 22.6281 43.6792 22.1939 43.6792 21.7125C43.6792 20.7688 42.6806 20.0033 41.449 20.0033H36.8392V26.5447H42.1924C43.5063 26.5447 44.5711 25.7129 44.5711 24.6862C44.5711 23.8826 43.9176 23.1978 43.0035 22.9389ZM49.2973 24.6123L51.4095 20.9638L53.5232 24.6123H49.2973ZM50.8154 20.0033L46.9498 26.5447H48.1777L48.9523 25.2064H53.8674L54.6421 26.5447H55.8699L52.0044 20.0033H50.8154ZM65.8312 20.3004C64.9545 20.017 63.9392 19.854 62.8576 19.854C60.066 19.854 57.8031 21.385 57.8031 23.274C57.8031 25.1622 60.066 26.6932 62.8576 26.6932C63.9392 26.6932 64.9545 26.5309 65.8312 26.2476V25.5583C64.9972 25.898 63.9696 26.0991 62.8576 26.0991C60.7645 26.0991 59.0667 24.8339 59.0667 23.274C59.0667 21.7141 60.7645 20.4489 62.8576 20.4489C63.9696 20.4489 64.9972 20.6492 65.8312 20.9889V20.3004ZM70.1431 20.0033H68.9541V26.5447H70.1431V23.4225H75.7925V26.5447H76.9822V20.0033H75.7925V22.8276H70.1431V20.0033Z" fill="white"/>
<path d="M54.1097 52.934C51.9321 47.7682 48.3209 43.3535 43.7737 40.1933C43.7737 40.1933 41.4033 38.5503 40.4078 38.5503C39.413 38.5503 37.0419 40.1933 37.0419 40.1933C32.4947 43.3535 28.8835 47.7682 26.7066 52.934C26.7066 52.934 25.9609 54.7049 25.9609 55.5938C25.9609 55.6989 25.9815 55.7994 26.0181 55.8916C26.0546 55.9845 26.1087 56.0713 26.1811 56.1475C26.7912 56.7934 28.5491 57.5696 28.5491 57.5696C32.1763 59.1737 36.1865 60.0709 40.4078 60.0709C44.6298 60.0709 48.6401 59.1737 52.2672 57.5696C52.2672 57.5696 54.0252 56.7934 54.6345 56.1475C54.7069 56.0713 54.7617 55.9845 54.7983 55.8916C54.8348 55.7994 54.8554 55.6989 54.8554 55.5938C54.8554 54.7049 54.1097 52.934 54.1097 52.934ZM53.3884 55.3317C53.3655 55.3911 53.3297 55.4475 53.284 55.497C52.8903 55.9137 51.7569 56.4141 51.7569 56.4141C50.9076 56.7896 50.037 57.124 49.1466 57.4157L48.998 46.7849C50.6014 48.7904 51.9336 51.0252 52.9451 53.4245C52.9451 53.4245 53.4257 54.5662 53.4257 55.1398C53.4257 55.2068 53.4128 55.2723 53.3884 55.3317ZM37.3603 58.6428V51.3405L40.4078 53.1693L43.456 51.3405V58.6428C42.4552 58.7517 41.4376 58.8073 40.4078 58.8073C39.378 58.8073 38.3611 58.7517 37.3603 58.6428ZM27.5323 55.497C27.4858 55.4475 27.4508 55.3911 27.4272 55.3317C27.4036 55.2723 27.3906 55.2068 27.3906 55.1398C27.3906 54.5662 27.8712 53.4245 27.8712 53.4245C28.8828 51.0252 30.2149 48.7912 31.8183 46.7849L31.6698 57.4157C30.7793 57.124 29.908 56.7896 29.0595 56.4141C29.0595 56.4141 27.9253 55.9137 27.5323 55.497ZM35.725 42.7868V48.4522L32.1892 46.3309C33.2601 45.0467 34.4446 43.8615 35.725 42.7868ZM35.725 58.4165C34.9031 58.2779 34.0942 58.1035 33.2982 57.8956L33.4231 48.9785L35.725 50.3595V58.4165ZM37.7625 41.2322C37.7625 41.2322 39.6255 39.9404 40.4078 39.9404C41.19 39.9404 43.0539 41.2322 43.0539 41.2322C43.6122 41.6199 44.1568 42.0259 44.6846 42.4524L40.4078 45.0178L36.1317 42.4524C36.6595 42.0259 37.2041 41.6199 37.7625 41.2322ZM48.6271 46.3309L45.0906 48.4522V42.7868C46.3718 43.8615 47.5562 45.0467 48.6271 46.3309ZM45.0906 50.3595L47.3932 48.9785L47.5173 57.8956C46.7221 58.1035 45.9125 58.2779 45.0906 58.4165V50.3595ZM43.456 49.4333L40.4078 51.2621L37.3603 49.4333V45.0962L40.4078 46.925L43.456 45.0962V49.4333Z" fill="#151317"/>
<path d="M26.4196 56.0332C26.9908 56.638 28.6391 57.3662 28.6391 57.3662C32.2388 58.9573 36.2194 59.8485 40.4079 59.8485C44.5971 59.8485 48.5769 58.9573 52.1766 57.3662C52.1766 57.3662 53.8249 56.638 54.3962 56.0332C54.464 55.9609 54.5158 55.8794 54.5493 55.7933C54.5843 55.7065 54.6026 55.612 54.6026 55.513C54.6026 54.6805 53.9041 53.0208 53.9041 53.0208C51.7432 47.8939 48.1595 43.5127 43.6473 40.3768C43.6473 40.3768 41.3653 38.7956 40.4079 38.7956C39.4504 38.7956 37.1692 40.3768 37.1692 40.3768C32.657 43.5127 29.0725 47.8939 26.9124 53.0208C26.9124 53.0208 26.2131 54.6805 26.2131 55.513C26.2131 55.612 26.2322 55.7065 26.2665 55.7933C26.3007 55.8794 26.3518 55.9609 26.4196 56.0332ZM27.6657 53.3376C29.7656 48.3547 33.2488 44.0969 37.6353 41.0486C37.6353 41.0486 39.5883 39.6951 40.4079 39.6951C41.2282 39.6951 43.1812 41.0486 43.1812 41.0486C47.5669 44.0969 51.0501 48.3547 53.1508 53.3376C53.1508 53.3376 53.6779 54.5914 53.6779 55.2197C53.6779 55.2936 53.6634 55.3652 53.6375 55.4307C53.6116 55.4962 53.5728 55.5572 53.5218 55.6112C53.0907 56.0683 51.8468 56.6174 51.8468 56.6174C48.3477 58.1644 44.4798 59.0304 40.4079 59.0304C36.3367 59.0304 32.4681 58.1644 28.9689 56.6174C28.9689 56.6174 27.7258 56.0683 27.294 55.6112C27.2429 55.5572 27.2041 55.4962 27.1782 55.4307C27.1523 55.3652 27.1378 55.2936 27.1378 55.2197C27.1378 54.5914 27.6657 53.3376 27.6657 53.3376ZM33.2054 48.5878L35.9482 50.233V58.4531C36.342 58.5163 36.7381 58.5711 37.1372 58.6176V50.9467L40.4079 52.9096L43.6793 50.9467V58.6176C44.0777 58.5711 44.4745 58.5163 44.869 58.4531V50.233L47.6111 48.5878L47.7398 57.8361C48.1382 57.7287 48.5327 57.6122 48.9242 57.4873L48.7711 46.5046L44.869 48.846V42.6017L40.4079 45.2775L35.9482 42.6017V48.846L32.0453 46.5046L31.8915 57.4873C32.283 57.6122 32.6775 57.7287 33.0767 57.8361L33.2054 48.5878ZM37.1372 44.7024L40.4079 46.6653L43.6793 44.7024V49.5597L40.4079 51.5225L37.1372 49.5597V44.7024Z" fill="white"/>
<path d="M28.4075 57.8895C28.4075 57.8895 26.4774 57.0371 25.8079 56.328C25.7279 56.2435 25.6685 56.1483 25.6281 56.0469C25.5878 55.9456 25.5657 55.8344 25.5657 55.7187C25.5657 54.7437 26.3845 52.7984 26.3845 52.7984C28.588 47.5709 32.2418 43.1044 36.8431 39.9061C36.8431 39.9061 39.3544 38.1657 40.4078 38.1657C41.462 38.1657 43.9733 39.9061 43.9733 39.9061C48.5746 43.1044 52.2284 47.5709 54.4312 52.7984C54.4312 52.7984 55.2507 54.7437 55.2507 55.7187C55.2507 55.8344 55.2279 55.9456 55.1875 56.0469C55.1479 56.1483 55.0877 56.2435 55.0085 56.328C54.3383 57.0371 52.4081 57.8895 52.4081 57.8895C48.7376 59.5118 44.6801 60.4205 40.4078 60.4205C36.1363 60.4205 32.0788 59.5118 28.4075 57.8895ZM54.4525 52.79C52.2467 47.558 48.5906 43.0884 43.9862 39.8878C43.9862 39.8878 41.4658 38.1413 40.4078 38.1413C39.3506 38.1413 36.8302 39.8878 36.8302 39.8878C32.2258 43.0884 28.569 47.558 26.3639 52.79C26.3639 52.79 25.5405 54.746 25.5405 55.727C25.5405 55.8436 25.5626 55.9548 25.603 56.0568C25.6441 56.1589 25.7043 56.2549 25.7835 56.3394C26.4568 57.0524 28.3991 57.91 28.3991 57.91C32.072 59.5339 36.1333 60.4426 40.4078 60.4426C44.6832 60.4426 48.7437 59.5339 52.4173 57.91C52.4173 57.91 54.3588 57.0524 55.0321 56.3394C55.1121 56.2549 55.1723 56.1589 55.2127 56.0568C55.253 55.9548 55.2759 55.8436 55.2759 55.727C55.2759 54.746 54.4525 52.79 54.4525 52.79Z" fill="#151317"/>
</g>
<defs>
<clipPath id="clip0_13_6777">
<rect width="75" height="41.8605" fill="white" transform="translate(3 19)"/>
</clipPath>
</defs>
</svg>
