<svg width="80" height="80" viewBox="0 0 80 80" fill="none" xmlns="http://www.w3.org/2000/svg">
<path d="M40.4969 42.2375C40.3844 42.2375 40.1688 42.0937 39.8031 41.425C38.2729 38.5759 36.1719 36.0728 33.6313 34.0719C31.6374 32.5081 29.4241 31.2467 27.0625 30.3281C26.7046 30.1827 26.3452 30.0411 25.9844 29.9031C22.8219 28.6531 19.5438 27.3625 16.5 25.6C16.1626 25.409 15.8292 25.211 15.5 25.0062C16.1063 23.9437 16.8125 22.9281 17.5938 22C18.7275 20.6448 20.0455 19.4551 21.5094 18.4656C23.081 17.4148 24.7801 16.5684 26.5656 15.9469C30.3719 14.5906 34.9312 13.925 40.4969 13.9187C46.0687 13.925 50.625 14.5906 54.4313 15.95C56.2181 16.5694 57.9183 17.4148 59.4906 18.4656C60.9625 19.4625 62.2781 20.65 63.4062 21.9969C64.1875 22.9281 64.8906 23.9437 65.5 25.0062C65.1781 25.2062 64.8375 25.4094 64.5 25.6062C61.45 27.3687 58.1781 28.6594 55.0094 29.9062L53.9313 30.3312C51.572 31.2505 49.3608 32.512 47.3687 34.075C44.827 36.0761 42.7258 38.5804 41.1969 41.4312C40.8312 42.0969 40.6125 42.2406 40.4969 42.2406M40.4969 64.3406C35.6719 64.3344 31.7531 63.9375 28.5281 63.1312C25.3625 62.3437 22.7312 61.1312 20.4781 59.4187C18.751 58.0924 17.2774 56.4653 16.1281 54.6156C15.0515 52.8898 14.2008 51.033 13.5969 49.0906C12.6551 46.0719 12.1633 42.9309 12.1375 39.7687C12.1375 37.6625 12.2844 35.6656 12.5594 33.8281C16.0156 35.6906 19.2875 36.625 22.1844 37.4531L22.8563 37.6406C26.8875 38.8 30.0875 40.3187 32.6531 42.2906C34.1375 43.4406 35.4344 44.7687 36.4969 46.2406C37.65 47.8281 38.5687 49.6406 39.2375 51.6312C39.5375 52.5344 39.8625 53.0937 40.4969 53.0937C41.1437 53.0937 41.4594 52.5312 41.7625 51.6312C42.9553 47.9209 45.2525 44.6632 48.3469 42.2937C50.9094 40.3187 54.1125 38.8 58.1437 37.6406L58.8187 37.4531C61.7125 36.625 64.9844 35.6906 68.4375 33.8281C68.7188 35.6687 68.8625 37.6625 68.8625 39.7656C68.8625 41.1969 68.7188 44.9656 67.4094 49.0906C66.8059 51.0326 65.9562 52.8894 64.8813 54.6156C63.7284 56.4665 62.2505 58.0937 60.5188 59.4187C58.2594 61.1312 55.6281 62.3437 52.475 63.1312C49.2406 63.9375 45.325 64.3344 40.4969 64.3406M70.7844 18.8531C64.8187 12.4469 55.1906 9.50937 40.4969 9.49374C25.8094 9.50937 16.1813 12.4437 10.2156 18.85C5.78125 23.6031 3 30.1812 3 39.1062C3 44.0406 4.21875 56.6062 14.1375 63.0937C20.075 66.975 27.7437 69.4875 40.4969 69.5062C53.2562 69.4875 60.9219 66.975 66.8625 63.0937C76.7781 56.6062 78 44.0375 78 39.1062C78 30.2062 75.1969 23.5812 70.7813 18.8469L70.7844 18.8531Z" fill="white"/>
</svg>
