<svg width="80" height="80" viewBox="0 0 80 80" fill="none" xmlns="http://www.w3.org/2000/svg">
<g clip-path="url(#clip0_13_6793)">
<path fill-rule="evenodd" clip-rule="evenodd" d="M57.9039 7.25132C69.8437 13.5306 78 26.0497 78 40.4803C78 54.9109 69.8437 67.4694 57.9039 73.7102V69.4194C62.4701 66.6879 66.3326 62.8658 69.1431 58.3421L57.9039 53.78V46.8375L70.2345 56.4711C72.8102 51.7125 74.2539 46.2908 74.2539 40.4793C74.2539 28.2326 67.6974 17.4691 57.9039 11.5401V7.25132V7.25132ZM40.5395 3C46.7832 3 52.6747 4.52171 57.9039 7.25132V11.5421C53.1039 8.65461 47.4849 6.93948 41.554 6.74408L45.8457 37.4388L57.9039 46.8385V53.7809L40.4605 46.7211L23.1345 53.8194V46.9155L35.2707 37.4378L39.524 6.74309C33.5142 6.93849 27.9345 8.65461 23.1345 11.5401V7.25132C28.3253 4.52171 34.2563 3 40.5395 3ZM57.9039 73.7102C52.6747 76.4398 46.7823 77.999 40.5395 77.999C34.2572 77.999 28.3263 76.4398 23.1355 73.7487V69.4194C28.2089 72.4994 34.1783 74.255 40.5395 74.255C46.8612 74.255 52.7931 72.4994 57.9039 69.4194V73.7102V73.7102ZM23.1355 73.7487C11.1553 67.4694 3 54.9109 3 40.4803C3 26.0497 11.1553 13.5306 23.1355 7.25132V11.5421C13.3016 17.4701 6.74605 28.1951 6.74605 40.4803C6.74605 46.2908 8.22928 51.7915 10.8049 56.549L23.1355 46.9155V53.8194L11.9359 58.4201C14.7454 62.9073 18.5694 66.6888 23.1355 69.4194V73.7487V73.7487Z" fill="white"/>
</g>
<defs>
<clipPath id="clip0_13_6793">
<rect width="75" height="74.999" fill="white" transform="translate(3 3)"/>
</clipPath>
</defs>
</svg>
