<svg width="80" height="80" viewBox="0 0 80 80" fill="none" xmlns="http://www.w3.org/2000/svg">
<path d="M39.1065 2C22.5057 2 9 15.5059 9 32.1068C9 48.7077 22.5057 62.2133 39.1065 62.2133C55.7074 62.2133 69.2131 48.7077 69.2131 32.1068C69.2131 15.5059 55.7074 2 39.1065 2ZM39.1065 60.6091C23.3901 60.6091 10.6043 47.823 10.6043 32.1068C10.6043 16.3906 23.3901 3.60426 39.1065 3.60426C54.823 3.60426 67.6088 16.3904 67.6088 32.1065C67.6088 47.8227 54.823 60.6091 39.1065 60.6091V60.6091Z" fill="white"/>
<path d="M39.1066 11.2754C27.6202 11.2754 18.2752 20.6204 18.2752 32.1068C18.2752 43.5932 27.6202 52.9379 39.1066 52.9379C50.593 52.9379 59.938 43.593 59.938 32.1065C59.938 20.6201 50.593 11.2754 39.1066 11.2754V11.2754ZM19.3853 32.1068C19.3853 21.2326 28.2321 12.3855 39.1066 12.3855C46.3466 12.3855 52.6844 16.3089 56.1144 22.1395L32.7794 22.1908C31.8176 22.1908 30.5593 22.1332 29.542 23.7448L20.6376 39.0217C19.8075 36.8108 19.3833 34.4683 19.3853 32.1068V32.1068ZM24.0464 44.8432L34.9196 26.2452C35.7566 24.8762 36.1174 24.5432 37.6019 24.5432H57.3188C57.4534 24.8666 57.5794 25.1935 57.6965 25.5236L39.3593 25.5772C38.3975 25.5772 37.1392 25.5197 36.1219 27.1312C36.1219 27.1312 25.1166 45.9926 25.1224 45.9983C24.7513 45.625 24.3924 45.2398 24.0464 44.8432V44.8432ZM29.8442 49.5129L41.6719 29.2773C42.5089 27.9083 42.8697 27.5754 44.3542 27.5754H58.3014C58.3288 27.6976 58.4583 28.272 58.5361 28.7214L46.1921 28.7769C45.2303 28.7769 43.972 28.7193 42.9547 30.3309L31.3245 50.2265C30.8213 50.0093 30.3275 49.7713 29.8442 49.5129V49.5129ZM39.1066 51.8279C38.4803 51.8279 37.8613 51.7971 37.2499 51.7398L48.5047 32.4765C49.3418 31.1075 49.7026 30.7745 51.187 30.7745H58.7818C58.8113 31.2148 58.8277 31.6587 58.8277 32.1065C58.8282 42.981 49.9811 51.8279 39.1066 51.8279V51.8279ZM13.6492 74.448C13.8441 73.7477 14.0856 72.9969 14.3737 72.195L15.9089 67.9416H18.1952V76.834H16.567V72.3282C16.567 71.668 16.5936 70.9013 16.6467 70.0286H16.5871C16.5115 70.2813 16.4232 70.5647 16.3211 70.8794C16.219 71.1939 16.1127 71.5039 16.0019 71.8097L14.1611 76.834H13.111L11.2702 71.8097C11.1587 71.5014 11.0523 71.1913 10.9511 70.8794C10.8591 70.5968 10.7704 70.3132 10.6851 70.0286H10.6254C10.6786 70.8482 10.7051 71.6125 10.7051 72.3214V76.834H9.0769V67.9416H11.3499L12.8851 72.1752C13.156 72.9232 13.3977 73.6814 13.6096 74.4482H13.6492V74.448ZM21.95 75.4715H26.3231V76.8338H20.3218V67.9413H26.0839V69.3038H21.95V71.6031H25.4991V72.9654H21.95V75.4715ZM34.6304 70.6132C34.6304 71.2335 34.4587 71.7594 34.1154 72.1916C33.772 72.6236 33.2416 72.9437 32.5236 73.1522V73.1787L35.1686 76.834H33.2148L30.7956 73.3913H29.679V76.834H28.0508V67.9416H30.7558C31.2031 67.9416 31.6196 67.9674 32.0052 68.0182C32.3908 68.069 32.7206 68.1456 32.9954 68.2474C33.518 68.447 33.9213 68.7424 34.205 69.1345C34.4887 69.5266 34.6304 70.0195 34.6304 70.6132ZM30.4833 72.0288C30.8555 72.0288 31.1713 72.0124 31.4305 71.9791C31.6897 71.9457 31.9078 71.8962 32.0852 71.8295C32.4129 71.7055 32.6401 71.5362 32.7664 71.3213C32.8928 71.1063 32.9558 70.8594 32.9558 70.5801C32.9558 70.3409 32.9061 70.1294 32.8063 69.9452C32.7065 69.7615 32.5372 69.6162 32.2977 69.5099C32.1425 69.4393 31.9476 69.3869 31.7129 69.3536C31.4779 69.3205 31.1879 69.3041 30.8422 69.3041H29.6793V72.0288H30.4833ZM40.9242 69.1512C40.4811 69.1512 40.0723 69.2241 39.698 69.3705C39.3338 69.5098 39.0048 69.7276 38.7343 70.0085C38.4662 70.2875 38.2568 70.6322 38.1062 71.042C37.9556 71.4518 37.8803 71.9202 37.8803 72.4477C37.8803 72.9706 37.9491 73.4301 38.0864 73.8266C38.2237 74.2231 38.4209 74.5545 38.6778 74.8203C38.9347 75.086 39.2483 75.2866 39.6182 75.4218C39.9882 75.557 40.4081 75.6245 40.8776 75.6245C41.2142 75.6245 41.5575 75.5976 41.9077 75.5445C42.2415 75.4952 42.5706 75.4174 42.8911 75.3118V76.7142C42.5617 76.8067 42.2265 76.8767 41.8876 76.9237C41.5177 76.9753 41.1446 77.0008 40.771 77C40.0176 77 39.3554 76.8927 38.7838 76.6777C38.2122 76.4631 37.735 76.1596 37.3515 75.7672C36.9683 75.3751 36.6801 74.9054 36.4876 74.3584C36.2951 73.8113 36.1987 73.2077 36.1987 72.5475C36.1987 71.8694 36.3016 71.2402 36.5077 70.6601C36.7138 70.0794 37.0105 69.5768 37.3981 69.1514C37.7858 68.726 38.2709 68.3915 38.8536 68.1477C39.4361 67.9041 40.0953 67.7801 40.8307 67.7754C41.2071 67.7754 41.5638 67.8012 41.9006 67.852C42.2372 67.9028 42.541 67.9749 42.8111 68.0679V69.4502C42.4566 69.3395 42.1265 69.2619 41.8209 69.2176C41.524 69.1739 41.2243 69.1517 40.9242 69.1512V69.1512ZM48.2351 77C47.7698 77 47.3511 76.9544 46.9791 76.864C46.6069 76.7731 46.2789 76.6423 45.9954 76.4717C45.7193 76.3075 45.4742 76.0962 45.2712 75.8472C45.0687 75.5961 44.9072 75.3146 44.7926 75.013C44.6907 74.7475 44.6204 74.471 44.5832 74.189C44.5412 73.8879 44.5201 73.551 44.5201 73.1787V67.9416H46.1483V73.0326C46.1483 73.6617 46.2236 74.1536 46.3742 74.5079C46.5425 74.9023 46.7887 75.1868 47.112 75.3619C47.4353 75.5369 47.8164 75.6245 48.2551 75.6245C48.6939 75.6245 49.0747 75.5369 49.3983 75.3619C49.7218 75.1868 49.9678 74.9021 50.1361 74.5079C50.2866 74.1536 50.3619 73.6617 50.3619 73.0326V67.9416H51.9902V73.1787C51.9902 73.551 51.9693 73.8879 51.9271 74.189C51.89 74.471 51.8197 74.7476 51.7177 75.013C51.6028 75.3151 51.4401 75.5968 51.2357 75.8472C51.0289 76.0975 50.7791 76.3089 50.4982 76.4717C50.208 76.6423 49.8742 76.7731 49.4978 76.864C49.1211 76.9544 48.7004 77 48.2351 77V77ZM60.663 70.6132C60.663 71.2335 60.4911 71.7594 60.1477 72.1916C59.8043 72.6236 59.2739 72.9437 58.5562 73.1522V73.1787L61.2012 76.834H59.2471L56.8282 73.3913H55.7116V76.834H54.0834V67.9416H56.7883C57.2359 67.9416 57.6522 67.9674 58.0378 68.0182C58.4233 68.069 58.7532 68.1456 59.028 68.2474C59.5509 68.447 59.9541 68.7424 60.2378 69.1345C60.521 69.5266 60.663 70.0195 60.663 70.6132V70.6132ZM56.5158 72.0288C56.8881 72.0288 57.2036 72.0124 57.4628 71.9791C57.722 71.9457 57.9403 71.8962 58.1175 71.8295C58.4455 71.7055 58.6727 71.5362 58.7988 71.3213C58.9248 71.1063 58.9884 70.8594 58.9884 70.5801C58.9884 70.3409 58.9386 70.1294 58.8389 69.9452C58.7391 69.7615 58.5698 69.6162 58.3303 69.5099C58.1753 69.4393 57.9802 69.3869 57.7457 69.3536C57.5108 69.3205 57.2205 69.3041 56.8748 69.3041H55.7119V72.0288H56.5158ZM65.8931 71.7696L68.2591 67.9416H70.0666L66.6971 73.2519V76.834H65.0689V73.2519L61.6991 67.9416H63.5068L65.8728 71.7696H65.8931Z" fill="white"/>
</svg>
