<svg width="80" height="80" viewBox="0 0 80 80" fill="none" xmlns="http://www.w3.org/2000/svg">
<g clip-path="url(#clip0_13_6816)">
<path d="M3.00732 35.7883H4.85238V45.0132H3.00732V35.7883ZM11.8808 35.7883H13.8577V45.0132H11.8808V35.7883ZM18.0477 35.7883H20.0246V45.0132H18.0477V35.7883Z" fill="white"/>
<path d="M5.53323 35.7883H3.68799V36.8445L11.3315 45.0133H13.1106V44.0122L5.53323 35.7883ZM67.1429 35.7883H68.9877V45.0132H67.1429V35.7883ZM64.6215 45.0133L59.1549 35.7883H57.5628V36.9271L62.2742 45.0133H64.6215Z" fill="white"/>
<path d="M51.6191 45.0133L57.0855 35.7883H58.6776L58.7182 36.9271L54.007 45.0133H51.6191ZM76.0162 35.7883H77.9931V45.0132H76.0162V35.7883Z" fill="white"/>
<path d="M69.6688 35.7883H67.8236V36.8445L75.4671 45.0133H77.2462V44.0122L69.6688 35.7883ZM54.2989 41.7299H61.9678V43.4017H54.2989V41.7299ZM32.0601 43.1052H24.1925V45.0048H32.209C32.6624 44.9995 33.333 44.9759 33.967 44.499C34.2766 44.2627 34.5361 43.9153 34.6926 43.5092C34.8518 43.1016 34.923 42.6414 34.9234 42.1132C34.9245 41.4059 34.6801 40.7137 34.1938 40.1963C33.7116 39.6757 32.9873 39.3669 32.209 39.372H32.0601L28.8406 39.3728L26.6298 39.3731C26.2269 39.3648 26.1006 39.2666 26.0014 39.1659C25.9055 39.0609 25.8161 38.8559 25.8157 38.5321C25.8164 38.217 25.9059 38.013 26.0077 37.9021C26.1131 37.7948 26.2463 37.6983 26.6307 37.6905H34.3169V35.7911H26.5285C25.7257 35.7831 24.9765 36.0878 24.4962 36.6287C24.0128 37.1663 23.8134 37.8574 23.8141 38.5321C23.8137 39.1969 23.9999 39.8877 24.4829 40.4309C24.9629 40.9787 25.7182 41.2814 26.5285 41.2729H26.6309L28.8425 41.2725L32.0612 41.2718C32.3761 41.2769 32.5343 41.369 32.6608 41.4966C32.7832 41.6273 32.874 41.8309 32.8751 42.1134V42.2201C32.8749 42.2201 32.938 43.1052 32.0601 43.1052V43.1052ZM46.5468 43.1052H38.679V45.0048H46.6955C47.1489 44.9995 47.8196 44.9759 48.4536 44.499C48.7632 44.2627 49.0226 43.9153 49.1791 43.5092C49.3383 43.1016 49.4095 42.6414 49.4099 42.1132C49.4111 41.4059 49.1666 40.7137 48.6804 40.1963C48.1981 39.6757 47.4739 39.3669 46.6955 39.372H46.5468L43.3274 39.3728L41.1165 39.3731C40.7136 39.3648 40.5871 39.2666 40.488 39.1659C40.3921 39.0609 40.3026 38.8559 40.3022 38.5321C40.303 38.217 40.3924 38.013 40.4942 37.9021C40.5997 37.7948 40.7328 37.6983 41.1172 37.6905H48.8034V35.7911H41.0151C40.2122 35.7831 39.4631 36.0878 38.9827 36.6287C38.4993 37.1663 38.2999 37.8574 38.3007 38.5321C38.3003 39.1969 38.4864 39.8877 38.9694 40.4309C39.4494 40.9787 40.2048 41.2814 41.0151 41.2729H41.1172L43.3291 41.2725L46.5476 41.2718C46.8625 41.2769 47.0209 41.369 47.1474 41.4966C47.2695 41.6273 47.3603 41.8309 47.3616 42.1134V42.2201C47.3616 42.2201 47.4247 43.1052 46.5468 43.1052V43.1052ZM40.2948 7C27.653 7.10542 16.7931 15.1624 11.9197 26.6988C11.9197 26.6988 10.9956 28.892 9.13632 29.0994L5.20215 29.4859V30.5401H13.7125C17.4676 18.7021 27.9314 10.2276 40.4299 10.2276H40.6156C53.1143 10.2276 63.5781 18.7021 67.3332 30.5401H75.8435V29.4859L71.9093 29.0994C70.05 28.892 69.126 26.6988 69.126 26.6988C64.2503 15.1569 53.3825 7.09763 40.7328 7H40.2948ZM40.7507 73.93C53.3925 73.8246 64.2526 65.7676 69.126 54.2312C69.126 54.2312 70.05 52.038 71.9092 51.8306L75.8435 51.4441V50.3897H67.3332C63.5779 62.2278 53.1143 70.7022 40.6156 70.7022H40.4299C27.9312 70.7022 17.4674 62.2278 13.7123 50.3897H5.20215V51.4441L9.13632 51.8306C10.9956 52.038 11.9197 54.2312 11.9197 54.2312C16.7952 65.7731 27.6632 73.8324 40.3129 73.93H40.7507Z" fill="white"/>
</g>
<defs>
<clipPath id="clip0_13_6816">
<rect width="75" height="66.93" fill="white" transform="translate(3 7)"/>
</clipPath>
</defs>
</svg>
