<svg width="80" height="80" viewBox="0 0 80 80" fill="none" xmlns="http://www.w3.org/2000/svg">
<path fill-rule="evenodd" clip-rule="evenodd" d="M17.3889 38.5728V39.4759C17.3889 52.2202 27.7559 62.6347 40.4998 62.6347C51.1046 62.6347 60.0444 55.5018 62.7552 45.801L25.663 46.229L34.6035 39.3335L17.3889 38.5728ZM18.2453 33.2944C20.9557 23.4982 29.8959 16.3649 40.5002 16.3649C53.245 16.3649 63.6112 26.7319 63.6112 39.4759V40.6175L46.3969 39.8568L55.5749 32.8664L18.2453 33.2944V33.2944ZM14.3933 38.43L6.30908 38.0973V33.3893L15.1065 33.2944C17.9122 21.8815 28.2314 13.3693 40.5002 13.3693C54.9091 13.3693 66.6072 25.0674 66.6072 39.4759C66.6072 39.9047 66.6072 40.2844 66.5601 40.7124L74.6914 41.0451V45.706L65.8944 45.801C63.0408 57.166 52.7695 65.6311 40.5002 65.6311C26.0439 65.6311 14.3458 53.9326 14.3458 39.4759C14.3458 39.1432 14.3458 38.8105 14.3933 38.43V38.43Z" fill="white"/>
</svg>
