<svg width="80" height="80" viewBox="0 0 80 80" fill="none" xmlns="http://www.w3.org/2000/svg">
<g clip-path="url(#clip0_13_6826)">
<path fill-rule="evenodd" clip-rule="evenodd" d="M68.7356 48.4322V46.5882H78.8238V48.4322H76.0572V55.5372H71.5014V48.4322H68.7356ZM13.7891 46.5882H23.2804V48.4322H18.3449V50.1135H23.2804V51.9575H18.3449V53.6932H23.2804V55.5372H13.7891V46.5882Z" fill="white"/>
<path fill-rule="evenodd" clip-rule="evenodd" d="M62.8775 46.1811C59.4041 46.1811 56.5881 47.8902 56.5881 51.0901C56.5881 54.1812 59.4041 55.9987 62.8775 55.9987C66.3509 55.9987 69.1669 54.2356 69.1669 51.0901C69.1669 47.7814 66.3509 46.1811 62.8775 46.1811V46.1811ZM63.8047 54.1572C62.152 54.1572 60.8127 52.7834 60.8127 51.0888C60.8127 49.3947 62.0985 47.7773 63.7495 47.7773C65.4021 47.7773 66.7958 49.3947 66.7958 51.0888C66.7958 52.7838 65.4561 54.1572 63.8047 54.1572ZM9.69149 46.5803H1.17627V55.5371H5.73208V53.5301L9.69149 53.5379C11.5977 53.5379 13.1429 51.9654 13.1429 50.0591C13.1429 48.1529 11.5977 46.5803 9.69149 46.5803V46.5803ZM9.31755 51.4732H5.73789V48.6443L9.31755 48.6489C10.1011 48.6489 10.7365 49.2706 10.7365 50.0546C10.7363 50.4308 10.5867 50.7916 10.3207 51.0576C10.0546 51.3236 9.69378 51.473 9.31755 51.4732V51.4732ZM32.219 51.7956C32.219 52.2533 32.0372 52.6923 31.7136 53.0159C31.39 53.3395 30.951 53.5213 30.4933 53.5213C30.0356 53.5213 29.5967 53.3395 29.2731 53.0159C28.9494 52.6923 28.7676 52.2533 28.7676 51.7956V46.5891H24.2023V52.0671C24.2023 55.0499 27.3482 55.863 29.5176 55.863C31.687 55.863 34.2905 54.7785 34.3988 51.9583V46.5886H32.229L32.219 51.7956V51.7956ZM46.2218 46.5882H55.7132V48.4322H50.7776V50.1135H55.7132V51.9575H50.7776V53.6932H55.7132V55.5371H46.2218V46.5882ZM41.6386 53.6799C40.2831 53.6799 39.1845 52.4182 39.1845 51.0627C39.1845 49.7068 40.2831 48.6626 41.6386 48.6626H45.3V46.5882L39.4692 46.5758C36.9911 46.5758 34.9823 48.5849 34.9823 51.0631C34.9823 53.5413 36.9911 55.55 39.4692 55.55H45.3V51.2524H42.4791V53.6795L41.6386 53.6799ZM45.823 39.1073C45.642 39.2106 44.7904 39.5206 44.6874 38.3071C44.6617 37.868 44.5708 37.0288 44.4027 36.8868C44.7642 36.9644 45.63 36.693 45.9267 35.9314C46.2608 35.0752 45.9965 34.1704 45.1776 32.0065C44.4156 29.9923 44.3774 28.9336 44.3774 28.5978C44.3774 28.262 44.4546 27.3585 44.7642 27.0742C45.0747 26.7903 45.1257 27.1 45.0489 27.2809C44.9709 27.4619 44.4027 29.1141 45.9786 29.5017C45.9146 29.3101 45.8796 29.1099 45.8749 28.9078V27.2552C45.9006 26.8937 45.6171 26.377 45.2037 26.3255C44.7904 26.274 44.0412 26.3512 43.8864 27.4357C43.8354 26.9709 43.1892 24.7762 42.8277 24.4147L41.6141 24.0017L39.3808 24.6342C39.1742 24.7119 39.0065 24.7762 38.9546 25.0862L37.1471 25.8092C36.9404 25.9121 36.9147 26.0159 36.9147 26.3255C37.0438 26.4031 37.0957 26.4807 37.0957 26.6874V27.2556L38.0768 27.8495H38.6965C38.7483 27.6428 38.8517 27.3589 39.1613 27.3589C39.4713 27.3589 39.6523 27.798 39.6523 28.1595H37.1475L37.4576 28.5472H39.6527C39.6527 28.7539 39.446 29.2959 39.1617 29.2959C38.8778 29.2959 38.7745 29.0635 38.7226 28.8568H38.0125L37.3285 29.8898L34.5138 26.6621C34.1523 26.1973 33.6874 26.0167 33.2483 26.0167H32.4996C31.9057 26.0167 31.5313 26.3263 31.4537 26.9721C31.6861 27.024 31.6729 27.2045 31.6729 27.3594V27.9533C31.6729 28.1085 31.5952 28.2633 31.4919 28.3148C31.3886 28.3666 31.3728 28.8311 31.9181 28.8829C32.4606 28.9348 32.6864 29.0187 32.6606 29.9355C32.8416 29.845 33.0545 29.8512 33.1964 29.916C33.428 30.021 34.2681 30.0774 34.6586 29.8545L36.4499 32.4207L32.473 32.8469C31.931 32.9245 31.6405 33.0598 31.4595 33.8413C31.6662 33.9704 31.7243 34.1514 31.7243 34.3576V34.771C31.7243 34.952 31.6467 35.184 31.4658 35.2873C31.5691 35.4683 31.7758 35.5716 31.9306 35.5716C32.0854 35.5716 32.7827 35.4425 33.1441 35.4683C33.5061 35.494 33.919 35.4683 34.2029 35.985C34.461 35.985 34.874 35.7264 34.9259 34.5647H37.934L38.386 35.2167L36.5267 38.8769C36.8238 39.1222 37.2625 39.9485 36.3976 40.452L35.7779 39.6256C35.6227 39.3932 35.4422 39.0832 34.7964 39.0832H34.2153C33.7248 39.0832 33.3118 39.4833 33.2342 39.9738C33.4795 40.0647 33.531 40.1805 33.531 40.4516V41.3422C33.531 41.5489 33.4276 41.6647 33.2724 41.7166C33.2724 42.0009 33.4019 42.3362 33.8148 42.3624C34.2282 42.3881 35.4418 42.259 35.6223 43.0335C36.0614 43.0592 36.3196 42.9044 36.6296 42.6205C36.9392 42.3362 37.4559 42.2843 37.7655 42.3877L40.5931 38.3469L42.4907 41.0708C42.8264 40.8126 44.1433 41.3289 43.6013 42.1038C43.2398 42.0258 41.51 41.7162 41.51 42.5944V44.0665C41.8968 44.0408 42.1811 43.9631 42.5426 44.4537C42.904 44.9443 43.0589 45.0734 43.4975 45.0995C43.5233 44.8928 43.5494 44.1956 44.8667 44.2989C45.2282 44.3246 45.8736 44.4022 46.0541 44.0922C45.9512 43.9374 45.8213 43.9113 45.8213 43.2659V39.1073H45.823V39.1073ZM43.952 30.3733L45.2423 33.9625C45.6557 35.1761 45.3851 35.7828 44.9456 36.0925C44.5069 36.4025 44.0288 36.2215 43.8221 35.9119L42.6476 34.2464C43.3967 33.2648 44.0163 30.8768 43.952 30.3733V30.3733ZM45.1519 43.6253H44.0931C43.5249 43.6253 43.2921 43.9092 43.2153 44.1673C42.8796 43.6768 42.4405 43.4962 42.1827 43.4962V43.0314C42.1827 42.2569 43.6797 42.6699 44.0155 42.7732C45.2291 41.2758 43.2415 40.1652 42.802 40.4491L40.6068 37.2471L37.4829 41.7145C36.9923 41.6502 36.2436 41.9469 36.0627 42.2308C35.6754 41.7531 34.681 41.7402 34.1518 41.7145V40.1909C34.1518 39.9714 34.1842 39.7327 34.6362 39.7327C35.0877 39.7327 35.1334 39.8556 35.2625 40.0104L36.0631 41.1463C37.8963 40.9529 37.6124 39.1322 37.3028 38.7968L39.136 35.1819L38.2773 33.9422H34.2041C34.4366 34.407 34.3075 35.0138 34.1784 35.169C33.7007 34.7428 32.7582 34.8204 32.3195 34.8461V33.9422C32.3195 33.5031 32.4747 33.5031 32.7586 33.4516L37.568 32.9349L34.8761 29.0614C34.5274 29.4229 33.6106 29.3457 33.2753 29.2681C33.172 28.6223 32.7328 28.3641 32.2942 28.3641V27.0472C32.2942 26.6858 32.5008 26.6339 32.7333 26.6339H33.2882C33.6497 26.6339 33.8435 26.8534 34.024 27.073L37.3812 30.9465L38.4138 29.3972C38.5433 29.6038 38.8786 29.862 39.1887 29.862C39.6021 29.862 40.3246 29.3714 40.3246 28.3127C40.3246 27.2539 39.6792 26.8152 39.1887 26.8152C38.6981 26.8152 38.44 27.0477 38.3881 27.151C38.3362 27.2543 38.2329 27.2801 38.0781 27.2029L37.7166 26.9705V26.2732L39.3173 25.6274C39.395 25.2917 39.5498 25.2659 39.8341 25.1626L41.7449 24.6206L42.416 24.982C43.759 27.9516 43.8474 31.4898 41.8478 34.3037L43.3718 36.4469C44.1458 37.428 44.069 38.4096 44.1458 39.0292C44.2239 39.6489 44.895 39.8294 45.1535 39.8037V43.6253H45.1519V43.6253Z" fill="white"/>
</g>
<defs>
<clipPath id="clip0_13_6826">
<rect width="80" height="80" fill="white"/>
</clipPath>
</defs>
</svg>
