<svg width="80" height="80" viewBox="0 0 80 80" fill="none" xmlns="http://www.w3.org/2000/svg">
<g clip-path="url(#clip0_13_6839)">
<g clip-path="url(#clip1_13_6839)">
<path fill-rule="evenodd" clip-rule="evenodd" d="M56.6584 64.9782C52.3744 68.8866 48.6866 70.9932 40.9176 75.074C33.6859 71.7803 28.9658 68.5337 24.8726 65.3362C19.2159 60.9262 15.1526 53.7653 14.8001 49.3736L11.978 7.57375C31.0961 2.59725 51.4313 2.71047 69.0218 7.90798L66.1584 49.2845C65.7939 53.0319 62.4461 60.3176 56.6584 64.9782V64.9782ZM62.8831 47.9137L65.467 10.9651C50.3282 6.13761 32.1949 6.06601 15.4873 10.4577L18.1245 47.89C18.3992 51.7802 21.1976 57.7298 26.562 62.2888C29.7903 65.0338 36.1154 69.6407 40.7869 71.4068C46.1696 68.68 51.062 65.2906 54.9409 61.9433C59.7501 57.5566 62.5905 52.1027 62.8831 47.9137V47.9137ZM54.3199 60.9674C50.6021 64.1782 45.5964 67.7765 40.7869 70.0737C36.4909 68.7431 30.1421 63.8378 27.0869 61.2005C21.7583 56.5936 19.5922 51.7728 19.2642 47.213L16.6744 11.4818C32.5824 7.29905 49.9465 7.29905 64.3741 11.8993L61.8146 47.1534C61.4446 51.8436 59.2664 56.3248 54.3199 60.9674V60.9674ZM17.8634 12.1763L18.3767 18.3345C33.5626 14.5335 49.471 14.9155 62.6757 18.9135L63.2426 12.6479C49.5597 8.44687 32.9482 8.22003 17.8634 12.1763ZM55.6273 14.4619L52.2021 13.895L52.0706 15.5062L50.955 15.3389L51.2173 11.0666L52.3573 11.2339L52.2379 12.8747L55.7109 13.4354L55.8241 11.7946L56.9875 12.0152L56.6358 16.2995L55.502 16.091L55.6273 14.4619V14.4619ZM39.0974 13.0121C38.6795 13.0121 38.3453 12.8989 38.1247 12.5288C37.934 12.2246 37.934 11.2339 38.1247 10.9059C38.3336 10.5242 38.7095 10.4168 39.02 10.4168L43.877 10.4227L43.8883 11.4728L39.2943 11.4666C39.0675 11.4666 39.0616 11.974 39.3122 11.974H42.9339C43.358 11.974 43.7335 12.2304 43.8525 12.5646C43.984 12.9226 43.9603 13.7343 43.8525 14.0685C43.7514 14.4027 43.3693 14.5875 42.8919 14.5875H38.101L38.0947 13.5133H42.3607C42.4238 13.5083 42.4826 13.4797 42.5256 13.4333C42.5685 13.3868 42.5923 13.3259 42.5923 13.2627C42.5923 13.1994 42.5685 13.1385 42.5256 13.0921C42.4826 13.0456 42.4238 13.0171 42.3607 13.0121H39.0974ZM36.2874 13.4389C36.2864 13.3855 36.2747 13.3328 36.2531 13.2839C36.2315 13.235 36.2003 13.191 36.1614 13.1543C36.1225 13.1176 36.0767 13.0891 36.0267 13.0703C35.9766 13.0516 35.9233 13.043 35.8699 13.0452L32.6474 13.2779L32.7128 14.877L31.6685 14.9844L31.4475 10.7659L36.2454 10.4075C36.866 10.36 37.2298 10.8254 37.2593 11.2133C37.2951 11.6728 37.313 12.2635 36.9547 12.5082C37.2535 12.7288 37.3309 13.0572 37.3368 13.5168L37.3488 14.5969L36.3045 14.6385L36.2874 13.4389V13.4389ZM35.603 12.0697C36.0146 12.046 35.9788 11.4071 35.603 11.4433L32.5358 11.676L32.5716 12.2608L35.603 12.0697ZM25.555 11.5094C26.5394 11.2767 28.5561 10.9546 29.6125 10.8768C30.0958 10.8414 30.4716 11.0919 30.5374 11.4678C30.6926 12.3331 30.7883 13.228 30.6809 14.4276C30.651 14.7735 30.3526 15.0482 29.9588 15.1319C28.6047 15.4303 27.0826 15.5914 25.9546 15.6988C25.6683 15.7287 25.215 15.5019 25.1372 15.1439C24.9403 14.2724 24.8687 13.0553 24.9282 12.2199C24.9523 11.909 25.2387 11.581 25.555 11.5094V11.5094ZM29.3876 14.079C29.5246 14.0494 29.5845 13.9 29.5965 13.7926C29.6444 13.4642 29.6024 12.6051 29.5246 12.3183C29.5008 12.2051 29.4055 12.1335 29.1907 12.1514C28.6059 12.1872 27.06 12.4082 26.2966 12.5751C26.0939 12.623 26.0161 12.7421 26.0044 12.8495C25.9686 13.13 26.0519 13.8996 26.1239 14.3296C26.1418 14.4311 26.2733 14.5023 26.3745 14.4969C27.4063 14.4132 28.6238 14.2463 29.3876 14.079V14.079ZM46.3089 11.6872C46.0816 11.681 45.9268 11.8184 45.9093 11.9378C45.8552 12.2899 45.8369 12.7432 45.8369 13.3343C45.8369 13.4117 45.9684 13.6265 46.0816 13.6444C47.1085 13.7876 49.101 13.9669 50.187 14.0385L50.1216 15.1424C48.6952 15.077 47.2034 14.8502 45.6583 14.7424C45.1513 14.7066 44.7813 14.4323 44.763 13.9432C44.7334 13.1374 44.7813 11.9199 44.9241 11.2102C45.0198 10.7744 45.4369 10.548 45.9089 10.5596C47.3345 10.6133 48.4683 10.7386 50.3364 10.9892L50.2648 12.0876C49.3578 12.0094 47.6396 11.7409 46.3089 11.6872V11.6872ZM22.9586 12.0075C24.4025 11.6674 24.6232 14.2331 23.4177 14.5315L20.0525 15.3731L20.2136 17.0318L19.1576 17.3127L18.7817 12.9919L22.9586 12.0075V12.0075ZM22.9411 13.688C23.287 13.6105 23.2395 12.9903 22.8691 13.0677L19.8319 13.8016L19.9039 14.4405L22.9411 13.688V13.688ZM58.6501 15.1015L58.5785 15.7937L61.9138 16.6349L61.8243 17.6018L57.349 16.5458L57.7373 12.1954L62.2422 13.2876L62.1411 14.3019L58.7875 13.4903L58.7221 14.2245L62.0516 15.0358L61.9679 15.8949L58.6501 15.1015V15.1015ZM26.3717 27.4829C25.9064 28.1035 25.4768 29.0583 25.2741 29.8696C25.2021 30.1443 25.2021 30.2454 25.2504 30.4244C25.6916 30.2275 26.2647 30.0365 26.5986 29.9291C26.7301 29.6373 26.8013 29.3026 26.9149 29.0342C27.0935 28.6167 27.2071 28.4373 27.3923 28.1451C27.9234 27.3218 29.0452 26.5101 29.8744 26.528C29.5997 26.7665 29.0269 27.3634 28.8005 27.7214C28.6156 28.0198 28.4425 28.342 28.311 28.6762C28.1978 28.975 28.162 29.1953 28.132 29.44C28.5616 29.3147 28.9853 29.2252 29.2596 29.2073C29.4448 29.1058 29.5043 28.9085 29.6059 28.7237C29.9218 28.133 30.5424 27.4704 30.9366 27.256C31.2525 27.0829 31.7183 26.9159 32.0521 27.0233C31.6941 27.2918 31.3183 27.7214 31.1514 27.9782C30.9782 28.2525 30.6977 28.784 30.7097 29.0342C31.0023 29.0583 31.4198 29.0342 31.5871 28.9925L31.5689 28.1688L40.1433 28.1626L40.1375 16.4311C33.4661 16.4311 26.1566 17.0637 18.4055 19.2298L20.0046 41.2661H31.5626V36.9588C31.0973 36.6129 28.937 36.362 27.6067 36.881C27.2846 37.0063 26.2344 37.46 25.757 37.8355L24.4146 38.8981C24.2831 39.0055 24.2714 39.2381 24.2714 39.4167C24.2714 39.8105 23.8119 40.1089 23.5555 40.0253C23.3465 39.9537 23.0602 39.912 22.7975 39.972C22.517 40.0311 22.2668 39.6786 22.2427 39.4766C22.2069 39.2257 22.4042 38.8981 22.4158 38.7903C22.4279 38.6887 22.3621 38.2887 22.7318 38.0444C22.8987 37.9374 23.1314 37.9428 23.2987 38.0327C23.3473 38.0611 23.405 38.0697 23.4598 38.0568C23.5197 38.0327 23.6808 37.8899 23.7224 37.8541C23.7403 37.6156 23.7045 37.2394 23.7286 37.0308C23.7823 36.625 23.8061 36.3923 23.9314 35.9982C24.0387 35.6581 24.2714 35.1632 24.4442 34.8822C24.7547 34.3752 25.3691 33.8858 25.829 33.9274C25.6496 34.1663 25.5901 34.2916 25.4589 34.5363C25.2142 34.9838 24.9874 35.7238 24.8804 36.225C24.8084 36.5472 24.773 36.7981 24.7909 37.1378C25.143 36.8756 25.5126 36.6604 25.7574 36.5234C25.8706 35.9324 26.1037 35.2943 26.3538 34.8231C26.6523 34.2558 27.4577 33.641 27.9834 33.6889C27.4881 34.2258 27.1355 34.9717 27.0044 35.4491C26.9507 35.6398 26.885 35.8612 26.9153 35.9803C27.1118 35.8729 27.518 35.7655 27.7145 35.7476C27.846 35.4196 28.025 35.0254 28.1744 34.7927C28.6398 34.0764 29.3736 33.641 29.7915 33.6589C29.4631 34.1005 29.1826 34.5001 28.9798 35.0912C28.9199 35.2639 28.8903 35.4491 28.8903 35.5386C29.1468 35.497 29.5467 35.497 29.7078 35.497C30.0063 35.2285 30.2207 34.906 30.579 34.6317C30.8774 34.3986 31.4323 34.0826 31.5634 34.0585V30.4365C31.5634 30.3586 30.6148 30.2874 30.1432 30.347C28.8903 30.4964 25.7578 31.4808 24.4329 32.394C24.4029 32.4718 24.4092 32.9072 24.3193 33.1099C24.2418 33.2947 24.045 33.4858 23.8543 33.5694C23.5142 33.7188 23.1201 33.2652 22.9469 33.3309C22.768 33.3967 22.3863 33.5515 21.9742 33.2593C21.7894 33.1282 21.6941 32.7578 21.7594 32.4839C21.8194 32.2866 21.9863 32.1317 22.1174 32.0065C22.2369 31.887 22.1532 31.4275 22.5824 31.1532C22.8812 30.9621 23.2925 31.1174 23.6092 31.2843C23.6736 31.2638 23.7326 31.2293 23.7819 31.1831C23.8236 31.0575 23.8893 30.6758 23.9493 30.3773C24.0208 30.0548 24.045 29.8462 24.1403 29.5482C24.3792 28.8264 24.9516 27.7879 25.5488 27.2447C26.02 26.8268 26.7538 26.493 27.297 26.5288C27.2429 26.6113 26.569 27.2144 26.3717 27.4829V27.4829ZM27.7511 20.4193C28.2048 19.787 29.3981 18.8322 30.3171 18.8862C29.8156 19.3216 29.374 19.8049 29.0639 20.3181C28.6584 20.9807 28.33 21.8099 28.2585 22.4488C28.5627 22.3352 29.2787 22.1324 29.6903 22.0429C30.0545 21.2492 30.5319 20.3722 31.123 19.9006C31.5463 19.5605 32.1548 19.2683 32.7221 19.3337C32.5906 19.5189 32.3758 19.6621 32.2148 19.8111C31.9225 20.0675 31.7198 20.4138 31.5584 20.7659C31.4389 21.0282 31.2362 21.8161 31.23 21.8519C31.6416 21.8461 32.3696 21.8935 32.5249 21.9414C33.0085 21.3087 34.0649 20.3897 35.3294 20.5986C34.7804 20.8967 33.7781 21.7675 33.838 22.2453C34.6614 22.7768 35.8905 23.8923 35.9442 24.925C35.3835 24.3402 34.4587 23.7612 33.9929 23.6001C32.877 23.2063 31.5463 23.1526 30.4366 23.3554C28.1215 23.7911 26.0749 24.7934 24.1119 25.9693C24.0644 26.2852 23.8909 26.7626 23.7477 26.9241C23.6045 27.0852 23.3897 27.2401 23.1571 27.2759C22.8648 27.3237 22.566 27.2043 22.3158 27.0731C22.1544 26.9836 21.731 27.0973 21.4626 26.9537C21.2777 26.858 20.991 26.5895 21.0688 26.1662C21.1342 25.7903 21.51 25.5635 21.5637 25.2055C21.6412 24.6802 22.0232 24.4534 22.2201 24.418C22.4349 24.3763 22.6559 24.4479 22.8524 24.5374C22.9361 24.5791 23.0252 24.6506 23.1034 24.6748C23.1808 24.6506 23.294 24.5553 23.3598 24.5257C23.3777 24.4658 23.5749 23.374 23.6819 22.8966C23.7893 22.4192 23.9742 22.013 24.1294 21.5659C24.5951 20.2414 26.0328 18.9045 27.1849 18.9761C27.125 19.0598 26.755 19.3282 26.2418 19.9251C25.4126 20.8975 25.2037 21.9301 24.8932 23.7024C25.5317 23.404 26.0865 23.1892 26.6655 22.9803C26.8035 22.4309 26.9872 21.8941 27.2145 21.3753C27.3635 21.0399 27.5425 20.7119 27.7511 20.4193V20.4193ZM62.5266 21.8865L41.2012 21.9048L41.2195 28.1821L62.0496 28.17L62.5266 21.8865V21.8865ZM43.6498 54.3879C43.4051 54.5131 43.1012 54.4357 42.9759 54.3816C42.7607 54.2921 42.6179 54.0707 42.5996 53.8147C42.5821 53.612 42.779 53.3673 42.8206 53.1459C42.8382 53.0564 42.7432 52.6155 43.1187 52.3883C43.1911 52.3467 43.4051 52.2689 43.5541 52.2934C43.7039 52.3229 43.823 52.4187 43.972 52.4424C44.1747 52.3706 44.3689 52.2765 44.5509 52.1619C44.6704 51.7019 44.7599 51.1716 44.819 50.6996C43.7514 51.2308 42.3545 51.5887 41.1674 51.6366L41.1736 68.8045C46.156 66.2739 51.6215 62.1331 53.9483 59.8593C57.714 56.1894 60.2497 52.472 60.6372 47.1134L60.989 42.2322L49.6702 42.2201C49.6702 44.9885 48.7454 47.8772 46.1015 49.9654C45.9525 50.5681 45.8813 51.5825 45.8925 51.607C46.2567 51.4572 46.5972 51.3265 46.8956 51.237C46.9194 51.2012 47.3431 50.2763 47.5341 50.0257C47.9816 49.3335 48.5843 48.7421 49.3177 48.3484C49.7776 48.1157 50.3383 47.9009 50.8336 48.0861C50.1831 48.3962 49.6753 48.9569 49.3714 49.2791C49.0909 49.5779 48.7629 50.0191 48.6139 50.4728C48.5935 50.5514 48.5775 50.631 48.566 50.7113C48.8707 50.6156 49.8426 50.4728 50.2484 50.4187C50.2963 50.4125 50.4216 50.1444 50.5173 50.0129C50.636 49.8518 50.708 49.7506 50.8986 49.5355C51.3881 49.0044 52.2172 48.4375 53.0227 48.5627C52.5818 48.8433 52.0978 49.2907 51.7103 49.9946C51.6562 50.1024 51.585 50.2514 51.6145 50.3168C51.734 50.3409 52.325 50.3288 52.683 50.3709C53.0943 50.1148 53.5304 49.8876 54.0016 49.7864C54.5327 49.667 55.2253 49.7623 55.4996 50.0129C55.1775 49.9946 54.8728 50.0545 54.581 50.1678C54.4137 50.2339 54.0794 50.3888 53.9542 50.6031C54.2701 50.6926 54.7899 51.0331 55.1175 51.3078C55.3448 51.4984 55.6191 51.7735 55.7922 52.0237C56.2276 52.6151 56.3175 53.6766 56.084 53.9933C56.0187 53.8077 55.9471 53.6233 55.8455 53.4501C55.6366 53.0984 55.3082 52.7159 55.0277 52.507C53.6736 51.4751 51.7227 51.421 50.129 51.7432C48.7625 52.0237 46.298 52.5373 44.6871 53.6824C44.7288 53.8851 44.6035 54.2256 44.419 54.3563C44.1747 54.5365 43.8292 54.2921 43.6498 54.3879V54.3879ZM46.3089 56.3174C46.4875 56.0431 46.7026 55.6435 46.8096 55.4699C47.1859 54.8672 47.7291 54.4198 48.0983 54.2462C48.6061 54.0015 49.4228 53.8587 49.787 54.0373C49.3874 54.133 49.0831 54.3178 48.803 54.5147C48.5166 54.7124 47.9547 55.2252 47.8119 55.4403C47.6508 55.6789 47.5438 55.8933 47.5018 56.0073C47.9547 55.9053 48.4983 55.8217 48.7784 55.8217C48.9812 55.5649 49.5185 54.9509 49.9185 54.6641C50.2407 54.4369 50.927 54.2104 51.3562 54.3952C50.9449 54.5268 50.2169 55.0999 49.9481 55.5116C49.8889 55.6065 49.8348 55.7084 49.8228 55.7617C50.0438 55.78 50.4613 55.8217 50.6885 55.8512C50.7122 55.8512 51.3328 55.4699 51.6134 55.3921C51.9776 55.2902 52.574 55.1594 52.9503 55.5594C52.676 55.5649 52.4192 55.589 52.2161 55.6789C51.9235 55.8096 51.7982 55.9053 51.6675 56.0901C52.2398 56.3948 52.8371 56.7111 53.1888 57.2718C53.3141 57.4687 53.5048 57.9344 53.3978 58.2383C53.2184 58.0119 52.9736 57.7909 52.7768 57.6776C52.4962 57.5165 52.2935 57.3617 51.9531 57.2302C50.8854 56.8306 49.4893 56.7232 48.373 56.8722C46.9291 57.057 45.1568 57.7734 44.2502 58.3936C44.3093 58.6741 44.1727 59.0021 44.0117 59.0799C43.6712 59.2531 43.3436 58.9605 43.2837 58.9788C43.1942 59.0083 42.9195 59.104 42.723 59.0204C42.5253 58.943 42.4008 58.5963 42.4782 58.3761C42.5374 58.2087 42.7771 57.9702 42.7771 57.9702C42.7405 57.606 42.9794 57.3858 43.3074 57.3434C43.493 57.3259 43.6233 57.4687 43.7731 57.499C43.9101 57.4329 44.0058 57.3858 44.077 57.3492C44.1607 57.0512 44.286 56.7465 44.3696 56.496C44.5066 56.0726 44.7093 55.6964 44.9661 55.303C45.3361 54.7361 45.9929 54.1988 46.7738 54.1875C46.5353 54.3723 46.3976 54.4738 46.2486 54.6587C45.9925 54.9808 45.7949 55.2734 45.6163 55.6193C45.4552 55.924 45.3054 56.3769 45.2821 56.7769C45.6198 56.6138 45.9622 56.4606 46.3089 56.3174V56.3174ZM46.1933 59.5449C46.396 59.4612 46.6104 59.4021 46.8256 59.4262C46.324 59.7476 45.8649 60.2188 45.7396 60.7803C45.7276 60.8394 45.7276 60.9589 45.7813 60.9947C45.9241 60.9589 46.2882 60.8814 46.384 60.8336C46.4431 60.7083 46.5921 60.5114 46.6941 60.3799C47.052 59.9032 47.5656 59.4262 48.2753 59.6048C47.8096 59.8138 47.5411 60.1056 47.3384 60.4756C47.3026 60.5417 47.2793 60.667 47.3263 60.667C47.4458 60.667 47.8995 60.6487 47.9648 60.6487C48.1738 60.4639 48.7827 60.1114 49.2006 60.2429C48.9917 60.3406 48.8002 60.4717 48.6337 60.6312C48.5921 60.6783 48.538 60.7382 48.5267 60.8098C48.8959 60.9947 49.2243 61.2036 49.529 61.4666C49.6901 61.6036 49.9228 61.8604 50.0656 62.3016C49.7076 61.9915 48.538 61.4359 47.8999 61.4063C47.482 61.3888 46.9637 61.4662 46.7007 61.5258C45.6922 61.753 44.6541 62.2067 43.765 62.7137C43.7712 62.8868 43.7409 63.095 43.5448 63.2565C43.4132 63.3642 43.1269 63.4175 43.0187 63.2627C42.9596 63.179 42.5712 63.2689 42.4884 63.1615C42.4884 63.1615 42.3864 63.0067 42.3744 62.8211C42.3631 62.6242 42.4938 62.5051 42.6016 62.4032C42.6312 62.3674 42.6253 62.0339 42.8759 61.9199C43.0308 61.8483 43.186 61.8728 43.3175 61.9565C43.3716 61.9261 43.4132 61.8966 43.449 61.8728C43.4786 61.4845 43.5502 61.1266 43.6938 60.739C43.8907 60.1896 44.535 59.5215 45.0898 59.5453C44.7136 59.9511 44.4097 60.5118 44.3078 60.9779C44.2782 61.1269 44.2669 61.4195 44.2669 61.5561C44.3997 61.4748 44.5392 61.4052 44.684 61.348C44.7439 61.2044 44.9167 60.8464 45.0062 60.6853C45.2319 60.2667 45.7396 59.7301 46.1933 59.5449V59.5449ZM20.5754 47.7449C20.647 49.8211 21.4945 52.328 22.6579 54.0637H40.0157L39.9799 51.6416C37.7484 51.6416 34.3411 50.1674 32.9925 47.7569L20.5754 47.7449V47.7449ZM32.5085 42.3295C32.5085 53.3684 48.6547 53.3684 48.6547 42.4427L48.6609 29.1598L32.5085 29.154V42.3295ZM37.7103 37.039C37.9013 36.83 38.0687 36.5557 38.1041 36.323C38.134 36.132 37.5971 36.1441 37.4002 36.2635C37.2928 36.3289 37.1913 36.4604 37.1076 36.5798C37.0481 36.6693 36.8333 36.7409 36.7259 36.6398C36.6123 36.5324 36.8154 36.3472 36.8092 36.2339C36.8092 36.0429 36.445 36.3293 36.2781 36.2515C36.1648 36.1978 36.1586 36.025 36.2364 35.9234C36.278 35.8698 36.3975 35.8935 36.4512 35.8343C36.5049 35.7744 36.5049 35.6849 36.5228 35.6075C36.5469 35.518 36.6422 35.476 36.7018 35.4106C36.9286 35.19 37.3582 34.8138 37.4418 34.82C37.6383 34.8379 37.9192 34.9394 38.092 34.8496C38.1278 34.8317 38.1936 34.7721 38.1336 34.7363L37.6683 34.4313C37.6662 34.3832 37.6747 34.3353 37.6933 34.2909C37.7119 34.2465 37.74 34.2068 37.7757 34.1745C37.9904 33.9834 38.3247 34.1149 38.6052 34.0729C38.8021 34.043 38.9869 33.9655 39.1301 33.8286C39.1659 33.9718 39.0764 34.1149 39.0764 34.264C39.2554 34.4313 39.4406 34.5741 39.6137 34.7355C40.127 35.2484 40.3476 35.9947 40.3834 36.6511C40.4133 36.9553 40.4133 37.2654 40.4133 37.7728C40.497 37.558 40.5507 37.2417 40.5686 36.967C40.646 36.1553 40.5207 35.4336 40.0616 34.8188C39.875 34.5596 39.6631 34.3197 39.4289 34.1025C39.453 33.864 39.6558 33.4582 39.8468 33.6076C39.9721 33.7029 39.7873 33.8461 39.9184 33.9297C40.062 34.0188 40.2705 34.0072 40.36 33.9889C40.569 33.9356 40.7717 33.8819 40.9623 33.864C41.0518 33.8581 41.2009 33.8161 41.2312 33.9056C41.2549 33.9651 41.1896 34.0072 41.1234 34.0309C41.046 34.055 40.9265 34.0371 40.8612 34.1025C40.8071 34.1562 40.7542 34.2161 40.7717 34.2935C40.7954 34.383 40.8911 34.4309 40.9869 34.4009C41.3467 34.3014 41.7171 34.2453 42.0903 34.2336C42.288 34.2336 42.2452 34.3772 42.1502 34.4305C42.0849 34.4663 41.9829 34.4963 41.9176 34.5025C41.5658 34.5437 41.3028 34.5678 41.3444 34.7706C41.374 34.9079 41.5954 34.7764 41.6425 34.878C41.6966 34.9853 41.5475 35.0449 41.5596 35.1169C41.5954 35.3437 42.0308 35.2958 42.2335 35.248C42.3825 35.2122 42.621 35.0931 42.6926 35.1885C42.7588 35.2717 42.7047 35.4032 42.621 35.4274C42.4059 35.4869 42.0366 35.5943 41.9347 35.7133C41.839 35.827 41.953 36.0596 42.0662 36.0717C42.323 36.1013 42.6035 36.1013 42.8063 36.1608C42.8829 36.1849 42.949 36.2386 42.949 36.3219C42.949 36.4114 42.8596 36.4413 42.788 36.4651C42.6502 36.5067 42.4179 36.5067 42.2926 36.5608C42.251 36.5787 42.1674 36.6086 42.1794 36.6561C42.2152 36.7456 42.3946 36.7215 42.5436 36.7394C42.6273 36.7456 42.7884 36.8114 42.7884 36.9008C42.7884 36.9966 42.7047 37.0261 42.5557 37.0145C42.323 36.9966 42.1082 37.0261 42.0071 37.0682C41.9767 37.0798 41.7981 37.1036 41.8036 37.1876C41.8156 37.2888 42.0071 37.2234 42.0545 37.325C42.0962 37.4207 41.9654 37.474 41.9534 37.5934C41.9534 37.6413 41.9771 37.665 42.025 37.6829C42.1798 37.7483 42.3584 37.7421 42.5144 37.7129C42.6755 37.6829 42.7347 37.8981 42.693 37.9218C42.4849 38.0351 42.0191 37.916 41.9117 37.9814C41.7627 38.0767 42.1619 38.2915 42.1502 38.3393C42.1382 38.393 42.0903 38.4467 42.0545 38.4588C41.8518 38.5362 41.5896 38.3868 41.4405 38.4708C41.3152 38.5483 41.3682 38.7451 41.2907 38.8467C41.195 38.972 40.9806 38.9183 40.8849 38.9899C40.7604 39.079 40.7542 39.2942 40.8911 39.4257C40.9989 39.5268 41.1001 39.598 41.237 39.6642C41.858 39.9743 42.5024 40.2844 43.1051 40.2424C43.4152 40.2249 43.9229 40.2074 44.2031 40.279C44.5673 40.3681 44.9373 40.6482 45.128 40.7684C45.2828 40.8634 45.5338 40.8879 45.7307 40.8155C45.8735 40.7684 45.9692 40.6011 45.9396 40.4575C45.8501 39.9801 45.0618 39.8315 45.0505 39.3541C45.0385 38.8051 44.9906 38.5066 44.812 38.1603C44.7459 38.0292 44.7346 37.7249 44.8895 37.6833C45.0147 37.6534 45.0568 37.8265 45.1575 37.7849C45.6174 37.6059 45.6357 36.8779 46.1128 36.7402C46.3925 36.6627 47.3357 36.6511 47.2579 36.5316C47.061 36.2507 47.1509 35.9289 47.2579 35.7795C47.3295 35.6842 47.5259 35.5884 47.6045 35.6842C47.7115 35.8094 47.4427 35.9585 47.461 36.1437C47.4785 36.3168 47.7298 36.6511 47.5384 36.83C47.4252 36.9374 46.5719 36.9736 46.3209 37.3553C46.1661 37.5876 46.1486 37.7728 46.333 37.7549C46.482 37.737 46.6073 37.558 46.745 37.4565C46.9898 37.2779 47.1867 37.2059 47.324 37.337C47.3956 37.4024 47.2999 37.5281 47.1684 37.5639C47.0614 37.5997 46.7991 37.8802 46.8703 37.9518C46.9773 38.065 47.5742 37.5464 47.7236 37.6534C47.801 37.7129 47.431 38.095 47.4964 38.1961C47.5738 38.3214 47.8248 38.1245 47.9022 38.2203C48.0154 38.3634 47.7053 38.644 47.5259 38.7693C47.389 38.8584 47.4423 39.193 47.2454 39.2945C47.0252 39.4019 46.9232 39.5922 46.9474 39.6226C46.9711 39.6696 47.0248 39.7062 47.1085 39.6521C47.3532 39.4973 47.6571 39.3121 47.7824 39.3599C47.854 39.3899 47.7528 39.7296 47.6629 39.8906C47.573 40.0517 48.0271 39.9622 47.961 40.0996C47.9139 40.2015 47.8835 40.3564 47.9139 40.4992C47.9497 40.6848 47.4244 40.7256 47.3765 40.8509C47.3232 40.9945 47.4306 41.0303 47.4835 41.0365C47.8003 41.0844 47.7586 41.3762 47.6333 41.5015C47.466 41.6688 47.1797 41.7342 46.9287 41.6921C46.7135 41.6563 46.231 41.5676 45.9447 41.3525C45.8552 41.2871 45.7237 41.3342 45.7062 41.4241C45.6879 41.526 45.7953 41.7104 45.8431 41.8657C45.9093 42.0984 45.8727 42.391 45.7953 42.6182C45.6287 43.0894 45.1813 43.4831 45.056 44.05C45.0256 44.1991 45.0681 44.3843 45.1276 44.5275C45.2591 44.8383 45.4498 45.1302 45.6641 45.3932C45.6945 45.4768 45.7365 45.5718 45.7007 45.6492C45.6529 45.7687 45.2828 46.0255 45.1754 46.1274C44.835 46.4434 44.5424 46.8554 44.477 47.3029C44.4529 47.4639 44.107 47.625 43.8743 47.6904C43.7019 47.7383 43.5226 47.7861 43.3798 47.8993C43.3615 48.0301 43.4389 48.1441 43.4564 48.2748C43.4868 48.502 43.2004 48.6153 42.979 48.6869C42.8778 48.7227 42.7701 48.753 42.6506 48.753C42.609 48.753 42.5973 48.6806 42.6035 48.6452C42.6689 48.3351 42.728 48.0845 42.8475 47.8281C42.8954 47.7324 42.9728 47.655 43.051 47.5888L43.9035 46.8729L44.5723 45.9122C44.6315 45.8228 44.656 45.7449 44.656 45.6796C44.656 45.494 44.5786 45.3216 44.4471 45.2021C44.2797 45.0523 44.035 45.029 43.8506 44.9333C43.6121 44.8138 43.2654 44.4804 43.2175 44.4559C43.0868 44.3905 43.0094 44.629 42.9911 44.766C42.9615 44.9749 43.0269 45.1718 43.0206 45.3807C43.0206 45.4765 43.0094 45.5298 42.9615 45.5897C42.4008 45.9119 41.7024 46.0313 41.2903 46.5441C41.2188 46.6336 41.1534 46.7297 41.0577 46.7951C40.825 46.9562 40.4375 46.7714 40.2639 47.0215C40.1865 47.1356 40.276 47.2846 40.2464 47.4099C40.2285 47.4815 40.0912 47.5772 39.9838 47.6301C39.8402 47.6962 39.6857 47.732 39.5301 47.7441C39.3569 47.6604 39.4643 47.4157 39.5239 47.2426C39.5834 47.0632 39.6674 46.8846 39.8044 46.7651C40.0071 46.5858 40.2635 46.3593 40.425 46.2819C40.562 46.2157 40.7705 46.2157 40.9378 46.1504C41.114 46.0964 41.2811 46.016 41.4331 45.9119C41.6771 45.757 41.9043 45.5659 42.0417 45.3033C42.1965 45.0045 42.1786 44.6057 41.9818 44.3489C41.8024 44.1162 41.5942 43.889 41.4748 43.6271C41.4086 43.4835 41.4565 43.2866 41.5584 43.1551C41.5522 43.1497 41.4802 43.101 41.439 43.1135C40.5853 43.1501 39.7204 43.0544 38.9266 42.738C38.7177 42.6544 38.5029 42.3855 38.3535 42.368C38.2165 42.3497 38.1329 42.5229 37.9955 42.5587C37.7749 42.6186 37.4881 42.5828 37.2317 42.5587C36.9333 42.5291 36.3127 42.3976 35.8652 42.2548C35.7936 42.2661 35.7162 42.2785 35.6504 42.3201C35.5547 42.3855 35.5368 42.5291 35.531 42.6485C35.5189 42.8096 35.5668 42.9586 35.5485 43.1259C35.5427 43.2096 35.4948 43.2991 35.5189 43.3769C35.5431 43.4719 35.6384 43.5139 35.7038 43.5738C35.8111 43.675 35.829 43.8839 35.829 44.0512C35.829 44.236 35.7637 44.4812 35.9185 44.6068C36.0142 44.6835 36.1454 44.5827 36.2648 44.6068C36.3959 44.6306 36.4376 44.7917 36.4438 44.9169C36.45 45.0597 36.3306 45.3636 36.2528 45.4422C36.1991 45.4955 36.1096 45.4535 36.0438 45.4239C35.8711 45.3465 35.7096 45.2212 35.6143 45.0539C35.5726 44.9823 35.5726 44.8928 35.5306 44.8154C35.4648 44.6839 35.3454 44.6072 35.2263 44.5173C35.0831 44.4096 35.0536 44.2127 35.0295 44.0399C35.0116 43.8781 35.0415 43.7232 35.0536 43.5617C35.0845 43.2424 35.0643 42.9202 34.9937 42.6073C34.94 42.3688 34.8084 42.1299 34.8684 41.8914C34.8983 41.7781 34.9758 41.6704 35.0835 41.6225C35.6606 41.5956 36.232 41.4954 36.7839 41.3244L36.4259 40.9719C36.3364 40.9719 36.2648 41.0614 36.1753 41.0614C36.0796 41.0614 35.9485 40.9245 35.9127 40.8766C35.7275 40.6023 35.6084 40.2852 35.5248 39.963C35.4473 39.8377 35.352 39.7128 35.2084 39.6529C35.1089 39.6097 35.001 39.5892 34.8925 39.593C34.5941 39.7245 34.3197 39.9813 34.2956 40.3097C34.2898 40.3933 34.3373 40.4646 34.3256 40.5482C34.3081 40.691 34.2003 40.7867 34.0987 40.8887C33.9972 40.9898 33.9019 41.0914 33.8602 41.2346C33.824 41.354 33.8661 41.4793 33.9194 41.5925C33.9552 41.67 33.9972 41.7474 33.9672 41.831C33.8956 42.0279 33.4244 42.2306 33.2871 42.2306C33.2392 42.2306 33.1976 42.1653 33.1797 42.1112C33.126 41.9318 33.1381 41.7412 33.1739 41.5626C33.2999 41.426 33.3936 41.2628 33.4482 41.0852C33.5202 40.8466 33.484 40.5898 33.5976 40.3684C33.8956 39.8615 34.6594 38.8471 34.8084 38.6981C34.8742 38.6327 35.0353 38.5965 35.101 38.6385C35.4232 38.8475 35.6143 39.1039 35.9244 39.265C36.0917 39.3486 36.3002 39.4743 36.4496 39.3549C36.5987 39.2354 36.6224 38.4358 36.7181 38.2327C36.8928 37.8806 37.3761 37.4148 37.7103 37.039V37.039ZM43.6498 32.0683L43.5183 32.5695H43.0409L43.6619 30.2186H44.2047L44.8019 32.5516H44.3237L44.2043 32.0683H43.6498V32.0683ZM44.1389 31.6415L43.9237 30.6987L43.721 31.6415H44.1389ZM42.3958 30.8944C42.402 30.7392 42.3541 30.5365 42.2292 30.4886C42.0977 30.4407 41.9604 30.4828 41.9008 30.5723C41.7989 30.7392 41.7989 30.966 41.8051 31.3119C41.8051 31.5209 41.8113 31.8131 41.853 31.9508C41.9541 32.2668 42.223 32.285 42.3537 32.0878C42.4199 31.9924 42.4199 31.8072 42.4137 31.6403H42.1386V31.294H42.8491V32.559H42.5094V32.3862C42.5031 32.3983 42.3537 32.5115 42.2821 32.5477C42.1627 32.601 41.9362 32.601 41.7518 32.5236C41.5962 32.4578 41.4471 32.2492 41.3818 31.9804C41.3156 31.6998 41.3452 31.3357 41.3452 31.0255C41.3514 30.6972 41.5246 30.3334 41.7631 30.196C41.9304 30.1007 42.2405 30.1007 42.437 30.1723C42.6763 30.2559 42.8611 30.6018 42.8253 30.8944H42.3958V30.8944ZM34.4022 30.254C34.5933 30.3734 34.6944 30.5944 34.6594 30.8508H34.2832C34.2832 30.6123 34.182 30.4987 33.9789 30.4929C33.8536 30.487 33.6984 30.6302 33.6984 30.7376C33.6921 31.0536 33.9727 31.1193 34.1637 31.1788C34.3069 31.2209 34.4801 31.3104 34.5637 31.4357C34.7186 31.6625 34.7369 31.901 34.6116 32.2115C34.552 32.3605 34.3252 32.5395 34.1341 32.5815C33.9194 32.6294 33.6567 32.6057 33.442 32.4442C33.2688 32.3131 33.191 32.0563 33.2268 31.8236H33.6505C33.6505 31.9372 33.6684 32.0205 33.7163 32.092C33.7521 32.1399 33.8178 32.2173 33.931 32.2232C33.976 32.2265 34.0212 32.2198 34.0633 32.2037C34.1054 32.1876 34.1434 32.1625 34.1747 32.13C34.206 32.0976 34.2298 32.0586 34.2444 32.0159C34.259 31.9733 34.264 31.9279 34.259 31.8831C34.2353 31.5189 33.6268 31.4952 33.4178 31.2625C33.1669 30.9761 33.2447 30.5166 33.4474 30.3314C33.7283 30.0692 34.1104 30.0692 34.4022 30.254V30.254ZM46.4509 31.8103C46.4571 31.8998 46.4629 32.2162 46.4746 32.4189C46.4808 32.4784 46.5408 32.5562 46.5408 32.5621H46.0933C46.0334 32.5621 46.0272 32.4547 46.0217 32.3656C46.0097 32.1271 46.033 31.5602 45.8007 31.5602H45.5143V32.5566H45.0669V30.2295H45.8723C46.2781 30.2295 46.4808 30.4625 46.4808 30.7785C46.4808 30.9874 46.4746 31.2322 46.2361 31.3333C46.361 31.4524 46.4326 31.6314 46.4509 31.8103V31.8103ZM45.8377 30.5652H45.5034V31.1921H45.7482C46.1536 31.1921 46.1478 30.5652 45.8377 30.5652V30.5652ZM35.7629 32.5664H35.3154V30.603H34.8022V30.2092H36.2819V30.603H35.7629V32.5664V32.5664ZM38.6437 32.5664V30.603H38.1305V30.2092H39.6161V30.603H39.0908V32.5664H38.6437ZM39.8176 30.2096H41.3032V30.6092H40.7779V32.5664H40.3308V30.6092H39.8176V30.2096ZM47.58 30.6096V32.5726H47.1326V30.6096H46.6198V30.21H48.0995V30.6096H47.58ZM37.4523 31.8901V30.2135H37.8877V31.8485C37.8877 32.827 36.4675 32.827 36.4675 31.8784V30.2135H36.9029V31.8963C36.9033 32.2605 37.4523 32.2605 37.4523 31.8901ZM38.457 33.6508C38.5885 33.5375 38.7729 33.3827 38.9877 33.2453C39.1787 33.12 38.964 33.4068 38.9519 33.5259C38.9161 33.848 38.6714 33.8838 38.4029 33.8243C38.3558 33.8122 38.3737 33.7224 38.457 33.6508ZM49.6784 41.1739L61.0753 41.1676L61.5823 34.8663L49.6784 34.8725V41.1739V41.1739ZM40.0666 60.7986L28.3118 60.7748C30.7343 62.953 36.3434 67.0283 40.0309 68.6812L40.0666 60.7986ZM31.5572 34.7001C31.3303 34.9029 30.8771 35.4044 30.7872 35.6308C30.9844 35.7024 31.372 35.8756 31.5572 36.0009V34.7001V34.7001Z" fill="white"/>
</g>
</g>
<defs>
<clipPath id="clip0_13_6839">
<rect width="80" height="80" fill="white"/>
</clipPath>
<clipPath id="clip1_13_6839">
<rect width="80" height="80" fill="white"/>
</clipPath>
</defs>
</svg>
