<svg width="80" height="80" viewBox="0 0 80 80" fill="none" xmlns="http://www.w3.org/2000/svg">
<g clip-path="url(#clip0_13_6845)">
<path d="M38.1999 74.7733L36.4832 70.9733H36.4032L34.4732 74.7733H38.1999ZM38.9399 77.29H33.7532L32.6399 80H24.4799L30.4499 68.8033H42.5399L48.3132 80H40.1532L38.9399 77.29V77.29ZM70.6599 73.55H70.3099L66.8266 80H61.8532L58.3799 73.58L58.0499 73.5833L58.0199 80H50.5566V68.8033H62.2966L64.3866 72.3233H64.4866L66.7732 68.8033H78.1166V80H70.6532L70.6599 73.55V73.55ZM9.59655 73.8833H11.1532C12.8232 73.8833 13.3099 73.3467 13.3199 72.81C13.3432 71.7733 13.1466 70.9667 11.2366 70.9667H9.59655V73.8833ZM11.3032 76.2267H9.63988V80H1.87988V68.8033H13.0732C18.9432 68.8033 21.3399 69.77 21.6265 72.26C21.7699 73.5 21.0899 75.7367 18.3699 75.96L22.4266 80H14.2165L11.3032 76.2267V76.2267ZM39.4799 1.37333C30.6732 1.38333 20.6199 1.89 17.2799 2.17333C13.6365 2.48333 12.9832 2.72 12.9799 5.79667L12.9499 8.59C12.9232 10.7833 12.8832 13.88 12.8832 17.3667C12.8832 23.0467 13.2199 29.7567 13.6365 35.2767C14.0832 41.1467 14.4365 45.7833 21.8299 50.1933C27.5099 53.58 37.3899 58.4733 37.4866 58.52C38.0566 58.8033 39.3699 59.4367 39.8165 59.61C39.9561 59.6267 40.097 59.6267 40.2366 59.61C40.6932 59.43 42.1432 58.71 42.8566 58.39C42.9266 58.36 49.7799 55.2233 58.2166 50.1933C65.6099 45.7833 65.9632 41.1467 66.4132 35.2733C66.8299 29.7533 67.1666 23.04 67.1666 17.36C67.1666 13.8767 67.1266 10.78 67.0999 8.58667L67.0732 5.79333C67.0599 3.08333 66.5466 2.48333 62.7699 2.17C59.4299 1.89333 49.3765 1.37667 40.5699 1.36667H39.4799V1.37333V1.37333ZM40.5766 0C49.3499 0.01 59.3999 0.463333 62.9099 0.81C67.3666 1.24667 68.4499 1.45667 68.4499 5.79667C68.4499 9.22 68.6066 24.5267 67.7866 35.38C67.3266 41.4 66.9299 46.5967 58.9266 51.3733C53.8414 54.4087 48.6009 57.1758 43.2266 59.6633C42.1899 60.1233 40.8232 60.8967 40.5465 60.9533C40.2026 61.015 39.8505 61.015 39.5066 60.9533C39.1999 60.89 37.5299 60.07 36.8866 59.7533C36.2432 59.44 26.6632 54.67 21.1332 51.3733C13.1299 46.6 12.7332 41.4033 12.2732 35.38C11.4499 24.5267 11.6066 9.21667 11.6066 5.79667C11.6066 1.45667 12.6899 1.24667 17.1465 0.81C20.6566 0.463333 30.7066 0.01 39.4799 0H40.5766ZM27.5966 7.70667C34.0966 7.70667 37.4466 13.2533 39.3699 17.2933L38.7666 20.5967C35.3999 13.5967 31.3832 9.14333 26.5199 9.14333C21.2632 9.14333 18.3032 15.85 17.5432 16.98C18.8999 13.5333 22.8466 7.70667 27.5966 7.70667V7.70667ZM62.0732 16.9833C61.3099 15.8533 58.3532 9.14667 53.0966 9.14667C48.2332 9.14667 44.2199 13.6 40.8499 20.6L40.2432 17.2933C42.1632 13.2533 45.5132 7.70667 52.0165 7.70667C56.7699 7.70667 60.7199 13.5333 62.0732 16.9833ZM50.5932 30.7167C50.0499 30.9533 49.6332 31.1067 49.6332 31.1067L49.9599 28.2867L51.6999 26.0067C52.2366 28.57 52.1966 30.0167 50.5932 30.7167ZM29.3466 30.7167C27.7432 30.0167 27.7032 28.57 28.2399 26.0033L29.9799 28.2833L30.3066 31.1033C30.3066 31.1033 29.8866 30.9533 29.3466 30.7167ZM57.2366 16.0167C52.9832 15.9333 49.2999 19.22 46.8132 27.19L48.2099 28.07L47.6332 31.3967L44.4599 32.5233L43.8366 36.83L45.3766 34.8733L47.5399 34.4333L46.5765 37.0267L43.5932 38.69L42.5332 45.6367L42.9332 48.2467L39.8666 49.4333V49.4367L37.0532 48.2467L37.4532 45.6367L36.3932 38.69L33.4099 37.0267L32.4499 34.4333L34.6132 34.8733L36.1532 36.83L35.5266 32.5233L32.3532 31.3967L31.7766 28.07L33.1699 27.19C30.6866 19.2233 27.0032 15.9367 22.7465 16.0167C19.3465 16.0833 16.8199 20.0467 17.1032 24.2367L20.0532 24.5867C21.1099 30.4967 22.0932 38.0033 24.3199 38.0033C24.9966 38.0033 25.0265 36.94 25.0265 36.08C25.0265 33.99 23.7666 31.48 23.7666 27.4967C23.7666 25.6567 24.3632 24.0733 25.7232 24.0733C26.6466 24.0733 27.0632 24.32 27.4965 25.1233C27.1299 27.85 27.1166 30.19 29.2466 31.6333C29.7166 31.95 30.7332 32.9067 30.7332 32.9067C30.7332 32.9067 32.4832 39.7967 32.5899 40.2567C32.6899 40.6767 32.9365 41.25 33.1265 41.6L35.3466 45.4767C35.3466 45.4767 36.0099 49.64 36.1499 50.36C36.4999 52.1367 38.3099 52.29 39.7866 52.3033H40.1966C41.6766 52.2933 43.4832 52.14 43.8332 50.36C43.9732 49.6433 44.6366 45.4767 44.6366 45.4767L46.8566 41.6C47.0466 41.25 47.2966 40.6767 47.3932 40.2567C47.4999 39.7967 49.2532 32.9067 49.2532 32.9067C49.2532 32.9067 50.2699 31.95 50.7399 31.6333C52.8666 30.19 52.8566 27.85 52.4866 25.1233C52.9232 24.32 53.3366 24.0733 54.2599 24.0733C55.6199 24.0733 56.2166 25.6567 56.2166 27.4967C56.2166 31.4833 54.9565 33.99 54.9565 36.08C54.9565 36.9433 54.9832 38.0033 55.6632 38.0033C57.8866 38.0033 58.8732 30.4967 59.9266 24.5867L62.8766 24.2367C63.1632 20.0467 60.6366 16.0833 57.2366 16.0167V16.0167ZM40.7266 4.91667C47.1532 4.91667 60.2199 5.57333 61.0599 5.65667C62.1466 5.75333 62.8632 5.90333 63.1066 6.16667C63.3499 6.41333 63.4232 6.69333 63.4632 7.31333C63.5032 7.89 63.5399 10.1733 63.5399 10.1767C63.5632 12.2167 63.5999 15.0933 63.5999 18.33C63.5999 20.23 63.5866 22.25 63.5532 24.3L63.9932 24.5867C64.0299 22.44 64.0432 20.3167 64.0432 18.33C64.0432 15.09 64.0066 12.21 63.9832 10.17C63.9832 10.1667 63.9466 7.89 63.9066 7.28333C63.8666 6.65333 63.7799 6.20667 63.4199 5.85C62.9666 5.41667 62.1999 5.32667 61.1032 5.21C60.2199 5.12333 47.1866 4.47 40.7266 4.46667C39.7999 4.47333 38.8232 4.45667 37.8799 4.45667C30.1366 4.45667 19.8166 5.15667 18.9632 5.21C17.6999 5.29333 17.0299 5.32 16.5732 5.84C16.2199 6.27333 16.1165 6.91667 16.0932 7.55C16.0765 8.16667 16.0699 10.17 16.0699 10.1733C16.0466 12.21 16.0099 15.0933 16.0099 18.3333C16.0099 20.29 16.0232 22.38 16.0599 24.4933L16.4999 24.2067C16.4665 22.1933 16.4565 20.2033 16.4565 18.3333C16.4565 15.0967 16.4932 12.2167 16.5165 10.1767C16.5165 10.1733 16.5232 8.16667 16.5432 7.56333C16.5565 6.97667 16.6799 6.40333 16.9199 6.12667C17.1666 5.80667 17.7065 5.72667 18.9899 5.65667C19.8465 5.60333 30.1532 4.90333 37.8732 4.90333L40.7266 4.91667V4.91667ZM64.4632 25.1533L63.9766 26.0767C63.9766 26.0767 62.0366 26.28 61.9699 26.28C61.0332 33.7433 58.0032 41.7133 54.6932 41.7133C53.6032 41.7133 53.5732 40.0233 53.5732 38.01C53.5732 37.1533 53.6932 36.39 53.8266 35.72C53.4732 36.3767 52.8632 38.78 52.8632 40.8333C52.8632 43.2333 54.2132 44.5533 56.5199 44.5533C58.8599 44.5533 60.8166 43.41 62.0966 41.2833C61.2699 43.57 59.6566 45.5533 56.2066 47.6267C51.5677 50.3996 46.7855 52.9254 41.8799 55.1933C41.2766 55.4633 40.4932 55.8167 39.8766 56.08C39.3099 55.8167 38.7666 55.5433 38.3099 55.32C38.2266 55.28 29.0799 50.75 23.8432 47.6267C20.6132 45.69 18.9932 43.8267 18.1232 41.72C19.3965 43.5567 21.1732 44.5533 23.3399 44.5533C25.6465 44.5533 26.9966 43.2333 26.9966 40.8333C26.9966 38.78 26.3899 36.3767 26.0332 35.72C26.1699 36.39 26.2866 37.1533 26.2866 38.01C26.2866 40.02 26.2566 41.7133 25.1666 41.7133C21.8566 41.7133 18.8165 33.7067 17.8832 26.2433L16.0032 26.05L15.4032 24.93C15.4032 24.93 15.2932 28.5133 15.4132 30.8633C15.5332 33.2167 15.7799 35.2367 16.5365 38.0967C16.6799 38.6433 16.8465 39.1567 17.0365 39.6367C17.6966 42.79 19.2299 45.4 23.6166 48C28.8832 51.14 38.0232 55.6667 38.1132 55.71C38.6099 55.9533 39.2766 56.2867 39.8699 56.5567C40.5166 56.2867 41.3999 55.8867 42.0632 55.59C42.1332 55.5567 48.6332 52.6467 56.4366 47.9967C61.2966 45.1167 62.6532 42.2267 63.1999 38.5967C63.2432 38.43 63.2899 38.2633 63.3299 38.09C63.9766 35.1967 64.2432 33.6833 64.3632 31.33C64.4699 29.31 64.4666 26.0267 64.4632 25.1533V25.1533Z" fill="white"/>
</g>
<defs>
<clipPath id="clip0_13_6845">
<rect width="80" height="80" fill="white"/>
</clipPath>
</defs>
</svg>
