<svg width="80" height="80" viewBox="0 0 80 80" fill="none" xmlns="http://www.w3.org/2000/svg">
<g clip-path="url(#clip0_13_6865)">
<path d="M9 77V2H70.86V77H9ZM68.75 8.53C68.67 8.52 68.64 8.5 68.62 8.51C68.21 8.66 67.8 8.81 67.39 8.96C57.22 12.76 47.65 17.67 39.03 24.32C37.05 25.85 35.15 27.5 33.23 29.11C33.1 29.22 32.97 29.46 33 29.61C33.18 30.74 33.35 31.87 33.61 32.99C36.67 46.07 46.77 56.38 59.79 59.7C60.99 60.01 62.23 60.29 63.46 60.38C65.06 60.5 66.68 60.4 68.28 60.42C68.66 60.42 68.75 60.31 68.75 59.94C68.75 42.94 68.75 25.93 68.75 8.93C68.75 8.79 68.75 8.66 68.75 8.53V8.53ZM35.9 3.75H35.43C33.15 3.75 30.88 3.75 28.6 3.75C22.77 3.75 16.94 3.75 11.11 3.75C10.6 3.75 10.6 3.75 10.59 4.25C10.59 4.38 10.59 4.51 10.59 4.64C10.59 20.8 10.59 36.97 10.59 53.13C10.59 54.11 10.59 54.1 11.59 54.08C11.86 54.08 11.94 53.99 11.94 53.72C11.96 52.94 11.96 52.15 12.04 51.37C12.3 48.87 13.11 46.53 14.15 44.26C16 40.24 18.58 36.7 21.52 33.42C23.99 30.65 26.7 28.12 29.55 25.75C29.67 25.65 29.76 25.44 29.77 25.27C29.81 24.46 29.8 23.65 29.84 22.84C30.13 17.13 31.58 11.73 34.25 6.67C34.76 5.71 35.32 4.77 35.9 3.75V3.75ZM52.83 60.4C40.73 54.54 33.24 45.1 30.38 31.87C29.31 33.23 28.26 34.48 27.31 35.8C25.45 38.37 23.95 41.13 23.18 44.24C22.45 47.19 22.69 50.04 24.16 52.73C25.43 55.04 27.36 56.66 29.68 57.85C33.02 59.56 36.62 60.28 40.33 60.37C44.39 60.47 48.46 60.42 52.52 60.43C52.62 60.43 52.72 60.42 52.84 60.41L52.83 60.4ZM32.69 23.28C33.07 23 33.37 22.78 33.66 22.56C39.32 18.39 45.34 14.82 51.67 11.76C56.91 9.23 62.31 7.08 67.88 5.38C68.75 5.12 68.73 5.12 68.75 4.21C68.75 3.84 68.65 3.73 68.28 3.74C58.78 3.74 49.29 3.74 39.79 3.74C39.52 3.74 39.34 3.83 39.19 4.05C35.55 9.29 33.42 15.07 32.81 21.42C32.75 22 32.73 22.59 32.69 23.28ZM54.24 70.67C54.32 70.63 54.34 70.61 54.36 70.6C56.04 69.98 56.95 68.34 56.63 66.52C56.33 64.88 55.03 63.86 53.21 63.85C51.31 63.85 49.4 63.85 47.5 63.85C47.36 63.85 47.23 63.85 47.05 63.85C47.05 64.05 47.05 64.2 47.05 64.35C47.05 66.67 47.05 68.98 47.05 71.3C47.05 71.82 46.93 72.29 46.63 72.72C46.07 73.48 44.99 73.78 43.98 73.45C43.1 73.17 42.53 72.37 42.53 71.39C42.53 69.03 42.53 66.68 42.53 64.32C42.53 64.17 42.53 64.02 42.53 63.88H40.18C40.17 63.95 40.15 63.99 40.15 64.02C40.15 66.39 40.15 68.76 40.15 71.12C40.15 72.4 40.43 73.57 41.42 74.48C42.14 75.14 42.99 75.48 43.94 75.63C46.38 76 49.45 74.78 49.39 71.16C49.37 69.53 49.39 67.89 49.39 66.26C49.39 66.11 49.39 65.96 49.39 65.8C50.61 65.8 51.77 65.76 52.92 65.81C53.79 65.85 54.29 66.39 54.34 67.2C54.41 68.19 53.99 68.86 53.12 69.02C52.57 69.12 51.99 69.09 51.43 69.12C51.3 69.12 51.17 69.12 50.99 69.12C51.1 69.33 51.17 69.47 51.24 69.6C52.2 71.32 53.18 73.02 54.11 74.76C54.37 75.25 54.66 75.44 55.21 75.39C55.73 75.34 56.26 75.39 56.79 75.38C56.88 75.38 56.98 75.36 57.11 75.34C56.13 73.76 55.19 72.22 54.22 70.66L54.24 70.67ZM60.58 66.28C60.58 66.28 60.64 66.27 60.67 66.26C60.73 66.37 60.79 66.48 60.85 66.59C62.22 69.21 63.62 71.82 64.94 74.47C65.3 75.19 65.69 75.51 66.51 75.41C67.24 75.33 67.99 75.39 68.76 75.39V63.88H66.45V72.53C66.32 72.45 66.25 72.34 66.19 72.24C64.8 69.56 63.41 66.87 62.03 64.18C61.91 63.94 61.78 63.84 61.51 63.85C60.76 63.87 60.02 63.85 59.27 63.85C58.94 63.85 58.61 63.85 58.28 63.85V75.36H60.59V66.27L60.58 66.28ZM19.48 63.88C17.31 63.88 15.19 63.82 13.07 63.9C11.46 63.96 10.49 65.02 10.28 66.68C10.05 68.5 10.98 69.94 12.67 70.33C13.03 70.41 13.41 70.43 13.78 70.44C14.65 70.46 15.53 70.44 16.41 70.44C17.21 70.45 17.73 70.9 17.82 71.64C17.95 72.62 17.35 73.31 16.33 73.31C14.57 73.32 12.8 73.31 11.04 73.31C10.89 73.31 10.74 73.31 10.6 73.31V75.36C10.71 75.36 10.78 75.38 10.86 75.38C12.79 75.38 14.72 75.4 16.65 75.38C19.35 75.35 21 72.69 19.86 70.23C19.26 68.94 18.16 68.42 16.8 68.38C15.77 68.35 14.74 68.38 13.71 68.35C13.05 68.33 12.68 67.93 12.63 67.27C12.55 66.36 13.04 65.84 13.97 65.84C15.66 65.84 17.34 65.84 19.03 65.84C19.18 65.84 19.33 65.83 19.48 65.82V63.87V63.88ZM25.86 66.62C25.86 66.62 25.92 66.62 25.95 66.61C26.06 66.92 26.18 67.23 26.29 67.54C27.19 70.05 28.08 72.55 28.98 75.06C29.03 75.19 29.14 75.38 29.23 75.38C30 75.41 30.76 75.39 31.56 75.39C31.53 75.27 31.52 75.2 31.49 75.13C30.13 71.47 28.77 67.8 27.41 64.13C27.33 63.9 27.2 63.85 26.98 63.85C26.34 63.86 25.69 63.87 25.05 63.85C24.74 63.84 24.61 63.94 24.5 64.23C23.13 67.81 21.75 71.38 20.37 74.96C20.32 75.09 20.28 75.22 20.22 75.39C20.93 75.39 21.58 75.37 22.23 75.39C22.52 75.4 22.63 75.29 22.72 75.03C23.05 74.1 23.4 73.17 23.74 72.24C24.44 70.36 25.14 68.48 25.84 66.6L25.86 66.62ZM35.93 65.83H39.48V63.9H30.01V65.86H33.6V75.37H35.93V65.83V65.83Z" fill="white"/>
</g>
<defs>
<clipPath id="clip0_13_6865">
<rect width="61.86" height="75" fill="white" transform="translate(9 2)"/>
</clipPath>
</defs>
</svg>
