<svg width="80" height="80" viewBox="0 0 80 80" fill="none" xmlns="http://www.w3.org/2000/svg">
<g clip-path="url(#clip0_13_6878)">
<path d="M56.275 10.1594C57.2688 22.0937 57.05 63.1 56.3125 68.3C56.2625 68.6906 56.2563 69.3656 56.6656 69.0469C66.1086 61.1152 73.4385 50.9668 78 39.5094C73.4156 27.9969 66.3688 18.4469 57.3625 10.5781C56.8406 10.1187 56.5281 9.86249 56.3813 9.86249C56.2875 9.86249 56.2563 9.95624 56.275 10.1594M3.00002 39.5062C3.00002 58.9281 18.825 74.6687 38.1406 74.6687C43.1781 74.6687 47.9469 73.575 51.6781 71.9812C52.7406 71.525 52.6781 70.8031 52.6938 70.4875L52.6969 55.0344C52.6969 54.2719 52.0969 54.6 51.7906 54.7625C44.6281 58.6 38.1219 58.3562 38.1219 58.3562C27.4469 58.3562 19.2719 49.6156 19.2719 39.5125C19.2719 29.1812 27.6188 20.5906 38.175 20.5906C43.7625 20.5906 48.1438 22.3406 51.8781 24.2281C52.2094 24.3969 52.6781 24.3594 52.7 23.8625L52.6938 9.08436C52.6938 9.08436 52.7656 7.42811 51.3813 6.88124C46.5969 4.99999 42.325 4.33124 38.1875 4.33124C33.5659 4.32507 28.9886 5.2306 24.7174 6.99597C20.4463 8.76134 16.5654 11.3519 13.2969 14.6192C10.0283 17.8866 7.43642 21.7666 5.66953 26.0371C3.90265 30.3076 2.99549 34.8847 3.00002 39.5062V39.5062Z" fill="white"/>
</g>
<defs>
<clipPath id="clip0_13_6878">
<rect width="75" height="75" fill="white" transform="translate(3 2)"/>
</clipPath>
</defs>
</svg>
