<svg width="80" height="80" viewBox="0 0 80 80" fill="none" xmlns="http://www.w3.org/2000/svg">
<g clip-path="url(#clip0_13_6881)">
<path d="M43.2959 58.928C43.3439 58.8 43.3919 58.672 43.4559 58.56C43.9359 57.664 44.4159 56.768 44.9119 55.872C45.0079 55.68 45.0079 55.552 44.8959 55.376C43.9519 53.792 43.0239 52.192 42.0959 50.592C42.0479 50.496 41.9999 50.416 41.9199 50.272C42.4319 50.272 42.8959 50.256 43.3599 50.288C43.4399 50.288 43.5199 50.4 43.5679 50.496C44.2399 51.632 44.9119 52.784 45.5839 53.936C45.6319 54.032 45.6959 54.112 45.7759 54.24C45.8399 54.112 45.9039 54.032 45.9519 53.952C46.5599 52.832 47.1679 51.712 47.7599 50.576C47.8719 50.352 47.9999 50.272 48.2559 50.288C48.6239 50.32 49.0079 50.288 49.4239 50.288C49.3599 50.416 49.3119 50.512 49.2639 50.608C47.8239 53.28 46.3839 55.952 44.9599 58.64C44.8479 58.864 44.7039 58.944 44.4639 58.928C44.0959 58.912 43.7439 58.944 43.3759 58.96C43.3279 58.928 43.3119 58.928 43.2959 58.928Z" fill="white"/>
<path d="M47.2959 22.304C47.1839 21.904 47.2479 21.776 47.6159 21.824C48.1599 21.904 48.7039 21.984 49.2159 22.176C50.3039 22.608 51.3599 23.12 52.4319 23.6C52.5119 23.632 52.5919 23.68 52.6719 23.712C52.6239 23.264 52.6879 23.2 53.1359 23.312C54.0159 23.536 54.7999 23.968 55.5679 24.432C56.9439 25.264 58.1919 26.256 59.1679 27.552C61.1039 30.096 60.9439 32.752 58.7199 35.04C57.2159 36.592 55.3599 37.632 53.2959 38.176C50.3679 38.944 47.4079 39.584 44.4639 40.272C44.2559 40.32 44.0319 40.368 43.8239 40.432C43.5039 40.544 43.4559 40.72 43.7279 40.944C43.9519 41.152 44.2079 41.312 44.4159 41.52C44.6559 41.76 44.8959 42 45.0719 42.272C45.3279 42.656 45.2799 43.008 44.9279 43.296C44.6079 43.568 44.2559 43.824 43.8719 43.984C43.1039 44.32 42.3999 44.736 41.8079 45.328C40.8799 46.24 39.2479 46.224 38.3359 45.36C37.6959 44.752 36.9599 44.304 36.1439 43.952C35.7919 43.808 35.4879 43.568 35.1839 43.328C34.8159 43.008 34.7519 42.64 35.0399 42.256C35.2959 41.904 35.6319 41.616 35.9519 41.312C36.0959 41.184 36.2559 41.072 36.3999 40.944C36.6239 40.72 36.5919 40.544 36.2879 40.464C35.8719 40.336 35.4399 40.272 35.0239 40.16C32.2719 39.504 29.5199 38.912 26.7839 38.192C24.6079 37.616 22.6879 36.528 21.1519 34.848C20.1439 33.744 19.5039 32.464 19.5679 30.912C19.6159 29.68 20.1279 28.608 20.8479 27.632C22.1439 25.92 23.8239 24.704 25.7439 23.776C26.1439 23.584 26.5599 23.44 26.9759 23.312C27.3599 23.2 27.4399 23.312 27.3599 23.744C27.4719 23.68 27.5679 23.632 27.6479 23.584C28.8479 22.912 30.1119 22.368 31.4399 21.984C31.7439 21.888 32.0799 21.856 32.3999 21.824C32.7839 21.808 32.8479 21.904 32.7519 22.304C33.0239 22.192 33.2639 22.064 33.5199 21.968C34.3839 21.68 35.2639 21.392 36.1439 21.12C36.3359 21.056 36.5599 21.088 36.7679 21.088C36.8319 21.088 36.9279 21.136 36.9439 21.184C36.9599 21.232 36.9119 21.328 36.8639 21.376C36.7039 21.504 36.5439 21.632 36.3839 21.744C34.8959 22.672 33.4719 23.68 32.2559 24.96C31.1999 26.08 30.2719 27.296 29.6639 28.72C28.5759 31.248 29.0239 33.552 30.7359 35.632C31.7119 36.816 32.9919 37.584 34.4639 37.984C35.6959 38.32 36.9759 38.56 38.2239 38.864C38.3839 38.896 38.5599 38.944 38.7199 39.008C39.1519 39.2 39.4559 39.872 38.8639 40.288C38.5599 40.512 38.2719 40.736 37.9839 40.976C37.0559 41.776 37.1359 42.96 38.1919 43.6C39.4239 44.336 40.6879 44.336 41.9039 43.6C42.9439 42.976 43.0239 41.792 42.1119 40.992C41.8079 40.736 41.4879 40.512 41.1839 40.256C40.7519 39.888 40.7999 39.328 41.2959 39.04C41.4719 38.944 41.6639 38.88 41.8559 38.848C43.4239 38.576 44.9599 38.256 46.4639 37.68C49.0719 36.672 50.8799 34.192 50.9759 31.408C51.0239 30.112 50.5919 28.944 49.9679 27.84C48.7519 25.664 47.0079 23.968 44.9599 22.576C44.5279 22.288 44.0959 22.016 43.6479 21.728C43.5359 21.648 43.4079 21.584 43.3279 21.488C43.2319 21.392 43.1679 21.264 43.0879 21.152C43.2159 21.12 43.3599 21.04 43.4879 21.056C43.8879 21.104 44.3039 21.152 44.6719 21.28C45.4719 21.552 46.2559 21.872 47.0399 22.176C47.0879 22.224 47.1679 22.256 47.2959 22.304ZM47.6639 22.368C47.6479 22.4 47.6319 22.448 47.6159 22.48C47.7119 22.528 47.8239 22.592 47.9199 22.64C49.2479 23.312 50.4959 24.096 51.6479 25.024C52.8959 26.032 53.9839 27.168 54.6879 28.64C55.5359 30.416 55.4559 32.128 54.3199 33.776C53.7759 34.544 53.1519 35.232 52.4319 35.824C51.1039 36.928 49.5519 37.632 47.9679 38.24C47.8719 38.272 47.7599 38.32 47.6639 38.352C47.7759 38.384 47.8719 38.368 47.9519 38.336C48.5599 38.112 49.1839 37.904 49.7919 37.664C51.3599 37.008 52.8639 36.256 54.1439 35.088C55.5679 33.776 56.3039 32.192 55.9839 30.208C55.7759 28.928 55.1839 27.824 54.3839 26.832C53.1999 25.36 51.6959 24.32 50.0479 23.456C49.2639 23.056 48.4639 22.72 47.6639 22.368ZM32.3199 38.4C32.3199 38.384 32.3199 38.368 32.3359 38.352C31.7439 38.112 31.1519 37.872 30.5599 37.616C28.7359 36.816 27.1519 35.712 25.9199 34.096C24.5599 32.304 24.3839 30.416 25.4239 28.432C25.9199 27.472 26.5919 26.64 27.3599 25.904C28.7519 24.56 30.3679 23.52 32.0959 22.64C32.1919 22.592 32.3039 22.528 32.4479 22.448C32.3679 22.448 32.3359 22.432 32.3199 22.448C32.2399 22.464 32.1759 22.496 32.0959 22.528C30.3039 23.168 28.6719 24.096 27.1839 25.28C26.1119 26.144 25.2159 27.152 24.6079 28.4C23.9039 29.824 23.6799 31.296 24.2399 32.816C24.6719 34 25.5039 34.896 26.4959 35.648C28.1439 36.88 29.9999 37.68 31.9359 38.32C32.0639 38.32 32.1919 38.352 32.3199 38.4ZM26.7839 24C26.7199 24.032 26.6079 24.08 26.4959 24.144C25.9199 24.512 25.3279 24.864 24.7679 25.248C23.7759 25.92 22.8479 26.688 22.0959 27.648C20.3999 29.84 20.4319 32.336 22.1759 34.384C22.9919 35.344 24.0159 36.048 25.1519 36.576C25.8559 36.896 26.5759 37.168 27.2959 37.456C27.3119 37.424 27.3119 37.408 27.3279 37.376C26.8799 37.168 26.4159 36.976 25.9839 36.752C24.6559 36.064 23.4399 35.232 22.5599 33.984C21.3439 32.24 21.1519 30.416 22.2719 28.528C22.8159 27.616 23.4719 26.8 24.2559 26.096C25.0719 25.36 25.9679 24.672 26.7839 24ZM52.7359 37.44C52.7199 37.44 52.7199 37.424 52.7039 37.424C53.0239 37.312 53.3599 37.216 53.6799 37.088C55.1999 36.512 56.6239 35.744 57.7279 34.512C58.8319 33.296 59.3599 31.872 59.1039 30.224C58.9439 29.12 58.3679 28.192 57.6639 27.344C56.5759 26.064 55.1679 25.152 53.7439 24.288C53.5519 24.176 53.3599 24.08 53.1679 23.984C53.5199 24.304 53.9199 24.576 54.2879 24.864C55.7119 25.952 56.9759 27.184 57.8559 28.768C58.7199 30.32 58.6399 31.872 57.8079 33.424C57.2639 34.416 56.4959 35.216 55.5679 35.824C54.6559 36.384 53.6799 36.896 52.7359 37.44Z" fill="white"/>
<path d="M61.6479 51.792C61.6479 54.064 61.6479 56.336 61.6479 58.624C61.0719 58.624 60.5279 58.64 59.9679 58.608C59.8879 58.608 59.7919 58.48 59.7439 58.4C58.8959 56.944 58.0479 55.488 57.1999 54.032C57.1199 53.888 57.0239 53.744 56.8799 53.6C56.8799 55.264 56.8799 56.912 56.8799 58.592C56.4159 58.592 55.9999 58.592 55.5679 58.592C55.5679 56.32 55.5679 54.064 55.5679 51.76C56.1599 51.76 56.7519 51.744 57.3279 51.776C57.4079 51.776 57.5039 51.904 57.5679 51.984C58.4159 53.424 59.2479 54.864 60.0799 56.288C60.1439 56.4 60.2079 56.512 60.2879 56.624C60.3199 56.624 60.3359 56.608 60.3679 56.608C60.3679 55.008 60.3679 53.392 60.3679 51.776C60.7839 51.792 61.1999 51.792 61.6479 51.792Z" fill="white"/>
<path d="M30.48 53.616C30.48 55.264 30.48 56.912 30.48 58.592C30.032 58.592 29.616 58.592 29.168 58.592C29.168 56.32 29.168 54.064 29.168 51.776C29.76 51.776 30.352 51.76 30.928 51.792C31.008 51.792 31.104 51.92 31.152 52C32.016 53.472 32.864 54.944 33.712 56.416C33.76 56.496 33.808 56.576 33.92 56.64C33.92 55.04 33.92 53.424 33.92 51.808C34.368 51.808 34.8 51.808 35.232 51.808C35.232 54.064 35.232 56.336 35.232 58.64C34.672 58.64 34.112 58.656 33.552 58.624C33.472 58.624 33.376 58.496 33.328 58.4C32.448 56.896 31.568 55.376 30.688 53.872C30.64 53.792 30.576 53.696 30.528 53.616C30.512 53.6 30.496 53.616 30.48 53.616Z" fill="white"/>
<path d="M11.2958 57.168C12.0798 57.472 12.8318 57.68 13.5998 57.6C13.9518 57.568 14.3038 57.504 14.6398 57.392C15.0398 57.264 15.3118 56.976 15.3598 56.544C15.4078 56.096 15.2158 55.744 14.8478 55.52C14.5118 55.312 14.1438 55.184 13.7918 55.024C13.3438 54.816 12.8638 54.656 12.4158 54.416C11.5518 53.968 11.1038 53.248 11.1998 52.256C11.2958 51.312 11.8398 50.688 12.7358 50.384C13.9198 49.968 15.1038 50.064 16.2878 50.368C16.7358 50.48 16.7358 50.48 16.7358 50.96C16.7358 51.232 16.7358 51.488 16.7358 51.808C16.6078 51.76 16.5278 51.728 16.4478 51.696C15.6158 51.36 14.7678 51.2 13.8878 51.392C13.2638 51.536 12.9438 51.936 13.0078 52.496C13.0398 52.864 13.2478 53.136 13.5518 53.296C13.9198 53.504 14.3198 53.68 14.7038 53.872C15.2158 54.128 15.7438 54.336 16.2078 54.656C17.4398 55.52 17.4238 57.28 16.2238 58.176C15.6318 58.624 14.9278 58.8 14.2078 58.864C13.3278 58.944 12.4478 58.88 11.5838 58.624C11.3758 58.56 11.2958 58.448 11.3118 58.24C11.2958 57.888 11.2958 57.552 11.2958 57.168Z" fill="white"/>
<path d="M55.1356 55.264C55.1196 57.408 53.5836 58.88 51.4396 58.864C49.2956 58.848 47.7756 57.328 47.8076 55.2C47.8236 53.136 49.4236 51.6 51.5196 51.616C53.5996 51.632 55.1676 53.2 55.1356 55.264ZM53.6476 55.344C53.5676 54.864 53.5356 54.464 53.4236 54.096C53.1676 53.232 52.4156 52.704 51.5196 52.688C50.6236 52.672 49.8556 53.168 49.5676 54.016C49.2636 54.864 49.2796 55.728 49.5996 56.56C49.9036 57.328 50.4956 57.728 51.3116 57.776C52.1756 57.824 52.9116 57.552 53.2796 56.72C53.4716 56.272 53.5356 55.76 53.6476 55.344Z" fill="white"/>
<path d="M42.1599 53.088C41.3439 52.752 40.5439 52.64 39.7279 52.704C37.8239 52.848 36.7359 54.672 37.5359 56.432C37.9679 57.36 38.7519 57.728 39.7279 57.776C40.0639 57.792 40.4159 57.728 40.7519 57.68C40.9119 57.664 40.9759 57.568 40.9759 57.392C40.9759 56.944 40.9599 56.512 40.9759 56.064C40.9759 55.872 40.8959 55.824 40.7199 55.824C40.2559 55.824 39.7759 55.824 39.2959 55.824C39.2959 55.488 39.2959 55.184 39.2959 54.864C40.3359 54.864 41.3439 54.864 42.3999 54.864C42.3999 54.944 42.4159 55.024 42.4159 55.104C42.4159 56.096 42.4159 57.104 42.4159 58.096C42.4159 58.24 42.4159 58.352 42.2399 58.416C40.8479 58.896 39.4399 59.056 38.0319 58.56C36.1919 57.92 35.3119 55.92 35.9839 54.032C36.4959 52.608 37.5999 51.968 39.0079 51.728C39.9839 51.552 40.9599 51.664 41.9199 51.904C42.0959 51.952 42.1759 52.032 42.1599 52.224C42.1439 52.496 42.1599 52.768 42.1599 53.088Z" fill="white"/>
<path d="M68.5438 53.088C67.7118 52.752 66.8958 52.624 66.0478 52.704C65.2638 52.768 64.5758 53.024 64.1438 53.712C63.6478 54.496 63.5358 55.328 63.8398 56.192C64.2078 57.248 65.0398 57.696 66.1118 57.744C66.4478 57.76 66.7998 57.696 67.1358 57.648C67.2958 57.632 67.3598 57.536 67.3598 57.36C67.3438 56.912 67.3438 56.48 67.3598 56.032C67.3598 55.84 67.2798 55.792 67.1038 55.792C66.7038 55.808 66.3038 55.792 65.8878 55.792C65.7118 55.792 65.6478 55.728 65.6478 55.552C65.6638 55.312 65.6478 55.072 65.6478 54.816C66.7038 54.816 67.7278 54.816 68.7678 54.816C68.7838 54.896 68.7998 54.976 68.7998 55.04C68.7998 56.048 68.7998 57.056 68.7838 58.064C68.7838 58.16 68.7038 58.32 68.6398 58.352C67.2798 58.848 65.9038 58.976 64.5118 58.544C62.3518 57.872 61.6318 55.472 62.5278 53.6C63.1038 52.4 64.1598 51.888 65.3918 51.664C66.3678 51.488 67.3438 51.6 68.3038 51.84C68.4798 51.888 68.5598 51.952 68.5438 52.16C68.5438 52.496 68.5438 52.768 68.5438 53.088Z" fill="white"/>
<path d="M21.7759 58.624C21.8079 58.512 21.8399 58.432 21.8719 58.352C22.6879 56.24 23.5039 54.144 24.3039 52.032C24.3839 51.84 24.4639 51.776 24.6719 51.776C25.1359 51.792 25.6159 51.792 26.0799 51.776C26.2399 51.776 26.3199 51.824 26.3839 51.968C27.2159 54.128 28.0479 56.288 28.8799 58.448C28.8959 58.496 28.9119 58.544 28.9279 58.624C28.4799 58.624 28.0479 58.624 27.6159 58.624C27.5519 58.624 27.4559 58.528 27.4239 58.464C27.2639 58.08 27.1199 57.696 26.9759 57.312C26.9279 57.168 26.8319 57.104 26.6719 57.104C25.7919 57.104 24.8959 57.104 24.0159 57.104C23.8399 57.104 23.7599 57.168 23.7119 57.328C23.5839 57.696 23.4239 58.064 23.2959 58.432C23.2479 58.576 23.1679 58.64 23.0079 58.64C22.6079 58.624 22.2079 58.624 21.7759 58.624ZM25.3919 53.184C25.3599 53.184 25.3439 53.184 25.3119 53.168C24.9439 54.112 24.5919 55.04 24.2239 56.016C24.9919 56.016 25.7119 56.016 26.4959 56.016C26.1119 55.056 25.7439 54.128 25.3919 53.184Z" fill="white"/>
<path d="M17.2799 57.424C17.7919 57.536 18.2719 57.68 18.7679 57.728C19.0879 57.76 19.4239 57.712 19.7279 57.632C20.0959 57.536 20.3839 57.312 20.4319 56.912C20.4799 56.528 20.2719 56.24 19.9519 56.064C19.5359 55.84 19.0719 55.664 18.6559 55.44C18.3519 55.28 18.0479 55.12 17.7919 54.912C16.8159 54.112 16.9599 52.576 18.0799 52C19.2159 51.424 20.4159 51.552 21.5839 51.936C21.6479 51.952 21.7119 52.064 21.7119 52.128C21.7279 52.464 21.7119 52.8 21.7119 53.184C21.5999 53.136 21.5199 53.088 21.4239 53.056C20.9119 52.816 20.3679 52.688 19.8079 52.736C19.6319 52.752 19.4559 52.784 19.3119 52.848C18.7199 53.072 18.5919 53.728 19.0719 54.128C19.3439 54.352 19.6799 54.512 19.9999 54.688C20.3679 54.88 20.7679 55.04 21.1359 55.248C22.5439 56.048 22.1279 57.744 21.1039 58.352C20.5279 58.688 19.9039 58.832 19.2639 58.816C18.6879 58.8 18.0959 58.704 17.5199 58.624C17.3439 58.608 17.2639 58.512 17.2639 58.304C17.2959 58.016 17.2799 57.712 17.2799 57.424Z" fill="white"/>
</g>
<defs>
<clipPath id="clip0_13_6881">
<rect width="80" height="80" fill="white"/>
</clipPath>
</defs>
</svg>
