<svg width="80" height="80" viewBox="0 0 80 80" fill="none" xmlns="http://www.w3.org/2000/svg">
<g clip-path="url(#clip0_13_6899)">
<path d="M33.6822 29.0942C34.1013 27.7273 35.1621 28.4251 35.1621 28.4251C35.1621 28.4251 37.9119 30.5169 45.4545 35.3118C52.9972 40.1067 62.3983 33.4524 62.3983 33.4524L40.0677 17.5989C33.8461 23.9976 26.1917 28.8277 17.7353 31.6911L17.7704 31.7055L46.3171 51.7046C45.898 53.0715 44.8363 52.3746 44.8363 52.3746C44.8363 52.3746 42.0874 50.2855 34.5438 45.4861C27.0003 40.6866 17.6001 47.3464 17.6001 47.3464L39.9325 63.1989C46.154 56.8001 53.8084 51.97 62.2649 49.1068L62.2289 49.0924L33.6822 29.0942Z" fill="white"/>
</g>
<defs>
<clipPath id="clip0_13_6899">
<rect width="44.8" height="45.6" fill="white" transform="translate(17.6001 17.6)"/>
</clipPath>
</defs>
</svg>
