<svg width="80" height="80" viewBox="0 0 80 80" fill="none" xmlns="http://www.w3.org/2000/svg">
<g clip-path="url(#clip0_13_6918)">
<path fill-rule="evenodd" clip-rule="evenodd" d="M0.597168 27.6383C0.597168 27.6383 0.809665 26.919 1.55257 27.1431L39.7766 38.6777L78.2518 27.0946C78.2518 27.0946 78.9715 26.8655 79.2155 27.615C77.9381 28.0462 39.765 41.1779 39.765 41.1779L0.597168 27.6383Z" fill="white"/>
<path fill-rule="evenodd" clip-rule="evenodd" d="M49.3167 35.8007C47.3818 31.8446 43.258 29.156 38.5578 29.156C34.0995 29.156 30.2343 31.5703 28.1948 35.1985L28.9427 36.2672C30.7074 32.7452 34.3502 30.3277 38.5578 30.3277C43.0783 30.3277 46.9983 33.0739 48.5862 37.0267L49.3167 35.8007V35.8007Z" fill="white"/>
<path fill-rule="evenodd" clip-rule="evenodd" d="M48.0223 41.6427C47.7214 46.6081 43.5989 50.5418 38.5579 50.5418C33.321 50.5418 29.0756 46.2965 29.0756 41.0592C29.0756 40.8956 29.0798 40.7329 29.0881 40.5715L27.9501 39.1919C27.8407 39.8136 27.7858 40.4437 27.7861 41.0749C27.7861 47.024 32.6088 51.8471 38.5579 51.8471C44.5066 51.8471 49.3296 47.024 49.3296 41.0749C49.3296 40.7031 49.3101 40.3358 49.2736 39.9738L48.0223 41.6427Z" fill="white"/>
<path fill-rule="evenodd" clip-rule="evenodd" d="M31.3092 44.0868C31.3092 44.0868 31.0415 43.3086 31.9064 42.9467C32.7713 42.5852 33.1959 42.4279 33.1959 42.4279L39.7642 41.1779L31.3092 44.0868Z" fill="white"/>
<path fill-rule="evenodd" clip-rule="evenodd" d="M49.3118 40.0419L49.2835 40.0826C49.3126 40.4042 49.3296 40.73 49.3296 41.0596C49.3296 46.9999 44.5136 51.816 38.5732 51.816C32.6328 51.816 27.8172 46.9999 27.8172 41.0596C27.8172 40.4627 27.8683 39.8771 27.9616 39.3065L26.7224 39.6833C26.667 40.148 26.6388 40.6156 26.6377 41.0836C26.6377 47.6756 31.9812 53.0191 38.5732 53.0191C45.1652 53.0191 50.5087 47.6756 50.5087 41.0836C50.5087 40.9205 50.5029 40.7595 50.4967 40.598L49.3118 40.0419V40.0419Z" fill="white"/>
<path fill-rule="evenodd" clip-rule="evenodd" d="M79.2423 27.6084L39.764 41.1779L0.57661 27.6353C0.57661 27.6353 0.483228 27.8586 0.481568 28.0018C0.479493 28.145 0.498169 28.4895 0.984172 28.6945C1.47018 28.8999 26.7328 39.6912 26.7328 39.6912L27.9654 39.3156L29.1084 40.6782L33.2119 42.4308L39.7312 41.1895L31.2965 44.0885C31.2965 44.0885 31.4002 44.5683 32.0979 44.6181C32.7956 44.6683 39.8557 45.2431 39.8557 45.2431L48.009 41.7668L49.2857 40.0685L50.4863 40.6819C50.4863 40.6819 78.2848 28.9186 78.9032 28.6675C79.522 28.4164 79.2423 27.6084 79.2423 27.6084V27.6084Z" fill="white"/>
<path fill-rule="evenodd" clip-rule="evenodd" d="M30.549 35.8796C32.2449 33.2644 35.1899 31.5346 38.5384 31.5346C42.1475 31.5346 45.2881 33.5446 46.9009 36.5063L48.5864 37.03C46.9806 33.0851 43.1075 30.304 38.5857 30.304C34.3574 30.304 30.6968 32.7353 28.9263 36.2759L30.549 35.8796Z" fill="white"/>
</g>
<defs>
<clipPath id="clip0_13_6918">
<rect width="80" height="80" fill="white"/>
</clipPath>
</defs>
</svg>
