<svg width="32" height="32" viewBox="0 0 32 32" fill="none" xmlns="http://www.w3.org/2000/svg">
<path d="M20.6665 19.3333H4.66647C4.3598 19.3333 4.0798 19.2 3.89313 18.96C3.70647 18.7333 3.62648 18.4134 3.69314 18.12L4.82646 12.72C5.1998 10.96 5.9998 9.16 9.1598 9.16H16.1865C19.3465 9.16 20.1465 10.96 20.5198 12.72L21.6531 18.12C21.7198 18.4134 21.6398 18.72 21.4531 18.96C21.2531 19.2 20.9731 19.3333 20.6665 19.3333ZM5.89313 17.3333H19.4265L18.5465 13.1333C18.2665 11.7866 17.9331 11.16 16.1731 11.16H9.14647C7.38647 11.16 7.05314 11.7866 6.77314 13.1333L5.89313 17.3333Z" fill="#FF5C20"/>
<path d="M20.6265 30.3333H18.7465C16.9465 30.3333 16.5731 29.2266 16.3865 28.6266L16.1865 28.0267C15.9465 27.3467 15.9465 27.3467 15.2398 27.3467H10.1198C9.39979 27.3467 9.38647 27.3734 9.17313 28.0267L8.97312 28.6266C8.77312 29.2266 8.39979 30.3467 6.59979 30.3467H4.71979C3.85312 30.3467 3.03979 29.9867 2.45312 29.3467C1.89312 28.7334 1.61313 27.8933 1.69313 27.0667L2.25313 20.9733C2.42646 19.08 3.0398 17.3333 6.29313 17.3333H19.0531C22.3065 17.3333 22.9198 19.08 23.0931 20.9733L23.6531 27.0667C23.7331 27.8933 23.4531 28.72 22.8931 29.3467C22.3065 29.9734 21.4931 30.3333 20.6265 30.3333ZM18.3998 28.3067C18.4265 28.3067 18.5331 28.3333 18.7465 28.3333H20.6265C20.9331 28.3333 21.2131 28.2133 21.4131 27.9867C21.5998 27.7733 21.6931 27.52 21.6665 27.24L21.1065 21.1467C20.9865 19.8933 20.9331 19.32 19.0531 19.32H6.29313C4.41313 19.32 4.35978 19.8933 4.23978 21.1467L3.67979 27.24C3.65312 27.52 3.74646 27.7867 3.93312 27.9867C4.13312 28.2133 4.41312 28.3333 4.71979 28.3333H6.59979C6.89312 28.3333 6.97313 28.2933 6.98647 28.2933C6.98647 28.28 7.03979 28.12 7.07979 28L7.2798 27.4C7.54647 26.5867 7.9598 25.3467 10.1331 25.3467H15.2531C17.3998 25.3467 17.7998 26.52 18.0931 27.3866L18.3065 28C18.3198 28.1067 18.3598 28.2533 18.3998 28.3067Z" fill="#FF5C20"/>
<path d="M4.66667 16.3333H3.66667C3.12 16.3333 2.66667 15.88 2.66667 15.3333C2.66667 14.7867 3.12 14.3333 3.66667 14.3333H4.66667C5.21333 14.3333 5.66667 14.7867 5.66667 15.3333C5.66667 15.88 5.21333 16.3333 4.66667 16.3333Z" fill="#FF5C20"/>
<path d="M21.6667 16.3333H20.6667C20.12 16.3333 19.6667 15.88 19.6667 15.3333C19.6667 14.7867 20.12 14.3333 20.6667 14.3333H21.6667C22.2133 14.3333 22.6667 14.7867 22.6667 15.3333C22.6667 15.88 22.2133 16.3333 21.6667 16.3333Z" fill="#FF5C20"/>
<path d="M9.66667 23.3333H6.66667C6.12 23.3333 5.66667 22.88 5.66667 22.3333C5.66667 21.7867 6.12 21.3333 6.66667 21.3333H9.66667C10.2133 21.3333 10.6667 21.7867 10.6667 22.3333C10.6667 22.88 10.2133 23.3333 9.66667 23.3333Z" fill="#FF5C20"/>
<path d="M18.6667 23.3333H15.6667C15.12 23.3333 14.6667 22.88 14.6667 22.3333C14.6667 21.7867 15.12 21.3333 15.6667 21.3333H18.6667C19.2133 21.3333 19.6667 21.7867 19.6667 22.3333C19.6667 22.88 19.2133 23.3333 18.6667 23.3333Z" fill="#FF5C20"/>
<path d="M24.9468 12.6533C24.8135 12.6533 24.6802 12.6267 24.5468 12.5733C24.0402 12.3467 23.8135 11.76 24.0268 11.2534C24.2802 10.68 24.1335 9.84 23.6668 9.14666C23.2002 8.44 22.4935 7.97335 21.8402 8.00002H21.8268C21.2802 8.00002 20.8402 7.56003 20.8268 7.01336C20.8268 6.45336 21.2668 6.01335 21.8135 6.00002C23.1868 5.97335 24.4802 6.76004 25.3202 8.02671C26.1735 9.30671 26.3735 10.8401 25.8535 12.0401C25.7068 12.4267 25.3335 12.6533 24.9468 12.6533Z" fill="#FF5C20"/>
<path d="M29.0935 13.9734C29.0002 13.9734 28.9202 13.9601 28.8269 13.9335C28.2935 13.7868 27.9869 13.2401 28.1335 12.7068C28.6402 10.8935 28.2135 8.73344 27.0002 6.9201C25.7869 5.10677 23.9469 3.89343 22.0669 3.66677C21.5202 3.6001 21.1335 3.10675 21.2002 2.56008C21.2669 2.01341 21.7735 1.61346 22.3069 1.69346C24.7469 1.98679 27.1202 3.53343 28.6535 5.82676C30.1869 8.12009 30.7069 10.8935 30.0535 13.2668C29.9335 13.6801 29.5335 13.9734 29.0935 13.9734Z" fill="#FF5C20"/>
</svg>
