<svg width="32" height="32" viewBox="0 0 32 32" fill="none" xmlns="http://www.w3.org/2000/svg">
<path d="M23.3333 30.3333H4.66667C4.12001 30.3333 3.66667 29.88 3.66667 29.3333V6.66666C3.66667 3.67999 5.68001 1.66666 8.66667 1.66666H19.3333C22.32 1.66666 24.3333 3.67999 24.3333 6.66666V29.3333C24.3333 29.88 23.88 30.3333 23.3333 30.3333ZM5.66667 28.3333H22.3333V6.66666C22.3333 4.78666 21.2133 3.66666 19.3333 3.66666H8.66667C6.78667 3.66666 5.66667 4.78666 5.66667 6.66666V28.3333Z" fill="#FF5C20"/>
<path d="M25.3333 30.3333H2.66667C2.12001 30.3333 1.66667 29.88 1.66667 29.3333C1.66667 28.7867 2.12001 28.3333 2.66667 28.3333H25.3333C25.88 28.3333 26.3333 28.7867 26.3333 29.3333C26.3333 29.88 25.88 30.3333 25.3333 30.3333Z" fill="#FF5C20"/>
<path d="M16.8136 14.3333H11.1736C9.00031 14.3333 7.65364 12.9866 7.65364 10.8133V9.17332C7.65364 6.99999 9.00031 5.65332 11.1736 5.65332H16.8136C18.987 5.65332 20.3336 6.99999 20.3336 9.17332V10.8133C20.3336 12.9866 18.987 14.3333 16.8136 14.3333ZM11.187 7.66665C10.107 7.66665 9.66697 8.10665 9.66697 9.18665V10.8266C9.66697 11.9066 10.107 12.3466 11.187 12.3466H16.827C17.907 12.3466 18.347 11.9066 18.347 10.8266V9.18665C18.347 8.10665 17.907 7.66665 16.827 7.66665H11.187Z" fill="#FF5C20"/>
<path d="M12.6667 18.3333H8.66667C8.12001 18.3333 7.66667 17.88 7.66667 17.3333C7.66667 16.7867 8.12001 16.3333 8.66667 16.3333H12.6667C13.2133 16.3333 13.6667 16.7867 13.6667 17.3333C13.6667 17.88 13.2133 18.3333 12.6667 18.3333Z" fill="#FF5C20"/>
<path d="M23.3333 22.3466C22.7867 22.3466 22.3333 21.9066 22.3333 21.3466C22.3333 20.8 22.7733 20.3466 23.3333 20.3466L28.3333 20.3333V13.9467L26.2133 12.8933C25.72 12.64 25.52 12.04 25.76 11.5467C26.0133 11.0533 26.6133 10.8533 27.1067 11.0933L29.7733 12.4267C30.1067 12.6 30.32 12.9467 30.32 13.32V21.32C30.32 21.8667 29.88 22.32 29.32 22.32L23.3333 22.3466Z" fill="#FF5C20"/>
</svg>
